%TF.GenerationSoftware,KiCad,Pcbnew,8.99.0-417-ga763d613e5*%
%TF.CreationDate,2024-04-11T17:26:30-04:00*%
%TF.ProjectId,fujiflex,66756a69-666c-4657-982e-6b696361645f,rev?*%
%TF.SameCoordinates,Original*%
%TF.FileFunction,Legend,Bot*%
%TF.FilePolarity,Positive*%
%FSLAX46Y46*%
G04 Gerber Fmt 4.6, Leading zero omitted, Abs format (unit mm)*
G04 Created by KiCad (PCBNEW 8.99.0-417-ga763d613e5) date 2024-04-11 17:26:30*
%MOMM*%
%LPD*%
G01*
G04 APERTURE LIST*
%ADD10C,0.125000*%
%ADD11C,0.150000*%
%ADD12C,0.200000*%
%ADD13C,0.259000*%
G04 APERTURE END LIST*
D10*
G36*
X157914116Y-93084069D02*
G01*
X157907665Y-93074276D01*
X157898002Y-93066555D01*
X157857481Y-93062728D01*
X157845093Y-93064430D01*
X157834647Y-93071344D01*
X157827431Y-93080587D01*
X157699986Y-93337263D01*
X157593618Y-93069179D01*
X157587362Y-93059395D01*
X157577512Y-93051483D01*
X157565293Y-93048975D01*
X157524602Y-93049358D01*
X157514156Y-93056271D01*
X157507136Y-93065523D01*
X157504366Y-93076044D01*
X157506239Y-93087853D01*
X157745134Y-93673837D01*
X157751585Y-93683629D01*
X157761292Y-93690252D01*
X157773699Y-93692950D01*
X157815373Y-93692424D01*
X157831624Y-93677311D01*
X157835601Y-93665921D01*
X157832557Y-93654065D01*
X157743080Y-93442575D01*
X157913227Y-93106216D01*
X157915996Y-93095694D01*
X157914116Y-93084069D01*
G37*
G36*
X157452576Y-93065531D02*
G01*
X157446125Y-93055739D01*
X157436462Y-93048018D01*
X157395941Y-93044190D01*
X157383553Y-93045893D01*
X157373107Y-93052806D01*
X157365891Y-93062050D01*
X157238358Y-93320922D01*
X157132071Y-93050825D01*
X157125823Y-93040858D01*
X157115972Y-93032945D01*
X157103672Y-93032451D01*
X157074386Y-93031275D01*
X157062974Y-93033017D01*
X157052528Y-93039930D01*
X157045507Y-93049182D01*
X157042694Y-93060802D01*
X157044611Y-93071512D01*
X157203468Y-93464168D01*
X157209716Y-93474136D01*
X157219618Y-93480767D01*
X157231830Y-93483457D01*
X157243242Y-93481715D01*
X157254816Y-93475947D01*
X157261844Y-93466513D01*
X157451679Y-93087861D01*
X157454449Y-93077340D01*
X157452576Y-93065531D01*
G37*
G36*
X156787193Y-93019740D02*
G01*
X156800664Y-93020281D01*
X156866690Y-93056116D01*
X156921855Y-93114064D01*
X156929187Y-93126275D01*
X156955120Y-93210915D01*
X156952157Y-93284678D01*
X156919519Y-93366965D01*
X156911240Y-93378366D01*
X156842411Y-93436650D01*
X156782918Y-93462127D01*
X156769314Y-93464880D01*
X156681457Y-93461352D01*
X156667986Y-93460811D01*
X156602899Y-93425930D01*
X156546692Y-93369591D01*
X156540241Y-93359798D01*
X156538564Y-93347998D01*
X156541131Y-93337651D01*
X156548390Y-93327310D01*
X156587965Y-93296266D01*
X156611633Y-93296117D01*
X156629000Y-93311664D01*
X156650807Y-93357823D01*
X156692756Y-93379674D01*
X156764603Y-93382559D01*
X156812747Y-93362127D01*
X156833824Y-93343724D01*
X156858841Y-93280746D01*
X156573210Y-93269274D01*
X156560998Y-93266584D01*
X156551147Y-93258672D01*
X156544704Y-93248696D01*
X156542997Y-93237628D01*
X156544923Y-93189666D01*
X156636051Y-93189666D01*
X156853154Y-93198386D01*
X156841462Y-93153551D01*
X156822076Y-93129856D01*
X156775895Y-93101418D01*
X156704047Y-93098533D01*
X156660327Y-93120793D01*
X156636918Y-93168068D01*
X156636051Y-93189666D01*
X156544923Y-93189666D01*
X156546386Y-93153249D01*
X156550271Y-93139289D01*
X156580605Y-93085142D01*
X156626225Y-93044808D01*
X156685732Y-93018965D01*
X156699336Y-93016212D01*
X156787193Y-93019740D01*
G37*
G36*
X156417974Y-92835148D02*
G01*
X156411718Y-92825363D01*
X156401816Y-92818732D01*
X156360319Y-92814866D01*
X156347930Y-92816568D01*
X156337528Y-92822383D01*
X156330508Y-92831635D01*
X156327702Y-92843072D01*
X156304662Y-93416702D01*
X156306542Y-93428327D01*
X156312798Y-93438112D01*
X156322700Y-93444743D01*
X156334912Y-93447433D01*
X156376586Y-93446907D01*
X156386988Y-93441091D01*
X156394008Y-93431840D01*
X156396814Y-93420403D01*
X156419854Y-92846773D01*
X156417974Y-92835148D01*
G37*
G36*
X156206663Y-93013290D02*
G01*
X156200407Y-93003506D01*
X156189377Y-92995730D01*
X156121906Y-92991003D01*
X156128199Y-92834325D01*
X156126312Y-92822883D01*
X156120042Y-92813465D01*
X156110139Y-92806834D01*
X156097920Y-92804327D01*
X156068635Y-92803150D01*
X156056335Y-92802656D01*
X156045932Y-92808472D01*
X156038912Y-92817723D01*
X156036106Y-92829160D01*
X156029674Y-92989315D01*
X155973445Y-92987057D01*
X155962317Y-92986610D01*
X155951871Y-92993524D01*
X155944655Y-93002767D01*
X155940917Y-93013067D01*
X155939814Y-93040522D01*
X155942670Y-93052186D01*
X155949121Y-93061978D01*
X155959024Y-93068609D01*
X156026292Y-93073511D01*
X156013001Y-93404438D01*
X156014866Y-93416429D01*
X156021121Y-93426213D01*
X156031016Y-93433027D01*
X156072514Y-93436894D01*
X156084902Y-93435192D01*
X156095311Y-93429193D01*
X156102332Y-93419942D01*
X156105152Y-93408139D01*
X156118444Y-93077212D01*
X156174672Y-93079471D01*
X156186084Y-93077729D01*
X156197658Y-93071961D01*
X156204678Y-93062710D01*
X156207484Y-93051272D01*
X156208587Y-93023817D01*
X156206663Y-93013290D01*
G37*
G36*
X155492187Y-92967728D02*
G01*
X155502045Y-92975457D01*
X155508301Y-92985241D01*
X155509791Y-93006567D01*
X155523622Y-92998140D01*
X155583245Y-92974318D01*
X155596834Y-92971931D01*
X155684495Y-92975451D01*
X155697966Y-92975992D01*
X155763016Y-93011788D01*
X155819157Y-93069775D01*
X155826489Y-93081986D01*
X155852422Y-93166626D01*
X155849459Y-93240389D01*
X155816822Y-93322676D01*
X155808542Y-93334077D01*
X155739713Y-93392361D01*
X155680220Y-93417838D01*
X155666616Y-93420591D01*
X155578955Y-93417071D01*
X155565484Y-93416530D01*
X155508052Y-93385807D01*
X155494970Y-93375565D01*
X155491738Y-93397618D01*
X155484718Y-93406869D01*
X155474308Y-93412868D01*
X155461920Y-93414570D01*
X155421399Y-93410743D01*
X155411504Y-93403929D01*
X155405255Y-93393961D01*
X155403383Y-93382153D01*
X155407228Y-93286427D01*
X155498550Y-93286427D01*
X155590058Y-93335385D01*
X155662100Y-93338278D01*
X155710274Y-93317114D01*
X155731184Y-93297971D01*
X155758942Y-93225203D01*
X155760854Y-93177614D01*
X155739021Y-93102856D01*
X155719713Y-93082097D01*
X155673392Y-93057137D01*
X155601350Y-93054244D01*
X155506211Y-93095705D01*
X155498550Y-93286427D01*
X155407228Y-93286427D01*
X155419027Y-92992655D01*
X155421796Y-92982133D01*
X155429019Y-92972707D01*
X155439277Y-92965602D01*
X155479968Y-92965220D01*
X155492187Y-92967728D01*
G37*
G36*
X155256705Y-92788506D02*
G01*
X155250449Y-92778722D01*
X155240547Y-92772091D01*
X155199050Y-92768224D01*
X155186662Y-92769927D01*
X155176259Y-92775742D01*
X155169239Y-92784993D01*
X155166433Y-92796430D01*
X155143394Y-93370061D01*
X155145273Y-93381686D01*
X155151529Y-93391470D01*
X155161431Y-93398101D01*
X155173643Y-93400792D01*
X155215317Y-93400265D01*
X155225719Y-93394450D01*
X155232739Y-93385199D01*
X155235545Y-93373762D01*
X155258585Y-92800131D01*
X155256705Y-92788506D01*
G37*
G36*
X154651301Y-92933954D02*
G01*
X154661160Y-92941683D01*
X154667415Y-92951468D01*
X154668906Y-92972794D01*
X154682737Y-92964366D01*
X154742359Y-92940545D01*
X154755948Y-92938157D01*
X154843610Y-92941678D01*
X154857081Y-92942219D01*
X154914535Y-92972393D01*
X154978467Y-93036009D01*
X154985799Y-93048220D01*
X155012521Y-93142425D01*
X155008769Y-93206623D01*
X154976132Y-93288911D01*
X154967852Y-93300311D01*
X154907046Y-93353601D01*
X154839335Y-93384064D01*
X154825731Y-93386818D01*
X154738070Y-93383297D01*
X154724598Y-93382756D01*
X154667167Y-93352033D01*
X154654085Y-93341791D01*
X154652556Y-93379863D01*
X154675651Y-93447522D01*
X154695199Y-93467190D01*
X154741645Y-93489039D01*
X154784402Y-93490756D01*
X154832494Y-93471605D01*
X154859236Y-93448479D01*
X154869646Y-93442481D01*
X154882229Y-93440786D01*
X154951840Y-93445782D01*
X154961735Y-93452596D01*
X154967998Y-93462197D01*
X154969871Y-93474006D01*
X154967109Y-93484345D01*
X154960089Y-93493596D01*
X154899422Y-93543408D01*
X154831792Y-93571858D01*
X154818203Y-93574245D01*
X154730542Y-93570725D01*
X154717070Y-93570184D01*
X154650812Y-93535256D01*
X154595784Y-93478780D01*
X154588242Y-93466928D01*
X154561576Y-93376208D01*
X154566538Y-93252654D01*
X154657665Y-93252654D01*
X154749173Y-93301611D01*
X154821215Y-93304505D01*
X154869389Y-93283340D01*
X154890299Y-93264197D01*
X154918057Y-93191430D01*
X154919968Y-93143841D01*
X154898136Y-93069082D01*
X154878828Y-93048324D01*
X154832507Y-93023364D01*
X154760464Y-93020470D01*
X154665325Y-93061932D01*
X154657665Y-93252654D01*
X154566538Y-93252654D01*
X154578337Y-92958890D01*
X154580911Y-92948360D01*
X154588134Y-92938934D01*
X154598392Y-92931829D01*
X154610968Y-92930318D01*
X154651301Y-92933954D01*
G37*
G36*
X154410086Y-92941316D02*
G01*
X154403830Y-92931531D01*
X154392808Y-92923572D01*
X154352475Y-92919935D01*
X154339899Y-92921447D01*
X154329647Y-92928368D01*
X154322432Y-92937612D01*
X154318344Y-92985847D01*
X154278258Y-92946837D01*
X154220804Y-92916664D01*
X154206242Y-92914062D01*
X154107176Y-92912100D01*
X154096730Y-92919013D01*
X154089710Y-92928265D01*
X154086948Y-92938603D01*
X154087725Y-92977684D01*
X154093980Y-92987468D01*
X154103883Y-92994099D01*
X154196142Y-93000005D01*
X154242485Y-93024416D01*
X154291074Y-93075683D01*
X154312933Y-93120560D01*
X154304288Y-93335809D01*
X154306153Y-93347800D01*
X154312408Y-93357584D01*
X154322303Y-93364398D01*
X154334515Y-93367089D01*
X154375017Y-93366516D01*
X154386598Y-93360564D01*
X154393619Y-93351313D01*
X154396432Y-93339693D01*
X154411995Y-92952209D01*
X154410086Y-92941316D01*
G37*
G36*
X153995717Y-92722093D02*
G01*
X153954219Y-92718227D01*
X153941831Y-92719929D01*
X153901041Y-92752023D01*
X153894020Y-92761275D01*
X153890112Y-92800167D01*
X153891991Y-92811792D01*
X153898247Y-92821577D01*
X153936332Y-92856839D01*
X153977830Y-92860706D01*
X153990218Y-92859003D01*
X154031008Y-92826909D01*
X154038029Y-92817658D01*
X154041937Y-92778765D01*
X154040058Y-92767140D01*
X154033802Y-92757356D01*
X153995717Y-92722093D01*
G37*
G36*
X154004303Y-92927034D02*
G01*
X153998047Y-92917250D01*
X153988189Y-92909521D01*
X153946692Y-92905654D01*
X153934303Y-92907356D01*
X153923857Y-92914270D01*
X153916837Y-92923521D01*
X153914060Y-92934226D01*
X153898578Y-93319697D01*
X153900450Y-93331505D01*
X153906699Y-93341473D01*
X153916601Y-93348104D01*
X153928813Y-93350794D01*
X153970487Y-93350268D01*
X153980889Y-93344453D01*
X153987916Y-93335018D01*
X153990730Y-93323398D01*
X154006212Y-92937927D01*
X154004303Y-92927034D01*
G37*
G36*
X153772450Y-92915522D02*
G01*
X153766194Y-92905738D01*
X153755164Y-92897961D01*
X153687693Y-92893235D01*
X153688948Y-92832786D01*
X153656663Y-92740742D01*
X153590688Y-92703626D01*
X153576046Y-92703038D01*
X153517475Y-92700685D01*
X153506265Y-92702252D01*
X153495870Y-92707884D01*
X153488677Y-92716578D01*
X153484917Y-92727427D01*
X153483873Y-92753418D01*
X153486751Y-92764533D01*
X153493224Y-92773776D01*
X153503133Y-92780224D01*
X153514181Y-92782685D01*
X153565919Y-92784763D01*
X153581432Y-92792902D01*
X153597386Y-92843592D01*
X153595460Y-92891547D01*
X153539232Y-92889289D01*
X153528104Y-92888842D01*
X153517657Y-92895755D01*
X153510442Y-92904999D01*
X153506704Y-92915298D01*
X153505601Y-92942754D01*
X153508457Y-92954418D01*
X153514908Y-92964210D01*
X153524810Y-92970841D01*
X153592079Y-92975743D01*
X153578787Y-93306670D01*
X153580652Y-93318661D01*
X153586908Y-93328445D01*
X153596803Y-93335259D01*
X153638300Y-93339126D01*
X153650689Y-93337424D01*
X153661098Y-93331425D01*
X153668118Y-93322174D01*
X153670939Y-93310371D01*
X153684231Y-92979444D01*
X153740459Y-92981703D01*
X153751871Y-92979961D01*
X153763444Y-92974193D01*
X153770465Y-92964941D01*
X153773271Y-92953504D01*
X153774373Y-92926049D01*
X153772450Y-92915522D01*
G37*
G36*
X153366357Y-92899212D02*
G01*
X153360101Y-92889427D01*
X153349071Y-92881651D01*
X153281600Y-92876925D01*
X153282855Y-92816476D01*
X153250570Y-92724431D01*
X153184596Y-92687315D01*
X153169953Y-92686727D01*
X153111382Y-92684375D01*
X153100172Y-92685941D01*
X153089778Y-92691574D01*
X153082584Y-92700268D01*
X153078824Y-92711117D01*
X153077780Y-92737107D01*
X153080658Y-92748223D01*
X153087131Y-92757466D01*
X153097041Y-92763914D01*
X153108088Y-92766374D01*
X153159826Y-92768452D01*
X153175339Y-92776592D01*
X153191294Y-92827282D01*
X153189368Y-92875237D01*
X153133140Y-92872978D01*
X153122011Y-92872531D01*
X153111565Y-92879445D01*
X153104349Y-92888688D01*
X153100611Y-92898988D01*
X153099508Y-92926443D01*
X153102364Y-92938108D01*
X153108815Y-92947900D01*
X153118718Y-92954531D01*
X153185986Y-92959433D01*
X153172695Y-93290359D01*
X153174560Y-93302350D01*
X153180815Y-93312135D01*
X153190710Y-93318949D01*
X153232208Y-93322816D01*
X153244596Y-93321113D01*
X153255005Y-93315115D01*
X153262026Y-93305864D01*
X153264846Y-93294060D01*
X153278138Y-92963134D01*
X153334366Y-92965392D01*
X153345778Y-92963651D01*
X153357352Y-92957882D01*
X153364372Y-92948631D01*
X153367178Y-92937194D01*
X153368281Y-92909739D01*
X153366357Y-92899212D01*
G37*
G36*
X152921133Y-92678934D02*
G01*
X152879636Y-92675067D01*
X152867248Y-92676769D01*
X152826457Y-92708864D01*
X152819437Y-92718115D01*
X152815528Y-92757007D01*
X152817408Y-92768632D01*
X152823663Y-92778417D01*
X152861749Y-92813679D01*
X152903246Y-92817546D01*
X152915634Y-92815843D01*
X152956425Y-92783749D01*
X152963445Y-92774498D01*
X152967354Y-92735606D01*
X152965474Y-92723980D01*
X152959218Y-92714196D01*
X152921133Y-92678934D01*
G37*
G36*
X152929719Y-92883875D02*
G01*
X152923463Y-92874090D01*
X152913605Y-92866361D01*
X152872108Y-92862494D01*
X152859720Y-92864197D01*
X152849273Y-92871110D01*
X152842253Y-92880361D01*
X152839476Y-92891066D01*
X152823994Y-93276537D01*
X152825867Y-93288346D01*
X152832115Y-93298313D01*
X152842017Y-93304944D01*
X152854229Y-93307634D01*
X152895903Y-93307108D01*
X152906305Y-93301293D01*
X152913333Y-93291859D01*
X152916146Y-93280238D01*
X152931628Y-92894768D01*
X152929719Y-92883875D01*
G37*
G36*
X152668573Y-92871369D02*
G01*
X152662122Y-92861577D01*
X152652466Y-92853673D01*
X152612133Y-92850036D01*
X152599557Y-92851548D01*
X152589306Y-92858469D01*
X152582105Y-92867346D01*
X152577851Y-92914841D01*
X152536572Y-92876334D01*
X152480463Y-92846764D01*
X152465820Y-92846176D01*
X152378159Y-92842655D01*
X152364367Y-92845218D01*
X152294427Y-92877608D01*
X152288383Y-92886899D01*
X152254409Y-92978116D01*
X152243360Y-93253217D01*
X152245232Y-93265025D01*
X152251481Y-93274992D01*
X152261383Y-93281623D01*
X152273595Y-93284314D01*
X152301709Y-93285443D01*
X152314009Y-93285937D01*
X152324426Y-93279755D01*
X152331453Y-93270321D01*
X152334274Y-93258518D01*
X152345242Y-92985430D01*
X152368177Y-92945102D01*
X152411765Y-92926137D01*
X152454522Y-92927854D01*
X152504118Y-92954046D01*
X152574256Y-93004345D01*
X152563472Y-93272857D01*
X152565329Y-93285031D01*
X152573869Y-93296374D01*
X152593978Y-93297182D01*
X152622288Y-93298319D01*
X152634676Y-93296616D01*
X152645086Y-93290618D01*
X152652106Y-93281367D01*
X152654919Y-93269746D01*
X152670482Y-92882262D01*
X152668573Y-92871369D01*
G37*
G36*
X151817345Y-93226573D02*
G01*
X151810938Y-93215682D01*
X151561070Y-92932119D01*
X151509218Y-92850104D01*
X151485126Y-92802387D01*
X151486795Y-92760839D01*
X151509852Y-92722349D01*
X151553417Y-92703932D01*
X151654550Y-92707994D01*
X151696498Y-92729845D01*
X151716213Y-92769686D01*
X151717284Y-92801445D01*
X151723735Y-92811238D01*
X151733442Y-92817861D01*
X151745812Y-92821474D01*
X151786351Y-92819986D01*
X151796754Y-92814170D01*
X151803774Y-92804919D01*
X151807646Y-92766942D01*
X151804878Y-92753081D01*
X151778955Y-92697408D01*
X151736615Y-92656108D01*
X151679319Y-92626857D01*
X151665653Y-92626308D01*
X151548706Y-92621611D01*
X151535110Y-92624182D01*
X151475429Y-92649468D01*
X151430071Y-92688162D01*
X151399737Y-92742309D01*
X151395859Y-92756086D01*
X151393683Y-92810264D01*
X151396450Y-92824125D01*
X151424555Y-92883920D01*
X151479645Y-92968081D01*
X151662673Y-93177645D01*
X151381727Y-93166361D01*
X151369151Y-93167872D01*
X151358749Y-93173688D01*
X151351743Y-93182573D01*
X151347879Y-93220367D01*
X151349766Y-93231809D01*
X151356036Y-93241227D01*
X151365939Y-93247858D01*
X151378434Y-93248360D01*
X151785307Y-93264702D01*
X151797891Y-93263007D01*
X151808293Y-93257192D01*
X151815321Y-93247758D01*
X151818090Y-93237236D01*
X151817345Y-93226573D01*
G37*
G36*
X151063152Y-92602109D02*
G01*
X151164140Y-92638982D01*
X151225784Y-92730372D01*
X151253627Y-92879438D01*
X151250106Y-92967111D01*
X151215094Y-93108519D01*
X151148297Y-93198968D01*
X151131044Y-93209825D01*
X151043256Y-93233798D01*
X150974684Y-93232144D01*
X150869249Y-93193993D01*
X150807598Y-93102786D01*
X150779762Y-92953537D01*
X150779907Y-92949917D01*
X150872208Y-92949917D01*
X150893924Y-93081137D01*
X150923700Y-93128532D01*
X150983639Y-93150372D01*
X151030691Y-93152262D01*
X151092189Y-93135299D01*
X151125670Y-93090444D01*
X151157840Y-92961389D01*
X151160942Y-92884148D01*
X151139226Y-92752929D01*
X151109450Y-92705534D01*
X151049511Y-92683693D01*
X151002459Y-92681803D01*
X150940961Y-92698766D01*
X150907480Y-92743621D01*
X150875310Y-92872676D01*
X150872208Y-92949917D01*
X150779907Y-92949917D01*
X150783284Y-92865863D01*
X150818296Y-92724456D01*
X150884897Y-92633999D01*
X150902150Y-92623142D01*
X150989938Y-92599169D01*
X151063152Y-92602109D01*
G37*
G36*
X150661543Y-93180151D02*
G01*
X150655136Y-93169261D01*
X150405268Y-92885697D01*
X150353416Y-92803682D01*
X150329324Y-92755966D01*
X150330993Y-92714417D01*
X150354049Y-92675927D01*
X150397615Y-92657510D01*
X150498748Y-92661572D01*
X150540696Y-92683423D01*
X150560411Y-92723265D01*
X150561482Y-92755024D01*
X150567933Y-92764816D01*
X150577640Y-92771439D01*
X150590010Y-92775052D01*
X150630549Y-92773564D01*
X150640952Y-92767749D01*
X150647972Y-92758497D01*
X150651844Y-92720520D01*
X150649076Y-92706659D01*
X150623153Y-92650986D01*
X150580812Y-92609686D01*
X150523517Y-92580435D01*
X150509851Y-92579886D01*
X150392904Y-92575189D01*
X150379307Y-92577760D01*
X150319626Y-92603046D01*
X150274269Y-92641740D01*
X150243934Y-92695887D01*
X150240057Y-92709664D01*
X150237881Y-92763843D01*
X150240648Y-92777704D01*
X150268753Y-92837498D01*
X150323842Y-92921659D01*
X150506871Y-93131223D01*
X150225925Y-93119939D01*
X150213349Y-93121451D01*
X150202947Y-93127266D01*
X150195941Y-93136151D01*
X150192076Y-93173945D01*
X150193963Y-93185387D01*
X150200234Y-93194806D01*
X150210136Y-93201437D01*
X150222631Y-93201938D01*
X150629505Y-93218280D01*
X150642088Y-93216586D01*
X150652491Y-93210770D01*
X150659518Y-93201336D01*
X150662288Y-93190814D01*
X150661543Y-93180151D01*
G37*
G36*
X149749793Y-92549359D02*
G01*
X149761117Y-92549814D01*
X149773204Y-92555616D01*
X149780915Y-92563259D01*
X150083817Y-93011383D01*
X150089096Y-93021128D01*
X150084939Y-93041861D01*
X150067402Y-93054907D01*
X150056274Y-93054460D01*
X149796413Y-93044022D01*
X149789160Y-93166195D01*
X149782132Y-93175630D01*
X149771722Y-93181628D01*
X149759334Y-93183331D01*
X149719009Y-93179511D01*
X149709114Y-93172697D01*
X149702670Y-93162722D01*
X149704262Y-93040321D01*
X149619919Y-93036934D01*
X149607505Y-93034418D01*
X149597790Y-93027978D01*
X149591325Y-93018552D01*
X149589626Y-93007301D01*
X149590640Y-92982042D01*
X149593236Y-92970963D01*
X149600437Y-92962086D01*
X149600551Y-92962023D01*
X149799707Y-92962023D01*
X149950422Y-92968260D01*
X149807918Y-92757573D01*
X149799707Y-92962023D01*
X149600551Y-92962023D01*
X149610637Y-92956446D01*
X149623213Y-92954934D01*
X149707555Y-92958322D01*
X149723037Y-92572851D01*
X149726827Y-92561270D01*
X149738665Y-92548912D01*
X149749793Y-92549359D01*
G37*
D11*
G36*
X144923263Y-111079192D02*
G01*
X144971623Y-111099969D01*
X145022456Y-111119162D01*
X145069717Y-111134893D01*
X145106445Y-111145870D01*
X145155629Y-111158265D01*
X145204020Y-111167119D01*
X145257510Y-111172846D01*
X145298420Y-111174202D01*
X145349726Y-111172648D01*
X145399138Y-111167984D01*
X145453291Y-111158848D01*
X145504972Y-111145651D01*
X145517505Y-111141718D01*
X145565484Y-111123430D01*
X145609768Y-111101051D01*
X145655172Y-111070985D01*
X145687254Y-111044021D01*
X145724546Y-111004455D01*
X145753412Y-110964907D01*
X145778249Y-110921237D01*
X145796675Y-110879645D01*
X145813451Y-110828217D01*
X145824199Y-110779786D01*
X145831276Y-110728153D01*
X145834684Y-110673317D01*
X145835021Y-110648836D01*
X145832785Y-110589920D01*
X145826076Y-110534194D01*
X145814894Y-110481659D01*
X145799239Y-110432314D01*
X145779112Y-110386160D01*
X145754513Y-110343196D01*
X145725440Y-110303423D01*
X145691895Y-110266840D01*
X145654384Y-110234039D01*
X145613539Y-110205611D01*
X145569357Y-110181557D01*
X145521841Y-110161877D01*
X145470989Y-110146569D01*
X145416801Y-110135636D01*
X145359278Y-110129075D01*
X145298420Y-110126889D01*
X145249063Y-110128531D01*
X145199089Y-110133458D01*
X145148496Y-110141669D01*
X145120122Y-110147649D01*
X145067776Y-110161489D01*
X145019397Y-110177651D01*
X144969277Y-110197446D01*
X144923995Y-110217747D01*
X144923995Y-110376993D01*
X144936452Y-110376993D01*
X144979179Y-110349287D01*
X144998245Y-110337670D01*
X145043394Y-110312743D01*
X145077868Y-110296882D01*
X145125081Y-110280241D01*
X145174181Y-110267325D01*
X145185335Y-110264886D01*
X145236814Y-110256505D01*
X145289055Y-110252560D01*
X145321623Y-110251941D01*
X145373597Y-110254535D01*
X145422053Y-110262317D01*
X145475557Y-110278502D01*
X145523994Y-110302159D01*
X145567365Y-110333285D01*
X145593465Y-110358187D01*
X145627414Y-110400665D01*
X145654339Y-110448415D01*
X145674240Y-110501438D01*
X145685458Y-110549651D01*
X145691799Y-110601525D01*
X145693360Y-110645661D01*
X145690814Y-110703349D01*
X145683175Y-110756886D01*
X145670445Y-110806274D01*
X145648446Y-110860061D01*
X145619113Y-110907871D01*
X145589069Y-110943148D01*
X145547214Y-110979172D01*
X145500053Y-111007743D01*
X145447586Y-111028860D01*
X145399810Y-111040765D01*
X145348348Y-111047493D01*
X145304526Y-111049150D01*
X145255250Y-111047432D01*
X145205974Y-111042280D01*
X145173123Y-111036938D01*
X145122441Y-111025648D01*
X145073902Y-111010875D01*
X145058085Y-111004942D01*
X145058085Y-110767782D01*
X145332125Y-110767782D01*
X145332125Y-110642730D01*
X144923263Y-110642730D01*
X144923263Y-111079192D01*
G37*
G36*
X143901106Y-111082122D02*
G01*
X143947639Y-111102759D01*
X143969494Y-111112897D01*
X144015099Y-111131273D01*
X144049606Y-111142939D01*
X144098910Y-111156265D01*
X144140464Y-111164921D01*
X144192060Y-111171882D01*
X144241315Y-111174166D01*
X144248664Y-111174202D01*
X144303084Y-111172279D01*
X144354970Y-111166508D01*
X144404323Y-111156891D01*
X144451141Y-111143427D01*
X144500394Y-111123236D01*
X144545938Y-111097557D01*
X144587772Y-111066392D01*
X144609410Y-111046707D01*
X144644225Y-111007674D01*
X144674480Y-110963116D01*
X144697546Y-110918870D01*
X144712481Y-110882820D01*
X144728723Y-110830995D01*
X144739128Y-110782367D01*
X144745980Y-110730677D01*
X144749280Y-110675925D01*
X144749606Y-110651522D01*
X144747899Y-110598181D01*
X144742780Y-110547364D01*
X144734249Y-110499072D01*
X144720319Y-110446972D01*
X144713946Y-110428284D01*
X144694041Y-110380978D01*
X144670227Y-110337487D01*
X144638765Y-110293122D01*
X144610876Y-110261955D01*
X144572049Y-110227353D01*
X144528933Y-110197735D01*
X144481529Y-110173102D01*
X144453339Y-110161571D01*
X144405804Y-110146398D01*
X144355764Y-110135559D01*
X144303222Y-110129056D01*
X144248175Y-110126889D01*
X144196627Y-110128821D01*
X144145173Y-110134617D01*
X144093816Y-110144277D01*
X144083556Y-110146672D01*
X144035945Y-110160196D01*
X143985436Y-110178512D01*
X143938106Y-110198814D01*
X143901106Y-110216526D01*
X143901106Y-110376993D01*
X143911364Y-110376993D01*
X143953542Y-110346494D01*
X143995567Y-110320451D01*
X144042663Y-110296482D01*
X144079159Y-110281739D01*
X144126798Y-110267335D01*
X144176292Y-110257645D01*
X144227640Y-110252669D01*
X144256968Y-110251941D01*
X144308547Y-110254798D01*
X144360668Y-110264432D01*
X144396919Y-110276121D01*
X144441558Y-110298034D01*
X144482419Y-110327504D01*
X144507561Y-110351348D01*
X144540179Y-110392243D01*
X144564949Y-110436248D01*
X144581567Y-110476889D01*
X144595477Y-110526653D01*
X144603592Y-110575357D01*
X144607533Y-110627770D01*
X144607945Y-110652255D01*
X144606128Y-110702462D01*
X144599742Y-110754603D01*
X144587253Y-110807143D01*
X144578880Y-110831285D01*
X144556768Y-110879406D01*
X144530730Y-110921005D01*
X144503653Y-110953162D01*
X144465300Y-110986261D01*
X144422412Y-111012284D01*
X144391302Y-111025702D01*
X144342094Y-111039991D01*
X144290826Y-111047684D01*
X144255503Y-111049150D01*
X144201258Y-111046677D01*
X144148985Y-111039258D01*
X144098682Y-111026893D01*
X144071588Y-111017887D01*
X144024097Y-110997828D01*
X143978345Y-110972824D01*
X143934332Y-110942874D01*
X143910632Y-110924097D01*
X143901106Y-110924097D01*
X143901106Y-111082122D01*
G37*
G36*
X142907771Y-110142520D02*
G01*
X143279997Y-111158571D01*
X143461225Y-111158571D01*
X143833695Y-110142520D01*
X143688126Y-110142520D01*
X143367191Y-111036449D01*
X143046500Y-110142520D01*
X142907771Y-110142520D01*
G37*
G36*
X142397059Y-111158571D02*
G01*
X142801036Y-111158571D01*
X142801036Y-111049150D01*
X142666947Y-111049150D01*
X142666947Y-110251941D01*
X142801036Y-110251941D01*
X142801036Y-110142520D01*
X142397059Y-110142520D01*
X142397059Y-110251941D01*
X142530904Y-110251941D01*
X142530904Y-111049150D01*
X142397059Y-111049150D01*
X142397059Y-111158571D01*
G37*
G36*
X142168447Y-111158571D02*
G01*
X141910283Y-111158571D01*
X141892880Y-111158496D01*
X141843238Y-111157380D01*
X141790184Y-111154385D01*
X141735962Y-111148729D01*
X141683137Y-111139520D01*
X141672423Y-111137045D01*
X141620740Y-111121865D01*
X141572207Y-111102011D01*
X141526821Y-111077482D01*
X141502229Y-111061125D01*
X141462205Y-111028718D01*
X141426014Y-110991495D01*
X141393657Y-110949457D01*
X141365133Y-110902604D01*
X141344465Y-110859470D01*
X141325756Y-110806847D01*
X141312869Y-110751746D01*
X141306454Y-110702544D01*
X141304316Y-110651522D01*
X141304390Y-110649568D01*
X141446710Y-110649568D01*
X141448049Y-110691717D01*
X141454003Y-110743695D01*
X141466393Y-110796405D01*
X141484812Y-110843009D01*
X141492291Y-110857218D01*
X141522058Y-110900800D01*
X141559267Y-110938563D01*
X141599117Y-110967573D01*
X141638602Y-110988920D01*
X141684734Y-111007058D01*
X141733695Y-111019596D01*
X141752345Y-111022859D01*
X141802410Y-111029113D01*
X141851670Y-111032417D01*
X141904909Y-111033518D01*
X142032648Y-111033518D01*
X142032648Y-110267573D01*
X141904909Y-110267573D01*
X141893169Y-110267623D01*
X141842932Y-110269102D01*
X141792099Y-110273147D01*
X141742244Y-110280517D01*
X141708645Y-110288272D01*
X141660022Y-110304713D01*
X141613528Y-110326924D01*
X141588585Y-110342108D01*
X141548766Y-110373646D01*
X141515478Y-110410595D01*
X141488720Y-110452953D01*
X141468412Y-110500796D01*
X141455940Y-110548221D01*
X141448720Y-110600256D01*
X141446710Y-110649568D01*
X141304390Y-110649568D01*
X141306368Y-110597435D01*
X141312525Y-110546181D01*
X141322786Y-110497761D01*
X141339945Y-110444852D01*
X141362690Y-110395800D01*
X141378005Y-110369487D01*
X141408277Y-110326689D01*
X141442967Y-110288029D01*
X141482075Y-110253506D01*
X141525600Y-110223120D01*
X141533340Y-110218482D01*
X141579727Y-110195220D01*
X141627507Y-110177379D01*
X141675077Y-110164014D01*
X141704133Y-110157822D01*
X141756874Y-110150098D01*
X141809334Y-110145543D01*
X141858988Y-110143276D01*
X141912969Y-110142520D01*
X142168447Y-110142520D01*
X142168447Y-111158571D01*
G37*
G36*
X140416005Y-111158571D02*
G01*
X141089871Y-111158571D01*
X141089871Y-110142520D01*
X140416005Y-110142520D01*
X140416005Y-110267573D01*
X140954072Y-110267573D01*
X140954072Y-110533309D01*
X140416005Y-110533309D01*
X140416005Y-110658361D01*
X140954072Y-110658361D01*
X140954072Y-111033518D01*
X140416005Y-111033518D01*
X140416005Y-111158571D01*
G37*
G36*
X139834138Y-110128572D02*
G01*
X139884326Y-110134617D01*
X139932468Y-110145058D01*
X139984184Y-110162060D01*
X140011480Y-110173802D01*
X140057006Y-110198725D01*
X140097896Y-110228516D01*
X140134149Y-110263176D01*
X140160375Y-110294974D01*
X140189836Y-110339807D01*
X140212001Y-110383389D01*
X140230380Y-110430483D01*
X140234373Y-110442763D01*
X140247768Y-110493871D01*
X140257042Y-110548154D01*
X140261775Y-110598256D01*
X140263353Y-110650790D01*
X140263223Y-110666312D01*
X140260726Y-110718929D01*
X140255049Y-110768881D01*
X140244669Y-110822706D01*
X140230136Y-110873051D01*
X140218988Y-110902689D01*
X140195435Y-110952311D01*
X140167399Y-110997142D01*
X140134881Y-111037182D01*
X140114927Y-111057250D01*
X140075763Y-111089495D01*
X140032426Y-111116755D01*
X139984916Y-111139031D01*
X139939487Y-111154418D01*
X139891616Y-111165409D01*
X139841302Y-111172004D01*
X139788545Y-111174202D01*
X139741403Y-111172554D01*
X139690360Y-111166635D01*
X139642340Y-111156411D01*
X139591930Y-111139764D01*
X139565547Y-111128179D01*
X139520884Y-111103179D01*
X139479852Y-111072847D01*
X139442453Y-111037182D01*
X139420425Y-111011485D01*
X139390990Y-110968624D01*
X139365883Y-110920586D01*
X139347198Y-110873539D01*
X139341131Y-110854856D01*
X139327869Y-110802809D01*
X139319747Y-110754614D01*
X139314873Y-110703941D01*
X139313249Y-110650790D01*
X139454665Y-110650790D01*
X139456077Y-110697673D01*
X139461814Y-110752295D01*
X139471963Y-110802492D01*
X139489966Y-110856889D01*
X139514323Y-110904914D01*
X139545035Y-110946568D01*
X139556574Y-110958990D01*
X139594097Y-110991447D01*
X139635983Y-111016692D01*
X139682231Y-111034724D01*
X139732841Y-111045543D01*
X139787812Y-111049150D01*
X139806623Y-111048749D01*
X139860169Y-111042738D01*
X139909388Y-111029515D01*
X139954279Y-111009079D01*
X139994843Y-110981430D01*
X140031078Y-110946568D01*
X140057183Y-110912299D01*
X140082668Y-110865335D01*
X140101782Y-110812001D01*
X140112843Y-110762688D01*
X140119480Y-110708951D01*
X140121692Y-110650790D01*
X140120303Y-110604345D01*
X140114660Y-110550132D01*
X140104676Y-110500189D01*
X140086964Y-110445893D01*
X140063002Y-110397744D01*
X140032788Y-110355744D01*
X140021413Y-110343174D01*
X139984138Y-110310330D01*
X139942140Y-110284785D01*
X139895420Y-110266538D01*
X139843978Y-110255590D01*
X139787812Y-110251941D01*
X139768742Y-110252347D01*
X139714601Y-110258429D01*
X139665061Y-110271810D01*
X139620124Y-110292489D01*
X139579790Y-110320467D01*
X139544058Y-110355744D01*
X139518305Y-110390318D01*
X139493163Y-110437441D01*
X139474307Y-110490713D01*
X139463395Y-110539802D01*
X139456848Y-110593161D01*
X139454665Y-110650790D01*
X139313249Y-110650790D01*
X139313379Y-110635382D01*
X139315895Y-110583064D01*
X139321614Y-110533248D01*
X139332071Y-110479377D01*
X139346710Y-110428773D01*
X139360197Y-110393110D01*
X139381385Y-110348871D01*
X139409600Y-110303628D01*
X139442453Y-110263176D01*
X139462184Y-110243454D01*
X139500977Y-110211651D01*
X139543981Y-110184601D01*
X139591197Y-110162304D01*
X139636321Y-110146810D01*
X139684253Y-110135743D01*
X139734995Y-110129102D01*
X139788545Y-110126889D01*
X139834138Y-110128572D01*
G37*
G36*
X153979026Y-109804721D02*
G01*
X154018189Y-109812896D01*
X154053592Y-109828077D01*
X154078486Y-109842726D01*
X154111227Y-109864558D01*
X154140787Y-109886878D01*
X154140787Y-109826611D01*
X154326350Y-109826611D01*
X154326350Y-110612096D01*
X154140787Y-110612096D01*
X154140787Y-110384218D01*
X154138533Y-110385411D01*
X154105112Y-110401254D01*
X154070262Y-110413893D01*
X154061377Y-110416383D01*
X154023983Y-110422764D01*
X153986364Y-110424518D01*
X153959952Y-110423190D01*
X153921921Y-110416217D01*
X153885797Y-110403269D01*
X153860202Y-110389825D01*
X153828508Y-110366942D01*
X153801900Y-110340987D01*
X153779091Y-110311651D01*
X153759530Y-110277294D01*
X153744564Y-110241702D01*
X153738231Y-110222547D01*
X153729537Y-110186444D01*
X153724321Y-110148255D01*
X153722582Y-110107979D01*
X153722587Y-110107796D01*
X153913641Y-110107796D01*
X153914522Y-110134305D01*
X153919597Y-110172218D01*
X153930698Y-110208247D01*
X153949728Y-110240053D01*
X153954386Y-110245355D01*
X153985246Y-110268400D01*
X154021002Y-110280371D01*
X154059454Y-110283834D01*
X154064595Y-110283802D01*
X154101220Y-110281819D01*
X154105147Y-110281362D01*
X154140787Y-110272293D01*
X154140787Y-109975355D01*
X154123126Y-109965747D01*
X154087847Y-109952091D01*
X154070588Y-109947744D01*
X154033625Y-109943848D01*
X154007981Y-109945715D01*
X153971484Y-109957603D01*
X153942584Y-109982866D01*
X153935800Y-109993313D01*
X153921810Y-110029658D01*
X153915450Y-110067702D01*
X153913641Y-110107796D01*
X153722587Y-110107796D01*
X153723521Y-110073392D01*
X153727335Y-110032831D01*
X153734083Y-109995239D01*
X153746052Y-109954049D01*
X153762247Y-109917135D01*
X153782666Y-109884497D01*
X153802565Y-109861066D01*
X153834392Y-109834935D01*
X153870847Y-109816587D01*
X153911929Y-109806023D01*
X153950827Y-109803164D01*
X153979026Y-109804721D01*
G37*
G36*
X153326833Y-109803245D02*
G01*
X153371246Y-109806075D01*
X153412457Y-109812948D01*
X153450465Y-109823864D01*
X153485271Y-109838822D01*
X153516876Y-109857824D01*
X153550574Y-109885962D01*
X153579024Y-109919208D01*
X153601587Y-109956845D01*
X153615894Y-109991565D01*
X153626113Y-110029335D01*
X153632245Y-110070154D01*
X153634288Y-110114024D01*
X153632258Y-110157639D01*
X153626167Y-110198266D01*
X153616015Y-110235906D01*
X153601802Y-110270559D01*
X153579387Y-110308199D01*
X153551124Y-110341536D01*
X153545860Y-110346642D01*
X153511522Y-110373870D01*
X153479296Y-110392103D01*
X153443788Y-110406285D01*
X153404997Y-110416414D01*
X153362923Y-110422492D01*
X153317566Y-110424518D01*
X153308221Y-110424437D01*
X153263470Y-110421600D01*
X153222011Y-110414712D01*
X153183843Y-110403772D01*
X153148967Y-110388781D01*
X153117383Y-110369737D01*
X153083826Y-110341536D01*
X153055563Y-110308199D01*
X153033148Y-110270559D01*
X153018935Y-110235906D01*
X153008783Y-110198266D01*
X153002692Y-110157639D01*
X153000712Y-110115123D01*
X153192819Y-110115123D01*
X153192898Y-110125453D01*
X153195063Y-110165269D01*
X153201795Y-110203234D01*
X153209815Y-110225825D01*
X153228906Y-110257639D01*
X153236212Y-110266054D01*
X153267741Y-110286948D01*
X153279339Y-110290715D01*
X153315918Y-110295558D01*
X153331912Y-110294819D01*
X153368308Y-110286215D01*
X153379356Y-110280766D01*
X153407692Y-110256173D01*
X153420895Y-110234595D01*
X153433338Y-110199021D01*
X153435398Y-110189936D01*
X153440679Y-110152300D01*
X153442130Y-110115123D01*
X153441973Y-110101857D01*
X153439287Y-110062734D01*
X153432055Y-110025181D01*
X153424328Y-110002419D01*
X153405127Y-109968944D01*
X153396642Y-109959957D01*
X153365194Y-109939452D01*
X153354386Y-109936246D01*
X153317566Y-109932124D01*
X153304343Y-109932685D01*
X153267558Y-109941100D01*
X153256349Y-109946367D01*
X153227807Y-109971508D01*
X153214784Y-109992676D01*
X153202162Y-110027928D01*
X153198987Y-110041710D01*
X153194133Y-110078475D01*
X153192819Y-110115123D01*
X153000712Y-110115123D01*
X153000661Y-110114024D01*
X153002683Y-110070458D01*
X153008747Y-110029860D01*
X153018854Y-109992233D01*
X153033004Y-109957575D01*
X153055321Y-109919905D01*
X153083460Y-109886512D01*
X153094056Y-109876419D01*
X153129072Y-109850047D01*
X153161952Y-109832547D01*
X153198195Y-109819117D01*
X153237801Y-109809757D01*
X153280770Y-109804466D01*
X153317566Y-109803164D01*
X153326833Y-109803245D01*
G37*
G36*
X151949196Y-109826611D02*
G01*
X152128531Y-110401071D01*
X152325269Y-110401071D01*
X152443238Y-110013823D01*
X152559192Y-110401071D01*
X152758495Y-110401071D01*
X152936181Y-109826611D01*
X152741459Y-109826611D01*
X152642540Y-110222468D01*
X152518892Y-109826611D01*
X152354578Y-109826611D01*
X152237158Y-110222468D01*
X152139705Y-109826611D01*
X151949196Y-109826611D01*
G37*
G36*
X151576235Y-109803496D02*
G01*
X151621176Y-109807231D01*
X151662942Y-109815117D01*
X151701533Y-109827152D01*
X151736949Y-109843338D01*
X151769189Y-109863674D01*
X151798254Y-109888161D01*
X151808879Y-109899021D01*
X151832443Y-109928239D01*
X151851723Y-109960409D01*
X151866718Y-109995530D01*
X151877429Y-110033603D01*
X151883856Y-110074627D01*
X151885998Y-110118604D01*
X151885636Y-110136704D01*
X151881563Y-110179652D01*
X151872963Y-110219308D01*
X151859838Y-110255673D01*
X151842187Y-110288746D01*
X151820011Y-110318527D01*
X151793308Y-110345017D01*
X151762352Y-110367920D01*
X151727416Y-110386941D01*
X151688500Y-110402081D01*
X151645603Y-110413338D01*
X151608420Y-110419549D01*
X151568689Y-110423276D01*
X151526412Y-110424518D01*
X151522210Y-110424507D01*
X151481452Y-110423154D01*
X151442983Y-110419548D01*
X151403313Y-110412977D01*
X151392809Y-110410722D01*
X151356888Y-110401391D01*
X151319572Y-110389270D01*
X151284794Y-110375975D01*
X151284794Y-110225216D01*
X151305494Y-110225216D01*
X151325263Y-110239380D01*
X151357347Y-110257455D01*
X151392505Y-110273209D01*
X151427324Y-110284995D01*
X151466452Y-110292917D01*
X151506445Y-110295558D01*
X151534310Y-110294601D01*
X151574318Y-110289088D01*
X151612594Y-110277029D01*
X151646762Y-110256357D01*
X151655311Y-110248701D01*
X151678294Y-110218762D01*
X151692799Y-110182025D01*
X151698603Y-110143150D01*
X151273987Y-110143150D01*
X151273987Y-110078487D01*
X151274611Y-110054031D01*
X151276244Y-110037637D01*
X151458451Y-110037637D01*
X151699152Y-110037637D01*
X151697098Y-110021087D01*
X151684849Y-109984964D01*
X151660501Y-109957220D01*
X151646854Y-109948691D01*
X151609854Y-109935653D01*
X151572390Y-109932124D01*
X151558440Y-109932539D01*
X151519663Y-109939621D01*
X151487394Y-109958686D01*
X151480931Y-109965689D01*
X151463935Y-109999245D01*
X151458451Y-110037637D01*
X151276244Y-110037637D01*
X151278429Y-110015713D01*
X151287591Y-109973756D01*
X151301750Y-109936191D01*
X151320907Y-109903019D01*
X151345061Y-109874239D01*
X151363926Y-109857581D01*
X151396334Y-109836758D01*
X151433676Y-109820933D01*
X151475950Y-109810105D01*
X151514947Y-109804899D01*
X151557369Y-109803164D01*
X151576235Y-109803496D01*
G37*
G36*
X150727554Y-110014190D02*
G01*
X150744041Y-110014190D01*
X150780691Y-110005583D01*
X150782326Y-110005397D01*
X150819088Y-110002569D01*
X150825923Y-110002466D01*
X150863338Y-110003748D01*
X150896082Y-110007595D01*
X150933806Y-110015923D01*
X150961478Y-110024448D01*
X150961478Y-110401071D01*
X151147041Y-110401071D01*
X151147041Y-109826611D01*
X150961478Y-109826611D01*
X150961478Y-109911608D01*
X150931802Y-109887600D01*
X150900826Y-109866037D01*
X150866429Y-109847514D01*
X150854866Y-109842915D01*
X150819164Y-109832359D01*
X150780975Y-109826866D01*
X150771335Y-109826611D01*
X150749353Y-109827161D01*
X150727554Y-109828810D01*
X150727554Y-110014190D01*
G37*
G36*
X150357707Y-109803496D02*
G01*
X150402649Y-109807231D01*
X150444415Y-109815117D01*
X150483006Y-109827152D01*
X150518421Y-109843338D01*
X150550661Y-109863674D01*
X150579726Y-109888161D01*
X150590352Y-109899021D01*
X150613916Y-109928239D01*
X150633195Y-109960409D01*
X150648191Y-109995530D01*
X150658902Y-110033603D01*
X150665328Y-110074627D01*
X150667470Y-110118604D01*
X150667108Y-110136704D01*
X150663035Y-110179652D01*
X150654436Y-110219308D01*
X150641311Y-110255673D01*
X150623660Y-110288746D01*
X150601483Y-110318527D01*
X150574780Y-110345017D01*
X150543824Y-110367920D01*
X150508888Y-110386941D01*
X150469972Y-110402081D01*
X150427075Y-110413338D01*
X150389892Y-110419549D01*
X150350162Y-110423276D01*
X150307884Y-110424518D01*
X150303682Y-110424507D01*
X150262924Y-110423154D01*
X150224456Y-110419548D01*
X150184786Y-110412977D01*
X150174281Y-110410722D01*
X150138360Y-110401391D01*
X150101044Y-110389270D01*
X150066267Y-110375975D01*
X150066267Y-110225216D01*
X150086966Y-110225216D01*
X150106735Y-110239380D01*
X150138820Y-110257455D01*
X150173978Y-110273209D01*
X150208797Y-110284995D01*
X150247924Y-110292917D01*
X150287917Y-110295558D01*
X150315783Y-110294601D01*
X150355791Y-110289088D01*
X150394067Y-110277029D01*
X150428235Y-110256357D01*
X150436783Y-110248701D01*
X150459767Y-110218762D01*
X150474271Y-110182025D01*
X150480075Y-110143150D01*
X150055459Y-110143150D01*
X150055459Y-110078487D01*
X150056084Y-110054031D01*
X150057717Y-110037637D01*
X150239923Y-110037637D01*
X150480625Y-110037637D01*
X150478570Y-110021087D01*
X150466321Y-109984964D01*
X150441973Y-109957220D01*
X150428327Y-109948691D01*
X150391326Y-109935653D01*
X150353863Y-109932124D01*
X150339912Y-109932539D01*
X150301136Y-109939621D01*
X150268866Y-109958686D01*
X150262403Y-109965689D01*
X150245407Y-109999245D01*
X150239923Y-110037637D01*
X150057717Y-110037637D01*
X150059901Y-110015713D01*
X150069063Y-109973756D01*
X150083222Y-109936191D01*
X150102379Y-109903019D01*
X150126534Y-109874239D01*
X150145399Y-109857581D01*
X150177807Y-109836758D01*
X150215148Y-109820933D01*
X150257422Y-109810105D01*
X150296419Y-109804899D01*
X150338842Y-109803164D01*
X150357707Y-109803496D01*
G37*
G36*
X149551342Y-109842365D02*
G01*
X149583781Y-109827722D01*
X149619669Y-109814338D01*
X149628252Y-109811719D01*
X149665693Y-109805008D01*
X149704848Y-109803164D01*
X149729853Y-109804526D01*
X149767359Y-109811679D01*
X149804866Y-109824963D01*
X149828931Y-109836950D01*
X149861509Y-109859009D01*
X149889862Y-109885962D01*
X149913566Y-109916394D01*
X149933547Y-109950765D01*
X149948481Y-109985430D01*
X149953461Y-110000168D01*
X149963006Y-110039341D01*
X149968049Y-110077442D01*
X149969730Y-110118237D01*
X149968739Y-110152464D01*
X149964716Y-110192719D01*
X149957598Y-110230166D01*
X149944972Y-110271395D01*
X149927888Y-110308579D01*
X149906349Y-110341719D01*
X149885509Y-110365573D01*
X149852862Y-110392175D01*
X149816166Y-110410853D01*
X149775420Y-110421607D01*
X149737272Y-110424518D01*
X149714012Y-110423448D01*
X149677033Y-110416639D01*
X149641101Y-110402170D01*
X149611651Y-110384918D01*
X149580730Y-110363641D01*
X149551342Y-110340804D01*
X149551342Y-110401071D01*
X149365961Y-110401071D01*
X149365961Y-110248663D01*
X149551342Y-110248663D01*
X149567003Y-110258779D01*
X149601350Y-110274125D01*
X149616987Y-110278818D01*
X149654840Y-110283834D01*
X149681518Y-110281967D01*
X149719381Y-110270079D01*
X149749178Y-110244816D01*
X149756048Y-110234277D01*
X149770216Y-110197681D01*
X149776656Y-110159430D01*
X149778488Y-110119153D01*
X149777918Y-110099109D01*
X149772471Y-110058133D01*
X149761258Y-110022866D01*
X149742034Y-109990376D01*
X149737312Y-109984742D01*
X149706221Y-109960251D01*
X149670443Y-109947528D01*
X149632125Y-109943848D01*
X149629867Y-109943862D01*
X149592558Y-109947512D01*
X149587185Y-109948502D01*
X149551342Y-109959602D01*
X149551342Y-110248663D01*
X149365961Y-110248663D01*
X149365961Y-109592138D01*
X149551342Y-109592138D01*
X149551342Y-109842365D01*
G37*
G36*
X148836015Y-110401071D02*
G01*
X148658146Y-110401071D01*
X148650452Y-110372128D01*
X148648388Y-110373350D01*
X148614436Y-110392023D01*
X148581026Y-110408031D01*
X148569291Y-110412781D01*
X148533387Y-110421797D01*
X148496029Y-110424518D01*
X148482070Y-110424174D01*
X148441945Y-110419011D01*
X148404447Y-110407653D01*
X148369577Y-110390100D01*
X148337334Y-110366351D01*
X148307718Y-110336407D01*
X148282070Y-110301475D01*
X148261728Y-110262897D01*
X148248830Y-110227964D01*
X148239617Y-110190500D01*
X148234090Y-110150505D01*
X148232469Y-110113108D01*
X148423306Y-110113108D01*
X148424187Y-110140502D01*
X148429262Y-110179700D01*
X148440363Y-110216983D01*
X148459393Y-110249945D01*
X148464051Y-110255469D01*
X148494911Y-110279477D01*
X148530667Y-110291950D01*
X148569119Y-110295558D01*
X148575324Y-110295515D01*
X148612350Y-110292810D01*
X148614603Y-110292448D01*
X148650452Y-110282552D01*
X148650452Y-109976454D01*
X148632791Y-109966489D01*
X148597512Y-109952274D01*
X148580253Y-109947831D01*
X148543290Y-109943848D01*
X148512161Y-109946596D01*
X148475127Y-109961021D01*
X148449684Y-109987812D01*
X148443502Y-109999386D01*
X148430751Y-110037239D01*
X148424955Y-110074777D01*
X148423306Y-110113108D01*
X148232469Y-110113108D01*
X148232247Y-110107979D01*
X148233175Y-110073269D01*
X148236942Y-110032594D01*
X148243607Y-109994934D01*
X148255431Y-109953720D01*
X148271428Y-109916846D01*
X148291598Y-109884314D01*
X148315564Y-109856735D01*
X148348016Y-109831772D01*
X148385307Y-109814576D01*
X148421122Y-109806017D01*
X148460492Y-109803164D01*
X148488691Y-109804492D01*
X148527854Y-109811464D01*
X148563257Y-109824413D01*
X148588151Y-109837292D01*
X148620892Y-109857663D01*
X148650452Y-109879551D01*
X148650452Y-109592138D01*
X148836015Y-109592138D01*
X148836015Y-110401071D01*
G37*
G36*
X147840604Y-110200669D02*
G01*
X147708713Y-109826611D01*
X147518020Y-109826611D01*
X147839505Y-110612096D01*
X148040455Y-110612096D01*
X147948864Y-110401071D01*
X148173995Y-109826611D01*
X147979273Y-109826611D01*
X147840604Y-110200669D01*
G37*
D12*
G36*
X144922579Y-109692571D02*
G01*
X145120513Y-109692571D01*
X145120513Y-109079814D01*
X144922579Y-109079814D01*
X144922579Y-109692571D01*
G37*
G36*
X144917108Y-108979772D02*
G01*
X145125984Y-108979772D01*
X145125984Y-108829709D01*
X144917108Y-108829709D01*
X144917108Y-108979772D01*
G37*
G36*
X144118336Y-109692571D02*
G01*
X144317247Y-109692571D01*
X144317247Y-109385801D01*
X144318350Y-109346204D01*
X144321155Y-109311356D01*
X144328009Y-109272415D01*
X144334246Y-109256450D01*
X144362584Y-109228605D01*
X144366487Y-109226751D01*
X144405502Y-109218114D01*
X144425496Y-109217372D01*
X144464661Y-109221914D01*
X144480206Y-109226164D01*
X144516720Y-109241277D01*
X144540387Y-109254301D01*
X144540387Y-109692571D01*
X144738322Y-109692571D01*
X144738322Y-109079814D01*
X144540387Y-109079814D01*
X144540387Y-109140386D01*
X144507815Y-109116386D01*
X144472912Y-109094349D01*
X144438978Y-109076883D01*
X144400977Y-109063428D01*
X144359953Y-109056184D01*
X144330925Y-109054804D01*
X144289327Y-109057609D01*
X144246893Y-109067684D01*
X144209905Y-109085086D01*
X144178364Y-109109815D01*
X144174805Y-109113422D01*
X144150100Y-109146346D01*
X144132453Y-109186499D01*
X144122803Y-109227564D01*
X144118832Y-109267168D01*
X144118336Y-109288495D01*
X144118336Y-109692571D01*
G37*
G36*
X143733055Y-109056147D02*
G01*
X143773840Y-109063199D01*
X143813912Y-109076297D01*
X143839349Y-109088021D01*
X143873614Y-109109636D01*
X143903207Y-109136088D01*
X143925914Y-109163248D01*
X143946924Y-109196342D01*
X143963779Y-109232808D01*
X143967585Y-109243396D01*
X143977569Y-109281345D01*
X143983392Y-109323378D01*
X143985077Y-109364699D01*
X143983978Y-109403243D01*
X143979513Y-109447861D01*
X143971613Y-109488519D01*
X143957600Y-109532082D01*
X143938640Y-109569943D01*
X143914735Y-109602103D01*
X143905710Y-109611544D01*
X143870469Y-109639790D01*
X143835738Y-109658062D01*
X143796830Y-109670853D01*
X143753745Y-109678162D01*
X143714651Y-109680065D01*
X143698225Y-109679650D01*
X143657794Y-109674687D01*
X143617931Y-109663066D01*
X143607206Y-109658627D01*
X143571542Y-109640109D01*
X143538796Y-109616953D01*
X143538796Y-109627700D01*
X143539560Y-109649159D01*
X143546612Y-109689249D01*
X143549799Y-109698525D01*
X143571232Y-109731259D01*
X143587141Y-109743175D01*
X143623793Y-109758028D01*
X143632665Y-109760272D01*
X143671700Y-109766022D01*
X143712893Y-109767602D01*
X143726048Y-109767316D01*
X143765778Y-109763469D01*
X143806487Y-109755878D01*
X143819279Y-109752911D01*
X143857396Y-109742760D01*
X143894805Y-109730086D01*
X143919034Y-109730086D01*
X143919034Y-109890310D01*
X143892096Y-109896421D01*
X143852043Y-109903753D01*
X143811176Y-109909654D01*
X143803353Y-109910624D01*
X143764034Y-109914535D01*
X143724371Y-109916882D01*
X143684365Y-109917665D01*
X143664838Y-109917430D01*
X143622777Y-109915182D01*
X143583313Y-109910553D01*
X143542509Y-109902619D01*
X143508571Y-109892782D01*
X143471037Y-109876730D01*
X143435042Y-109854162D01*
X143409145Y-109831023D01*
X143385153Y-109799797D01*
X143365872Y-109762522D01*
X143358724Y-109743601D01*
X143348061Y-109701782D01*
X143342608Y-109659610D01*
X143341057Y-109618516D01*
X143341057Y-109496395D01*
X143538796Y-109496395D01*
X143554050Y-109505329D01*
X143590967Y-109520819D01*
X143608911Y-109525662D01*
X143649194Y-109530002D01*
X143676289Y-109528338D01*
X143715559Y-109517741D01*
X143747868Y-109495222D01*
X143751891Y-109490667D01*
X143770575Y-109454617D01*
X143779009Y-109413157D01*
X143781085Y-109372515D01*
X143780933Y-109362759D01*
X143776491Y-109322242D01*
X143764340Y-109283713D01*
X143742202Y-109249221D01*
X143737164Y-109243850D01*
X143704001Y-109220503D01*
X143665838Y-109208375D01*
X143624965Y-109204866D01*
X143619955Y-109204930D01*
X143580611Y-109208970D01*
X143577539Y-109209494D01*
X143538796Y-109220107D01*
X143538796Y-109496395D01*
X143341057Y-109496395D01*
X143341057Y-109079814D01*
X143532739Y-109079814D01*
X143539969Y-109099353D01*
X143575433Y-109080742D01*
X143614609Y-109066723D01*
X143627595Y-109063289D01*
X143666341Y-109056771D01*
X143705468Y-109054804D01*
X143733055Y-109056147D01*
G37*
G36*
X142874961Y-109054890D02*
G01*
X142922335Y-109057909D01*
X142966293Y-109065240D01*
X143006835Y-109076883D01*
X143043962Y-109092839D01*
X143077673Y-109113107D01*
X143113618Y-109143122D01*
X143143965Y-109178584D01*
X143168033Y-109218730D01*
X143183293Y-109255764D01*
X143194193Y-109296052D01*
X143200734Y-109339593D01*
X143202914Y-109386388D01*
X143200748Y-109432910D01*
X143194251Y-109476246D01*
X143183422Y-109516395D01*
X143168262Y-109553358D01*
X143144352Y-109593507D01*
X143114205Y-109629067D01*
X143108590Y-109634513D01*
X143071963Y-109663557D01*
X143037589Y-109683005D01*
X142999713Y-109698132D01*
X142958336Y-109708937D01*
X142913457Y-109715420D01*
X142865077Y-109717581D01*
X142855109Y-109717495D01*
X142807375Y-109714469D01*
X142763151Y-109707122D01*
X142722439Y-109695453D01*
X142685238Y-109679461D01*
X142651548Y-109659148D01*
X142615754Y-109629067D01*
X142585607Y-109593507D01*
X142561697Y-109553358D01*
X142546537Y-109516395D01*
X142535708Y-109476246D01*
X142529211Y-109432910D01*
X142527100Y-109387560D01*
X142732013Y-109387560D01*
X142732098Y-109398579D01*
X142734407Y-109441049D01*
X142741588Y-109481545D01*
X142750142Y-109505642D01*
X142770506Y-109539577D01*
X142778299Y-109548553D01*
X142811930Y-109570840D01*
X142824301Y-109574858D01*
X142863318Y-109580023D01*
X142880378Y-109579235D01*
X142919201Y-109570058D01*
X142930986Y-109564245D01*
X142961211Y-109538014D01*
X142975295Y-109514997D01*
X142988566Y-109477051D01*
X142990764Y-109467360D01*
X142996397Y-109427215D01*
X142997945Y-109387560D01*
X142997777Y-109373409D01*
X142994912Y-109331678D01*
X142987198Y-109291621D01*
X142978956Y-109267343D01*
X142958475Y-109231635D01*
X142949425Y-109222049D01*
X142915879Y-109200177D01*
X142904351Y-109196758D01*
X142865077Y-109192361D01*
X142850972Y-109192960D01*
X142811734Y-109201935D01*
X142799779Y-109207553D01*
X142769334Y-109234371D01*
X142755442Y-109256950D01*
X142741978Y-109294552D01*
X142738592Y-109309253D01*
X142733415Y-109348469D01*
X142732013Y-109387560D01*
X142527100Y-109387560D01*
X142527045Y-109386388D01*
X142529201Y-109339917D01*
X142535670Y-109296613D01*
X142546451Y-109256477D01*
X142561544Y-109219509D01*
X142585349Y-109179328D01*
X142615363Y-109143708D01*
X142626665Y-109132942D01*
X142664016Y-109104812D01*
X142699088Y-109086146D01*
X142737747Y-109071820D01*
X142779993Y-109061836D01*
X142825827Y-109056193D01*
X142865077Y-109054804D01*
X142874961Y-109054890D01*
G37*
G36*
X141352334Y-109692571D02*
G01*
X141582704Y-109692571D01*
X141755824Y-109425662D01*
X141809557Y-109490533D01*
X141809557Y-109692571D01*
X142007491Y-109692571D01*
X142007491Y-108829709D01*
X141809557Y-108829709D01*
X141809557Y-109350435D01*
X141596382Y-109079814D01*
X141368357Y-109079814D01*
X141590325Y-109343987D01*
X141352334Y-109692571D01*
G37*
G36*
X140973384Y-109054890D02*
G01*
X141020758Y-109057909D01*
X141064716Y-109065240D01*
X141105258Y-109076883D01*
X141142385Y-109092839D01*
X141176096Y-109113107D01*
X141212041Y-109143122D01*
X141242388Y-109178584D01*
X141266456Y-109218730D01*
X141281716Y-109255764D01*
X141292616Y-109296052D01*
X141299156Y-109339593D01*
X141301336Y-109386388D01*
X141299171Y-109432910D01*
X141292673Y-109476246D01*
X141281845Y-109516395D01*
X141266685Y-109553358D01*
X141242775Y-109593507D01*
X141212627Y-109629067D01*
X141207013Y-109634513D01*
X141170386Y-109663557D01*
X141136012Y-109683005D01*
X141098136Y-109698132D01*
X141056759Y-109708937D01*
X141011880Y-109715420D01*
X140963500Y-109717581D01*
X140953532Y-109717495D01*
X140905797Y-109714469D01*
X140861574Y-109707122D01*
X140820862Y-109695453D01*
X140783661Y-109679461D01*
X140749970Y-109659148D01*
X140714177Y-109629067D01*
X140684029Y-109593507D01*
X140660120Y-109553358D01*
X140644959Y-109516395D01*
X140634131Y-109476246D01*
X140627633Y-109432910D01*
X140625523Y-109387560D01*
X140830436Y-109387560D01*
X140830520Y-109398579D01*
X140832830Y-109441049D01*
X140840011Y-109481545D01*
X140848565Y-109505642D01*
X140868929Y-109539577D01*
X140876721Y-109548553D01*
X140910353Y-109570840D01*
X140922723Y-109574858D01*
X140961741Y-109580023D01*
X140978801Y-109579235D01*
X141017624Y-109570058D01*
X141029409Y-109564245D01*
X141059634Y-109538014D01*
X141073717Y-109514997D01*
X141086989Y-109477051D01*
X141089187Y-109467360D01*
X141094820Y-109427215D01*
X141096368Y-109387560D01*
X141096200Y-109373409D01*
X141093335Y-109331678D01*
X141085621Y-109291621D01*
X141077379Y-109267343D01*
X141056898Y-109231635D01*
X141047848Y-109222049D01*
X141014302Y-109200177D01*
X141002774Y-109196758D01*
X140963500Y-109192361D01*
X140949395Y-109192960D01*
X140910157Y-109201935D01*
X140898201Y-109207553D01*
X140867757Y-109234371D01*
X140853865Y-109256950D01*
X140840401Y-109294552D01*
X140837015Y-109309253D01*
X140831838Y-109348469D01*
X140830436Y-109387560D01*
X140625523Y-109387560D01*
X140625468Y-109386388D01*
X140627624Y-109339917D01*
X140634093Y-109296613D01*
X140644874Y-109256477D01*
X140659967Y-109219509D01*
X140683771Y-109179328D01*
X140713786Y-109143708D01*
X140725088Y-109132942D01*
X140762439Y-109104812D01*
X140797511Y-109086146D01*
X140836170Y-109071820D01*
X140878416Y-109061836D01*
X140924250Y-109056193D01*
X140963500Y-109054804D01*
X140973384Y-109054890D01*
G37*
G36*
X140040653Y-109279898D02*
G01*
X140058238Y-109279898D01*
X140097332Y-109270717D01*
X140099075Y-109270519D01*
X140138289Y-109267502D01*
X140145579Y-109267393D01*
X140185489Y-109268760D01*
X140220415Y-109272864D01*
X140260655Y-109281746D01*
X140290171Y-109290840D01*
X140290171Y-109692571D01*
X140488105Y-109692571D01*
X140488105Y-109079814D01*
X140290171Y-109079814D01*
X140290171Y-109170477D01*
X140258517Y-109144868D01*
X140225476Y-109121868D01*
X140188786Y-109102110D01*
X140176452Y-109097204D01*
X140138370Y-109085945D01*
X140097634Y-109080086D01*
X140087352Y-109079814D01*
X140063905Y-109080400D01*
X140040653Y-109082159D01*
X140040653Y-109279898D01*
G37*
G36*
X139931623Y-109692571D02*
G01*
X139741895Y-109692571D01*
X139733688Y-109661698D01*
X139731486Y-109663001D01*
X139695271Y-109682919D01*
X139659634Y-109699995D01*
X139647116Y-109705062D01*
X139608819Y-109714679D01*
X139568971Y-109717581D01*
X139554081Y-109717214D01*
X139511281Y-109711707D01*
X139471283Y-109699592D01*
X139434088Y-109680868D01*
X139399695Y-109655536D01*
X139368105Y-109623596D01*
X139340747Y-109586335D01*
X139319049Y-109545185D01*
X139305292Y-109507924D01*
X139295465Y-109467962D01*
X139289568Y-109425301D01*
X139287840Y-109385411D01*
X139491399Y-109385411D01*
X139492339Y-109414631D01*
X139497752Y-109456442D01*
X139509593Y-109496211D01*
X139529892Y-109531370D01*
X139534860Y-109537262D01*
X139567778Y-109562871D01*
X139605918Y-109576175D01*
X139646933Y-109580023D01*
X139653552Y-109579978D01*
X139693046Y-109577092D01*
X139695449Y-109576706D01*
X139733688Y-109566150D01*
X139733688Y-109239647D01*
X139714850Y-109229017D01*
X139677219Y-109213855D01*
X139658809Y-109209115D01*
X139619383Y-109204866D01*
X139586178Y-109207797D01*
X139546674Y-109223185D01*
X139519536Y-109251761D01*
X139512942Y-109264107D01*
X139499340Y-109304483D01*
X139493158Y-109344524D01*
X139491399Y-109385411D01*
X139287840Y-109385411D01*
X139287603Y-109379940D01*
X139288592Y-109342915D01*
X139292611Y-109299529D01*
X139299721Y-109259358D01*
X139312333Y-109215396D01*
X139329396Y-109176065D01*
X139350911Y-109141363D01*
X139376474Y-109111946D01*
X139411090Y-109085319D01*
X139450867Y-109066976D01*
X139489070Y-109057847D01*
X139531064Y-109054804D01*
X139561143Y-109056220D01*
X139602918Y-109063657D01*
X139640681Y-109077469D01*
X139667234Y-109091206D01*
X139702158Y-109112936D01*
X139733688Y-109136283D01*
X139733688Y-108829709D01*
X139931623Y-108829709D01*
X139931623Y-109692571D01*
G37*
G36*
X138959927Y-108829709D02*
G01*
X138992948Y-109154845D01*
X139117024Y-109154845D01*
X139150045Y-108829709D01*
X138959927Y-108829709D01*
G37*
G36*
X138240876Y-109501084D02*
G01*
X138244981Y-109541851D01*
X138257294Y-109579009D01*
X138277817Y-109612558D01*
X138306550Y-109642498D01*
X138326654Y-109657986D01*
X138361040Y-109678239D01*
X138399863Y-109694302D01*
X138443123Y-109706174D01*
X138482564Y-109712867D01*
X138525086Y-109716650D01*
X138561323Y-109717581D01*
X138601586Y-109716616D01*
X138644576Y-109713224D01*
X138685124Y-109707391D01*
X138710799Y-109702145D01*
X138750111Y-109692173D01*
X138787403Y-109680454D01*
X138818461Y-109667951D01*
X138818461Y-109504992D01*
X138800290Y-109504992D01*
X138766096Y-109526290D01*
X138729630Y-109543871D01*
X138710799Y-109551300D01*
X138673533Y-109563500D01*
X138641043Y-109571621D01*
X138600597Y-109577923D01*
X138560194Y-109580015D01*
X138557415Y-109580023D01*
X138518003Y-109578292D01*
X138478704Y-109570599D01*
X138471246Y-109567714D01*
X138443796Y-109538594D01*
X138443109Y-109531370D01*
X138459718Y-109498153D01*
X138496323Y-109484283D01*
X138522244Y-109478223D01*
X138562058Y-109470516D01*
X138582034Y-109467281D01*
X138622076Y-109459883D01*
X138650227Y-109453017D01*
X138689611Y-109440316D01*
X138727408Y-109422291D01*
X138761319Y-109397623D01*
X138775084Y-109383457D01*
X138798223Y-109348200D01*
X138811757Y-109307449D01*
X138815726Y-109265634D01*
X138810450Y-109222220D01*
X138794623Y-109182640D01*
X138768245Y-109146895D01*
X138736509Y-109118764D01*
X138731316Y-109114985D01*
X138697491Y-109094533D01*
X138659325Y-109078312D01*
X138616818Y-109066323D01*
X138578078Y-109059564D01*
X138536324Y-109055744D01*
X138500750Y-109054804D01*
X138458073Y-109056177D01*
X138416502Y-109060299D01*
X138376038Y-109067168D01*
X138368078Y-109068872D01*
X138327698Y-109078664D01*
X138288430Y-109090890D01*
X138268817Y-109098767D01*
X138268817Y-109254887D01*
X138285817Y-109254887D01*
X138320548Y-109235534D01*
X138358796Y-109219094D01*
X138386249Y-109209751D01*
X138425099Y-109199850D01*
X138464272Y-109194059D01*
X138500164Y-109192361D01*
X138539172Y-109194755D01*
X138578796Y-109204097D01*
X138580862Y-109204866D01*
X138611453Y-109229559D01*
X138613493Y-109240428D01*
X138598643Y-109274622D01*
X138561902Y-109290009D01*
X138528887Y-109298069D01*
X138489274Y-109305565D01*
X138463821Y-109309989D01*
X138424411Y-109317572D01*
X138393674Y-109324838D01*
X138353035Y-109338374D01*
X138315422Y-109357838D01*
X138283215Y-109384625D01*
X138278392Y-109390100D01*
X138257033Y-109423226D01*
X138244540Y-109461616D01*
X138240876Y-109501084D01*
G37*
%LPC*%
D13*
X137349500Y-84538700D02*
G75*
G02*
X137090500Y-84538700I-129500J0D01*
G01*
X137090500Y-84538700D02*
G75*
G02*
X137349500Y-84538700I129500J0D01*
G01*
X137349500Y-83538700D02*
G75*
G02*
X137090500Y-83538700I-129500J0D01*
G01*
X137090500Y-83538700D02*
G75*
G02*
X137349500Y-83538700I129500J0D01*
G01*
X134349500Y-82538700D02*
G75*
G02*
X134090500Y-82538700I-129500J0D01*
G01*
X134090500Y-82538700D02*
G75*
G02*
X134349500Y-82538700I129500J0D01*
G01*
X135349500Y-84538700D02*
G75*
G02*
X135090500Y-84538700I-129500J0D01*
G01*
X135090500Y-84538700D02*
G75*
G02*
X135349500Y-84538700I129500J0D01*
G01*
X134349500Y-84538700D02*
G75*
G02*
X134090500Y-84538700I-129500J0D01*
G01*
X134090500Y-84538700D02*
G75*
G02*
X134349500Y-84538700I129500J0D01*
G01*
X136349500Y-85538700D02*
G75*
G02*
X136090500Y-85538700I-129500J0D01*
G01*
X136090500Y-85538700D02*
G75*
G02*
X136349500Y-85538700I129500J0D01*
G01*
X134349500Y-85538700D02*
G75*
G02*
X134090500Y-85538700I-129500J0D01*
G01*
X134090500Y-85538700D02*
G75*
G02*
X134349500Y-85538700I129500J0D01*
G01*
X135349500Y-82538700D02*
G75*
G02*
X135090500Y-82538700I-129500J0D01*
G01*
X135090500Y-82538700D02*
G75*
G02*
X135349500Y-82538700I129500J0D01*
G01*
X134349500Y-83538700D02*
G75*
G02*
X134090500Y-83538700I-129500J0D01*
G01*
X134090500Y-83538700D02*
G75*
G02*
X134349500Y-83538700I129500J0D01*
G01*
X135349500Y-87538700D02*
G75*
G02*
X135090500Y-87538700I-129500J0D01*
G01*
X135090500Y-87538700D02*
G75*
G02*
X135349500Y-87538700I129500J0D01*
G01*
X133349500Y-87538700D02*
G75*
G02*
X133090500Y-87538700I-129500J0D01*
G01*
X133090500Y-87538700D02*
G75*
G02*
X133349500Y-87538700I129500J0D01*
G01*
X135349500Y-85538700D02*
G75*
G02*
X135090500Y-85538700I-129500J0D01*
G01*
X135090500Y-85538700D02*
G75*
G02*
X135349500Y-85538700I129500J0D01*
G01*
X136349500Y-82538700D02*
G75*
G02*
X136090500Y-82538700I-129500J0D01*
G01*
X136090500Y-82538700D02*
G75*
G02*
X136349500Y-82538700I129500J0D01*
G01*
X136349500Y-86538700D02*
G75*
G02*
X136090500Y-86538700I-129500J0D01*
G01*
X136090500Y-86538700D02*
G75*
G02*
X136349500Y-86538700I129500J0D01*
G01*
X136349500Y-87538700D02*
G75*
G02*
X136090500Y-87538700I-129500J0D01*
G01*
X136090500Y-87538700D02*
G75*
G02*
X136349500Y-87538700I129500J0D01*
G01*
X135349500Y-83538700D02*
G75*
G02*
X135090500Y-83538700I-129500J0D01*
G01*
X135090500Y-83538700D02*
G75*
G02*
X135349500Y-83538700I129500J0D01*
G01*
X136349500Y-83538700D02*
G75*
G02*
X136090500Y-83538700I-129500J0D01*
G01*
X136090500Y-83538700D02*
G75*
G02*
X136349500Y-83538700I129500J0D01*
G01*
X134349500Y-86538700D02*
G75*
G02*
X134090500Y-86538700I-129500J0D01*
G01*
X134090500Y-86538700D02*
G75*
G02*
X134349500Y-86538700I129500J0D01*
G01*
X137349500Y-82538700D02*
G75*
G02*
X137090500Y-82538700I-129500J0D01*
G01*
X137090500Y-82538700D02*
G75*
G02*
X137349500Y-82538700I129500J0D01*
G01*
X136349500Y-84538700D02*
G75*
G02*
X136090500Y-84538700I-129500J0D01*
G01*
X136090500Y-84538700D02*
G75*
G02*
X136349500Y-84538700I129500J0D01*
G01*
X135349500Y-86538700D02*
G75*
G02*
X135090500Y-86538700I-129500J0D01*
G01*
X135090500Y-86538700D02*
G75*
G02*
X135349500Y-86538700I129500J0D01*
G01*
X134349500Y-87538700D02*
G75*
G02*
X134090500Y-87538700I-129500J0D01*
G01*
X134090500Y-87538700D02*
G75*
G02*
X134349500Y-87538700I129500J0D01*
G01*
%LPD*%
M02*
