%TF.GenerationSoftware,KiCad,Pcbnew,8.99.0-417-ga763d613e5*%
%TF.CreationDate,2024-04-11T17:26:30-04:00*%
%TF.ProjectId,fujiflex,66756a69-666c-4657-982e-6b696361645f,rev?*%
%TF.SameCoordinates,Original*%
%TF.FileFunction,Legend,Top*%
%TF.FilePolarity,Positive*%
%FSLAX46Y46*%
G04 Gerber Fmt 4.6, Leading zero omitted, Abs format (unit mm)*
G04 Created by KiCad (PCBNEW 8.99.0-417-ga763d613e5) date 2024-04-11 17:26:30*
%MOMM*%
%LPD*%
G01*
G04 APERTURE LIST*
G04 Aperture macros list*
%AMRoundRect*
0 Rectangle with rounded corners*
0 $1 Rounding radius*
0 $2 $3 $4 $5 $6 $7 $8 $9 X,Y pos of 4 corners*
0 Add a 4 corners polygon primitive as box body*
4,1,4,$2,$3,$4,$5,$6,$7,$8,$9,$2,$3,0*
0 Add four circle primitives for the rounded corners*
1,1,$1+$1,$2,$3*
1,1,$1+$1,$4,$5*
1,1,$1+$1,$6,$7*
1,1,$1+$1,$8,$9*
0 Add four rect primitives between the rounded corners*
20,1,$1+$1,$2,$3,$4,$5,0*
20,1,$1+$1,$4,$5,$6,$7,0*
20,1,$1+$1,$6,$7,$8,$9,0*
20,1,$1+$1,$8,$9,$2,$3,0*%
%AMFreePoly0*
4,1,19,0.500000,-0.750000,0.000000,-0.750000,0.000000,-0.744911,-0.071157,-0.744911,-0.207708,-0.704816,-0.327430,-0.627875,-0.420627,-0.520320,-0.479746,-0.390866,-0.500000,-0.250000,-0.500000,0.250000,-0.479746,0.390866,-0.420627,0.520320,-0.327430,0.627875,-0.207708,0.704816,-0.071157,0.744911,0.000000,0.744911,0.000000,0.750000,0.500000,0.750000,0.500000,-0.750000,0.500000,-0.750000,
$1*%
%AMFreePoly1*
4,1,19,0.000000,0.744911,0.071157,0.744911,0.207708,0.704816,0.327430,0.627875,0.420627,0.520320,0.479746,0.390866,0.500000,0.250000,0.500000,-0.250000,0.479746,-0.390866,0.420627,-0.520320,0.327430,-0.627875,0.207708,-0.704816,0.071157,-0.744911,0.000000,-0.744911,0.000000,-0.750000,-0.500000,-0.750000,-0.500000,0.750000,0.000000,0.750000,0.000000,0.744911,0.000000,0.744911,
$1*%
G04 Aperture macros list end*
%ADD10C,0.150000*%
%ADD11C,0.273607*%
%ADD12C,0.120000*%
%ADD13C,0.125000*%
%ADD14C,0.200000*%
%ADD15C,0.350000*%
%ADD16C,0.100000*%
%ADD17C,0.259000*%
%ADD18C,0.010000*%
%ADD19C,0.750000*%
%ADD20RoundRect,0.140000X0.140000X0.170000X-0.140000X0.170000X-0.140000X-0.170000X0.140000X-0.170000X0*%
%ADD21RoundRect,0.120000X-0.030000X-0.617500X0.030000X-0.617500X0.030000X0.617500X-0.030000X0.617500X0*%
%ADD22RoundRect,0.120000X-0.617500X0.030000X-0.617500X-0.030000X0.617500X-0.030000X0.617500X0.030000X0*%
%ADD23RoundRect,0.150000X-0.112992X-0.223009X0.182451X-0.170914X0.112992X0.223009X-0.182451X0.170914X0*%
%ADD24RoundRect,0.140000X0.170000X-0.140000X0.170000X0.140000X-0.170000X0.140000X-0.170000X-0.140000X0*%
%ADD25RoundRect,0.135000X0.135000X0.185000X-0.135000X0.185000X-0.135000X-0.185000X0.135000X-0.185000X0*%
%ADD26RoundRect,0.135000X0.024413X0.227715X-0.209413X0.092715X-0.024413X-0.227715X0.209413X-0.092715X0*%
%ADD27RoundRect,0.150000X0.309359X0.521491X-0.521491X-0.309359X-0.309359X-0.521491X0.521491X0.309359X0*%
%ADD28RoundRect,0.140000X-0.140000X-0.170000X0.140000X-0.170000X0.140000X0.170000X-0.140000X0.170000X0*%
%ADD29C,1.000000*%
%ADD30RoundRect,0.140000X-0.170000X0.140000X-0.170000X-0.140000X0.170000X-0.140000X0.170000X0.140000X0*%
%ADD31RoundRect,0.090000X-0.060000X-0.385000X0.060000X-0.385000X0.060000X0.385000X-0.060000X0.385000X0*%
%ADD32RoundRect,0.075000X-0.750000X0.050000X-0.750000X-0.050000X0.750000X-0.050000X0.750000X0.050000X0*%
%ADD33FreePoly0,0.000000*%
%ADD34FreePoly1,0.000000*%
%ADD35C,1.500000*%
%ADD36RoundRect,0.135000X0.185000X-0.135000X0.185000X0.135000X-0.185000X0.135000X-0.185000X-0.135000X0*%
%ADD37RoundRect,0.135000X-0.209413X-0.092715X0.024413X-0.227715X0.209413X0.092715X-0.024413X0.227715X0*%
%ADD38RoundRect,0.075000X0.425000X-0.075000X0.425000X0.075000X-0.425000X0.075000X-0.425000X-0.075000X0*%
%ADD39RoundRect,0.325000X0.325000X0.675000X-0.325000X0.675000X-0.325000X-0.675000X0.325000X-0.675000X0*%
%ADD40RoundRect,0.135000X-0.135000X-0.185000X0.135000X-0.185000X0.135000X0.185000X-0.135000X0.185000X0*%
G04 APERTURE END LIST*
D10*
X134820000Y-94838700D02*
X134620000Y-94238700D01*
X134820000Y-94638700D02*
X134920000Y-94338700D01*
X135020000Y-94238700D02*
X134820000Y-94838700D01*
D11*
X150202041Y-92800771D02*
G75*
G02*
X149928435Y-92800771I-136803J0D01*
G01*
X149928435Y-92800771D02*
G75*
G02*
X150202041Y-92800771I136803J0D01*
G01*
D10*
X134620000Y-94238700D02*
X135020000Y-94238700D01*
D12*
X151744896Y-110161173D02*
X151744896Y-109961681D01*
D10*
X134720000Y-94338700D02*
X134820000Y-94638700D01*
X134920000Y-94338700D02*
X134720000Y-94338700D01*
D12*
X152375110Y-110451343D02*
X151744896Y-110161173D01*
D13*
G36*
X144416946Y-92330708D02*
G01*
X144425666Y-92336521D01*
X144431650Y-92345240D01*
X144433702Y-92355840D01*
X144433702Y-92539462D01*
X144445498Y-92530401D01*
X144496789Y-92503900D01*
X144508586Y-92503900D01*
X144585352Y-92503900D01*
X144597149Y-92506978D01*
X144655279Y-92537924D01*
X144706399Y-92589898D01*
X144713408Y-92600840D01*
X144738883Y-92678803D01*
X144739909Y-92739839D01*
X144713408Y-92825666D01*
X144706399Y-92836779D01*
X144655279Y-92888754D01*
X144597149Y-92919700D01*
X144585352Y-92919700D01*
X144508586Y-92919700D01*
X144496789Y-92916964D01*
X144445498Y-92892515D01*
X144433702Y-92884138D01*
X144431650Y-92904825D01*
X144425837Y-92913716D01*
X144416946Y-92919700D01*
X144381385Y-92921751D01*
X144370614Y-92919700D01*
X144361723Y-92913716D01*
X144355910Y-92904825D01*
X144353859Y-92894054D01*
X144353859Y-92800875D01*
X144433702Y-92800875D01*
X144515425Y-92843105D01*
X144578513Y-92843105D01*
X144619888Y-92821563D01*
X144637498Y-92802927D01*
X144659211Y-92734026D01*
X144659211Y-92689574D01*
X144637498Y-92620673D01*
X144619888Y-92602037D01*
X144578513Y-92580495D01*
X144515425Y-92580495D01*
X144433702Y-92622725D01*
X144433702Y-92800875D01*
X144353859Y-92800875D01*
X144353859Y-92356524D01*
X144355910Y-92345582D01*
X144361894Y-92336692D01*
X144370614Y-92330879D01*
X144381556Y-92328827D01*
X144416946Y-92330708D01*
G37*
G36*
X144877711Y-92330879D02*
G01*
X144914127Y-92328827D01*
X144924898Y-92330879D01*
X144959434Y-92362337D01*
X144965247Y-92371228D01*
X144967299Y-92407644D01*
X144965247Y-92418415D01*
X144959434Y-92427306D01*
X144924898Y-92458764D01*
X144888482Y-92460816D01*
X144877711Y-92458764D01*
X144843175Y-92427306D01*
X144837362Y-92418415D01*
X144835310Y-92381999D01*
X144837362Y-92371228D01*
X144843175Y-92362337D01*
X144877711Y-92330879D01*
G37*
G36*
X144863007Y-92521681D02*
G01*
X144868820Y-92512791D01*
X144877711Y-92505952D01*
X144914127Y-92503900D01*
X144924898Y-92505952D01*
X144933789Y-92512791D01*
X144939602Y-92521681D01*
X144941653Y-92531769D01*
X144941653Y-92891831D01*
X144939602Y-92902773D01*
X144933789Y-92911835D01*
X144924898Y-92917648D01*
X144914127Y-92919700D01*
X144877711Y-92917648D01*
X144868820Y-92911835D01*
X144863007Y-92902773D01*
X144860956Y-92891831D01*
X144860956Y-92531769D01*
X144863007Y-92521681D01*
G37*
G36*
X145041500Y-92519630D02*
G01*
X145047313Y-92510739D01*
X145057229Y-92503900D01*
X145116385Y-92502020D01*
X145116385Y-92355669D01*
X145118436Y-92345069D01*
X145124249Y-92336521D01*
X145133140Y-92330708D01*
X145143911Y-92328827D01*
X145169556Y-92328827D01*
X145180327Y-92328827D01*
X145189218Y-92334640D01*
X145195031Y-92343531D01*
X145197083Y-92354302D01*
X145197083Y-92503900D01*
X145246322Y-92503900D01*
X145256067Y-92503900D01*
X145264958Y-92510739D01*
X145270942Y-92519630D01*
X145273848Y-92529375D01*
X145273848Y-92555021D01*
X145270942Y-92565792D01*
X145264958Y-92574682D01*
X145256067Y-92580495D01*
X145197083Y-92582547D01*
X145197083Y-92891660D01*
X145195031Y-92902773D01*
X145189218Y-92911664D01*
X145180327Y-92917648D01*
X145143911Y-92919700D01*
X145133140Y-92917648D01*
X145124249Y-92911664D01*
X145118436Y-92902773D01*
X145116385Y-92891660D01*
X145116385Y-92582547D01*
X145067145Y-92582547D01*
X145057229Y-92580495D01*
X145047313Y-92574682D01*
X145041500Y-92565792D01*
X145039448Y-92555021D01*
X145039448Y-92529375D01*
X145041500Y-92519630D01*
G37*
G36*
X145432508Y-92330708D02*
G01*
X145441228Y-92336521D01*
X145447212Y-92345240D01*
X145449263Y-92355840D01*
X145449263Y-92539462D01*
X145461060Y-92530401D01*
X145512351Y-92503900D01*
X145524148Y-92503900D01*
X145600914Y-92503900D01*
X145612711Y-92506978D01*
X145670840Y-92537924D01*
X145721960Y-92589898D01*
X145728970Y-92600840D01*
X145754445Y-92678803D01*
X145755471Y-92739839D01*
X145728970Y-92825666D01*
X145721960Y-92836779D01*
X145670840Y-92888754D01*
X145612711Y-92919700D01*
X145600914Y-92919700D01*
X145524148Y-92919700D01*
X145512351Y-92916964D01*
X145461060Y-92892515D01*
X145449263Y-92884138D01*
X145447212Y-92904825D01*
X145441399Y-92913716D01*
X145432508Y-92919700D01*
X145396946Y-92921751D01*
X145386175Y-92919700D01*
X145377285Y-92913716D01*
X145371472Y-92904825D01*
X145369420Y-92894054D01*
X145369420Y-92800875D01*
X145449263Y-92800875D01*
X145530987Y-92843105D01*
X145594075Y-92843105D01*
X145635450Y-92821563D01*
X145653060Y-92802927D01*
X145674773Y-92734026D01*
X145674773Y-92689574D01*
X145653060Y-92620673D01*
X145635450Y-92602037D01*
X145594075Y-92580495D01*
X145530987Y-92580495D01*
X145449263Y-92622725D01*
X145449263Y-92800875D01*
X145369420Y-92800875D01*
X145369420Y-92356524D01*
X145371472Y-92345582D01*
X145377456Y-92336692D01*
X145386175Y-92330879D01*
X145397117Y-92328827D01*
X145432508Y-92330708D01*
G37*
G36*
X145877543Y-92521681D02*
G01*
X145883527Y-92512791D01*
X145892247Y-92505952D01*
X145903189Y-92503900D01*
X145938579Y-92505952D01*
X145947299Y-92512962D01*
X145953283Y-92522023D01*
X145955334Y-92532111D01*
X145955334Y-92786685D01*
X145973970Y-92823956D01*
X146011413Y-92843105D01*
X146048855Y-92843105D01*
X146093136Y-92820879D01*
X146156224Y-92777281D01*
X146156224Y-92530230D01*
X146158105Y-92520143D01*
X146164089Y-92510910D01*
X146172808Y-92503900D01*
X146183750Y-92503900D01*
X146208370Y-92503900D01*
X146219312Y-92505952D01*
X146228032Y-92512791D01*
X146234016Y-92521852D01*
X146235896Y-92531769D01*
X146235896Y-92893712D01*
X146233845Y-92904825D01*
X146228032Y-92913716D01*
X146219141Y-92919700D01*
X146208370Y-92919700D01*
X146183750Y-92919700D01*
X146172979Y-92917819D01*
X146164089Y-92912177D01*
X146158276Y-92903799D01*
X146156224Y-92893541D01*
X146156224Y-92859860D01*
X146118782Y-92894225D01*
X146068517Y-92919700D01*
X146055694Y-92919700D01*
X145978928Y-92919700D01*
X145967131Y-92916793D01*
X145906950Y-92883967D01*
X145902163Y-92875076D01*
X145875491Y-92788736D01*
X145875491Y-92531769D01*
X145877543Y-92521681D01*
G37*
G36*
X146399344Y-92330879D02*
G01*
X146435760Y-92328827D01*
X146446531Y-92330879D01*
X146481067Y-92362337D01*
X146486880Y-92371228D01*
X146488932Y-92407644D01*
X146486880Y-92418415D01*
X146481067Y-92427306D01*
X146446531Y-92458764D01*
X146410115Y-92460816D01*
X146399344Y-92458764D01*
X146364808Y-92427306D01*
X146358995Y-92418415D01*
X146356943Y-92381999D01*
X146358995Y-92371228D01*
X146364808Y-92362337D01*
X146399344Y-92330879D01*
G37*
G36*
X146384640Y-92521681D02*
G01*
X146390453Y-92512791D01*
X146399344Y-92505952D01*
X146435760Y-92503900D01*
X146446531Y-92505952D01*
X146455422Y-92512791D01*
X146461235Y-92521681D01*
X146463286Y-92531769D01*
X146463286Y-92891831D01*
X146461235Y-92902773D01*
X146455422Y-92911835D01*
X146446531Y-92917648D01*
X146435760Y-92919700D01*
X146399344Y-92917648D01*
X146390453Y-92911835D01*
X146384640Y-92902773D01*
X146382588Y-92891831D01*
X146382588Y-92531769D01*
X146384640Y-92521681D01*
G37*
G36*
X146614424Y-92345582D02*
G01*
X146620237Y-92336692D01*
X146629127Y-92330879D01*
X146665544Y-92328827D01*
X146676315Y-92330879D01*
X146685205Y-92336692D01*
X146691018Y-92345582D01*
X146693070Y-92356353D01*
X146693070Y-92892173D01*
X146691018Y-92902944D01*
X146685205Y-92911835D01*
X146676315Y-92917648D01*
X146665544Y-92919700D01*
X146629127Y-92917648D01*
X146620237Y-92911835D01*
X146614424Y-92902944D01*
X146612372Y-92892173D01*
X146612372Y-92356353D01*
X146614424Y-92345582D01*
G37*
G36*
X146792916Y-92519630D02*
G01*
X146798729Y-92510739D01*
X146808646Y-92503900D01*
X146867801Y-92502020D01*
X146867801Y-92355669D01*
X146869853Y-92345069D01*
X146875666Y-92336521D01*
X146884556Y-92330708D01*
X146895327Y-92328827D01*
X146920973Y-92328827D01*
X146931744Y-92328827D01*
X146940635Y-92334640D01*
X146946448Y-92343531D01*
X146948499Y-92354302D01*
X146948499Y-92503900D01*
X146997739Y-92503900D01*
X147007484Y-92503900D01*
X147016374Y-92510739D01*
X147022358Y-92519630D01*
X147025265Y-92529375D01*
X147025265Y-92555021D01*
X147022358Y-92565792D01*
X147016374Y-92574682D01*
X147007484Y-92580495D01*
X146948499Y-92582547D01*
X146948499Y-92891660D01*
X146946448Y-92902773D01*
X146940635Y-92911664D01*
X146931744Y-92917648D01*
X146895327Y-92919700D01*
X146884556Y-92917648D01*
X146875666Y-92911664D01*
X146869853Y-92902773D01*
X146867801Y-92891660D01*
X146867801Y-92582547D01*
X146818562Y-92582547D01*
X146808646Y-92580495D01*
X146798729Y-92574682D01*
X146792916Y-92565792D01*
X146790865Y-92555021D01*
X146790865Y-92529375D01*
X146792916Y-92519630D01*
G37*
G36*
X147164092Y-92788395D02*
G01*
X147200509Y-92788395D01*
X147211451Y-92790446D01*
X147245816Y-92822247D01*
X147251800Y-92831137D01*
X147253852Y-92868067D01*
X147251800Y-92879009D01*
X147245816Y-92887899D01*
X147211451Y-92919700D01*
X147175034Y-92921751D01*
X147164092Y-92919700D01*
X147155202Y-92913716D01*
X147123743Y-92878325D01*
X147121863Y-92840882D01*
X147123743Y-92829769D01*
X147129727Y-92820708D01*
X147164092Y-92788395D01*
G37*
G36*
X147402595Y-92519801D02*
G01*
X147408579Y-92510910D01*
X147417299Y-92503900D01*
X147452690Y-92502020D01*
X147463632Y-92503900D01*
X147472351Y-92510739D01*
X147478335Y-92519288D01*
X147480387Y-92563740D01*
X147517829Y-92529375D01*
X147567923Y-92503900D01*
X147580746Y-92503900D01*
X147657512Y-92503900D01*
X147669480Y-92506807D01*
X147729490Y-92539633D01*
X147734448Y-92548524D01*
X147760949Y-92634863D01*
X147760949Y-92891831D01*
X147758897Y-92902773D01*
X147753084Y-92911835D01*
X147744193Y-92917648D01*
X147733422Y-92919700D01*
X147708803Y-92919700D01*
X147698032Y-92919700D01*
X147689141Y-92913545D01*
X147683328Y-92904483D01*
X147681277Y-92893370D01*
X147681277Y-92638283D01*
X147662641Y-92599815D01*
X147625198Y-92580495D01*
X147587756Y-92580495D01*
X147543475Y-92603063D01*
X147480387Y-92647344D01*
X147480387Y-92898157D01*
X147478335Y-92909441D01*
X147470471Y-92919700D01*
X147452861Y-92919700D01*
X147428070Y-92919700D01*
X147417299Y-92917648D01*
X147408408Y-92911664D01*
X147402595Y-92902773D01*
X147400544Y-92891831D01*
X147400544Y-92529888D01*
X147402595Y-92519801D01*
G37*
G36*
X148125286Y-92506978D02*
G01*
X148176406Y-92533307D01*
X148214874Y-92572630D01*
X148239494Y-92624263D01*
X148242400Y-92637428D01*
X148242400Y-92716245D01*
X148240519Y-92726503D01*
X148234535Y-92735565D01*
X148225645Y-92742575D01*
X148214874Y-92744626D01*
X147964745Y-92744626D01*
X147984406Y-92804295D01*
X148002187Y-92822247D01*
X148043562Y-92843105D01*
X148106479Y-92843105D01*
X148143921Y-92824298D01*
X148164609Y-92782069D01*
X148180338Y-92768220D01*
X148201025Y-92769246D01*
X148234535Y-92799679D01*
X148240519Y-92809595D01*
X148242400Y-92819340D01*
X148240519Y-92830282D01*
X148234535Y-92839173D01*
X148183415Y-92889609D01*
X148125286Y-92919700D01*
X148113489Y-92919700D01*
X148036552Y-92919700D01*
X148024755Y-92916622D01*
X147973635Y-92890635D01*
X147915505Y-92833702D01*
X147908667Y-92822760D01*
X147883021Y-92744797D01*
X147883021Y-92675896D01*
X147885608Y-92668032D01*
X147972609Y-92668032D01*
X148162728Y-92668032D01*
X148162728Y-92647857D01*
X148143921Y-92602892D01*
X148106479Y-92580495D01*
X148043562Y-92580495D01*
X148002187Y-92605286D01*
X147984406Y-92626657D01*
X147972609Y-92668032D01*
X147885608Y-92668032D01*
X147908667Y-92597934D01*
X147915505Y-92586821D01*
X147965771Y-92534846D01*
X148024755Y-92503900D01*
X148036552Y-92503900D01*
X148113489Y-92503900D01*
X148125286Y-92506978D01*
G37*
G36*
X148314549Y-92519630D02*
G01*
X148320362Y-92510739D01*
X148330279Y-92503900D01*
X148389434Y-92502020D01*
X148389434Y-92355669D01*
X148391486Y-92345069D01*
X148397299Y-92336521D01*
X148406189Y-92330708D01*
X148416960Y-92328827D01*
X148442606Y-92328827D01*
X148453377Y-92328827D01*
X148462267Y-92334640D01*
X148468080Y-92343531D01*
X148470132Y-92354302D01*
X148470132Y-92503900D01*
X148519371Y-92503900D01*
X148529117Y-92503900D01*
X148538007Y-92510739D01*
X148543991Y-92519630D01*
X148546898Y-92529375D01*
X148546898Y-92555021D01*
X148543991Y-92565792D01*
X148538007Y-92574682D01*
X148529117Y-92580495D01*
X148470132Y-92582547D01*
X148470132Y-92891660D01*
X148468080Y-92902773D01*
X148462267Y-92911664D01*
X148453377Y-92917648D01*
X148416960Y-92919700D01*
X148406189Y-92917648D01*
X148397299Y-92911664D01*
X148391486Y-92902773D01*
X148389434Y-92891660D01*
X148389434Y-92582547D01*
X148340195Y-92582547D01*
X148330279Y-92580495D01*
X148320362Y-92574682D01*
X148314549Y-92565792D01*
X148312498Y-92555021D01*
X148312498Y-92529375D01*
X148314549Y-92519630D01*
G37*
D14*
G36*
X148215429Y-111068630D02*
G01*
X148227885Y-111048358D01*
X148247669Y-111035413D01*
X148270139Y-111031016D01*
X148443307Y-111031016D01*
X148465778Y-111035413D01*
X148484096Y-111048358D01*
X148496796Y-111068874D01*
X148502414Y-111092077D01*
X148502414Y-111234471D01*
X148495331Y-111262314D01*
X148450146Y-111349509D01*
X148365882Y-111432307D01*
X148295540Y-111468700D01*
X148270139Y-111468700D01*
X148130921Y-111468700D01*
X148105519Y-111463082D01*
X148021256Y-111416187D01*
X147950669Y-111346822D01*
X147905729Y-111261826D01*
X147864940Y-111130179D01*
X147864940Y-110957499D01*
X147903042Y-110834157D01*
X147950669Y-110740612D01*
X148036643Y-110660011D01*
X148105519Y-110624596D01*
X148130921Y-110624596D01*
X148270139Y-110624596D01*
X148295540Y-110630214D01*
X148365882Y-110666118D01*
X148450146Y-110747939D01*
X148495331Y-110832935D01*
X148500949Y-110855406D01*
X148496796Y-110882272D01*
X148484096Y-110901812D01*
X148468464Y-110911826D01*
X148447459Y-110918665D01*
X148408136Y-110918665D01*
X148386887Y-110914512D01*
X148368569Y-110903277D01*
X148354647Y-110886425D01*
X148325094Y-110825852D01*
X148303845Y-110804847D01*
X148256217Y-110780912D01*
X148145087Y-110780912D01*
X148097215Y-110804603D01*
X148075966Y-110825364D01*
X148047878Y-110881051D01*
X148018325Y-110970200D01*
X148018325Y-111123096D01*
X148047878Y-111212245D01*
X148075966Y-111267932D01*
X148097215Y-111288693D01*
X148145087Y-111312384D01*
X148256217Y-111312384D01*
X148303845Y-111288204D01*
X148325094Y-111266955D01*
X148349030Y-111218595D01*
X148349030Y-111187332D01*
X148270139Y-111187332D01*
X148247669Y-111182935D01*
X148227885Y-111169990D01*
X148215429Y-111151184D01*
X148211032Y-111091833D01*
X148215429Y-111068630D01*
G37*
G36*
X149173105Y-111346578D02*
G01*
X149104228Y-111419607D01*
X149018499Y-111468700D01*
X148993098Y-111468700D01*
X148853879Y-111468700D01*
X148828478Y-111463082D01*
X148744214Y-111416187D01*
X148673872Y-111346822D01*
X148628688Y-111261826D01*
X148590830Y-111149963D01*
X148587899Y-110957499D01*
X148626001Y-110834157D01*
X148663859Y-110756243D01*
X148744214Y-110671247D01*
X148828478Y-110624596D01*
X148853879Y-110624596D01*
X148993098Y-110624596D01*
X149018499Y-110630214D01*
X149104228Y-110677597D01*
X149173105Y-110747939D01*
X149218290Y-110832935D01*
X149223907Y-110855406D01*
X149219755Y-110882272D01*
X149207055Y-110901812D01*
X149191423Y-110911826D01*
X149170418Y-110918665D01*
X149131095Y-110918665D01*
X149109846Y-110914512D01*
X149091528Y-110903277D01*
X149077606Y-110886425D01*
X149048053Y-110825852D01*
X149026803Y-110804847D01*
X148979176Y-110780912D01*
X148868046Y-110780912D01*
X148825792Y-110801672D01*
X148769371Y-110883982D01*
X148741284Y-110970200D01*
X148741284Y-111123096D01*
X148769371Y-111209314D01*
X148825792Y-111291623D01*
X148868046Y-111312384D01*
X148979176Y-111312384D01*
X149026803Y-111288448D01*
X149048053Y-111267443D01*
X149077606Y-111206871D01*
X149091528Y-111190018D01*
X149109846Y-111178783D01*
X149131095Y-111174631D01*
X149170418Y-111174631D01*
X149188736Y-111178783D01*
X149207055Y-111191484D01*
X149220976Y-111215420D01*
X149223907Y-111237890D01*
X149219755Y-111257674D01*
X149173105Y-111346578D01*
G37*
G36*
X149895087Y-111346578D02*
G01*
X149826210Y-111419607D01*
X149740481Y-111468700D01*
X149715080Y-111468700D01*
X149575861Y-111468700D01*
X149550460Y-111463082D01*
X149466196Y-111416187D01*
X149395854Y-111346822D01*
X149350669Y-111261826D01*
X149312812Y-111149963D01*
X149309881Y-110957499D01*
X149347983Y-110834157D01*
X149385840Y-110756243D01*
X149466196Y-110671247D01*
X149550460Y-110624596D01*
X149575861Y-110624596D01*
X149715080Y-110624596D01*
X149740481Y-110630214D01*
X149826210Y-110677597D01*
X149895087Y-110747939D01*
X149940272Y-110832935D01*
X149945889Y-110855406D01*
X149941737Y-110882272D01*
X149929036Y-110901812D01*
X149913405Y-110911826D01*
X149892400Y-110918665D01*
X149853077Y-110918665D01*
X149831828Y-110914512D01*
X149813510Y-110903277D01*
X149799588Y-110886425D01*
X149770034Y-110825852D01*
X149748785Y-110804847D01*
X149701158Y-110780912D01*
X149590027Y-110780912D01*
X149547773Y-110801672D01*
X149491353Y-110883982D01*
X149463265Y-110970200D01*
X149463265Y-111123096D01*
X149491353Y-111209314D01*
X149547773Y-111291623D01*
X149590027Y-111312384D01*
X149701158Y-111312384D01*
X149748785Y-111288448D01*
X149770034Y-111267443D01*
X149799588Y-111206871D01*
X149813510Y-111190018D01*
X149831828Y-111178783D01*
X149853077Y-111174631D01*
X149892400Y-111174631D01*
X149910718Y-111178783D01*
X149929036Y-111191484D01*
X149942958Y-111215420D01*
X149945889Y-111237890D01*
X149941737Y-111257674D01*
X149895087Y-111346578D01*
G37*
D10*
G36*
X154560935Y-106674804D02*
G01*
X154576566Y-106682131D01*
X154617355Y-106740200D01*
X154731172Y-106827944D01*
X154734103Y-106839485D01*
X154731172Y-106851025D01*
X154722868Y-106860551D01*
X154710167Y-106866779D01*
X154694780Y-106868977D01*
X153929323Y-106868977D01*
X153913935Y-106866779D01*
X153901235Y-106860551D01*
X153892930Y-106851025D01*
X153890000Y-106812007D01*
X153892930Y-106800467D01*
X153901235Y-106790941D01*
X153913935Y-106784713D01*
X153929323Y-106782515D01*
X154527229Y-106782515D01*
X154513307Y-106770791D01*
X154473740Y-106704296D01*
X154475205Y-106692756D01*
X154483754Y-106682131D01*
X154496454Y-106675903D01*
X154511842Y-106672789D01*
X154560935Y-106674804D01*
G37*
G36*
X154597327Y-107164450D02*
G01*
X154612958Y-107171777D01*
X154686231Y-107226548D01*
X154696001Y-107238272D01*
X154732637Y-107319422D01*
X154734103Y-107356425D01*
X154696001Y-107448199D01*
X154686231Y-107459739D01*
X154612958Y-107513595D01*
X154594640Y-107522021D01*
X154439546Y-107549499D01*
X154256364Y-107549499D01*
X154066099Y-107522021D01*
X154052177Y-107517808D01*
X153933719Y-107456625D01*
X153890000Y-107365950D01*
X153888534Y-107301470D01*
X153925170Y-107210795D01*
X153933230Y-107200170D01*
X154015052Y-107166465D01*
X154030439Y-107163351D01*
X154045826Y-107164450D01*
X154059993Y-107170678D01*
X154068541Y-107180203D01*
X154072693Y-107192843D01*
X154069762Y-107230762D01*
X154050223Y-107246698D01*
X154021891Y-107257140D01*
X153999420Y-107306782D01*
X153999420Y-107351112D01*
X154025310Y-107408082D01*
X154087103Y-107437574D01*
X154228276Y-107458823D01*
X154219972Y-107448199D01*
X154183335Y-107365950D01*
X154183335Y-107351112D01*
X154296664Y-107351112D01*
X154317669Y-107397457D01*
X154344291Y-107428232D01*
X154383859Y-107448199D01*
X154441500Y-107461937D01*
X154539930Y-107443986D01*
X154570949Y-107428232D01*
X154597571Y-107397457D01*
X154618820Y-107351112D01*
X154618820Y-107334260D01*
X154597571Y-107287731D01*
X154570949Y-107257140D01*
X154531625Y-107237173D01*
X154469588Y-107222335D01*
X154445652Y-107222335D01*
X154383859Y-107237173D01*
X154344291Y-107257140D01*
X154317669Y-107287731D01*
X154296664Y-107334260D01*
X154296664Y-107351112D01*
X154183335Y-107351112D01*
X154183335Y-107319422D01*
X154219972Y-107238272D01*
X154228276Y-107226548D01*
X154301549Y-107171777D01*
X154316936Y-107164450D01*
X154426845Y-107136972D01*
X154487418Y-107136972D01*
X154597327Y-107164450D01*
G37*
D15*
G36*
X132768278Y-90824919D02*
G01*
X131841748Y-90988291D01*
X131898750Y-91311567D01*
X132757931Y-91160070D01*
X132819683Y-91510285D01*
X131960502Y-91661782D01*
X132088757Y-92389151D01*
X131571613Y-92480338D01*
X131262851Y-90729263D01*
X132706526Y-90474704D01*
X132768278Y-90824919D01*
G37*
G36*
X134851992Y-91901919D02*
G01*
X134365154Y-91987761D01*
X134342146Y-91857272D01*
X134269086Y-91924068D01*
X134192080Y-91986768D01*
X134118594Y-92038181D01*
X134025679Y-92086037D01*
X133924652Y-92118662D01*
X133858954Y-92132572D01*
X133753332Y-92144924D01*
X133643525Y-92141758D01*
X133545348Y-92120157D01*
X133458801Y-92080120D01*
X133448801Y-92073820D01*
X133376869Y-92012937D01*
X133319222Y-91933911D01*
X133280500Y-91849879D01*
X133256016Y-91766796D01*
X133246786Y-91721428D01*
X133093296Y-90850941D01*
X133583020Y-90764590D01*
X133699548Y-91425452D01*
X133716475Y-91512181D01*
X133736378Y-91592131D01*
X133772239Y-91672677D01*
X133790535Y-91696729D01*
X133869531Y-91744651D01*
X133879749Y-91746969D01*
X133979088Y-91748638D01*
X134028593Y-91741557D01*
X134123362Y-91714084D01*
X134163096Y-91697007D01*
X134250093Y-91647997D01*
X134298874Y-91611869D01*
X134132395Y-90667720D01*
X134619233Y-90581878D01*
X134851992Y-91901919D01*
G37*
G36*
X135960963Y-91721133D02*
G01*
X135969679Y-91814847D01*
X135961599Y-91901885D01*
X135931800Y-91993184D01*
X135880065Y-92075764D01*
X135863703Y-92095046D01*
X135788497Y-92164513D01*
X135699180Y-92220408D01*
X135609452Y-92258185D01*
X135508919Y-92285572D01*
X135478211Y-92291489D01*
X135374228Y-92308033D01*
X135277254Y-92319760D01*
X135234861Y-92323547D01*
X135133917Y-92329695D01*
X135072325Y-92330072D01*
X135016213Y-92011848D01*
X135054217Y-92005147D01*
X135154728Y-92006463D01*
X135158581Y-92006275D01*
X135256685Y-91997223D01*
X135354072Y-91968018D01*
X135427955Y-91907139D01*
X135436161Y-91892662D01*
X135457419Y-91807465D01*
X135455974Y-91718432D01*
X135446738Y-91651652D01*
X135291096Y-90768959D01*
X135002457Y-90819854D01*
X134950205Y-90523518D01*
X135725681Y-90386781D01*
X135960963Y-91721133D01*
G37*
G36*
X135687680Y-90171264D02*
G01*
X135169573Y-90262620D01*
X135112571Y-89939345D01*
X135630677Y-89847989D01*
X135687680Y-90171264D01*
G37*
G36*
X136898440Y-91541074D02*
G01*
X136411122Y-91627002D01*
X136178363Y-90306961D01*
X136665681Y-90221033D01*
X136898440Y-91541074D01*
G37*
G36*
X136641150Y-90003141D02*
G01*
X136126892Y-90093819D01*
X136069889Y-89770544D01*
X136584147Y-89679866D01*
X136641150Y-90003141D01*
G37*
D10*
G36*
X154560935Y-96520172D02*
G01*
X154576566Y-96529942D01*
X154617355Y-96607367D01*
X154731172Y-96724359D01*
X154734103Y-96739746D01*
X154731172Y-96755134D01*
X154722868Y-96767834D01*
X154710167Y-96776138D01*
X154694780Y-96779069D01*
X153929323Y-96779069D01*
X153913935Y-96776138D01*
X153901235Y-96767834D01*
X153892930Y-96755134D01*
X153890000Y-96703110D01*
X153892930Y-96687723D01*
X153901235Y-96675022D01*
X153913935Y-96666718D01*
X153929323Y-96663787D01*
X154527229Y-96663787D01*
X154513307Y-96648155D01*
X154473740Y-96559495D01*
X154475205Y-96544108D01*
X154483754Y-96529942D01*
X154496454Y-96521637D01*
X154511842Y-96517485D01*
X154560935Y-96520172D01*
G37*
D14*
G36*
X133754888Y-107440251D02*
G01*
X133777359Y-107455638D01*
X133830848Y-107472491D01*
X133915356Y-107472491D01*
X133967380Y-107455883D01*
X133999620Y-107434878D01*
X134020869Y-107402882D01*
X134037722Y-107351347D01*
X134037722Y-107336204D01*
X134020869Y-107283203D01*
X133999620Y-107252673D01*
X133967380Y-107231912D01*
X133915356Y-107213594D01*
X133805447Y-107212372D01*
X133784442Y-107201137D01*
X133769054Y-107184529D01*
X133761971Y-107155220D01*
X133766123Y-107132994D01*
X133774672Y-107119072D01*
X133915356Y-106941019D01*
X133716786Y-106941019D01*
X133694316Y-106935157D01*
X133674777Y-106921968D01*
X133662076Y-106902673D01*
X133657924Y-106878981D01*
X133662076Y-106818653D01*
X133674777Y-106797892D01*
X133694316Y-106784703D01*
X133716786Y-106784703D01*
X134096828Y-106784703D01*
X134119299Y-106788855D01*
X134137617Y-106800091D01*
X134150317Y-106818409D01*
X134155935Y-106839658D01*
X134154470Y-106860663D01*
X134144700Y-106880446D01*
X133988384Y-107080237D01*
X134047491Y-107098555D01*
X134070206Y-107112477D01*
X134139082Y-107182819D01*
X134153004Y-107205534D01*
X134188175Y-107309581D01*
X134191106Y-107363070D01*
X134153004Y-107485436D01*
X134139082Y-107507906D01*
X134070206Y-107576783D01*
X134047491Y-107590949D01*
X133925126Y-107628807D01*
X133802760Y-107625876D01*
X133698712Y-107589972D01*
X133674777Y-107575806D01*
X133629592Y-107525492D01*
X133594421Y-107454173D01*
X133588803Y-107431703D01*
X133593200Y-107407767D01*
X133604435Y-107388227D01*
X133623974Y-107374061D01*
X133647910Y-107369909D01*
X133701399Y-107372596D01*
X133721183Y-107383831D01*
X133729487Y-107395066D01*
X133754888Y-107440251D01*
G37*
G36*
X134246793Y-107056301D02*
G01*
X134259250Y-107037739D01*
X134277568Y-107023328D01*
X134335209Y-107019176D01*
X134357924Y-107023573D01*
X134377463Y-107036273D01*
X134390164Y-107056301D01*
X134508378Y-107344019D01*
X134626591Y-107052393D01*
X134639292Y-107032121D01*
X134658831Y-107019176D01*
X134716472Y-107015024D01*
X134739187Y-107019176D01*
X134757261Y-107033587D01*
X134769962Y-107052149D01*
X134774358Y-107076573D01*
X134769962Y-107099532D01*
X134563332Y-107592903D01*
X134549166Y-107611710D01*
X134532313Y-107624410D01*
X134509843Y-107628807D01*
X134485907Y-107624654D01*
X134467589Y-107611710D01*
X134453423Y-107593147D01*
X134246793Y-107101730D01*
X134242397Y-107079016D01*
X134246793Y-107056301D01*
G37*
G36*
X134993688Y-107440251D02*
G01*
X135016158Y-107455638D01*
X135069648Y-107472491D01*
X135154156Y-107472491D01*
X135206179Y-107455883D01*
X135238419Y-107434878D01*
X135259669Y-107402882D01*
X135276521Y-107351347D01*
X135276521Y-107336204D01*
X135259669Y-107283203D01*
X135238419Y-107252673D01*
X135206179Y-107231912D01*
X135154156Y-107213594D01*
X135044246Y-107212372D01*
X135023241Y-107201137D01*
X135007854Y-107184529D01*
X135000771Y-107155220D01*
X135004923Y-107132994D01*
X135013472Y-107119072D01*
X135154156Y-106941019D01*
X134955586Y-106941019D01*
X134933116Y-106935157D01*
X134913576Y-106921968D01*
X134900876Y-106902673D01*
X134896724Y-106878981D01*
X134900876Y-106818653D01*
X134913576Y-106797892D01*
X134933116Y-106784703D01*
X134955586Y-106784703D01*
X135335628Y-106784703D01*
X135358098Y-106788855D01*
X135376417Y-106800091D01*
X135389117Y-106818409D01*
X135394735Y-106839658D01*
X135393269Y-106860663D01*
X135383500Y-106880446D01*
X135227184Y-107080237D01*
X135286291Y-107098555D01*
X135309006Y-107112477D01*
X135377882Y-107182819D01*
X135391804Y-107205534D01*
X135426975Y-107309581D01*
X135429906Y-107363070D01*
X135391804Y-107485436D01*
X135377882Y-107507906D01*
X135309006Y-107576783D01*
X135286291Y-107590949D01*
X135163925Y-107628807D01*
X135041560Y-107625876D01*
X134937512Y-107589972D01*
X134913576Y-107575806D01*
X134868391Y-107525492D01*
X134833220Y-107454173D01*
X134827603Y-107431703D01*
X134831999Y-107407767D01*
X134843234Y-107388227D01*
X134862774Y-107374061D01*
X134886710Y-107369909D01*
X134940199Y-107372596D01*
X134959983Y-107383831D01*
X134968287Y-107395066D01*
X134993688Y-107440251D01*
G37*
D10*
G36*
X136183543Y-91838910D02*
G01*
X136173441Y-91840691D01*
X136098945Y-91838765D01*
X136092773Y-91838919D01*
X136019003Y-91844389D01*
X136004124Y-91846738D01*
X135933296Y-91865657D01*
X135867299Y-91901986D01*
X135828130Y-91943617D01*
X135793621Y-92014872D01*
X135775527Y-92091910D01*
X135768761Y-92157578D01*
X135766612Y-92198135D01*
X136110813Y-92137443D01*
X136102874Y-92305506D01*
X135764806Y-92365116D01*
X135714643Y-93373941D01*
X135521616Y-93407976D01*
X135571779Y-92399152D01*
X135442974Y-92421864D01*
X135450913Y-92253801D01*
X135580079Y-92231025D01*
X135581337Y-92191742D01*
X135586925Y-92116056D01*
X135601949Y-92034553D01*
X135626133Y-91960372D01*
X135659475Y-91893512D01*
X135688899Y-91850238D01*
X135745293Y-91790165D01*
X135812840Y-91742448D01*
X135881094Y-91710831D01*
X135957886Y-91688675D01*
X135981396Y-91684082D01*
X136057163Y-91673193D01*
X136098293Y-91669794D01*
X136172082Y-91666967D01*
X136194158Y-91667027D01*
X136183543Y-91838910D01*
G37*
G36*
X136512491Y-91590436D02*
G01*
X136428302Y-93248103D01*
X136237440Y-93281757D01*
X136321989Y-91624026D01*
X136512491Y-91590436D01*
G37*
G36*
X137470261Y-91892440D02*
G01*
X137545878Y-91906310D01*
X137619941Y-91938307D01*
X137627451Y-91942934D01*
X137687314Y-91992785D01*
X137733089Y-92057539D01*
X137761952Y-92127609D01*
X137776296Y-92187888D01*
X137783327Y-92263816D01*
X137784241Y-92283583D01*
X137785161Y-92359868D01*
X137782797Y-92437852D01*
X136947549Y-92585129D01*
X136949069Y-92644384D01*
X136955832Y-92697506D01*
X136976023Y-92771630D01*
X137012664Y-92839819D01*
X137064258Y-92893092D01*
X137082652Y-92906166D01*
X137151889Y-92938098D01*
X137232564Y-92951665D01*
X137314952Y-92948173D01*
X137344474Y-92943703D01*
X137421207Y-92924986D01*
X137490682Y-92899017D01*
X137559889Y-92864522D01*
X137566795Y-92860604D01*
X137632146Y-92820555D01*
X137694974Y-92775580D01*
X137748312Y-92729641D01*
X137759497Y-92727669D01*
X137754204Y-92940280D01*
X137690603Y-92976695D01*
X137668414Y-92989632D01*
X137602610Y-93023696D01*
X137570570Y-93038134D01*
X137500125Y-93067180D01*
X137462794Y-93080947D01*
X137389744Y-93101373D01*
X137342668Y-93110685D01*
X137257217Y-93121789D01*
X137177564Y-93123946D01*
X137103710Y-93117154D01*
X137024876Y-93097921D01*
X136953934Y-93066508D01*
X136892488Y-93023025D01*
X136842142Y-92967580D01*
X136802896Y-92900174D01*
X136774749Y-92820806D01*
X136763648Y-92770083D01*
X136753395Y-92693970D01*
X136749771Y-92619515D01*
X136754560Y-92528774D01*
X136769706Y-92440622D01*
X136776253Y-92418657D01*
X136946469Y-92418657D01*
X137593741Y-92304525D01*
X137593089Y-92260742D01*
X137588574Y-92222476D01*
X137564249Y-92151155D01*
X137511914Y-92093676D01*
X137503531Y-92088293D01*
X137431752Y-92064330D01*
X137351141Y-92063477D01*
X137304230Y-92069865D01*
X137226883Y-92089713D01*
X137156798Y-92120698D01*
X137093973Y-92162821D01*
X137062208Y-92191036D01*
X137013406Y-92247767D01*
X136974097Y-92317490D01*
X136950490Y-92394254D01*
X136946469Y-92418657D01*
X136776253Y-92418657D01*
X136795208Y-92355057D01*
X136831066Y-92272080D01*
X136867209Y-92207562D01*
X136908808Y-92146954D01*
X136966621Y-92080156D01*
X137030895Y-92023318D01*
X137101630Y-91976440D01*
X137178826Y-91939521D01*
X137262482Y-91912561D01*
X137315777Y-91901166D01*
X137396544Y-91891553D01*
X137470261Y-91892440D01*
G37*
G36*
X138388283Y-92312488D02*
G01*
X137973255Y-91809044D01*
X138187208Y-91771318D01*
X138496732Y-92161672D01*
X138842779Y-91655723D01*
X139078380Y-91614181D01*
X138599519Y-92286774D01*
X139015948Y-92791831D01*
X138800912Y-92829748D01*
X138489924Y-92437420D01*
X138141373Y-92946043D01*
X137906854Y-92987395D01*
X138388283Y-92312488D01*
G37*
D14*
G36*
X137053192Y-111079222D02*
G01*
X137065648Y-111058950D01*
X137085432Y-111046005D01*
X137107902Y-111041608D01*
X137281070Y-111041608D01*
X137303541Y-111046005D01*
X137321859Y-111058950D01*
X137334559Y-111079466D01*
X137340177Y-111102669D01*
X137340177Y-111245063D01*
X137333094Y-111272906D01*
X137287909Y-111360101D01*
X137203645Y-111442899D01*
X137133303Y-111479292D01*
X137107902Y-111479292D01*
X136968684Y-111479292D01*
X136943282Y-111473674D01*
X136859019Y-111426779D01*
X136788432Y-111357414D01*
X136743492Y-111272418D01*
X136702703Y-111140771D01*
X136702703Y-110968091D01*
X136740805Y-110844749D01*
X136788432Y-110751204D01*
X136874406Y-110670603D01*
X136943282Y-110635188D01*
X136968684Y-110635188D01*
X137107902Y-110635188D01*
X137133303Y-110640806D01*
X137203645Y-110676710D01*
X137287909Y-110758531D01*
X137333094Y-110843527D01*
X137338712Y-110865998D01*
X137334559Y-110892864D01*
X137321859Y-110912404D01*
X137306227Y-110922418D01*
X137285222Y-110929257D01*
X137245899Y-110929257D01*
X137224650Y-110925104D01*
X137206332Y-110913869D01*
X137192410Y-110897017D01*
X137162857Y-110836444D01*
X137141608Y-110815439D01*
X137093980Y-110791504D01*
X136982850Y-110791504D01*
X136934978Y-110815195D01*
X136913729Y-110835956D01*
X136885641Y-110891643D01*
X136856088Y-110980792D01*
X136856088Y-111133688D01*
X136885641Y-111222837D01*
X136913729Y-111278524D01*
X136934978Y-111299285D01*
X136982850Y-111322976D01*
X137093980Y-111322976D01*
X137141608Y-111298796D01*
X137162857Y-111277547D01*
X137186793Y-111229187D01*
X137186793Y-111197924D01*
X137107902Y-111197924D01*
X137085432Y-111193527D01*
X137065648Y-111180582D01*
X137053192Y-111161776D01*
X137048795Y-111102425D01*
X137053192Y-111079222D01*
G37*
G36*
X137459612Y-110693318D02*
G01*
X137468160Y-110662055D01*
X137483548Y-110645202D01*
X137504552Y-110635188D01*
X137541189Y-110638119D01*
X137560973Y-110650820D01*
X137908286Y-111133444D01*
X137908286Y-110690631D01*
X137913903Y-110667917D01*
X137926604Y-110647889D01*
X137944922Y-110635188D01*
X137967393Y-110631036D01*
X138025034Y-110635188D01*
X138044818Y-110647889D01*
X138057518Y-110667673D01*
X138061670Y-110690387D01*
X138061670Y-111421162D01*
X138053122Y-111452425D01*
X138037735Y-111469278D01*
X138016730Y-111479292D01*
X137992794Y-111479292D01*
X137960310Y-111463660D01*
X137612752Y-110981036D01*
X137612752Y-111423848D01*
X137607134Y-111446563D01*
X137594434Y-111466591D01*
X137576116Y-111479292D01*
X137518474Y-111483444D01*
X137496004Y-111479292D01*
X137476465Y-111466591D01*
X137463764Y-111446807D01*
X137459612Y-111424093D01*
X137459612Y-110693318D01*
G37*
G36*
X138638084Y-110673290D02*
G01*
X138660554Y-110687212D01*
X138740910Y-110771720D01*
X138778767Y-110849145D01*
X138812717Y-110951727D01*
X138816869Y-111142969D01*
X138778767Y-111265335D01*
X138740910Y-111342760D01*
X138660554Y-111427268D01*
X138638084Y-111441190D01*
X138515718Y-111479292D01*
X138273917Y-111479292D01*
X138249982Y-111479292D01*
X138231663Y-111466591D01*
X138218963Y-111446563D01*
X138214811Y-111423848D01*
X138214811Y-110791504D01*
X138366730Y-110791504D01*
X138366730Y-111322976D01*
X138505948Y-111322976D01*
X138587525Y-111296598D01*
X138604378Y-111278524D01*
X138633931Y-111222837D01*
X138663485Y-111133688D01*
X138663485Y-110980792D01*
X138633931Y-110891643D01*
X138604378Y-110835956D01*
X138587525Y-110817882D01*
X138505948Y-110791504D01*
X138366730Y-110791504D01*
X138214811Y-110791504D01*
X138214811Y-110690631D01*
X138218963Y-110667917D01*
X138231663Y-110647889D01*
X138249982Y-110635188D01*
X138273917Y-110635188D01*
X138515718Y-110635188D01*
X138638084Y-110673290D01*
G37*
G36*
X150437062Y-109398341D02*
G01*
X150449518Y-109379535D01*
X150467836Y-109365369D01*
X150490306Y-109360972D01*
X150708415Y-109360972D01*
X150708415Y-109144329D01*
X150712567Y-109121858D01*
X150725268Y-109102075D01*
X150745052Y-109089618D01*
X150802693Y-109085222D01*
X150825163Y-109089618D01*
X150843482Y-109102075D01*
X150856182Y-109121858D01*
X150861800Y-109144329D01*
X150861800Y-109360972D01*
X151078443Y-109360972D01*
X151100914Y-109365369D01*
X151120697Y-109379535D01*
X151133398Y-109398341D01*
X151137550Y-109456960D01*
X151133398Y-109479919D01*
X151120697Y-109500191D01*
X151100914Y-109512891D01*
X151078443Y-109517288D01*
X150861800Y-109517288D01*
X150861800Y-109733931D01*
X150856182Y-109757867D01*
X150843482Y-109776185D01*
X150825163Y-109788886D01*
X150767522Y-109793038D01*
X150745052Y-109788886D01*
X150725268Y-109776185D01*
X150712567Y-109757867D01*
X150708415Y-109733931D01*
X150708415Y-109517288D01*
X150490306Y-109517288D01*
X150467836Y-109512891D01*
X150449518Y-109500191D01*
X150437062Y-109479919D01*
X150431444Y-109421300D01*
X150437062Y-109398341D01*
G37*
G36*
X151325373Y-109034908D02*
G01*
X151332212Y-109013903D01*
X151347843Y-108995585D01*
X151367383Y-108985815D01*
X151384235Y-108985815D01*
X151730572Y-108985815D01*
X151753042Y-108990212D01*
X151772826Y-109002912D01*
X151785282Y-109023184D01*
X151789678Y-109081803D01*
X151785282Y-109104761D01*
X151772826Y-109123568D01*
X151753042Y-109136513D01*
X151730572Y-109142131D01*
X151470209Y-109142131D01*
X151456043Y-109220288D01*
X151488527Y-109217602D01*
X151610893Y-109220288D01*
X151714940Y-109255948D01*
X151737655Y-109270358D01*
X151806531Y-109340456D01*
X151820453Y-109363415D01*
X151855624Y-109469172D01*
X151858555Y-109559542D01*
X151820453Y-109683861D01*
X151806531Y-109706820D01*
X151737655Y-109776918D01*
X151714940Y-109791328D01*
X151592574Y-109829919D01*
X151470209Y-109826988D01*
X151366161Y-109791084D01*
X151342226Y-109776918D01*
X151297041Y-109726604D01*
X151261870Y-109655285D01*
X151256252Y-109632815D01*
X151260648Y-109608879D01*
X151271884Y-109589339D01*
X151291423Y-109575173D01*
X151315359Y-109571021D01*
X151368848Y-109573708D01*
X151391318Y-109587874D01*
X151422337Y-109641363D01*
X151444808Y-109656750D01*
X151498297Y-109673603D01*
X151582805Y-109673603D01*
X151634828Y-109656750D01*
X151667069Y-109635501D01*
X151688318Y-109602773D01*
X151705170Y-109550505D01*
X151705170Y-109499702D01*
X151688318Y-109447434D01*
X151667069Y-109414706D01*
X151634828Y-109393457D01*
X151582805Y-109376604D01*
X151467278Y-109376604D01*
X151411102Y-109404692D01*
X151384235Y-109410309D01*
X151343447Y-109410309D01*
X151320976Y-109403226D01*
X151304124Y-109387839D01*
X151292888Y-109368300D01*
X151291423Y-109345829D01*
X151325373Y-109034908D01*
G37*
G36*
X151914242Y-109022452D02*
G01*
X151926699Y-109002668D01*
X151946482Y-108989967D01*
X152002658Y-108985815D01*
X152025373Y-108989967D01*
X152044912Y-109004133D01*
X152057613Y-109023917D01*
X152244703Y-109503610D01*
X152431793Y-109019765D01*
X152444493Y-108999981D01*
X152464277Y-108985815D01*
X152521918Y-108981663D01*
X152544389Y-108985815D01*
X152561242Y-108997050D01*
X152575408Y-109016834D01*
X152581025Y-109039549D01*
X152576873Y-109062263D01*
X152299657Y-109791817D01*
X152288422Y-109811600D01*
X152268639Y-109824301D01*
X152246168Y-109829919D01*
X152223698Y-109825766D01*
X152203914Y-109814531D01*
X152191214Y-109794748D01*
X151912777Y-109065927D01*
X151909846Y-109043457D01*
X151914242Y-109022452D01*
G37*
D13*
G36*
X154464953Y-93210998D02*
G01*
X154473501Y-93198053D01*
X154486202Y-93188039D01*
X154538225Y-93185352D01*
X154553613Y-93188039D01*
X154566313Y-93197809D01*
X154574862Y-93210021D01*
X154577548Y-93273524D01*
X154629572Y-93224431D01*
X154702845Y-93188039D01*
X154719698Y-93188039D01*
X154829363Y-93188039D01*
X154847681Y-93191947D01*
X154932189Y-93236155D01*
X154956125Y-93294773D01*
X155030619Y-93224187D01*
X155103892Y-93188039D01*
X155120745Y-93188039D01*
X155230410Y-93188039D01*
X155248728Y-93192191D01*
X155320291Y-93229072D01*
X155332992Y-93239086D01*
X155341540Y-93251786D01*
X155379398Y-93375129D01*
X155379398Y-93742226D01*
X155376467Y-93757857D01*
X155368163Y-93770802D01*
X155355462Y-93779107D01*
X155303438Y-93782038D01*
X155288051Y-93779107D01*
X155275350Y-93770558D01*
X155267046Y-93757613D01*
X155264115Y-93741737D01*
X155264115Y-93379525D01*
X155237493Y-93324815D01*
X155185469Y-93297460D01*
X155130514Y-93297460D01*
X155068721Y-93329211D01*
X154978595Y-93391493D01*
X154978595Y-93744424D01*
X154975664Y-93760300D01*
X154967360Y-93773245D01*
X154954659Y-93782038D01*
X154939028Y-93782038D01*
X154902636Y-93782038D01*
X154887004Y-93779107D01*
X154874304Y-93770558D01*
X154865999Y-93757613D01*
X154863068Y-93741737D01*
X154863068Y-93379525D01*
X154836446Y-93324815D01*
X154784422Y-93297460D01*
X154729468Y-93297460D01*
X154667674Y-93329211D01*
X154577548Y-93391493D01*
X154577548Y-93744424D01*
X154574618Y-93760300D01*
X154566313Y-93773245D01*
X154553613Y-93782038D01*
X154501589Y-93784968D01*
X154485957Y-93782038D01*
X154473501Y-93773489D01*
X154464953Y-93760544D01*
X154462266Y-93744913D01*
X154462266Y-93225164D01*
X154464953Y-93210998D01*
G37*
G36*
X155981701Y-93232735D02*
G01*
X156054729Y-93307474D01*
X156064743Y-93323349D01*
X156101135Y-93435457D01*
X156102601Y-93523140D01*
X156064743Y-93646727D01*
X156054729Y-93662603D01*
X155981701Y-93737341D01*
X155898658Y-93782038D01*
X155881805Y-93782038D01*
X155772140Y-93782038D01*
X155755288Y-93777885D01*
X155670779Y-93733922D01*
X155598972Y-93660160D01*
X155589202Y-93644529D01*
X155552566Y-93533887D01*
X155552566Y-93516790D01*
X155665162Y-93516790D01*
X155697402Y-93615220D01*
X155722803Y-93641842D01*
X155781910Y-93672617D01*
X155872036Y-93672617D01*
X155931142Y-93641842D01*
X155956299Y-93615220D01*
X155987318Y-93516790D01*
X155987318Y-93453287D01*
X155956299Y-93354857D01*
X155931142Y-93328234D01*
X155872036Y-93297460D01*
X155781910Y-93297460D01*
X155722803Y-93328234D01*
X155697402Y-93354857D01*
X155665162Y-93453287D01*
X155665162Y-93516790D01*
X155552566Y-93516790D01*
X155552566Y-93436190D01*
X155589202Y-93325548D01*
X155598972Y-93309916D01*
X155682015Y-93229072D01*
X155769209Y-93188039D01*
X155881805Y-93188039D01*
X155898658Y-93188039D01*
X155981701Y-93232735D01*
G37*
G36*
X156767430Y-92940865D02*
G01*
X156779886Y-92949169D01*
X156788435Y-92961870D01*
X156791366Y-92977502D01*
X156791366Y-93745401D01*
X156788435Y-93760788D01*
X156780130Y-93773489D01*
X156767430Y-93782038D01*
X156716627Y-93784968D01*
X156701240Y-93782038D01*
X156688539Y-93773489D01*
X156680235Y-93760788D01*
X156677304Y-93731235D01*
X156660451Y-93744180D01*
X156587179Y-93782038D01*
X156570326Y-93782038D01*
X156460661Y-93782038D01*
X156443808Y-93777641D01*
X156360766Y-93733433D01*
X156287737Y-93659183D01*
X156277967Y-93643552D01*
X156241331Y-93532177D01*
X156241331Y-93516790D01*
X156355148Y-93516790D01*
X156386167Y-93615220D01*
X156411324Y-93641842D01*
X156470431Y-93672617D01*
X156560556Y-93672617D01*
X156677304Y-93612289D01*
X156677304Y-93357788D01*
X156560556Y-93297460D01*
X156470431Y-93297460D01*
X156411324Y-93328234D01*
X156386167Y-93354857D01*
X156355148Y-93453287D01*
X156355148Y-93516790D01*
X156241331Y-93516790D01*
X156241331Y-93433747D01*
X156277967Y-93322372D01*
X156287737Y-93306497D01*
X156360766Y-93232247D01*
X156443808Y-93188039D01*
X156460661Y-93188039D01*
X156570326Y-93188039D01*
X156587179Y-93191947D01*
X156660451Y-93226874D01*
X156677304Y-93238841D01*
X156677304Y-92976525D01*
X156680235Y-92961382D01*
X156688784Y-92948925D01*
X156701240Y-92940621D01*
X156716872Y-92937934D01*
X156767430Y-92940865D01*
G37*
G36*
X157312336Y-93192435D02*
G01*
X157385364Y-93230049D01*
X157440319Y-93286225D01*
X157475490Y-93359986D01*
X157479642Y-93378793D01*
X157479642Y-93491389D01*
X157476955Y-93506043D01*
X157468407Y-93518988D01*
X157455706Y-93529002D01*
X157440319Y-93531933D01*
X157082992Y-93531933D01*
X157111080Y-93617174D01*
X157136481Y-93642819D01*
X157195588Y-93672617D01*
X157285469Y-93672617D01*
X157338958Y-93645750D01*
X157368512Y-93585422D01*
X157390982Y-93565638D01*
X157420535Y-93567104D01*
X157468407Y-93610579D01*
X157476955Y-93624745D01*
X157479642Y-93638667D01*
X157476955Y-93654298D01*
X157468407Y-93666999D01*
X157395378Y-93739051D01*
X157312336Y-93782038D01*
X157295483Y-93782038D01*
X157185574Y-93782038D01*
X157168721Y-93777641D01*
X157095692Y-93740516D01*
X157012650Y-93659183D01*
X157002880Y-93643552D01*
X156966244Y-93532177D01*
X156966244Y-93433747D01*
X156969940Y-93422512D01*
X157094227Y-93422512D01*
X157365825Y-93422512D01*
X157365825Y-93393691D01*
X157338958Y-93329456D01*
X157285469Y-93297460D01*
X157195588Y-93297460D01*
X157136481Y-93332875D01*
X157111080Y-93363405D01*
X157094227Y-93422512D01*
X156969940Y-93422512D01*
X157002880Y-93322372D01*
X157012650Y-93306497D01*
X157084457Y-93232247D01*
X157168721Y-93188039D01*
X157185574Y-93188039D01*
X157295483Y-93188039D01*
X157312336Y-93192435D01*
G37*
D14*
G36*
X135038461Y-108640201D02*
G01*
X135049696Y-108620417D01*
X135068014Y-108606251D01*
X135128587Y-108575477D01*
X135225551Y-108478268D01*
X135243869Y-108465567D01*
X135267805Y-108461415D01*
X135290275Y-108465567D01*
X135308594Y-108478268D01*
X135321294Y-108498052D01*
X135326912Y-108520522D01*
X135326912Y-109246412D01*
X135321294Y-109268882D01*
X135308594Y-109288666D01*
X135290275Y-109301366D01*
X135232634Y-109305519D01*
X135210164Y-109301366D01*
X135190380Y-109288666D01*
X135177680Y-109268882D01*
X135173527Y-109246412D01*
X135173527Y-108720313D01*
X135120038Y-108745714D01*
X135097568Y-108752553D01*
X135073632Y-108748401D01*
X135054093Y-108735700D01*
X135039927Y-108716161D01*
X135035774Y-108693690D01*
X135038461Y-108640201D01*
G37*
G36*
X135590938Y-108733013D02*
G01*
X135603395Y-108714451D01*
X135621713Y-108700040D01*
X135679354Y-108695888D01*
X135702069Y-108700285D01*
X135721608Y-108712985D01*
X135734309Y-108733013D01*
X135852523Y-109020731D01*
X135970736Y-108729105D01*
X135983437Y-108708833D01*
X136002976Y-108695888D01*
X136060617Y-108691736D01*
X136083332Y-108695888D01*
X136101406Y-108710299D01*
X136114107Y-108728861D01*
X136118503Y-108753285D01*
X136114107Y-108776244D01*
X135907477Y-109269615D01*
X135893311Y-109288422D01*
X135876458Y-109301122D01*
X135853988Y-109305519D01*
X135830052Y-109301366D01*
X135811734Y-109288422D01*
X135797568Y-109269859D01*
X135590938Y-108778442D01*
X135586542Y-108755728D01*
X135590938Y-108733013D01*
G37*
G36*
X136664386Y-108499517D02*
G01*
X136683925Y-108510752D01*
X136698091Y-108529070D01*
X136733262Y-108598435D01*
X136738880Y-108625058D01*
X136738880Y-108694423D01*
X136733262Y-108721045D01*
X136698091Y-108790410D01*
X136659989Y-108832664D01*
X136722027Y-108894702D01*
X136768433Y-108979454D01*
X136774051Y-109006321D01*
X136774051Y-109110613D01*
X136768433Y-109136014D01*
X136733262Y-109206600D01*
X136688322Y-109256181D01*
X136664386Y-109270348D01*
X136560094Y-109305519D01*
X136404023Y-109308449D01*
X136281413Y-109270348D01*
X136257477Y-109256181D01*
X136212536Y-109206600D01*
X136177365Y-109136014D01*
X136171748Y-109110613D01*
X136171748Y-109091562D01*
X136325132Y-109091562D01*
X136337833Y-109116963D01*
X136360303Y-109132350D01*
X136413793Y-109149203D01*
X136532006Y-109149203D01*
X136585495Y-109132350D01*
X136607966Y-109116963D01*
X136620666Y-109091562D01*
X136620666Y-109015602D01*
X136596730Y-108967731D01*
X136575726Y-108946726D01*
X136520771Y-108918638D01*
X136472899Y-108907158D01*
X136425028Y-108918638D01*
X136370073Y-108946726D01*
X136349068Y-108967731D01*
X136325132Y-109015602D01*
X136325132Y-109091562D01*
X136171748Y-109091562D01*
X136171748Y-109006321D01*
X136177365Y-108979454D01*
X136223772Y-108894702D01*
X136285809Y-108832664D01*
X136247707Y-108790410D01*
X136212536Y-108721045D01*
X136206919Y-108694423D01*
X136206919Y-108682455D01*
X136358838Y-108682455D01*
X136378622Y-108721778D01*
X136425028Y-108744248D01*
X136472899Y-108756949D01*
X136520771Y-108744248D01*
X136567177Y-108721778D01*
X136586961Y-108682455D01*
X136586961Y-108641666D01*
X136582564Y-108634583D01*
X136532006Y-108617731D01*
X136413793Y-108617731D01*
X136363234Y-108634583D01*
X136358838Y-108641666D01*
X136358838Y-108682455D01*
X136206919Y-108682455D01*
X136206919Y-108625058D01*
X136212536Y-108598435D01*
X136247707Y-108529070D01*
X136261874Y-108510752D01*
X136281413Y-108499517D01*
X136394009Y-108462881D01*
X136541776Y-108461415D01*
X136664386Y-108499517D01*
G37*
D12*
%TO.C,TP11*%
X133602312Y-93638242D02*
G75*
G02*
X132602312Y-93638242I-500000J0D01*
G01*
X132602312Y-93638242D02*
G75*
G02*
X133602312Y-93638242I500000J0D01*
G01*
%TO.C,C2*%
X132272377Y-100361964D02*
X132056705Y-100361964D01*
X132272377Y-101081964D02*
X132056705Y-101081964D01*
D14*
%TO.C,U1*%
X137400000Y-95100000D02*
X149700000Y-95100000D01*
X137400000Y-108400000D02*
X137400000Y-95100000D01*
X149700000Y-95100000D02*
X150700000Y-96100000D01*
X150700000Y-108400000D02*
X137400000Y-108400000D01*
X150700000Y-108400000D02*
X150700000Y-96100000D01*
D12*
%TO.C,D1*%
X154563962Y-109855670D02*
X156494185Y-109515319D01*
X154772339Y-111037442D02*
X156702563Y-110697088D01*
X156702563Y-110697088D02*
X156494185Y-109515319D01*
%TO.C,C9*%
X152846300Y-97331536D02*
X152846300Y-97115864D01*
X153566300Y-97331536D02*
X153566300Y-97115864D01*
%TO.C,C3*%
X144742836Y-110725000D02*
X144527164Y-110725000D01*
X144742836Y-111445000D02*
X144527164Y-111445000D01*
%TO.C,TP9*%
X132444004Y-98074994D02*
G75*
G02*
X131444004Y-98074994I-500000J0D01*
G01*
X131444004Y-98074994D02*
G75*
G02*
X132444004Y-98074994I500000J0D01*
G01*
%TO.C,TP10*%
X134825000Y-93425000D02*
G75*
G02*
X133825000Y-93425000I-500000J0D01*
G01*
X133825000Y-93425000D02*
G75*
G02*
X134825000Y-93425000I500000J0D01*
G01*
%TO.C,R4*%
X153908641Y-95115000D02*
X153601359Y-95115000D01*
X153908641Y-95875000D02*
X153601359Y-95875000D01*
%TO.C,R5*%
X136343726Y-93863828D02*
X136077612Y-94017469D01*
X136723726Y-94522007D02*
X136457612Y-94675648D01*
%TO.C,U3*%
X131941913Y-102321913D02*
X131482294Y-102781533D01*
X131941913Y-102321913D02*
X132401533Y-101862294D01*
X134148087Y-104528087D02*
X133688467Y-104987706D01*
X134148087Y-104528087D02*
X135332490Y-103343683D01*
%TO.C,C1*%
X132527164Y-105225000D02*
X132742836Y-105225000D01*
X132527164Y-105945000D02*
X132742836Y-105945000D01*
%TO.C,C6*%
X134475000Y-101202836D02*
X134475000Y-100987164D01*
X135195000Y-101202836D02*
X135195000Y-100987164D01*
%TO.C,TP4*%
X151625000Y-110925000D02*
G75*
G02*
X150225000Y-110925000I-700000J0D01*
G01*
X150225000Y-110925000D02*
G75*
G02*
X151625000Y-110925000I700000J0D01*
G01*
%TO.C,TP5*%
X153735000Y-110675000D02*
G75*
G02*
X152335000Y-110675000I-700000J0D01*
G01*
X152335000Y-110675000D02*
G75*
G02*
X153735000Y-110675000I700000J0D01*
G01*
%TO.C,C5*%
X142427164Y-92165000D02*
X142642836Y-92165000D01*
X142427164Y-92885000D02*
X142642836Y-92885000D01*
%TO.C,C4*%
X152831807Y-105184974D02*
X152831807Y-105400646D01*
X153551807Y-105184974D02*
X153551807Y-105400646D01*
%TO.C,TP8*%
X132444004Y-95574165D02*
G75*
G02*
X131444004Y-95574165I-500000J0D01*
G01*
X131444004Y-95574165D02*
G75*
G02*
X132444004Y-95574165I500000J0D01*
G01*
%TO.C,C8*%
X139928464Y-92163700D02*
X140144136Y-92163700D01*
X139928464Y-92883700D02*
X140144136Y-92883700D01*
%TO.C,TP7*%
X132444004Y-96816179D02*
G75*
G02*
X131444004Y-96816179I-500000J0D01*
G01*
X131444004Y-96816179D02*
G75*
G02*
X132444004Y-96816179I500000J0D01*
G01*
%TO.C,C10*%
X134330014Y-105611917D02*
X134330014Y-105827589D01*
X135050014Y-105611917D02*
X135050014Y-105827589D01*
%TO.C,JP1*%
X151275000Y-93875000D02*
X151275000Y-93275000D01*
X151975000Y-92575000D02*
X153375000Y-92575000D01*
X153375000Y-94575000D02*
X151975000Y-94575000D01*
X154075000Y-93275000D02*
X154075000Y-93875000D01*
X151275000Y-93275000D02*
G75*
G02*
X151975000Y-92575000I699999J1D01*
G01*
X151975000Y-94575000D02*
G75*
G02*
X151275000Y-93875000I-1J699999D01*
G01*
X153375000Y-92575000D02*
G75*
G02*
X154075000Y-93275000I0J-700000D01*
G01*
X154075000Y-93875000D02*
G75*
G02*
X153375000Y-94575000I-700000J0D01*
G01*
%TO.C,C12*%
X134241701Y-99237334D02*
X134457373Y-99237334D01*
X134241701Y-99957334D02*
X134457373Y-99957334D01*
%TO.C,C7*%
X146758464Y-110763700D02*
X146974136Y-110763700D01*
X146758464Y-111483700D02*
X146974136Y-111483700D01*
%TO.C,TP6*%
X132444004Y-94310938D02*
G75*
G02*
X131444004Y-94310938I-500000J0D01*
G01*
X131444004Y-94310938D02*
G75*
G02*
X132444004Y-94310938I500000J0D01*
G01*
%TO.C,TP2*%
X133438414Y-107362188D02*
G75*
G02*
X131538416Y-107362188I-949999J0D01*
G01*
X131538416Y-107362188D02*
G75*
G02*
X133438414Y-107362188I949999J0D01*
G01*
%TO.C,TP1*%
X134824999Y-109075000D02*
G75*
G02*
X132925001Y-109075000I-949999J0D01*
G01*
X132925001Y-109075000D02*
G75*
G02*
X134824999Y-109075000I949999J0D01*
G01*
%TO.C,R1*%
X153775000Y-108748641D02*
X153775000Y-108441359D01*
X154535000Y-108748641D02*
X154535000Y-108441359D01*
%TO.C,R2*%
X152775000Y-108748641D02*
X152775000Y-108441359D01*
X153535000Y-108748641D02*
X153535000Y-108441359D01*
%TO.C,R3*%
X140288789Y-110701628D02*
X139981507Y-110701628D01*
X140288789Y-111461628D02*
X139981507Y-111461628D01*
%TO.C,TP3*%
X136524999Y-110575000D02*
G75*
G02*
X134625001Y-110575000I-949999J0D01*
G01*
X134625001Y-110575000D02*
G75*
G02*
X136524999Y-110575000I949999J0D01*
G01*
%TO.C,R6*%
X131997918Y-99633435D02*
X132264032Y-99787076D01*
X132377918Y-98975256D02*
X132644032Y-99128897D01*
D16*
%TO.C,J1*%
X155150000Y-94750000D02*
X156650000Y-94750000D01*
X155150000Y-96350000D02*
X155150000Y-94750000D01*
X155150000Y-108950000D02*
X155150000Y-107350000D01*
X156650000Y-108950000D02*
X155150000Y-108950000D01*
X158650000Y-94750000D02*
X159250000Y-94750000D01*
X159250000Y-94750000D02*
X159250000Y-108950000D01*
X159250000Y-108950000D02*
X158650000Y-108950000D01*
D12*
%TO.C,R7*%
X142301359Y-110715000D02*
X142608641Y-110715000D01*
X142301359Y-111475000D02*
X142608641Y-111475000D01*
%TD*%
%LPC*%
D17*
X135349500Y-83538700D02*
G75*
G02*
X135090500Y-83538700I-129500J0D01*
G01*
X135090500Y-83538700D02*
G75*
G02*
X135349500Y-83538700I129500J0D01*
G01*
X134349500Y-83538700D02*
G75*
G02*
X134090500Y-83538700I-129500J0D01*
G01*
X134090500Y-83538700D02*
G75*
G02*
X134349500Y-83538700I129500J0D01*
G01*
X136349500Y-84538700D02*
G75*
G02*
X136090500Y-84538700I-129500J0D01*
G01*
X136090500Y-84538700D02*
G75*
G02*
X136349500Y-84538700I129500J0D01*
G01*
X136349500Y-86538700D02*
G75*
G02*
X136090500Y-86538700I-129500J0D01*
G01*
X136090500Y-86538700D02*
G75*
G02*
X136349500Y-86538700I129500J0D01*
G01*
X135349500Y-87538700D02*
G75*
G02*
X135090500Y-87538700I-129500J0D01*
G01*
X135090500Y-87538700D02*
G75*
G02*
X135349500Y-87538700I129500J0D01*
G01*
X135349500Y-85538700D02*
G75*
G02*
X135090500Y-85538700I-129500J0D01*
G01*
X135090500Y-85538700D02*
G75*
G02*
X135349500Y-85538700I129500J0D01*
G01*
X136349500Y-87538700D02*
G75*
G02*
X136090500Y-87538700I-129500J0D01*
G01*
X136090500Y-87538700D02*
G75*
G02*
X136349500Y-87538700I129500J0D01*
G01*
D18*
X152525000Y-92825000D02*
X152825000Y-92825000D01*
X152825000Y-94325000D01*
X152525000Y-94325000D01*
X152525000Y-92825000D01*
G36*
X152525000Y-92825000D02*
G01*
X152825000Y-92825000D01*
X152825000Y-94325000D01*
X152525000Y-94325000D01*
X152525000Y-92825000D01*
G37*
D17*
X134349500Y-82538700D02*
G75*
G02*
X134090500Y-82538700I-129500J0D01*
G01*
X134090500Y-82538700D02*
G75*
G02*
X134349500Y-82538700I129500J0D01*
G01*
X134349500Y-86538700D02*
G75*
G02*
X134090500Y-86538700I-129500J0D01*
G01*
X134090500Y-86538700D02*
G75*
G02*
X134349500Y-86538700I129500J0D01*
G01*
X136349500Y-82538700D02*
G75*
G02*
X136090500Y-82538700I-129500J0D01*
G01*
X136090500Y-82538700D02*
G75*
G02*
X136349500Y-82538700I129500J0D01*
G01*
X133349500Y-87538700D02*
G75*
G02*
X133090500Y-87538700I-129500J0D01*
G01*
X133090500Y-87538700D02*
G75*
G02*
X133349500Y-87538700I129500J0D01*
G01*
X134349500Y-84538700D02*
G75*
G02*
X134090500Y-84538700I-129500J0D01*
G01*
X134090500Y-84538700D02*
G75*
G02*
X134349500Y-84538700I129500J0D01*
G01*
X135349500Y-82538700D02*
G75*
G02*
X135090500Y-82538700I-129500J0D01*
G01*
X135090500Y-82538700D02*
G75*
G02*
X135349500Y-82538700I129500J0D01*
G01*
X135349500Y-84538700D02*
G75*
G02*
X135090500Y-84538700I-129500J0D01*
G01*
X135090500Y-84538700D02*
G75*
G02*
X135349500Y-84538700I129500J0D01*
G01*
X136349500Y-83538700D02*
G75*
G02*
X136090500Y-83538700I-129500J0D01*
G01*
X136090500Y-83538700D02*
G75*
G02*
X136349500Y-83538700I129500J0D01*
G01*
X134349500Y-85538700D02*
G75*
G02*
X134090500Y-85538700I-129500J0D01*
G01*
X134090500Y-85538700D02*
G75*
G02*
X134349500Y-85538700I129500J0D01*
G01*
X136349500Y-85538700D02*
G75*
G02*
X136090500Y-85538700I-129500J0D01*
G01*
X136090500Y-85538700D02*
G75*
G02*
X136349500Y-85538700I129500J0D01*
G01*
X134349500Y-87538700D02*
G75*
G02*
X134090500Y-87538700I-129500J0D01*
G01*
X134090500Y-87538700D02*
G75*
G02*
X134349500Y-87538700I129500J0D01*
G01*
X137349500Y-84538700D02*
G75*
G02*
X137090500Y-84538700I-129500J0D01*
G01*
X137090500Y-84538700D02*
G75*
G02*
X137349500Y-84538700I129500J0D01*
G01*
X137349500Y-83538700D02*
G75*
G02*
X137090500Y-83538700I-129500J0D01*
G01*
X137090500Y-83538700D02*
G75*
G02*
X137349500Y-83538700I129500J0D01*
G01*
X135349500Y-86538700D02*
G75*
G02*
X135090500Y-86538700I-129500J0D01*
G01*
X135090500Y-86538700D02*
G75*
G02*
X135349500Y-86538700I129500J0D01*
G01*
X137349500Y-82538700D02*
G75*
G02*
X137090500Y-82538700I-129500J0D01*
G01*
X137090500Y-82538700D02*
G75*
G02*
X137349500Y-82538700I129500J0D01*
G01*
D19*
%TO.C,TP11*%
X133102312Y-93638242D03*
%TD*%
D20*
%TO.C,C2*%
X132644541Y-100721964D03*
X131684541Y-100721964D03*
%TD*%
D21*
%TO.C,U1*%
X150050000Y-94012000D03*
X149550000Y-94012000D03*
X149050000Y-94012000D03*
X148550000Y-94012000D03*
X148050000Y-94012000D03*
X147550000Y-94012000D03*
X147050000Y-94012000D03*
X146550000Y-94012000D03*
X146050000Y-94012000D03*
X145550000Y-94012000D03*
X145050000Y-94012000D03*
X144550000Y-94012000D03*
X144050000Y-94012000D03*
X143550000Y-94012000D03*
X143050000Y-94012000D03*
X142550000Y-94012000D03*
X142050000Y-94012000D03*
X141550000Y-94012000D03*
X141050000Y-94012000D03*
X140550000Y-94012000D03*
X140050000Y-94012000D03*
X139550000Y-94012000D03*
X139050000Y-94012000D03*
X138550000Y-94012000D03*
X138050000Y-94012000D03*
D22*
X136312000Y-95750000D03*
X136312000Y-96250000D03*
X136312000Y-96750000D03*
X136312000Y-97250000D03*
X136312000Y-97750000D03*
X136312000Y-98250000D03*
X136312000Y-98750000D03*
X136312000Y-99250000D03*
X136312000Y-99750000D03*
X136312000Y-100250000D03*
X136312000Y-100750000D03*
X136312000Y-101250000D03*
X136312000Y-101750000D03*
X136312000Y-102250000D03*
X136312000Y-102750000D03*
X136312000Y-103250000D03*
X136312000Y-103750000D03*
X136312000Y-104250000D03*
X136312000Y-104750000D03*
X136312000Y-105250000D03*
X136312000Y-105750000D03*
X136312000Y-106250000D03*
X136312000Y-106750000D03*
X136312000Y-107250000D03*
X136312000Y-107750000D03*
D21*
X138050000Y-109488000D03*
X138550000Y-109488000D03*
X139050000Y-109488000D03*
X139550000Y-109488000D03*
X140050000Y-109488000D03*
X140550000Y-109488000D03*
X141050000Y-109488000D03*
X141550000Y-109488000D03*
X142050000Y-109488000D03*
X142550000Y-109488000D03*
X143050000Y-109488000D03*
X143550000Y-109488000D03*
X144050000Y-109488000D03*
X144550000Y-109488000D03*
X145050000Y-109488000D03*
X145550000Y-109488000D03*
X146050000Y-109488000D03*
X146550000Y-109488000D03*
X147050000Y-109488000D03*
X147550000Y-109488000D03*
X148050000Y-109488000D03*
X148550000Y-109488000D03*
X149050000Y-109488000D03*
X149550000Y-109488000D03*
X150050000Y-109488000D03*
D22*
X151788000Y-107750000D03*
X151788000Y-107250000D03*
X151788000Y-106750000D03*
X151788000Y-106250000D03*
X151788000Y-105750000D03*
X151788000Y-105250000D03*
X151788000Y-104750000D03*
X151788000Y-104250000D03*
X151788000Y-103750000D03*
X151788000Y-103250000D03*
X151788000Y-102750000D03*
X151788000Y-102250000D03*
X151788000Y-101750000D03*
X151788000Y-101250000D03*
X151788000Y-100750000D03*
X151788000Y-100250000D03*
X151788000Y-99750000D03*
X151788000Y-99250000D03*
X151788000Y-98750000D03*
X151788000Y-98250000D03*
X151788000Y-97750000D03*
X151788000Y-97250000D03*
X151788000Y-96750000D03*
X151788000Y-96250000D03*
X151788000Y-95750000D03*
%TD*%
D23*
%TO.C,D1*%
X156046882Y-110203446D03*
X154668150Y-110446554D03*
%TD*%
D24*
%TO.C,C9*%
X153206300Y-97703700D03*
X153206300Y-96743700D03*
%TD*%
D20*
%TO.C,C3*%
X145115000Y-111085000D03*
X144155000Y-111085000D03*
%TD*%
D19*
%TO.C,TP9*%
X131944004Y-98074994D03*
%TD*%
%TO.C,TP10*%
X134325000Y-93425000D03*
%TD*%
D25*
%TO.C,R4*%
X154265000Y-95495000D03*
X153245000Y-95495000D03*
%TD*%
D26*
%TO.C,R5*%
X136842342Y-94014738D03*
X135958996Y-94524738D03*
%TD*%
D27*
%TO.C,U3*%
X134379664Y-103433839D03*
X133036161Y-102090336D03*
X132382087Y-104087913D03*
%TD*%
D28*
%TO.C,C1*%
X132155000Y-105585000D03*
X133115000Y-105585000D03*
%TD*%
D24*
%TO.C,C6*%
X134835000Y-101575000D03*
X134835000Y-100615000D03*
%TD*%
D29*
%TO.C,TP4*%
X150925000Y-110925000D03*
%TD*%
%TO.C,TP5*%
X153035000Y-110675000D03*
%TD*%
D28*
%TO.C,C5*%
X142055000Y-92525000D03*
X143015000Y-92525000D03*
%TD*%
D30*
%TO.C,C4*%
X153191807Y-104812810D03*
X153191807Y-105772810D03*
%TD*%
D31*
%TO.C,U2*%
X134754134Y-95486698D03*
X134254134Y-95486698D03*
X133754134Y-95486698D03*
X133254134Y-95486698D03*
X133254134Y-98286698D03*
X133754134Y-98286698D03*
X134254134Y-98286698D03*
X134754134Y-98286698D03*
D32*
X134004134Y-96886698D03*
%TD*%
D19*
%TO.C,TP8*%
X131944004Y-95574165D03*
%TD*%
D28*
%TO.C,C8*%
X139556300Y-92523700D03*
X140516300Y-92523700D03*
%TD*%
D19*
%TO.C,TP7*%
X131944004Y-96816179D03*
%TD*%
D30*
%TO.C,C10*%
X134690014Y-105239753D03*
X134690014Y-106199753D03*
%TD*%
D33*
%TO.C,JP1*%
X152025000Y-93575000D03*
D34*
X153325000Y-93575000D03*
%TD*%
D28*
%TO.C,C12*%
X133869537Y-99597334D03*
X134829537Y-99597334D03*
%TD*%
%TO.C,C7*%
X146386300Y-111123700D03*
X147346300Y-111123700D03*
%TD*%
D19*
%TO.C,TP6*%
X131944004Y-94310938D03*
%TD*%
D35*
%TO.C,TP2*%
X132488415Y-107362188D03*
%TD*%
%TO.C,TP1*%
X133875000Y-109075000D03*
%TD*%
D36*
%TO.C,R1*%
X154155000Y-109105000D03*
X154155000Y-108085000D03*
%TD*%
%TO.C,R2*%
X153155000Y-109105000D03*
X153155000Y-108085000D03*
%TD*%
D25*
%TO.C,R3*%
X140645148Y-111081628D03*
X139625148Y-111081628D03*
%TD*%
D35*
%TO.C,TP3*%
X135575000Y-110575000D03*
%TD*%
D37*
%TO.C,R6*%
X131879303Y-99126166D03*
X132762647Y-99636166D03*
%TD*%
D38*
%TO.C,J1*%
X154950000Y-106350000D03*
X154950000Y-105850000D03*
X154950000Y-105350000D03*
X154950000Y-104850000D03*
X154950000Y-104350000D03*
X154950000Y-103850000D03*
X154950000Y-103350000D03*
X154950000Y-102850000D03*
X154950000Y-102350000D03*
X154950000Y-101850000D03*
X154950000Y-101350000D03*
X154950000Y-100850000D03*
X154950000Y-100350000D03*
X154950000Y-99850000D03*
X154950000Y-99350000D03*
X154950000Y-98850000D03*
X154950000Y-98350000D03*
X154950000Y-97850000D03*
X154950000Y-97350000D03*
D39*
X157650000Y-108650000D03*
X157650000Y-95050000D03*
%TD*%
D40*
%TO.C,R7*%
X141945000Y-111095000D03*
X142965000Y-111095000D03*
%TD*%
%LPD*%
M02*
