%TF.GenerationSoftware,KiCad,Pcbnew,8.99.0-344-gfbc433deaa*%
%TF.CreationDate,2024-04-11T03:20:37-04:00*%
%TF.ProjectId,typeC,74797065-432e-46b6-9963-61645f706362,rev?*%
%TF.SameCoordinates,Original*%
%TF.FileFunction,Legend,Top*%
%TF.FilePolarity,Positive*%
%FSLAX46Y46*%
G04 Gerber Fmt 4.6, Leading zero omitted, Abs format (unit mm)*
G04 Created by KiCad (PCBNEW 8.99.0-344-gfbc433deaa) date 2024-04-11 03:20:37*
%MOMM*%
%LPD*%
G01*
G04 APERTURE LIST*
%ADD10C,0.160000*%
%ADD11C,0.125000*%
%ADD12C,0.150000*%
%ADD13C,0.100000*%
%ADD14C,0.120000*%
G04 APERTURE END LIST*
D10*
G36*
X173802227Y-104244120D02*
G01*
X173820252Y-104255550D01*
X173831683Y-104273136D01*
X173835419Y-104293359D01*
X173831683Y-104345236D01*
X173820252Y-104361723D01*
X173802666Y-104373153D01*
X173782663Y-104378209D01*
X173525915Y-104378209D01*
X173525915Y-104644190D01*
X173785740Y-104644190D01*
X173806184Y-104649245D01*
X173823989Y-104660676D01*
X173835419Y-104677162D01*
X173839156Y-104697386D01*
X173835419Y-104749263D01*
X173823989Y-104767068D01*
X173806184Y-104778499D01*
X173785740Y-104782236D01*
X173129142Y-104782236D01*
X173108919Y-104778499D01*
X173090894Y-104767068D01*
X173079463Y-104749263D01*
X173075727Y-104697386D01*
X173079463Y-104677162D01*
X173090894Y-104660676D01*
X173108479Y-104649245D01*
X173128483Y-104644190D01*
X173385231Y-104644190D01*
X173385231Y-104378209D01*
X173125405Y-104378209D01*
X173104962Y-104373153D01*
X173087157Y-104361723D01*
X173075727Y-104345236D01*
X173071990Y-104325013D01*
X173075727Y-104273356D01*
X173087157Y-104255550D01*
X173104962Y-104244120D01*
X173125405Y-104240383D01*
X173782004Y-104240383D01*
X173802227Y-104244120D01*
G37*
G36*
X173806184Y-104923799D02*
G01*
X173823989Y-104935229D01*
X173835419Y-104951716D01*
X173835419Y-104973258D01*
X173835419Y-105253087D01*
X173830364Y-105275728D01*
X173798490Y-105339036D01*
X173757823Y-105383439D01*
X173680228Y-105425205D01*
X173657366Y-105430261D01*
X173563284Y-105430261D01*
X173539104Y-105425205D01*
X173476895Y-105393551D01*
X173432272Y-105353104D01*
X173390287Y-105275728D01*
X173385231Y-105253087D01*
X173385231Y-105056789D01*
X173525915Y-105056789D01*
X173525915Y-105240338D01*
X173543061Y-105275728D01*
X173577572Y-105292215D01*
X173644177Y-105292215D01*
X173678689Y-105275728D01*
X173694736Y-105240338D01*
X173694736Y-105056789D01*
X173525915Y-105056789D01*
X173385231Y-105056789D01*
X173128483Y-105056789D01*
X173108479Y-105053052D01*
X173090894Y-105041622D01*
X173079463Y-105023816D01*
X173075727Y-105003593D01*
X173079463Y-104951716D01*
X173090894Y-104935229D01*
X173108919Y-104923799D01*
X173129142Y-104920062D01*
X173785740Y-104920062D01*
X173806184Y-104923799D01*
G37*
G36*
X173805964Y-105541929D02*
G01*
X173823989Y-105553359D01*
X173835419Y-105569846D01*
X173835419Y-105591388D01*
X173835419Y-105809008D01*
X173801128Y-105919137D01*
X173788598Y-105939361D01*
X173712541Y-106011681D01*
X173642858Y-106045753D01*
X173550535Y-106076308D01*
X173378417Y-106080044D01*
X173268288Y-106045753D01*
X173198605Y-106011681D01*
X173122548Y-105939361D01*
X173110018Y-105919137D01*
X173075727Y-105809008D01*
X173075727Y-105674919D01*
X173216410Y-105674919D01*
X173216410Y-105800215D01*
X173240151Y-105873635D01*
X173256417Y-105888802D01*
X173306536Y-105915400D01*
X173386770Y-105941998D01*
X173524376Y-105941998D01*
X173604610Y-105915400D01*
X173654729Y-105888802D01*
X173670995Y-105873635D01*
X173694736Y-105800215D01*
X173694736Y-105674919D01*
X173216410Y-105674919D01*
X173075727Y-105674919D01*
X173075727Y-105591388D01*
X173075727Y-105569846D01*
X173087157Y-105553359D01*
X173105182Y-105541929D01*
X173125625Y-105538192D01*
X173785521Y-105538192D01*
X173805964Y-105541929D01*
G37*
D11*
G36*
X173694482Y-88414152D02*
G01*
X173704643Y-88420795D01*
X173712458Y-88432128D01*
X173714608Y-88499734D01*
X173881865Y-88499734D01*
X173893980Y-88502079D01*
X173903749Y-88508722D01*
X173910393Y-88518883D01*
X173912542Y-88531193D01*
X173912542Y-88560502D01*
X173912542Y-88572812D01*
X173905899Y-88582972D01*
X173895738Y-88589616D01*
X173883428Y-88591960D01*
X173712458Y-88591960D01*
X173712458Y-88648234D01*
X173712458Y-88659371D01*
X173704643Y-88669532D01*
X173694482Y-88676371D01*
X173683345Y-88679692D01*
X173654035Y-88679692D01*
X173641726Y-88676371D01*
X173631565Y-88669532D01*
X173624922Y-88659371D01*
X173622577Y-88591960D01*
X173269304Y-88591960D01*
X173256604Y-88589616D01*
X173246443Y-88582972D01*
X173239604Y-88572812D01*
X173237260Y-88531193D01*
X173239604Y-88518883D01*
X173246443Y-88508722D01*
X173256604Y-88502079D01*
X173269304Y-88499734D01*
X173622577Y-88499734D01*
X173622577Y-88443461D01*
X173624922Y-88432128D01*
X173631565Y-88420795D01*
X173641726Y-88414152D01*
X173654035Y-88411807D01*
X173683345Y-88411807D01*
X173694482Y-88414152D01*
G37*
G36*
X173692137Y-88732644D02*
G01*
X173702298Y-88739483D01*
X173710114Y-88749448D01*
X173712458Y-88790090D01*
X173710114Y-88802400D01*
X173702298Y-88812561D01*
X173692137Y-88819399D01*
X173413114Y-88936441D01*
X173694287Y-89053482D01*
X173704447Y-89060125D01*
X173712458Y-89070286D01*
X173714608Y-89082595D01*
X173712458Y-89123237D01*
X173704643Y-89133398D01*
X173694482Y-89140041D01*
X173683149Y-89142386D01*
X173670644Y-89140041D01*
X173056324Y-88877822D01*
X173046164Y-88870983D01*
X173039520Y-88861018D01*
X173037176Y-88848513D01*
X173039520Y-88806894D01*
X173056324Y-88791263D01*
X173068634Y-88787746D01*
X173081139Y-88791263D01*
X173302717Y-88889155D01*
X173668495Y-88732644D01*
X173679828Y-88730300D01*
X173692137Y-88732644D01*
G37*
G36*
X173694482Y-89253175D02*
G01*
X173704643Y-89260013D01*
X173712458Y-89269979D01*
X173712458Y-89282484D01*
X173712458Y-89310425D01*
X173710309Y-89322930D01*
X173702884Y-89332896D01*
X173693114Y-89339734D01*
X173671816Y-89342079D01*
X173682172Y-89355561D01*
X173712458Y-89414180D01*
X173712458Y-89427662D01*
X173712458Y-89515394D01*
X173708941Y-89528876D01*
X173673575Y-89595310D01*
X173614175Y-89653733D01*
X173601670Y-89661549D01*
X173502214Y-89692030D01*
X173433826Y-89690858D01*
X173344726Y-89661549D01*
X173332026Y-89653733D01*
X173266959Y-89587299D01*
X173237260Y-89528876D01*
X173237260Y-89515394D01*
X173237260Y-89507578D01*
X173324796Y-89507578D01*
X173349416Y-89554863D01*
X173370714Y-89574989D01*
X173449458Y-89599804D01*
X173500260Y-89599804D01*
X173579004Y-89574989D01*
X173600302Y-89554863D01*
X173624922Y-89507578D01*
X173624922Y-89435478D01*
X173576659Y-89342079D01*
X173373059Y-89342079D01*
X173324796Y-89435478D01*
X173324796Y-89507578D01*
X173237260Y-89507578D01*
X173237260Y-89427662D01*
X173240386Y-89414180D01*
X173268327Y-89355561D01*
X173277902Y-89342079D01*
X173068048Y-89342079D01*
X173055934Y-89339734D01*
X173045969Y-89333091D01*
X173039325Y-89322930D01*
X173037176Y-89310621D01*
X173039520Y-89269979D01*
X173046164Y-89259818D01*
X173056324Y-89253175D01*
X173068830Y-89250830D01*
X173683149Y-89250830D01*
X173694482Y-89253175D01*
G37*
G36*
X173604992Y-89831542D02*
G01*
X173617692Y-89839358D01*
X173677092Y-89896803D01*
X173712458Y-89964214D01*
X173712458Y-89977697D01*
X173712458Y-90065624D01*
X173708941Y-90079106D01*
X173678851Y-90137529D01*
X173633910Y-90181493D01*
X173574901Y-90209630D01*
X173559855Y-90212951D01*
X173469779Y-90212951D01*
X173458055Y-90210802D01*
X173447699Y-90203963D01*
X173439688Y-90193803D01*
X173437343Y-90181493D01*
X173437343Y-89904619D01*
X173524880Y-89904619D01*
X173524880Y-90121898D01*
X173547936Y-90121898D01*
X173599325Y-90100404D01*
X173624922Y-90057613D01*
X173624922Y-89985708D01*
X173596590Y-89938422D01*
X173572165Y-89918101D01*
X173524880Y-89904619D01*
X173437343Y-89904619D01*
X173437343Y-89895631D01*
X173369151Y-89918101D01*
X173348634Y-89938422D01*
X173324796Y-89985708D01*
X173324796Y-90057613D01*
X173346290Y-90100404D01*
X173394552Y-90124047D01*
X173410379Y-90142023D01*
X173409206Y-90165666D01*
X173374426Y-90203963D01*
X173363093Y-90210802D01*
X173351956Y-90212951D01*
X173339451Y-90210802D01*
X173329290Y-90203963D01*
X173271649Y-90145540D01*
X173237260Y-90079106D01*
X173237260Y-90065624D01*
X173237260Y-89977697D01*
X173240777Y-89964214D01*
X173270477Y-89905792D01*
X173335543Y-89839358D01*
X173348048Y-89831542D01*
X173437148Y-89802233D01*
X173515892Y-89802233D01*
X173604992Y-89831542D01*
G37*
G36*
X173569234Y-90352854D02*
G01*
X173578809Y-90359497D01*
X173585257Y-90369658D01*
X173587406Y-90381967D01*
X173587406Y-90877292D01*
X173585257Y-90889602D01*
X173578809Y-90899762D01*
X173569234Y-90906406D01*
X173529765Y-90908750D01*
X173518041Y-90906406D01*
X173508467Y-90899762D01*
X173502019Y-90889602D01*
X173499869Y-90877292D01*
X173499869Y-90381967D01*
X173502019Y-90369658D01*
X173508467Y-90359497D01*
X173518041Y-90352854D01*
X173557511Y-90350509D01*
X173569234Y-90352854D01*
G37*
G36*
X173329290Y-91507243D02*
G01*
X173271649Y-91448625D01*
X173237260Y-91382191D01*
X173237260Y-91368709D01*
X173237260Y-91251667D01*
X173240581Y-91238185D01*
X173275752Y-91170774D01*
X173334566Y-91113328D01*
X173401195Y-91078353D01*
X173492835Y-91046894D01*
X173650128Y-91045722D01*
X173747434Y-91076203D01*
X173810742Y-91106685D01*
X173877567Y-91170774D01*
X173912542Y-91238185D01*
X173912542Y-91251667D01*
X173912542Y-91368709D01*
X173909416Y-91382191D01*
X173876199Y-91448625D01*
X173820511Y-91507243D01*
X173754077Y-91542023D01*
X173741572Y-91545540D01*
X173728090Y-91543196D01*
X173717929Y-91536552D01*
X173711286Y-91526392D01*
X173707964Y-91513886D01*
X173710114Y-91473440D01*
X173725941Y-91456636D01*
X173779869Y-91429476D01*
X173801363Y-91408178D01*
X173825005Y-91360893D01*
X173825005Y-91259679D01*
X173802144Y-91214542D01*
X173723987Y-91163935D01*
X173643680Y-91138143D01*
X173506122Y-91138143D01*
X173425815Y-91163935D01*
X173347657Y-91214542D01*
X173324796Y-91259679D01*
X173324796Y-91360893D01*
X173348439Y-91408178D01*
X173369932Y-91429476D01*
X173432849Y-91463279D01*
X173441837Y-91484773D01*
X173440860Y-91516231D01*
X173431872Y-91536552D01*
X173419367Y-91544368D01*
X173408229Y-91545540D01*
X173396897Y-91543196D01*
X173329290Y-91507243D01*
G37*
D12*
G36*
X172840935Y-102136104D02*
G01*
X172856566Y-102143431D01*
X172897355Y-102201500D01*
X173011172Y-102289244D01*
X173014103Y-102300785D01*
X173011172Y-102312325D01*
X173002868Y-102321851D01*
X172990167Y-102328079D01*
X172974780Y-102330277D01*
X172209323Y-102330277D01*
X172193935Y-102328079D01*
X172181235Y-102321851D01*
X172172930Y-102312325D01*
X172170000Y-102273307D01*
X172172930Y-102261767D01*
X172181235Y-102252241D01*
X172193935Y-102246013D01*
X172209323Y-102243815D01*
X172807229Y-102243815D01*
X172793307Y-102232091D01*
X172753740Y-102165596D01*
X172755205Y-102154056D01*
X172763754Y-102143431D01*
X172776454Y-102137203D01*
X172791842Y-102134089D01*
X172840935Y-102136104D01*
G37*
G36*
X172877327Y-102625750D02*
G01*
X172892958Y-102633077D01*
X172966231Y-102687848D01*
X172976001Y-102699572D01*
X173012637Y-102780722D01*
X173014103Y-102817725D01*
X172976001Y-102909499D01*
X172966231Y-102921039D01*
X172892958Y-102974895D01*
X172874640Y-102983321D01*
X172719546Y-103010799D01*
X172536364Y-103010799D01*
X172346099Y-102983321D01*
X172332177Y-102979108D01*
X172213719Y-102917925D01*
X172170000Y-102827250D01*
X172168534Y-102762770D01*
X172205170Y-102672095D01*
X172213230Y-102661470D01*
X172295052Y-102627765D01*
X172310439Y-102624651D01*
X172325826Y-102625750D01*
X172339993Y-102631978D01*
X172348541Y-102641503D01*
X172352693Y-102654143D01*
X172349762Y-102692062D01*
X172330223Y-102707998D01*
X172301891Y-102718440D01*
X172279420Y-102768082D01*
X172279420Y-102812412D01*
X172305310Y-102869382D01*
X172367103Y-102898874D01*
X172508276Y-102920123D01*
X172499972Y-102909499D01*
X172463335Y-102827250D01*
X172463335Y-102812412D01*
X172576664Y-102812412D01*
X172597669Y-102858757D01*
X172624291Y-102889532D01*
X172663859Y-102909499D01*
X172721500Y-102923237D01*
X172819930Y-102905286D01*
X172850949Y-102889532D01*
X172877571Y-102858757D01*
X172898820Y-102812412D01*
X172898820Y-102795560D01*
X172877571Y-102749031D01*
X172850949Y-102718440D01*
X172811625Y-102698473D01*
X172749588Y-102683635D01*
X172725652Y-102683635D01*
X172663859Y-102698473D01*
X172624291Y-102718440D01*
X172597669Y-102749031D01*
X172576664Y-102795560D01*
X172576664Y-102812412D01*
X172463335Y-102812412D01*
X172463335Y-102780722D01*
X172499972Y-102699572D01*
X172508276Y-102687848D01*
X172581549Y-102633077D01*
X172596936Y-102625750D01*
X172706845Y-102598272D01*
X172767418Y-102598272D01*
X172877327Y-102625750D01*
G37*
G36*
X172840935Y-93681472D02*
G01*
X172856566Y-93691242D01*
X172897355Y-93768667D01*
X173011172Y-93885659D01*
X173014103Y-93901046D01*
X173011172Y-93916434D01*
X173002868Y-93929134D01*
X172990167Y-93937438D01*
X172974780Y-93940369D01*
X172209323Y-93940369D01*
X172193935Y-93937438D01*
X172181235Y-93929134D01*
X172172930Y-93916434D01*
X172170000Y-93864410D01*
X172172930Y-93849023D01*
X172181235Y-93836322D01*
X172193935Y-93828018D01*
X172209323Y-93825087D01*
X172807229Y-93825087D01*
X172793307Y-93809455D01*
X172753740Y-93720795D01*
X172755205Y-93705408D01*
X172763754Y-93691242D01*
X172776454Y-93682937D01*
X172791842Y-93678785D01*
X172840935Y-93681472D01*
G37*
D13*
%TO.C,J3*%
X181150000Y-92400000D02*
X180550000Y-92400000D01*
X176050000Y-92400000D02*
X177850000Y-92400000D01*
X173550000Y-94000000D02*
X173550000Y-93200000D01*
X173550000Y-102800000D02*
X173550000Y-102000000D01*
X181150000Y-103600000D02*
X181150000Y-92400000D01*
X180550000Y-103600000D02*
X181150000Y-103600000D01*
X176050000Y-103600000D02*
X177850000Y-103600000D01*
D14*
%TO.C,U3*%
X170737500Y-99640000D02*
X169737500Y-99640000D01*
X170737500Y-102360000D02*
X169737500Y-102360000D01*
X169347500Y-99690000D02*
X169067500Y-99690000D01*
X169347500Y-99410000D01*
X169347500Y-99690000D01*
G36*
X169347500Y-99690000D02*
G01*
X169067500Y-99690000D01*
X169347500Y-99410000D01*
X169347500Y-99690000D01*
G37*
%TO.C,U2*%
X170762500Y-96540000D02*
X169762500Y-96540000D01*
X170762500Y-99260000D02*
X169762500Y-99260000D01*
X169372500Y-96590000D02*
X169092500Y-96590000D01*
X169372500Y-96310000D01*
X169372500Y-96590000D01*
G36*
X169372500Y-96590000D02*
G01*
X169092500Y-96590000D01*
X169372500Y-96310000D01*
X169372500Y-96590000D01*
G37*
%TO.C,U1*%
X170750000Y-93440000D02*
X169750000Y-93440000D01*
X170750000Y-96160000D02*
X169750000Y-96160000D01*
X169360000Y-93490000D02*
X169080000Y-93490000D01*
X169360000Y-93210000D01*
X169360000Y-93490000D01*
G36*
X169360000Y-93490000D02*
G01*
X169080000Y-93490000D01*
X169360000Y-93210000D01*
X169360000Y-93490000D01*
G37*
D13*
%TO.C,J2*%
X163200000Y-90900000D02*
X163800000Y-90900000D01*
X163200000Y-105100000D02*
X163200000Y-90900000D01*
X163800000Y-105100000D02*
X163200000Y-105100000D01*
X165800000Y-90900000D02*
X167300000Y-90900000D01*
X167300000Y-90900000D02*
X167300000Y-92500000D01*
X167300000Y-103500000D02*
X167300000Y-105100000D01*
X167300000Y-105100000D02*
X165800000Y-105100000D01*
D14*
%TO.C,HPD1*%
X174138318Y-106991566D02*
G75*
G02*
X172738318Y-106991566I-700000J0D01*
G01*
X172738318Y-106991566D02*
G75*
G02*
X174138318Y-106991566I700000J0D01*
G01*
%TD*%
M02*
