M48
; DRILL file {KiCad 8.99.0-344-gfbc433deaa} date 2024-04-11T03:20:40-0400
; FORMAT={-:-/ absolute / inch / decimal}
; #@! TF.CreationDate,2024-04-11T03:20:40-04:00
; #@! TF.GenerationSoftware,Kicad,Pcbnew,8.99.0-344-gfbc433deaa
; #@! TF.FileFunction,Plated,1,2,PTH
FMAT,2
INCH
; #@! TA.AperFunction,Plated,PTH,ViaDrill
T1C0.0118
; #@! TA.AperFunction,Plated,PTH,ComponentDrill
T2C0.0236
%
G90
G05
T1
X6.4894Y-3.9339
X6.4902Y-3.7315
X6.4902Y-3.8319
X6.5169Y-4.0453
X6.5394Y-3.5602
X6.5406Y-4.139
X6.5429Y-3.6394
X6.5591Y-3.7008
X6.5591Y-3.7598
X6.5591Y-3.8189
X6.5591Y-3.878
X6.5591Y-3.9961
X6.6082Y-4.1761
X6.6228Y-4.087
X6.624Y-3.5433
X6.6331Y-3.6417
X6.6575Y-3.7323
X6.6575Y-3.8543
X6.6575Y-3.9764
X6.748Y-3.7323
X6.748Y-3.8543
X6.748Y-3.9764
X6.7618Y-3.9409
X6.7705Y-4.2077
X6.7717Y-3.6417
X6.7768Y-4.0909
X6.7854Y-3.5039
X6.8681Y-4.126
X6.8701Y-3.7165
X6.8701Y-3.7638
X6.8701Y-3.811
X6.8701Y-3.8583
X6.8701Y-3.9055
X6.874Y-3.9685
X6.876Y-3.5906
X6.88Y-3.491
X6.895Y-4.2382
X6.9547Y-3.7165
X6.9547Y-3.8228
X6.9547Y-3.9488
X7.0217Y-3.5079
X7.0374Y-3.874
X7.0413Y-3.7598
X7.0413Y-4.0
X7.048Y-4.1835
X7.0551Y-3.5906
T2
X6.8898Y-3.6445G85X6.8622Y-3.6445
G05
X6.8898Y-4.072G85X6.8622Y-4.072
G05
X7.063Y-3.6445G85X7.0433Y-3.6445
G05
X7.063Y-4.072G85X7.0433Y-4.072
G05
M30
