%TF.GenerationSoftware,KiCad,Pcbnew,8.99.0-344-gfbc433deaa*%
%TF.CreationDate,2024-04-11T03:20:37-04:00*%
%TF.ProjectId,typeC,74797065-432e-46b6-9963-61645f706362,rev?*%
%TF.SameCoordinates,Original*%
%TF.FileFunction,Soldermask,Top*%
%TF.FilePolarity,Negative*%
%FSLAX46Y46*%
G04 Gerber Fmt 4.6, Leading zero omitted, Abs format (unit mm)*
G04 Created by KiCad (PCBNEW 8.99.0-344-gfbc433deaa) date 2024-04-11 03:20:37*
%MOMM*%
%LPD*%
G01*
G04 APERTURE LIST*
G04 Aperture macros list*
%AMRoundRect*
0 Rectangle with rounded corners*
0 $1 Rounding radius*
0 $2 $3 $4 $5 $6 $7 $8 $9 X,Y pos of 4 corners*
0 Add a 4 corners polygon primitive as box body*
4,1,4,$2,$3,$4,$5,$6,$7,$8,$9,$2,$3,0*
0 Add four circle primitives for the rounded corners*
1,1,$1+$1,$2,$3*
1,1,$1+$1,$4,$5*
1,1,$1+$1,$6,$7*
1,1,$1+$1,$8,$9*
0 Add four rect primitives between the rounded corners*
20,1,$1+$1,$2,$3,$4,$5,0*
20,1,$1+$1,$4,$5,$6,$7,0*
20,1,$1+$1,$6,$7,$8,$9,0*
20,1,$1+$1,$8,$9,$2,$3,0*%
G04 Aperture macros list end*
%ADD10O,1.700000X1.200000*%
%ADD11O,1.900000X1.200000*%
%ADD12RoundRect,0.092000X0.408000X-0.023000X0.408000X0.023000X-0.408000X0.023000X-0.408000X-0.023000X0*%
%ADD13C,2.200000*%
%ADD14RoundRect,0.062500X-0.250000X0.062500X-0.250000X-0.062500X0.250000X-0.062500X0.250000X0.062500X0*%
%ADD15RoundRect,0.112500X-0.237500X0.112500X-0.237500X-0.112500X0.237500X-0.112500X0.237500X0.112500X0*%
%ADD16RoundRect,0.112500X-0.175000X0.112500X-0.175000X-0.112500X0.175000X-0.112500X0.175000X0.112500X0*%
%ADD17RoundRect,0.075000X-0.425000X0.075000X-0.425000X-0.075000X0.425000X-0.075000X0.425000X0.075000X0*%
%ADD18RoundRect,0.325000X-0.325000X-0.675000X0.325000X-0.675000X0.325000X0.675000X-0.325000X0.675000X0*%
%ADD19C,1.000000*%
G04 APERTURE END LIST*
D10*
%TO.C,J3*%
X179150000Y-92570000D03*
X179150000Y-103430000D03*
D11*
X174650000Y-92570000D03*
X174650000Y-103430000D03*
D12*
X173600000Y-101600000D03*
X173600000Y-101200000D03*
X173600000Y-100800000D03*
X173600000Y-100400000D03*
X173600000Y-100000000D03*
X173600000Y-99600000D03*
X173600000Y-99200000D03*
X173600000Y-98800000D03*
X173600000Y-98400000D03*
X173600000Y-98000000D03*
X173600000Y-97600000D03*
X173600000Y-97200000D03*
X173600000Y-96800000D03*
X173600000Y-96400000D03*
X173600000Y-96000000D03*
X173600000Y-95600000D03*
X173600000Y-95200000D03*
X173600000Y-94800000D03*
X173600000Y-94400000D03*
%TD*%
D13*
%TO.C,REF\u002A\u002A*%
X176750000Y-106500000D03*
%TD*%
%TO.C,REF\u002A\u002A*%
X176750000Y-89500000D03*
%TD*%
%TO.C,REF\u002A\u002A*%
X170250000Y-90500000D03*
%TD*%
%TO.C,REF\u002A\u002A*%
X170250000Y-105500000D03*
%TD*%
D14*
%TO.C,U3*%
X169850000Y-100000000D03*
X169850000Y-100500000D03*
D15*
X169887500Y-101000000D03*
D14*
X169850000Y-101500000D03*
X169850000Y-102000000D03*
X170625000Y-102000000D03*
X170625000Y-101500000D03*
D16*
X170650000Y-101000000D03*
D14*
X170625000Y-100500000D03*
X170625000Y-100000000D03*
%TD*%
%TO.C,U2*%
X169875000Y-96900000D03*
X169875000Y-97400000D03*
D15*
X169912500Y-97900000D03*
D14*
X169875000Y-98400000D03*
X169875000Y-98900000D03*
X170650000Y-98900000D03*
X170650000Y-98400000D03*
D16*
X170675000Y-97900000D03*
D14*
X170650000Y-97400000D03*
X170650000Y-96900000D03*
%TD*%
%TO.C,U1*%
X169862500Y-93800000D03*
X169862500Y-94300000D03*
D15*
X169900000Y-94800000D03*
D14*
X169862500Y-95300000D03*
X169862500Y-95800000D03*
X170637500Y-95800000D03*
X170637500Y-95300000D03*
D16*
X170662500Y-94800000D03*
D14*
X170637500Y-94300000D03*
X170637500Y-93800000D03*
%TD*%
D17*
%TO.C,J2*%
X167500000Y-93500000D03*
X167500000Y-94000000D03*
X167500000Y-94500000D03*
X167500000Y-95000000D03*
X167500000Y-95500000D03*
X167500000Y-96000000D03*
X167500000Y-96500000D03*
X167500000Y-97000000D03*
X167500000Y-97500000D03*
X167500000Y-98000000D03*
X167500000Y-98500000D03*
X167500000Y-99000000D03*
X167500000Y-99500000D03*
X167500000Y-100000000D03*
X167500000Y-100500000D03*
X167500000Y-101000000D03*
X167500000Y-101500000D03*
X167500000Y-102000000D03*
X167500000Y-102500000D03*
D18*
X164800000Y-91200000D03*
X164800000Y-104800000D03*
%TD*%
D19*
%TO.C,HPD1*%
X173438318Y-106991566D03*
%TD*%
M02*
