%TF.GenerationSoftware,KiCad,Pcbnew,8.99.0-344-gfbc433deaa*%
%TF.CreationDate,2024-04-11T03:20:37-04:00*%
%TF.ProjectId,typeC,74797065-432e-46b6-9963-61645f706362,rev?*%
%TF.SameCoordinates,Original*%
%TF.FileFunction,Copper,L1,Top*%
%TF.FilePolarity,Positive*%
%FSLAX46Y46*%
G04 Gerber Fmt 4.6, Leading zero omitted, Abs format (unit mm)*
G04 Created by KiCad (PCBNEW 8.99.0-344-gfbc433deaa) date 2024-04-11 03:20:37*
%MOMM*%
%LPD*%
G01*
G04 APERTURE LIST*
G04 Aperture macros list*
%AMRoundRect*
0 Rectangle with rounded corners*
0 $1 Rounding radius*
0 $2 $3 $4 $5 $6 $7 $8 $9 X,Y pos of 4 corners*
0 Add a 4 corners polygon primitive as box body*
4,1,4,$2,$3,$4,$5,$6,$7,$8,$9,$2,$3,0*
0 Add four circle primitives for the rounded corners*
1,1,$1+$1,$2,$3*
1,1,$1+$1,$4,$5*
1,1,$1+$1,$6,$7*
1,1,$1+$1,$8,$9*
0 Add four rect primitives between the rounded corners*
20,1,$1+$1,$2,$3,$4,$5,0*
20,1,$1+$1,$4,$5,$6,$7,0*
20,1,$1+$1,$6,$7,$8,$9,0*
20,1,$1+$1,$8,$9,$2,$3,0*%
G04 Aperture macros list end*
%TA.AperFunction,ComponentPad*%
%ADD10O,1.700000X1.200000*%
%TD*%
%TA.AperFunction,ComponentPad*%
%ADD11O,1.900000X1.200000*%
%TD*%
%TA.AperFunction,SMDPad,CuDef*%
%ADD12RoundRect,0.092000X0.408000X-0.023000X0.408000X0.023000X-0.408000X0.023000X-0.408000X-0.023000X0*%
%TD*%
%TA.AperFunction,SMDPad,CuDef*%
%ADD13RoundRect,0.062500X-0.250000X0.062500X-0.250000X-0.062500X0.250000X-0.062500X0.250000X0.062500X0*%
%TD*%
%TA.AperFunction,SMDPad,CuDef*%
%ADD14RoundRect,0.112500X-0.237500X0.112500X-0.237500X-0.112500X0.237500X-0.112500X0.237500X0.112500X0*%
%TD*%
%TA.AperFunction,SMDPad,CuDef*%
%ADD15RoundRect,0.112500X-0.175000X0.112500X-0.175000X-0.112500X0.175000X-0.112500X0.175000X0.112500X0*%
%TD*%
%TA.AperFunction,SMDPad,CuDef*%
%ADD16RoundRect,0.075000X-0.425000X0.075000X-0.425000X-0.075000X0.425000X-0.075000X0.425000X0.075000X0*%
%TD*%
%TA.AperFunction,SMDPad,CuDef*%
%ADD17RoundRect,0.325000X-0.325000X-0.675000X0.325000X-0.675000X0.325000X0.675000X-0.325000X0.675000X0*%
%TD*%
%TA.AperFunction,SMDPad,CuDef*%
%ADD18C,1.000000*%
%TD*%
%TA.AperFunction,ViaPad*%
%ADD19C,0.450000*%
%TD*%
%TA.AperFunction,Conductor*%
%ADD20C,0.127000*%
%TD*%
%TA.AperFunction,Conductor*%
%ADD21C,0.254000*%
%TD*%
%TA.AperFunction,Conductor*%
%ADD22C,0.304800*%
%TD*%
%TA.AperFunction,Conductor*%
%ADD23C,0.406400*%
%TD*%
G04 APERTURE END LIST*
D10*
%TO.P,J3,SH,SH*%
%TO.N,GND*%
X179150000Y-92570000D03*
X179150000Y-103430000D03*
D11*
X174650000Y-92570000D03*
X174650000Y-103430000D03*
D12*
%TO.P,J3,19,HPD*%
%TO.N,Net-(J3-HPD)*%
X173600000Y-101600000D03*
%TO.P,J3,18,+5V*%
%TO.N,+5V*%
X173600000Y-101200000D03*
%TO.P,J3,17,UTILITY*%
%TO.N,UTL*%
X173600000Y-100800000D03*
%TO.P,J3,16,SDA*%
%TO.N,SDA*%
X173600000Y-100400000D03*
%TO.P,J3,15,SCL*%
%TO.N,SCL*%
X173600000Y-100000000D03*
%TO.P,J3,14,CEC*%
%TO.N,CEC*%
X173600000Y-99600000D03*
%TO.P,J3,13,GND*%
%TO.N,GND*%
X173600000Y-99200000D03*
%TO.P,J3,12,CK-*%
%TO.N,TMDSClk-*%
X173600000Y-98800000D03*
%TO.P,J3,11,CK+*%
%TO.N,TMDSClk+*%
X173600000Y-98400000D03*
%TO.P,J3,10,CKS*%
%TO.N,GND*%
X173600000Y-98000000D03*
%TO.P,J3,9,D0-*%
%TO.N,TMDS0-*%
X173600000Y-97600000D03*
%TO.P,J3,8,D0+*%
%TO.N,TMDS0+*%
X173600000Y-97200000D03*
%TO.P,J3,7,D0S*%
%TO.N,GND*%
X173600000Y-96800000D03*
%TO.P,J3,6,D1-*%
%TO.N,TMDS1-*%
X173600000Y-96400000D03*
%TO.P,J3,5,D1+*%
%TO.N,TMDS1+*%
X173600000Y-96000000D03*
%TO.P,J3,4,D1S*%
%TO.N,GND*%
X173600000Y-95600000D03*
%TO.P,J3,3,D2-*%
%TO.N,TMDS2-*%
X173600000Y-95200000D03*
%TO.P,J3,2,D2+*%
%TO.N,TMDS2+*%
X173600000Y-94800000D03*
%TO.P,J3,1,D2S*%
%TO.N,GND*%
X173600000Y-94400000D03*
%TD*%
D13*
%TO.P,U3,1*%
%TO.N,CEC*%
X169850000Y-100000000D03*
%TO.P,U3,2*%
%TO.N,UTL*%
X169850000Y-100500000D03*
D14*
%TO.P,U3,3,VSS*%
%TO.N,GND*%
X169887500Y-101000000D03*
D13*
%TO.P,U3,4*%
%TO.N,SCL*%
X169850000Y-101500000D03*
%TO.P,U3,5*%
%TO.N,SDA*%
X169850000Y-102000000D03*
%TO.P,U3,6,NC*%
X170625000Y-102000000D03*
%TO.P,U3,7,NC*%
%TO.N,SCL*%
X170625000Y-101500000D03*
D15*
%TO.P,U3,8,VSS*%
%TO.N,GND*%
X170650000Y-101000000D03*
D13*
%TO.P,U3,9,NC*%
%TO.N,UTL*%
X170625000Y-100500000D03*
%TO.P,U3,10,NC*%
%TO.N,CEC*%
X170625000Y-100000000D03*
%TD*%
%TO.P,U2,1*%
%TO.N,TMDS0+*%
X169875000Y-96900000D03*
%TO.P,U2,2*%
%TO.N,TMDS0-*%
X169875000Y-97400000D03*
D14*
%TO.P,U2,3,VSS*%
%TO.N,GND*%
X169912500Y-97900000D03*
D13*
%TO.P,U2,4*%
%TO.N,TMDSClk+*%
X169875000Y-98400000D03*
%TO.P,U2,5*%
%TO.N,TMDSClk-*%
X169875000Y-98900000D03*
%TO.P,U2,6,NC*%
X170650000Y-98900000D03*
%TO.P,U2,7,NC*%
%TO.N,TMDSClk+*%
X170650000Y-98400000D03*
D15*
%TO.P,U2,8,VSS*%
%TO.N,GND*%
X170675000Y-97900000D03*
D13*
%TO.P,U2,9,NC*%
%TO.N,TMDS0-*%
X170650000Y-97400000D03*
%TO.P,U2,10,NC*%
%TO.N,TMDS0+*%
X170650000Y-96900000D03*
%TD*%
%TO.P,U1,1*%
%TO.N,TMDS2+*%
X169862500Y-93800000D03*
%TO.P,U1,2*%
%TO.N,TMDS2-*%
X169862500Y-94300000D03*
D14*
%TO.P,U1,3,VSS*%
%TO.N,GND*%
X169900000Y-94800000D03*
D13*
%TO.P,U1,4*%
%TO.N,TMDS1+*%
X169862500Y-95300000D03*
%TO.P,U1,5*%
%TO.N,TMDS1-*%
X169862500Y-95800000D03*
%TO.P,U1,6,NC*%
X170637500Y-95800000D03*
%TO.P,U1,7,NC*%
%TO.N,TMDS1+*%
X170637500Y-95300000D03*
D15*
%TO.P,U1,8,VSS*%
%TO.N,GND*%
X170662500Y-94800000D03*
D13*
%TO.P,U1,9,NC*%
%TO.N,TMDS2-*%
X170637500Y-94300000D03*
%TO.P,U1,10,NC*%
%TO.N,TMDS2+*%
X170637500Y-93800000D03*
%TD*%
D16*
%TO.P,J2,1,1*%
%TO.N,TMDS2+*%
X167500000Y-93500000D03*
%TO.P,J2,2,2*%
%TO.N,GND*%
X167500000Y-94000000D03*
%TO.P,J2,3,3*%
%TO.N,TMDS2-*%
X167500000Y-94500000D03*
%TO.P,J2,4,4*%
%TO.N,TMDS1+*%
X167500000Y-95000000D03*
%TO.P,J2,5,5*%
%TO.N,GND*%
X167500000Y-95500000D03*
%TO.P,J2,6,6*%
%TO.N,TMDS1-*%
X167500000Y-96000000D03*
%TO.P,J2,7,7*%
%TO.N,TMDS0+*%
X167500000Y-96500000D03*
%TO.P,J2,8,8*%
%TO.N,GND*%
X167500000Y-97000000D03*
%TO.P,J2,9,9*%
%TO.N,TMDS0-*%
X167500000Y-97500000D03*
%TO.P,J2,10,10*%
%TO.N,TMDSClk+*%
X167500000Y-98000000D03*
%TO.P,J2,11,11*%
%TO.N,GND*%
X167500000Y-98500000D03*
%TO.P,J2,12,12*%
%TO.N,TMDSClk-*%
X167500000Y-99000000D03*
%TO.P,J2,13,13*%
%TO.N,CEC*%
X167500000Y-99500000D03*
%TO.P,J2,14,14*%
%TO.N,UTL*%
X167500000Y-100000000D03*
%TO.P,J2,15,15*%
%TO.N,SCL*%
X167500000Y-100500000D03*
%TO.P,J2,16,16*%
%TO.N,SDA*%
X167500000Y-101000000D03*
%TO.P,J2,17,17*%
%TO.N,GND*%
X167500000Y-101500000D03*
%TO.P,J2,18,18*%
%TO.N,+5V*%
X167500000Y-102000000D03*
%TO.P,J2,19,19*%
%TO.N,unconnected-(J2-Pad19)*%
X167500000Y-102500000D03*
D17*
%TO.P,J2,MP1,MP1*%
%TO.N,GND*%
X164800000Y-91200000D03*
%TO.P,J2,MP2,MP2*%
X164800000Y-104800000D03*
%TD*%
D18*
%TO.P,HPD1,1,1*%
%TO.N,Net-(J3-HPD)*%
X173438318Y-106991566D03*
%TD*%
D19*
%TO.N,GND*%
X175134020Y-107650075D03*
X174751883Y-88670615D03*
X168250000Y-90000000D03*
X167848915Y-106073925D03*
X171971781Y-106874535D03*
X178850000Y-101600000D03*
X176650000Y-100300000D03*
X178750000Y-98400000D03*
X176650000Y-97100000D03*
X174500000Y-94400000D03*
X174500000Y-95600000D03*
X174500000Y-96800000D03*
X174500000Y-98000000D03*
X174500000Y-99200000D03*
%TO.N,UTL*%
X174600000Y-100800000D03*
X171750000Y-100100000D03*
%TO.N,GND*%
X174650000Y-91200000D03*
X176650000Y-94400000D03*
X172130000Y-103910000D03*
X172350000Y-89000000D03*
X166600000Y-97000000D03*
X166600000Y-95500000D03*
X168480000Y-92500000D03*
X164850000Y-97330000D03*
X166600000Y-98500000D03*
X166190000Y-92440000D03*
X171400000Y-97900000D03*
X166600000Y-101500000D03*
X164830000Y-99920000D03*
X179020000Y-106260000D03*
X169100000Y-94800000D03*
X165530000Y-102750000D03*
X166600000Y-94000000D03*
X168220000Y-103810000D03*
X166130000Y-105130000D03*
X178850000Y-95500000D03*
X179200000Y-91200000D03*
X171400000Y-101000000D03*
X169100000Y-101000000D03*
X171400000Y-94800000D03*
X164850000Y-94780000D03*
X172000000Y-92500000D03*
X174450000Y-104800000D03*
X169100000Y-97900000D03*
X166100000Y-90430000D03*
X178350000Y-89100000D03*
%TD*%
D20*
%TO.N,UTL*%
X171350000Y-100500000D02*
X170625000Y-100500000D01*
X171750000Y-100100000D02*
X171350000Y-100500000D01*
%TO.N,SDA*%
X172700000Y-100400000D02*
X173600000Y-100400000D01*
X172150000Y-100950000D02*
X172700000Y-100400000D01*
X171750000Y-102000000D02*
X172150000Y-101600000D01*
X170625000Y-102000000D02*
X171750000Y-102000000D01*
X172150000Y-101600000D02*
X172150000Y-100950000D01*
%TO.N,SCL*%
X171650000Y-101500000D02*
X170625000Y-101500000D01*
X171866699Y-101283301D02*
X171650000Y-101500000D01*
X171866699Y-100783301D02*
X171866699Y-101283301D01*
X172650000Y-100000000D02*
X171866699Y-100783301D01*
X173600000Y-100000000D02*
X172650000Y-100000000D01*
%TO.N,TMDS0-*%
X171160000Y-97400000D02*
X170650000Y-97400000D01*
X171280000Y-97280000D02*
X171160000Y-97400000D01*
X172940790Y-97600000D02*
X172620790Y-97280000D01*
X173450000Y-97600000D02*
X172940790Y-97600000D01*
X172620790Y-97280000D02*
X171280000Y-97280000D01*
%TO.N,TMDS0+*%
X172900000Y-97200000D02*
X173450000Y-97200000D01*
X172720000Y-97020000D02*
X172900000Y-97200000D01*
X171274000Y-97020000D02*
X172720000Y-97020000D01*
X171154000Y-96900000D02*
X171274000Y-97020000D01*
X170650000Y-96900000D02*
X171154000Y-96900000D01*
%TO.N,TMDSClk-*%
X172750000Y-98750000D02*
X171280000Y-98750000D01*
X172800000Y-98800000D02*
X172750000Y-98750000D01*
X173450000Y-98800000D02*
X172800000Y-98800000D01*
X171280000Y-98750000D02*
X171130000Y-98900000D01*
X171130000Y-98900000D02*
X170650000Y-98900000D01*
%TO.N,TMDSClk+*%
X172846000Y-98400000D02*
X173450000Y-98400000D01*
X172750000Y-98496000D02*
X172846000Y-98400000D01*
X171296000Y-98496000D02*
X172750000Y-98496000D01*
X171200000Y-98400000D02*
X171296000Y-98496000D01*
X170650000Y-98400000D02*
X171200000Y-98400000D01*
%TO.N,TMDS2+*%
X172750000Y-94800000D02*
X173600000Y-94800000D01*
X171200000Y-93946000D02*
X171896000Y-93946000D01*
X171054000Y-93800000D02*
X171200000Y-93946000D01*
X170637500Y-93800000D02*
X171054000Y-93800000D01*
X171896000Y-93946000D02*
X172750000Y-94800000D01*
%TO.N,TMDS2-*%
X171200000Y-94200000D02*
X171100000Y-94300000D01*
X171790790Y-94200000D02*
X171200000Y-94200000D01*
X172790790Y-95200000D02*
X171790790Y-94200000D01*
X171100000Y-94300000D02*
X170637500Y-94300000D01*
X173600000Y-95200000D02*
X172790790Y-95200000D01*
%TO.N,TMDS1+*%
X172750000Y-96000000D02*
X173600000Y-96000000D01*
X172196000Y-95446000D02*
X172750000Y-96000000D01*
X171300000Y-95446000D02*
X172196000Y-95446000D01*
X171154000Y-95300000D02*
X171300000Y-95446000D01*
X170637500Y-95300000D02*
X171154000Y-95300000D01*
%TO.N,TMDS1-*%
X171200000Y-95800000D02*
X170637500Y-95800000D01*
X172090790Y-95700000D02*
X171300000Y-95700000D01*
X172790790Y-96400000D02*
X172090790Y-95700000D01*
X171300000Y-95700000D02*
X171200000Y-95800000D01*
X173600000Y-96400000D02*
X172790790Y-96400000D01*
D21*
%TO.N,GND*%
X173600000Y-96800000D02*
X174350000Y-96800000D01*
X173600000Y-98000000D02*
X174350000Y-98000000D01*
X173600000Y-99200000D02*
X174350000Y-99200000D01*
D20*
%TO.N,CEC*%
X171450000Y-99600000D02*
X173600000Y-99600000D01*
X171050000Y-100000000D02*
X171450000Y-99600000D01*
X170625000Y-100000000D02*
X171050000Y-100000000D01*
%TO.N,UTL*%
X173600000Y-100800000D02*
X174450000Y-100800000D01*
D21*
%TO.N,+5V*%
X172525858Y-101424142D02*
X172525858Y-101700000D01*
X172750000Y-101200000D02*
X172525858Y-101424142D01*
X173600000Y-101200000D02*
X172750000Y-101200000D01*
%TO.N,Net-(J3-HPD)*%
X176050000Y-102400000D02*
X176050000Y-104379884D01*
X176050000Y-104379884D02*
X173438318Y-106991566D01*
X175250000Y-101600000D02*
X176050000Y-102400000D01*
X173600000Y-101600000D02*
X175250000Y-101600000D01*
%TO.N,GND*%
X173450000Y-94400000D02*
X174350000Y-94400000D01*
X173450000Y-95600000D02*
X174350000Y-95600000D01*
D22*
%TO.N,+5V*%
X172525858Y-102024142D02*
X172525858Y-101700000D01*
X171850000Y-102700000D02*
X172525858Y-102024142D01*
X168750000Y-102700000D02*
X171850000Y-102700000D01*
X168050000Y-102000000D02*
X168750000Y-102700000D01*
X167500000Y-102000000D02*
X168050000Y-102000000D01*
D20*
%TO.N,TMDS2+*%
X169446000Y-93800000D02*
X169862500Y-93800000D01*
X168323552Y-93946000D02*
X169300000Y-93946000D01*
D21*
X169862500Y-93800000D02*
X170637500Y-93800000D01*
D20*
X169300000Y-93946000D02*
X169446000Y-93800000D01*
X167500000Y-93500000D02*
X167877552Y-93500000D01*
X167877552Y-93500000D02*
X168323552Y-93946000D01*
%TO.N,TMDS2-*%
X168100000Y-94500000D02*
X168400000Y-94200000D01*
D21*
X169862500Y-94300000D02*
X170637500Y-94300000D01*
D20*
X167500000Y-94500000D02*
X168100000Y-94500000D01*
X169300000Y-94200000D02*
X169400000Y-94300000D01*
X169400000Y-94300000D02*
X169862500Y-94300000D01*
X168400000Y-94200000D02*
X169300000Y-94200000D01*
%TO.N,TMDS0-*%
X169400000Y-97400000D02*
X169875000Y-97400000D01*
D21*
X169875000Y-97400000D02*
X170650000Y-97400000D01*
D20*
X168400000Y-97300000D02*
X169300000Y-97300000D01*
X169300000Y-97300000D02*
X169400000Y-97400000D01*
X168200000Y-97500000D02*
X168400000Y-97300000D01*
X167500000Y-97500000D02*
X168200000Y-97500000D01*
D21*
%TO.N,TMDSClk-*%
X169875000Y-98900000D02*
X170650000Y-98900000D01*
D20*
X169300000Y-98800000D02*
X169400000Y-98900000D01*
X169400000Y-98900000D02*
X169875000Y-98900000D01*
X168220000Y-99000000D02*
X168420000Y-98800000D01*
X167500000Y-99000000D02*
X168220000Y-99000000D01*
X168420000Y-98800000D02*
X169300000Y-98800000D01*
D23*
%TO.N,GND*%
X170675000Y-97900000D02*
X171400000Y-97900000D01*
X169900000Y-94800000D02*
X170662500Y-94800000D01*
X169887500Y-101000000D02*
X170650000Y-101000000D01*
X170662500Y-94800000D02*
X171400000Y-94800000D01*
X169912500Y-97900000D02*
X170675000Y-97900000D01*
D22*
X167500000Y-94000000D02*
X166600000Y-94000000D01*
D23*
X169887500Y-101000000D02*
X169100000Y-101000000D01*
X169900000Y-94800000D02*
X169100000Y-94800000D01*
D22*
X167500000Y-95500000D02*
X166600000Y-95500000D01*
D23*
X170650000Y-101000000D02*
X171400000Y-101000000D01*
D22*
X167500000Y-97000000D02*
X166600000Y-97000000D01*
D23*
X169912500Y-97900000D02*
X169100000Y-97900000D01*
D22*
X167500000Y-101500000D02*
X166600000Y-101500000D01*
X167500000Y-98500000D02*
X166600000Y-98500000D01*
D21*
%TO.N,TMDSClk+*%
X169875000Y-98400000D02*
X170650000Y-98400000D01*
D20*
X168420000Y-98500000D02*
X167920000Y-98000000D01*
X169400000Y-98400000D02*
X169300000Y-98500000D01*
X169300000Y-98500000D02*
X168420000Y-98500000D01*
X167920000Y-98000000D02*
X167500000Y-98000000D01*
X169875000Y-98400000D02*
X169400000Y-98400000D01*
%TO.N,SCL*%
X168200000Y-100500000D02*
X168636500Y-100936500D01*
X168944512Y-101500000D02*
X169850000Y-101500000D01*
X168636500Y-101191988D02*
X168944512Y-101500000D01*
X168636500Y-100936500D02*
X168636500Y-101191988D01*
X167500000Y-100500000D02*
X168200000Y-100500000D01*
D21*
X169850000Y-101500000D02*
X170625000Y-101500000D01*
D20*
%TO.N,SDA*%
X168346000Y-101200000D02*
X168346000Y-101446000D01*
X168146000Y-101000000D02*
X168346000Y-101200000D01*
D21*
X169850000Y-102000000D02*
X170625000Y-102000000D01*
D20*
X168346000Y-101446000D02*
X168900000Y-102000000D01*
X168900000Y-102000000D02*
X169850000Y-102000000D01*
X167500000Y-101000000D02*
X168146000Y-101000000D01*
%TO.N,TMDS1-*%
X168100000Y-96000000D02*
X168400000Y-95700000D01*
X169400000Y-95800000D02*
X169862500Y-95800000D01*
X169300000Y-95700000D02*
X169400000Y-95800000D01*
X167500000Y-96000000D02*
X168100000Y-96000000D01*
X168400000Y-95700000D02*
X169300000Y-95700000D01*
D21*
X169862500Y-95800000D02*
X170637500Y-95800000D01*
D20*
%TO.N,TMDS0+*%
X168300000Y-96900000D02*
X168300000Y-96700000D01*
X169875000Y-96900000D02*
X169400000Y-96900000D01*
X169300000Y-97000000D02*
X168400000Y-97000000D01*
X168100000Y-96500000D02*
X167500000Y-96500000D01*
X169400000Y-96900000D02*
X169300000Y-97000000D01*
X168400000Y-97000000D02*
X168300000Y-96900000D01*
D21*
X169875000Y-96900000D02*
X170650000Y-96900000D01*
D20*
X168300000Y-96700000D02*
X168100000Y-96500000D01*
%TO.N,TMDS1+*%
X168400000Y-95400000D02*
X168275532Y-95275532D01*
X169300000Y-95400000D02*
X168400000Y-95400000D01*
X168275532Y-95275532D02*
X168275532Y-95145271D01*
X168130261Y-95000000D02*
X167500000Y-95000000D01*
D21*
X169862500Y-95300000D02*
X170637500Y-95300000D01*
D20*
X168275532Y-95145271D02*
X168130261Y-95000000D01*
X169862500Y-95300000D02*
X169400000Y-95300000D01*
X169400000Y-95300000D02*
X169300000Y-95400000D01*
%TO.N,CEC*%
X167500000Y-99500000D02*
X168500000Y-99500000D01*
X169000000Y-100000000D02*
X169850000Y-100000000D01*
D21*
X169850000Y-100000000D02*
X170625000Y-100000000D01*
D20*
X168500000Y-99500000D02*
X169000000Y-100000000D01*
%TO.N,UTL*%
X168940790Y-100500000D02*
X169850000Y-100500000D01*
X168440790Y-100000000D02*
X168940790Y-100500000D01*
X167500000Y-100000000D02*
X168440790Y-100000000D01*
D21*
X169850000Y-100500000D02*
X170625000Y-100500000D01*
%TD*%
%TA.AperFunction,Conductor*%
%TO.N,GND*%
G36*
X176604446Y-87583439D02*
G01*
X176877317Y-87600298D01*
X176883633Y-87601013D01*
X177153362Y-87645551D01*
X177159578Y-87646906D01*
X177423385Y-87718663D01*
X177429424Y-87720642D01*
X177595416Y-87784550D01*
X177684543Y-87818866D01*
X177690362Y-87821454D01*
X177821773Y-87888116D01*
X177934161Y-87945129D01*
X177939680Y-87948291D01*
X178169644Y-88096144D01*
X178174803Y-88099845D01*
X178361092Y-88248446D01*
X178389468Y-88271081D01*
X178391907Y-88273130D01*
X178560846Y-88422594D01*
X178560846Y-88422595D01*
X178593454Y-88451445D01*
X178595397Y-88453238D01*
X178881785Y-88729074D01*
X178885436Y-88732901D01*
X179146598Y-89030961D01*
X179149912Y-89035083D01*
X179384933Y-89354150D01*
X179387887Y-89358537D01*
X179491493Y-89527440D01*
X179548397Y-89620208D01*
X179595100Y-89696344D01*
X179597668Y-89700960D01*
X179655586Y-89816241D01*
X179775574Y-90055071D01*
X179777746Y-90059893D01*
X179925074Y-90427773D01*
X179926831Y-90432762D01*
X180042528Y-90811780D01*
X180043856Y-90816897D01*
X180051075Y-90850498D01*
X180127095Y-91204351D01*
X180127986Y-91209564D01*
X180178169Y-91602661D01*
X180178616Y-91607932D01*
X180182862Y-91708215D01*
X180188888Y-91850500D01*
X180195444Y-92005295D01*
X180195500Y-92007939D01*
X180195500Y-103992172D01*
X180195444Y-103994816D01*
X180178621Y-104392067D01*
X180178174Y-104397338D01*
X180127991Y-104790436D01*
X180127100Y-104795649D01*
X180043861Y-105183101D01*
X180042532Y-105188220D01*
X179926835Y-105567239D01*
X179925078Y-105572228D01*
X179777751Y-105940108D01*
X179775579Y-105944930D01*
X179597673Y-106299040D01*
X179595101Y-106303661D01*
X179387895Y-106641460D01*
X179384941Y-106645848D01*
X179149916Y-106964919D01*
X179146602Y-106969041D01*
X178885440Y-107267101D01*
X178881789Y-107270928D01*
X178595483Y-107546685D01*
X178593540Y-107548479D01*
X178427661Y-107695235D01*
X178427655Y-107695240D01*
X178400893Y-107718918D01*
X178400888Y-107718922D01*
X178392181Y-107726624D01*
X178389748Y-107728668D01*
X178174794Y-107900151D01*
X178169619Y-107903865D01*
X177939680Y-108051713D01*
X177934155Y-108054880D01*
X177690356Y-108178564D01*
X177684537Y-108181152D01*
X177429424Y-108279380D01*
X177423371Y-108281363D01*
X177159578Y-108353120D01*
X177153356Y-108354476D01*
X176883636Y-108399015D01*
X176877307Y-108399731D01*
X176604451Y-108416590D01*
X176598083Y-108416658D01*
X176324935Y-108405662D01*
X176318592Y-108405082D01*
X176046915Y-108366191D01*
X176043777Y-108365660D01*
X176026140Y-108362211D01*
X176026138Y-108362209D01*
X176026138Y-108362210D01*
X176019673Y-108360946D01*
X175997823Y-108356672D01*
X175997812Y-108356671D01*
X175094487Y-108180006D01*
X167227584Y-106641460D01*
X164359934Y-106080628D01*
X164353966Y-106079153D01*
X164222516Y-106039706D01*
X164211157Y-106035037D01*
X164092696Y-105972102D01*
X164082470Y-105965303D01*
X163978603Y-105880421D01*
X163969902Y-105871753D01*
X163884631Y-105768188D01*
X163877795Y-105757986D01*
X163814427Y-105639759D01*
X163809717Y-105628418D01*
X163802986Y-105606284D01*
X168899500Y-105606284D01*
X168899501Y-105606300D01*
X168932753Y-105816240D01*
X168932753Y-105816241D01*
X168998442Y-106018410D01*
X168998446Y-106018418D01*
X169094949Y-106207817D01*
X169219897Y-106379794D01*
X169370205Y-106530102D01*
X169542182Y-106655050D01*
X169542184Y-106655051D01*
X169731588Y-106751557D01*
X169933757Y-106817246D01*
X170022244Y-106831261D01*
X170143699Y-106850498D01*
X170143705Y-106850498D01*
X170143713Y-106850500D01*
X170143715Y-106850500D01*
X170356285Y-106850500D01*
X170356287Y-106850500D01*
X170566243Y-106817246D01*
X170768412Y-106751557D01*
X170957816Y-106655051D01*
X171129792Y-106530104D01*
X171280104Y-106379792D01*
X171405051Y-106207816D01*
X171501557Y-106018412D01*
X171567246Y-105816243D01*
X171600500Y-105606287D01*
X171600500Y-105393713D01*
X171592831Y-105345296D01*
X171567246Y-105183759D01*
X171567246Y-105183758D01*
X171566920Y-105182753D01*
X171501557Y-104981588D01*
X171405051Y-104792184D01*
X171280104Y-104620208D01*
X171280102Y-104620205D01*
X171129794Y-104469897D01*
X170957817Y-104344949D01*
X170768418Y-104248446D01*
X170768410Y-104248442D01*
X170566241Y-104182753D01*
X170356300Y-104149501D01*
X170356288Y-104149500D01*
X170356287Y-104149500D01*
X170143713Y-104149500D01*
X170143711Y-104149500D01*
X170143699Y-104149501D01*
X169933759Y-104182753D01*
X169933758Y-104182753D01*
X169731589Y-104248442D01*
X169731581Y-104248446D01*
X169542182Y-104344949D01*
X169370205Y-104469897D01*
X169219897Y-104620205D01*
X169094949Y-104792182D01*
X168998446Y-104981581D01*
X168998442Y-104981589D01*
X168932753Y-105183758D01*
X168932753Y-105183759D01*
X168899501Y-105393699D01*
X168899500Y-105393715D01*
X168899500Y-105606284D01*
X163802986Y-105606284D01*
X163770689Y-105500080D01*
X163768287Y-105488036D01*
X163754802Y-105351436D01*
X163754500Y-105345296D01*
X163754500Y-102594944D01*
X166872500Y-102594944D01*
X166884248Y-102654010D01*
X166884249Y-102654012D01*
X166929006Y-102720994D01*
X166995988Y-102765751D01*
X167055056Y-102777500D01*
X167055057Y-102777500D01*
X167944943Y-102777500D01*
X167944944Y-102777500D01*
X168004012Y-102765751D01*
X168070994Y-102720994D01*
X168115751Y-102654012D01*
X168124864Y-102608195D01*
X168151438Y-102568423D01*
X168198354Y-102559090D01*
X168230356Y-102576195D01*
X168375154Y-102720993D01*
X168578137Y-102923976D01*
X168599411Y-102936257D01*
X168614987Y-102945250D01*
X168614988Y-102945251D01*
X168641963Y-102960825D01*
X168713144Y-102979899D01*
X168713150Y-102979900D01*
X171886850Y-102979900D01*
X171886855Y-102979899D01*
X171908002Y-102974232D01*
X171958037Y-102960825D01*
X172021862Y-102923976D01*
X172749834Y-102196004D01*
X172786683Y-102132179D01*
X172805758Y-102060992D01*
X172805758Y-101987292D01*
X172805758Y-101766137D01*
X172824064Y-101721943D01*
X172867661Y-101703640D01*
X172947382Y-101702881D01*
X172991747Y-101720765D01*
X172999943Y-101730655D01*
X173033749Y-101781250D01*
X173106353Y-101829763D01*
X173106355Y-101829764D01*
X173170383Y-101842500D01*
X173507973Y-101842499D01*
X173531890Y-101847256D01*
X173549377Y-101854500D01*
X175118694Y-101854500D01*
X175162888Y-101872806D01*
X175777194Y-102487112D01*
X175795500Y-102531306D01*
X175795500Y-104248577D01*
X175777194Y-104292771D01*
X173692979Y-106376985D01*
X173648785Y-106395291D01*
X173633828Y-106393475D01*
X173514513Y-106364066D01*
X173514510Y-106364066D01*
X173362126Y-106364066D01*
X173362123Y-106364066D01*
X173214168Y-106400534D01*
X173079239Y-106471349D01*
X172965179Y-106572398D01*
X172965175Y-106572402D01*
X172878614Y-106697806D01*
X172852775Y-106765940D01*
X172824578Y-106840291D01*
X172824576Y-106840295D01*
X172824575Y-106840299D01*
X172806209Y-106991562D01*
X172806209Y-106991569D01*
X172824575Y-107142832D01*
X172824576Y-107142836D01*
X172824576Y-107142837D01*
X172824577Y-107142840D01*
X172867245Y-107255348D01*
X172878614Y-107285325D01*
X172965175Y-107410729D01*
X172965178Y-107410732D01*
X173079239Y-107511782D01*
X173214169Y-107582598D01*
X173362126Y-107619066D01*
X173362128Y-107619066D01*
X173514508Y-107619066D01*
X173514510Y-107619066D01*
X173662467Y-107582598D01*
X173797397Y-107511782D01*
X173911458Y-107410732D01*
X173998023Y-107285322D01*
X174052059Y-107142840D01*
X174067167Y-107018418D01*
X174070427Y-106991569D01*
X174070427Y-106991562D01*
X174052060Y-106840299D01*
X174052059Y-106840295D01*
X174052059Y-106840292D01*
X174038190Y-106803722D01*
X174039634Y-106755910D01*
X174052431Y-106737369D01*
X174183516Y-106606284D01*
X175399500Y-106606284D01*
X175399501Y-106606300D01*
X175432753Y-106816240D01*
X175432753Y-106816241D01*
X175498442Y-107018410D01*
X175498446Y-107018418D01*
X175594949Y-107207817D01*
X175719897Y-107379794D01*
X175870205Y-107530102D01*
X176042182Y-107655050D01*
X176042184Y-107655051D01*
X176231588Y-107751557D01*
X176433757Y-107817246D01*
X176522244Y-107831261D01*
X176643699Y-107850498D01*
X176643705Y-107850498D01*
X176643713Y-107850500D01*
X176643715Y-107850500D01*
X176856285Y-107850500D01*
X176856287Y-107850500D01*
X177066243Y-107817246D01*
X177268412Y-107751557D01*
X177457816Y-107655051D01*
X177629792Y-107530104D01*
X177780104Y-107379792D01*
X177905051Y-107207816D01*
X178001557Y-107018412D01*
X178067246Y-106816243D01*
X178100500Y-106606287D01*
X178100500Y-106393713D01*
X178100462Y-106393475D01*
X178071057Y-106207817D01*
X178067246Y-106183757D01*
X178001557Y-105981588D01*
X177905051Y-105792184D01*
X177884159Y-105763429D01*
X177780102Y-105620205D01*
X177629794Y-105469897D01*
X177457817Y-105344949D01*
X177268418Y-105248446D01*
X177268410Y-105248442D01*
X177066241Y-105182753D01*
X176856300Y-105149501D01*
X176856288Y-105149500D01*
X176856287Y-105149500D01*
X176643713Y-105149500D01*
X176643711Y-105149500D01*
X176643699Y-105149501D01*
X176433759Y-105182753D01*
X176433758Y-105182753D01*
X176231589Y-105248442D01*
X176231581Y-105248446D01*
X176042182Y-105344949D01*
X175870205Y-105469897D01*
X175719897Y-105620205D01*
X175594949Y-105792182D01*
X175498446Y-105981581D01*
X175498442Y-105981589D01*
X175432753Y-106183758D01*
X175432753Y-106183759D01*
X175399501Y-106393699D01*
X175399500Y-106393715D01*
X175399500Y-106606284D01*
X174183516Y-106606284D01*
X176185371Y-104604428D01*
X176185374Y-104604427D01*
X176194162Y-104595639D01*
X176194163Y-104595639D01*
X176265755Y-104524047D01*
X176304500Y-104430507D01*
X176304500Y-102457904D01*
X176304501Y-102457895D01*
X176304501Y-102349377D01*
X176304500Y-102349374D01*
X176265757Y-102255840D01*
X176265753Y-102255835D01*
X175394164Y-101384246D01*
X175394163Y-101384245D01*
X175300623Y-101345500D01*
X175300622Y-101345500D01*
X174283590Y-101345500D01*
X174239396Y-101327194D01*
X174221090Y-101283000D01*
X174222291Y-101270808D01*
X174227499Y-101244620D01*
X174227500Y-101244617D01*
X174227499Y-101155384D01*
X174227498Y-101155382D01*
X174227198Y-101152331D01*
X174228324Y-101152219D01*
X174236916Y-101108965D01*
X174276682Y-101082377D01*
X174323601Y-101091696D01*
X174333087Y-101099479D01*
X174361658Y-101128050D01*
X174474696Y-101185646D01*
X174600000Y-101205492D01*
X174725304Y-101185646D01*
X174838342Y-101128050D01*
X174928050Y-101038342D01*
X174985646Y-100925304D01*
X175005492Y-100800000D01*
X174985646Y-100674696D01*
X174928050Y-100561658D01*
X174838342Y-100471950D01*
X174725304Y-100414354D01*
X174600000Y-100394508D01*
X174474695Y-100414354D01*
X174474694Y-100414354D01*
X174361657Y-100471950D01*
X174333088Y-100500519D01*
X174288894Y-100518824D01*
X174244700Y-100500517D01*
X174226395Y-100456323D01*
X174227247Y-100447677D01*
X174227199Y-100447673D01*
X174227498Y-100444626D01*
X174227500Y-100444617D01*
X174227499Y-100355384D01*
X174214764Y-100291355D01*
X174176924Y-100234724D01*
X174167591Y-100187808D01*
X174176924Y-100165276D01*
X174189198Y-100146906D01*
X174214764Y-100108645D01*
X174227500Y-100044617D01*
X174227499Y-99955384D01*
X174214764Y-99891355D01*
X174176924Y-99834724D01*
X174167591Y-99787808D01*
X174176924Y-99765276D01*
X174189198Y-99746906D01*
X174214764Y-99708645D01*
X174227500Y-99644617D01*
X174227499Y-99555384D01*
X174214764Y-99491355D01*
X174214762Y-99491352D01*
X174166250Y-99418749D01*
X174093646Y-99370236D01*
X174093644Y-99370235D01*
X174029617Y-99357500D01*
X173295073Y-99357500D01*
X173250879Y-99339194D01*
X173232575Y-99295453D01*
X173232497Y-99284723D01*
X173231198Y-99105451D01*
X173249183Y-99061126D01*
X173293243Y-99042501D01*
X173293696Y-99042499D01*
X174029615Y-99042499D01*
X174029616Y-99042499D01*
X174093645Y-99029764D01*
X174166250Y-98981250D01*
X174214764Y-98908645D01*
X174227500Y-98844617D01*
X174227499Y-98755384D01*
X174214764Y-98691355D01*
X174176924Y-98634724D01*
X174167591Y-98587808D01*
X174176924Y-98565276D01*
X174189198Y-98546906D01*
X174214764Y-98508645D01*
X174227500Y-98444617D01*
X174227499Y-98355384D01*
X174214764Y-98291355D01*
X174197655Y-98265750D01*
X174166250Y-98218749D01*
X174093646Y-98170236D01*
X174093644Y-98170235D01*
X174029617Y-98157500D01*
X173286378Y-98157500D01*
X173242184Y-98139194D01*
X173223880Y-98095453D01*
X173222503Y-97905452D01*
X173240488Y-97861126D01*
X173284548Y-97842501D01*
X173285001Y-97842499D01*
X174029615Y-97842499D01*
X174029616Y-97842499D01*
X174093645Y-97829764D01*
X174166250Y-97781250D01*
X174214764Y-97708645D01*
X174227500Y-97644617D01*
X174227499Y-97555384D01*
X174214764Y-97491355D01*
X174176924Y-97434724D01*
X174167591Y-97387808D01*
X174176924Y-97365276D01*
X174189812Y-97345988D01*
X174214764Y-97308645D01*
X174227500Y-97244617D01*
X174227499Y-97155384D01*
X174214764Y-97091355D01*
X174214762Y-97091352D01*
X174166250Y-97018749D01*
X174093646Y-96970236D01*
X174093644Y-96970235D01*
X174029617Y-96957500D01*
X173277682Y-96957500D01*
X173233488Y-96939194D01*
X173215184Y-96895453D01*
X173213807Y-96705452D01*
X173231792Y-96661126D01*
X173275852Y-96642501D01*
X173276305Y-96642499D01*
X174029615Y-96642499D01*
X174029616Y-96642499D01*
X174093645Y-96629764D01*
X174166250Y-96581250D01*
X174214764Y-96508645D01*
X174227500Y-96444617D01*
X174227499Y-96355384D01*
X174214764Y-96291355D01*
X174176924Y-96234724D01*
X174167591Y-96187808D01*
X174176924Y-96165276D01*
X174189198Y-96146906D01*
X174214764Y-96108645D01*
X174227500Y-96044617D01*
X174227499Y-95955384D01*
X174214764Y-95891355D01*
X174184451Y-95845989D01*
X174166250Y-95818749D01*
X174093646Y-95770236D01*
X174093644Y-95770235D01*
X174029617Y-95757500D01*
X173268986Y-95757500D01*
X173224792Y-95739194D01*
X173206488Y-95695453D01*
X173205111Y-95505452D01*
X173223096Y-95461126D01*
X173267156Y-95442501D01*
X173267609Y-95442499D01*
X174029615Y-95442499D01*
X174029616Y-95442499D01*
X174093645Y-95429764D01*
X174166250Y-95381250D01*
X174214764Y-95308645D01*
X174227500Y-95244617D01*
X174227499Y-95155384D01*
X174214764Y-95091355D01*
X174176924Y-95034724D01*
X174167591Y-94987808D01*
X174176924Y-94965276D01*
X174189198Y-94946906D01*
X174214764Y-94908645D01*
X174227500Y-94844617D01*
X174227499Y-94755384D01*
X174214764Y-94691355D01*
X174189812Y-94654012D01*
X174166250Y-94618749D01*
X174093646Y-94570236D01*
X174093644Y-94570235D01*
X174029617Y-94557500D01*
X173170385Y-94557500D01*
X173170381Y-94557501D01*
X173106356Y-94570235D01*
X173106351Y-94570237D01*
X173064107Y-94598466D01*
X173029383Y-94609000D01*
X172855003Y-94609000D01*
X172810809Y-94590694D01*
X172004194Y-93784079D01*
X172004193Y-93784078D01*
X171933992Y-93755000D01*
X171933991Y-93755000D01*
X171305003Y-93755000D01*
X171260809Y-93736694D01*
X171162194Y-93638079D01*
X171162193Y-93638078D01*
X171091992Y-93609000D01*
X171091991Y-93609000D01*
X171056135Y-93609000D01*
X171021413Y-93598467D01*
X170961634Y-93558524D01*
X170961633Y-93558523D01*
X170906212Y-93547500D01*
X170704334Y-93547500D01*
X170692141Y-93546299D01*
X170688124Y-93545500D01*
X170688123Y-93545500D01*
X169811877Y-93545500D01*
X169811876Y-93545500D01*
X169807859Y-93546299D01*
X169795666Y-93547500D01*
X169593788Y-93547500D01*
X169538367Y-93558523D01*
X169538366Y-93558524D01*
X169478586Y-93598467D01*
X169443865Y-93609000D01*
X169408008Y-93609000D01*
X169337808Y-93638077D01*
X169337805Y-93638079D01*
X169239191Y-93736694D01*
X169194997Y-93755000D01*
X168428555Y-93755000D01*
X168384361Y-93736694D01*
X168145806Y-93498139D01*
X168127500Y-93453945D01*
X168127500Y-93405057D01*
X168127500Y-93405056D01*
X168115751Y-93345988D01*
X168070994Y-93279006D01*
X168004012Y-93234249D01*
X168004010Y-93234248D01*
X167944944Y-93222500D01*
X167055056Y-93222500D01*
X167055055Y-93222500D01*
X166995989Y-93234248D01*
X166995988Y-93234249D01*
X166929006Y-93279006D01*
X166884249Y-93345988D01*
X166884248Y-93345989D01*
X166872500Y-93405055D01*
X166872500Y-93594944D01*
X166884248Y-93654010D01*
X166884249Y-93654012D01*
X166929006Y-93720994D01*
X166995988Y-93765751D01*
X167055056Y-93777500D01*
X167859049Y-93777500D01*
X167903243Y-93795806D01*
X167981694Y-93874257D01*
X168000000Y-93918451D01*
X168000000Y-94160000D01*
X167981694Y-94204194D01*
X167937500Y-94222500D01*
X167055055Y-94222500D01*
X166995989Y-94234248D01*
X166995988Y-94234249D01*
X166929006Y-94279006D01*
X166884249Y-94345988D01*
X166884248Y-94345989D01*
X166872500Y-94405055D01*
X166872500Y-94594944D01*
X166884248Y-94654010D01*
X166884250Y-94654014D01*
X166925185Y-94715277D01*
X166934517Y-94762193D01*
X166925185Y-94784723D01*
X166884250Y-94845985D01*
X166884248Y-94845989D01*
X166872500Y-94905055D01*
X166872500Y-95094944D01*
X166884248Y-95154010D01*
X166884249Y-95154012D01*
X166929006Y-95220994D01*
X166995988Y-95265751D01*
X167055056Y-95277500D01*
X167055057Y-95277500D01*
X167937500Y-95277500D01*
X167981694Y-95295806D01*
X168000000Y-95340000D01*
X168000000Y-95660000D01*
X167981694Y-95704194D01*
X167937500Y-95722500D01*
X167055055Y-95722500D01*
X166995989Y-95734248D01*
X166995988Y-95734249D01*
X166929006Y-95779006D01*
X166884249Y-95845988D01*
X166884248Y-95845989D01*
X166872500Y-95905055D01*
X166872500Y-96094944D01*
X166884248Y-96154010D01*
X166884250Y-96154014D01*
X166925185Y-96215277D01*
X166934517Y-96262193D01*
X166925185Y-96284723D01*
X166884250Y-96345985D01*
X166884248Y-96345989D01*
X166872500Y-96405055D01*
X166872500Y-96594944D01*
X166884248Y-96654010D01*
X166884249Y-96654012D01*
X166929006Y-96720994D01*
X166995988Y-96765751D01*
X167055056Y-96777500D01*
X167055057Y-96777500D01*
X167937500Y-96777500D01*
X167981694Y-96795806D01*
X168000000Y-96840000D01*
X168000000Y-97160000D01*
X167981694Y-97204194D01*
X167937500Y-97222500D01*
X167055055Y-97222500D01*
X166995989Y-97234248D01*
X166995988Y-97234249D01*
X166929006Y-97279006D01*
X166884249Y-97345988D01*
X166884248Y-97345989D01*
X166872500Y-97405055D01*
X166872500Y-97594944D01*
X166884248Y-97654010D01*
X166884250Y-97654014D01*
X166925185Y-97715277D01*
X166934517Y-97762193D01*
X166925185Y-97784723D01*
X166884250Y-97845985D01*
X166884248Y-97845989D01*
X166872500Y-97905055D01*
X166872500Y-98094944D01*
X166884248Y-98154010D01*
X166884249Y-98154012D01*
X166929006Y-98220994D01*
X166995988Y-98265751D01*
X167055056Y-98277500D01*
X167901497Y-98277500D01*
X167945691Y-98295806D01*
X167981694Y-98331809D01*
X168000000Y-98376003D01*
X168000000Y-98660000D01*
X167981694Y-98704194D01*
X167937500Y-98722500D01*
X167055055Y-98722500D01*
X166995989Y-98734248D01*
X166995988Y-98734249D01*
X166929006Y-98779006D01*
X166884249Y-98845988D01*
X166884248Y-98845989D01*
X166872500Y-98905055D01*
X166872500Y-99094944D01*
X166884248Y-99154010D01*
X166884250Y-99154014D01*
X166925185Y-99215277D01*
X166934517Y-99262193D01*
X166925185Y-99284723D01*
X166884250Y-99345985D01*
X166884248Y-99345989D01*
X166872500Y-99405055D01*
X166872500Y-99594944D01*
X166884248Y-99654010D01*
X166884250Y-99654014D01*
X166925185Y-99715277D01*
X166934517Y-99762193D01*
X166925185Y-99784723D01*
X166884250Y-99845985D01*
X166884248Y-99845989D01*
X166872500Y-99905055D01*
X166872500Y-100094944D01*
X166884248Y-100154010D01*
X166884250Y-100154014D01*
X166925185Y-100215277D01*
X166934517Y-100262193D01*
X166925185Y-100284723D01*
X166884250Y-100345985D01*
X166884248Y-100345989D01*
X166872500Y-100405055D01*
X166872500Y-100594944D01*
X166884248Y-100654010D01*
X166884250Y-100654014D01*
X166925185Y-100715277D01*
X166934517Y-100762193D01*
X166925185Y-100784723D01*
X166884250Y-100845985D01*
X166884248Y-100845989D01*
X166872500Y-100905055D01*
X166872500Y-101094944D01*
X166884248Y-101154010D01*
X166884249Y-101154012D01*
X166929006Y-101220994D01*
X166995988Y-101265751D01*
X167055056Y-101277500D01*
X167055057Y-101277500D01*
X167937500Y-101277500D01*
X167981694Y-101295806D01*
X168000000Y-101340000D01*
X168000000Y-101657600D01*
X167981694Y-101701794D01*
X167937500Y-101720100D01*
X167463146Y-101720100D01*
X167462145Y-101720369D01*
X167445965Y-101722500D01*
X167055055Y-101722500D01*
X166995989Y-101734248D01*
X166995988Y-101734249D01*
X166929006Y-101779006D01*
X166884249Y-101845988D01*
X166884248Y-101845989D01*
X166872500Y-101905055D01*
X166872500Y-102094944D01*
X166884248Y-102154010D01*
X166884250Y-102154014D01*
X166925185Y-102215277D01*
X166934517Y-102262193D01*
X166925185Y-102284723D01*
X166884250Y-102345985D01*
X166884248Y-102345989D01*
X166872500Y-102405055D01*
X166872500Y-102594944D01*
X163754500Y-102594944D01*
X163754500Y-90654681D01*
X163754802Y-90648541D01*
X163758974Y-90606284D01*
X168899500Y-90606284D01*
X168899501Y-90606300D01*
X168932753Y-90816240D01*
X168932753Y-90816241D01*
X168998442Y-91018410D01*
X168998446Y-91018418D01*
X169094949Y-91207817D01*
X169219897Y-91379794D01*
X169370205Y-91530102D01*
X169542182Y-91655050D01*
X169542184Y-91655051D01*
X169731588Y-91751557D01*
X169933757Y-91817246D01*
X170022244Y-91831261D01*
X170143699Y-91850498D01*
X170143705Y-91850498D01*
X170143713Y-91850500D01*
X170143715Y-91850500D01*
X170356285Y-91850500D01*
X170356287Y-91850500D01*
X170566243Y-91817246D01*
X170768412Y-91751557D01*
X170957816Y-91655051D01*
X171129792Y-91530104D01*
X171280104Y-91379792D01*
X171405051Y-91207816D01*
X171501557Y-91018412D01*
X171567246Y-90816243D01*
X171600500Y-90606287D01*
X171600500Y-90393713D01*
X171598295Y-90379794D01*
X171576472Y-90242007D01*
X171567246Y-90183757D01*
X171501557Y-89981588D01*
X171405051Y-89792184D01*
X171280104Y-89620208D01*
X171280102Y-89620205D01*
X171266181Y-89606284D01*
X175399500Y-89606284D01*
X175399501Y-89606300D01*
X175432753Y-89816240D01*
X175432753Y-89816241D01*
X175498442Y-90018410D01*
X175498446Y-90018418D01*
X175594949Y-90207817D01*
X175719897Y-90379794D01*
X175870205Y-90530102D01*
X176042182Y-90655050D01*
X176042184Y-90655051D01*
X176231588Y-90751557D01*
X176433757Y-90817246D01*
X176522244Y-90831261D01*
X176643699Y-90850498D01*
X176643705Y-90850498D01*
X176643713Y-90850500D01*
X176643715Y-90850500D01*
X176856285Y-90850500D01*
X176856287Y-90850500D01*
X177066243Y-90817246D01*
X177268412Y-90751557D01*
X177457816Y-90655051D01*
X177629792Y-90530104D01*
X177780104Y-90379792D01*
X177905051Y-90207816D01*
X178001557Y-90018412D01*
X178067246Y-89816243D01*
X178100500Y-89606287D01*
X178100500Y-89393713D01*
X178092776Y-89344949D01*
X178067246Y-89183759D01*
X178067246Y-89183758D01*
X178066920Y-89182753D01*
X178001557Y-88981588D01*
X177905051Y-88792184D01*
X177859199Y-88729074D01*
X177780102Y-88620205D01*
X177629794Y-88469897D01*
X177457817Y-88344949D01*
X177268418Y-88248446D01*
X177268410Y-88248442D01*
X177066241Y-88182753D01*
X176856300Y-88149501D01*
X176856288Y-88149500D01*
X176856287Y-88149500D01*
X176643713Y-88149500D01*
X176643711Y-88149500D01*
X176643699Y-88149501D01*
X176433759Y-88182753D01*
X176433758Y-88182753D01*
X176231589Y-88248442D01*
X176231581Y-88248446D01*
X176042182Y-88344949D01*
X175870205Y-88469897D01*
X175719897Y-88620205D01*
X175594949Y-88792182D01*
X175498446Y-88981581D01*
X175498442Y-88981589D01*
X175432753Y-89183758D01*
X175432753Y-89183759D01*
X175399501Y-89393699D01*
X175399500Y-89393715D01*
X175399500Y-89606284D01*
X171266181Y-89606284D01*
X171129794Y-89469897D01*
X170957817Y-89344949D01*
X170768418Y-89248446D01*
X170768410Y-89248442D01*
X170566241Y-89182753D01*
X170356300Y-89149501D01*
X170356288Y-89149500D01*
X170356287Y-89149500D01*
X170143713Y-89149500D01*
X170143711Y-89149500D01*
X170143699Y-89149501D01*
X169933759Y-89182753D01*
X169933758Y-89182753D01*
X169731589Y-89248442D01*
X169731581Y-89248446D01*
X169542182Y-89344949D01*
X169370205Y-89469897D01*
X169219897Y-89620205D01*
X169094949Y-89792182D01*
X168998446Y-89981581D01*
X168998442Y-89981589D01*
X168932753Y-90183758D01*
X168932753Y-90183759D01*
X168899501Y-90393699D01*
X168899500Y-90393715D01*
X168899500Y-90606284D01*
X163758974Y-90606284D01*
X163768285Y-90511961D01*
X163770687Y-90499919D01*
X163809716Y-90371574D01*
X163814422Y-90360244D01*
X163877800Y-90241997D01*
X163884624Y-90231815D01*
X163969904Y-90128241D01*
X163978586Y-90119590D01*
X164082478Y-90034687D01*
X164092690Y-90027898D01*
X164211160Y-89964958D01*
X164222511Y-89960292D01*
X164353970Y-89920843D01*
X164359898Y-89919377D01*
X176043277Y-87634436D01*
X176046395Y-87633908D01*
X176318610Y-87594945D01*
X176324920Y-87594368D01*
X176598093Y-87583372D01*
X176604446Y-87583439D01*
G37*
%TD.AperFunction*%
%TD*%
M02*
