%TF.GenerationSoftware,KiCad,Pcbnew,8.99.0-344-gfbc433deaa*%
%TF.CreationDate,2024-04-11T03:20:37-04:00*%
%TF.ProjectId,typeC,74797065-432e-46b6-9963-61645f706362,rev?*%
%TF.SameCoordinates,Original*%
%TF.FileFunction,Copper,L2,Bot*%
%TF.FilePolarity,Positive*%
%FSLAX46Y46*%
G04 Gerber Fmt 4.6, Leading zero omitted, Abs format (unit mm)*
G04 Created by KiCad (PCBNEW 8.99.0-344-gfbc433deaa) date 2024-04-11 03:20:37*
%MOMM*%
%LPD*%
G01*
G04 APERTURE LIST*
%TA.AperFunction,ComponentPad*%
%ADD10O,1.700000X1.200000*%
%TD*%
%TA.AperFunction,ComponentPad*%
%ADD11O,1.900000X1.200000*%
%TD*%
%TA.AperFunction,ViaPad*%
%ADD12C,0.450000*%
%TD*%
%TA.AperFunction,Conductor*%
%ADD13C,0.127000*%
%TD*%
G04 APERTURE END LIST*
D10*
%TO.P,J3,SH,SH*%
%TO.N,GND*%
X179150000Y-92570000D03*
X179150000Y-103430000D03*
D11*
X174650000Y-92570000D03*
X174650000Y-103430000D03*
%TD*%
D12*
%TO.N,GND*%
X175134020Y-107650075D03*
X174751883Y-88670615D03*
X168250000Y-90000000D03*
X167848915Y-106073925D03*
X171971781Y-106874535D03*
X178850000Y-101600000D03*
X176650000Y-100300000D03*
X178750000Y-98400000D03*
X176650000Y-97100000D03*
X174500000Y-94400000D03*
X174500000Y-95600000D03*
X174500000Y-96800000D03*
X174500000Y-98000000D03*
X174500000Y-99200000D03*
%TO.N,UTL*%
X174600000Y-100800000D03*
X171750000Y-100100000D03*
%TO.N,GND*%
X174650000Y-91200000D03*
X176650000Y-94400000D03*
X172130000Y-103910000D03*
X172350000Y-89000000D03*
X166600000Y-97000000D03*
X166600000Y-95500000D03*
X168480000Y-92500000D03*
X164850000Y-97330000D03*
X166600000Y-98500000D03*
X166190000Y-92440000D03*
X171400000Y-97900000D03*
X166600000Y-101500000D03*
X164830000Y-99920000D03*
X179020000Y-106260000D03*
X169100000Y-94800000D03*
X165530000Y-102750000D03*
X166600000Y-94000000D03*
X168220000Y-103810000D03*
X166130000Y-105130000D03*
X178850000Y-95500000D03*
X179200000Y-91200000D03*
X171400000Y-101000000D03*
X169100000Y-101000000D03*
X171400000Y-94800000D03*
X164850000Y-94780000D03*
X172000000Y-92500000D03*
X174450000Y-104800000D03*
X169100000Y-97900000D03*
X166100000Y-90430000D03*
X178350000Y-89100000D03*
%TD*%
D13*
%TO.N,UTL*%
X173300000Y-100800000D02*
X174450000Y-100800000D01*
X171750000Y-100100000D02*
X172600000Y-100100000D01*
X172600000Y-100100000D02*
X173300000Y-100800000D01*
%TD*%
%TA.AperFunction,Conductor*%
%TO.N,GND*%
G36*
X176604446Y-87583439D02*
G01*
X176877317Y-87600298D01*
X176883633Y-87601013D01*
X177153362Y-87645551D01*
X177159578Y-87646906D01*
X177423385Y-87718663D01*
X177429424Y-87720642D01*
X177595416Y-87784550D01*
X177684543Y-87818866D01*
X177690362Y-87821454D01*
X177821773Y-87888116D01*
X177934161Y-87945129D01*
X177939680Y-87948291D01*
X178169644Y-88096144D01*
X178174803Y-88099845D01*
X178361092Y-88248446D01*
X178389468Y-88271081D01*
X178391907Y-88273130D01*
X178560846Y-88422594D01*
X178560846Y-88422595D01*
X178593454Y-88451445D01*
X178595397Y-88453238D01*
X178881785Y-88729074D01*
X178885436Y-88732901D01*
X179146598Y-89030961D01*
X179149912Y-89035083D01*
X179384933Y-89354150D01*
X179387887Y-89358537D01*
X179491493Y-89527440D01*
X179548397Y-89620208D01*
X179595100Y-89696344D01*
X179597668Y-89700960D01*
X179655586Y-89816241D01*
X179775574Y-90055071D01*
X179777746Y-90059893D01*
X179925074Y-90427773D01*
X179926831Y-90432762D01*
X180042528Y-90811780D01*
X180043856Y-90816897D01*
X180051075Y-90850498D01*
X180127095Y-91204351D01*
X180127986Y-91209564D01*
X180178169Y-91602661D01*
X180178616Y-91607932D01*
X180182862Y-91708215D01*
X180188888Y-91850500D01*
X180195444Y-92005295D01*
X180195500Y-92007939D01*
X180195500Y-103992172D01*
X180195444Y-103994816D01*
X180178621Y-104392067D01*
X180178174Y-104397338D01*
X180127991Y-104790436D01*
X180127100Y-104795649D01*
X180043861Y-105183101D01*
X180042532Y-105188220D01*
X179926835Y-105567239D01*
X179925078Y-105572228D01*
X179777751Y-105940108D01*
X179775579Y-105944930D01*
X179597673Y-106299040D01*
X179595101Y-106303661D01*
X179387895Y-106641460D01*
X179384941Y-106645848D01*
X179149916Y-106964919D01*
X179146602Y-106969041D01*
X178885440Y-107267101D01*
X178881789Y-107270928D01*
X178595483Y-107546685D01*
X178593540Y-107548479D01*
X178427661Y-107695235D01*
X178427655Y-107695240D01*
X178400893Y-107718918D01*
X178400888Y-107718922D01*
X178392181Y-107726624D01*
X178389748Y-107728668D01*
X178174794Y-107900151D01*
X178169619Y-107903865D01*
X177939680Y-108051713D01*
X177934155Y-108054880D01*
X177690356Y-108178564D01*
X177684537Y-108181152D01*
X177429424Y-108279380D01*
X177423371Y-108281363D01*
X177159578Y-108353120D01*
X177153356Y-108354476D01*
X176883636Y-108399015D01*
X176877307Y-108399731D01*
X176604451Y-108416590D01*
X176598083Y-108416658D01*
X176324935Y-108405662D01*
X176318592Y-108405082D01*
X176046915Y-108366191D01*
X176043777Y-108365660D01*
X176026140Y-108362211D01*
X176026138Y-108362209D01*
X176026138Y-108362210D01*
X176019673Y-108360946D01*
X175997823Y-108356672D01*
X175997812Y-108356671D01*
X175094487Y-108180006D01*
X167227584Y-106641460D01*
X164359934Y-106080628D01*
X164353966Y-106079153D01*
X164222516Y-106039706D01*
X164211157Y-106035037D01*
X164092696Y-105972102D01*
X164082470Y-105965303D01*
X163978603Y-105880421D01*
X163969902Y-105871753D01*
X163884631Y-105768188D01*
X163877795Y-105757986D01*
X163814427Y-105639759D01*
X163809717Y-105628418D01*
X163802986Y-105606284D01*
X168899500Y-105606284D01*
X168899501Y-105606300D01*
X168932753Y-105816240D01*
X168932753Y-105816241D01*
X168998442Y-106018410D01*
X168998446Y-106018418D01*
X169094949Y-106207817D01*
X169219897Y-106379794D01*
X169370205Y-106530102D01*
X169542182Y-106655050D01*
X169542184Y-106655051D01*
X169731588Y-106751557D01*
X169933757Y-106817246D01*
X170022244Y-106831261D01*
X170143699Y-106850498D01*
X170143705Y-106850498D01*
X170143713Y-106850500D01*
X170143715Y-106850500D01*
X170356285Y-106850500D01*
X170356287Y-106850500D01*
X170566243Y-106817246D01*
X170768412Y-106751557D01*
X170957816Y-106655051D01*
X171024938Y-106606284D01*
X175399500Y-106606284D01*
X175399501Y-106606300D01*
X175432753Y-106816240D01*
X175432753Y-106816241D01*
X175498442Y-107018410D01*
X175498446Y-107018418D01*
X175594949Y-107207817D01*
X175719897Y-107379794D01*
X175870205Y-107530102D01*
X176042182Y-107655050D01*
X176042184Y-107655051D01*
X176231588Y-107751557D01*
X176433757Y-107817246D01*
X176522244Y-107831261D01*
X176643699Y-107850498D01*
X176643705Y-107850498D01*
X176643713Y-107850500D01*
X176643715Y-107850500D01*
X176856285Y-107850500D01*
X176856287Y-107850500D01*
X177066243Y-107817246D01*
X177268412Y-107751557D01*
X177457816Y-107655051D01*
X177629792Y-107530104D01*
X177780104Y-107379792D01*
X177905051Y-107207816D01*
X178001557Y-107018412D01*
X178067246Y-106816243D01*
X178100500Y-106606287D01*
X178100500Y-106393713D01*
X178098295Y-106379794D01*
X178071057Y-106207817D01*
X178067246Y-106183757D01*
X178001557Y-105981588D01*
X177905051Y-105792184D01*
X177884159Y-105763429D01*
X177780102Y-105620205D01*
X177629794Y-105469897D01*
X177457817Y-105344949D01*
X177268418Y-105248446D01*
X177268410Y-105248442D01*
X177066241Y-105182753D01*
X176856300Y-105149501D01*
X176856288Y-105149500D01*
X176856287Y-105149500D01*
X176643713Y-105149500D01*
X176643711Y-105149500D01*
X176643699Y-105149501D01*
X176433759Y-105182753D01*
X176433758Y-105182753D01*
X176231589Y-105248442D01*
X176231581Y-105248446D01*
X176042182Y-105344949D01*
X175870205Y-105469897D01*
X175719897Y-105620205D01*
X175594949Y-105792182D01*
X175498446Y-105981581D01*
X175498442Y-105981589D01*
X175432753Y-106183758D01*
X175432753Y-106183759D01*
X175399501Y-106393699D01*
X175399500Y-106393715D01*
X175399500Y-106606284D01*
X171024938Y-106606284D01*
X171129792Y-106530104D01*
X171280104Y-106379792D01*
X171405051Y-106207816D01*
X171501557Y-106018412D01*
X171567246Y-105816243D01*
X171600500Y-105606287D01*
X171600500Y-105393713D01*
X171592831Y-105345296D01*
X171567246Y-105183759D01*
X171567246Y-105183758D01*
X171566920Y-105182753D01*
X171501557Y-104981588D01*
X171405051Y-104792184D01*
X171280104Y-104620208D01*
X171280102Y-104620205D01*
X171129794Y-104469897D01*
X170957817Y-104344949D01*
X170768418Y-104248446D01*
X170768410Y-104248442D01*
X170566241Y-104182753D01*
X170356300Y-104149501D01*
X170356288Y-104149500D01*
X170356287Y-104149500D01*
X170143713Y-104149500D01*
X170143711Y-104149500D01*
X170143699Y-104149501D01*
X169933759Y-104182753D01*
X169933758Y-104182753D01*
X169731589Y-104248442D01*
X169731581Y-104248446D01*
X169542182Y-104344949D01*
X169370205Y-104469897D01*
X169219897Y-104620205D01*
X169094949Y-104792182D01*
X168998446Y-104981581D01*
X168998442Y-104981589D01*
X168932753Y-105183758D01*
X168932753Y-105183759D01*
X168899501Y-105393699D01*
X168899500Y-105393715D01*
X168899500Y-105606284D01*
X163802986Y-105606284D01*
X163770689Y-105500080D01*
X163768287Y-105488036D01*
X163754802Y-105351436D01*
X163754500Y-105345296D01*
X163754500Y-100100000D01*
X171344508Y-100100000D01*
X171364354Y-100225304D01*
X171364354Y-100225305D01*
X171407155Y-100309306D01*
X171421950Y-100338342D01*
X171511658Y-100428050D01*
X171624696Y-100485646D01*
X171750000Y-100505492D01*
X171875304Y-100485646D01*
X171988342Y-100428050D01*
X172078050Y-100338342D01*
X172084784Y-100325126D01*
X172121158Y-100294059D01*
X172140472Y-100291000D01*
X172494997Y-100291000D01*
X172539191Y-100309306D01*
X173134509Y-100904623D01*
X173134515Y-100904630D01*
X173138077Y-100908192D01*
X173138078Y-100908193D01*
X173191807Y-100961922D01*
X173262008Y-100991000D01*
X173337992Y-100991000D01*
X174209528Y-100991000D01*
X174253722Y-101009306D01*
X174265216Y-101025126D01*
X174271950Y-101038342D01*
X174361658Y-101128050D01*
X174474696Y-101185646D01*
X174600000Y-101205492D01*
X174725304Y-101185646D01*
X174838342Y-101128050D01*
X174928050Y-101038342D01*
X174985646Y-100925304D01*
X175005492Y-100800000D01*
X174985646Y-100674696D01*
X174928050Y-100561658D01*
X174838342Y-100471950D01*
X174725304Y-100414354D01*
X174600000Y-100394508D01*
X174474695Y-100414354D01*
X174474694Y-100414354D01*
X174361657Y-100471950D01*
X174271949Y-100561658D01*
X174265216Y-100574874D01*
X174228842Y-100605941D01*
X174209528Y-100609000D01*
X173405002Y-100609000D01*
X173360808Y-100590694D01*
X173061114Y-100291000D01*
X172708193Y-99938078D01*
X172637992Y-99909000D01*
X172637991Y-99909000D01*
X172140472Y-99909000D01*
X172096278Y-99890694D01*
X172084784Y-99874874D01*
X172078050Y-99861658D01*
X171988342Y-99771950D01*
X171875304Y-99714354D01*
X171750000Y-99694508D01*
X171624695Y-99714354D01*
X171624694Y-99714354D01*
X171511657Y-99771950D01*
X171421950Y-99861657D01*
X171364354Y-99974694D01*
X171364354Y-99974695D01*
X171344508Y-100100000D01*
X163754500Y-100100000D01*
X163754500Y-90654681D01*
X163754802Y-90648541D01*
X163758974Y-90606284D01*
X168899500Y-90606284D01*
X168899501Y-90606300D01*
X168932753Y-90816240D01*
X168932753Y-90816241D01*
X168998442Y-91018410D01*
X168998446Y-91018418D01*
X169094949Y-91207817D01*
X169219897Y-91379794D01*
X169370205Y-91530102D01*
X169542182Y-91655050D01*
X169542184Y-91655051D01*
X169731588Y-91751557D01*
X169933757Y-91817246D01*
X170022244Y-91831261D01*
X170143699Y-91850498D01*
X170143705Y-91850498D01*
X170143713Y-91850500D01*
X170143715Y-91850500D01*
X170356285Y-91850500D01*
X170356287Y-91850500D01*
X170566243Y-91817246D01*
X170768412Y-91751557D01*
X170957816Y-91655051D01*
X171129792Y-91530104D01*
X171280104Y-91379792D01*
X171405051Y-91207816D01*
X171501557Y-91018412D01*
X171567246Y-90816243D01*
X171600500Y-90606287D01*
X171600500Y-90393713D01*
X171598295Y-90379794D01*
X171576472Y-90242007D01*
X171567246Y-90183757D01*
X171501557Y-89981588D01*
X171405051Y-89792184D01*
X171280104Y-89620208D01*
X171280102Y-89620205D01*
X171266181Y-89606284D01*
X175399500Y-89606284D01*
X175399501Y-89606300D01*
X175432753Y-89816240D01*
X175432753Y-89816241D01*
X175498442Y-90018410D01*
X175498446Y-90018418D01*
X175594949Y-90207817D01*
X175719897Y-90379794D01*
X175870205Y-90530102D01*
X176042182Y-90655050D01*
X176042184Y-90655051D01*
X176231588Y-90751557D01*
X176433757Y-90817246D01*
X176522244Y-90831261D01*
X176643699Y-90850498D01*
X176643705Y-90850498D01*
X176643713Y-90850500D01*
X176643715Y-90850500D01*
X176856285Y-90850500D01*
X176856287Y-90850500D01*
X177066243Y-90817246D01*
X177268412Y-90751557D01*
X177457816Y-90655051D01*
X177629792Y-90530104D01*
X177780104Y-90379792D01*
X177905051Y-90207816D01*
X178001557Y-90018412D01*
X178067246Y-89816243D01*
X178100500Y-89606287D01*
X178100500Y-89393713D01*
X178092776Y-89344949D01*
X178067246Y-89183759D01*
X178067246Y-89183758D01*
X178066920Y-89182753D01*
X178001557Y-88981588D01*
X177905051Y-88792184D01*
X177859199Y-88729074D01*
X177780102Y-88620205D01*
X177629794Y-88469897D01*
X177457817Y-88344949D01*
X177268418Y-88248446D01*
X177268410Y-88248442D01*
X177066241Y-88182753D01*
X176856300Y-88149501D01*
X176856288Y-88149500D01*
X176856287Y-88149500D01*
X176643713Y-88149500D01*
X176643711Y-88149500D01*
X176643699Y-88149501D01*
X176433759Y-88182753D01*
X176433758Y-88182753D01*
X176231589Y-88248442D01*
X176231581Y-88248446D01*
X176042182Y-88344949D01*
X175870205Y-88469897D01*
X175719897Y-88620205D01*
X175594949Y-88792182D01*
X175498446Y-88981581D01*
X175498442Y-88981589D01*
X175432753Y-89183758D01*
X175432753Y-89183759D01*
X175399501Y-89393699D01*
X175399500Y-89393715D01*
X175399500Y-89606284D01*
X171266181Y-89606284D01*
X171129794Y-89469897D01*
X170957817Y-89344949D01*
X170768418Y-89248446D01*
X170768410Y-89248442D01*
X170566241Y-89182753D01*
X170356300Y-89149501D01*
X170356288Y-89149500D01*
X170356287Y-89149500D01*
X170143713Y-89149500D01*
X170143711Y-89149500D01*
X170143699Y-89149501D01*
X169933759Y-89182753D01*
X169933758Y-89182753D01*
X169731589Y-89248442D01*
X169731581Y-89248446D01*
X169542182Y-89344949D01*
X169370205Y-89469897D01*
X169219897Y-89620205D01*
X169094949Y-89792182D01*
X168998446Y-89981581D01*
X168998442Y-89981589D01*
X168932753Y-90183758D01*
X168932753Y-90183759D01*
X168899501Y-90393699D01*
X168899500Y-90393715D01*
X168899500Y-90606284D01*
X163758974Y-90606284D01*
X163768285Y-90511961D01*
X163770687Y-90499919D01*
X163809716Y-90371574D01*
X163814422Y-90360244D01*
X163877800Y-90241997D01*
X163884624Y-90231815D01*
X163969904Y-90128241D01*
X163978586Y-90119590D01*
X164082478Y-90034687D01*
X164092690Y-90027898D01*
X164211160Y-89964958D01*
X164222511Y-89960292D01*
X164353970Y-89920843D01*
X164359898Y-89919377D01*
X176043277Y-87634436D01*
X176046395Y-87633908D01*
X176318610Y-87594945D01*
X176324920Y-87594368D01*
X176598093Y-87583372D01*
X176604446Y-87583439D01*
G37*
%TD.AperFunction*%
%TD*%
M02*
