%TF.GenerationSoftware,KiCad,Pcbnew,8.99.0-344-gfbc433deaa*%
%TF.CreationDate,2024-03-16T14:02:09-04:00*%
%TF.ProjectId,fujiflex,66756a69-666c-4657-982e-6b696361645f,rev?*%
%TF.SameCoordinates,Original*%
%TF.FileFunction,Profile,NP*%
%FSLAX46Y46*%
G04 Gerber Fmt 4.6, Leading zero omitted, Abs format (unit mm)*
G04 Created by KiCad (PCBNEW 8.99.0-344-gfbc433deaa) date 2024-03-16 14:02:09*
%MOMM*%
%LPD*%
G01*
G04 APERTURE LIST*
%TA.AperFunction,Profile*%
%ADD10C,0.100000*%
%TD*%
G04 APERTURE END LIST*
D10*
X140936916Y-91705677D02*
X157766792Y-92494048D01*
X157884399Y-110977967D02*
X153536365Y-111702639D01*
X158720000Y-109991573D02*
G75*
G02*
X157884403Y-110977993I-1000000J-27D01*
G01*
X140702955Y-91700200D02*
G75*
G02*
X140936916Y-91705677I-55J-5001800D01*
G01*
X158720000Y-93492953D02*
X158720000Y-109991573D01*
X131020000Y-90574467D02*
G75*
G02*
X131423967Y-87760935I10000000J-33D01*
G01*
X131020000Y-90574467D02*
X131020000Y-107071228D01*
X153536365Y-111702639D02*
G75*
G02*
X151892375Y-111838693I-1643965J9864139D01*
G01*
X138791698Y-91700200D02*
X140702955Y-91700200D01*
X151892375Y-111838700D02*
X135733406Y-111838700D01*
X138791698Y-91700200D02*
G75*
G02*
X138084592Y-91407306I2J1000000D01*
G01*
X132970480Y-82486254D02*
X131423958Y-87760932D01*
X131533412Y-108409157D02*
G75*
G02*
X131020023Y-107071228I1486488J1337857D01*
G01*
X137869500Y-88271200D02*
X137869500Y-90888000D01*
X132970480Y-82486254D02*
G75*
G02*
X133900919Y-81852718I930420J-366446D01*
G01*
X133900919Y-81852700D02*
X137066600Y-81852700D01*
X137066600Y-81852800D02*
G75*
G02*
X137867900Y-82654100I0J-801300D01*
G01*
X135733406Y-111838700D02*
G75*
G02*
X133875168Y-111011115I-6J2500000D01*
G01*
X157766792Y-92494048D02*
G75*
G02*
X158719947Y-93492953I-46792J-998852D01*
G01*
X131533412Y-108409157D02*
X133875171Y-111011112D01*
X137868000Y-82654100D02*
X137869500Y-88271200D01*
X138084601Y-91407299D02*
G75*
G02*
X137869500Y-90888000I519299J519299D01*
G01*
M02*
