M48
; DRILL file {KiCad 8.99.0-344-gfbc433deaa} date 2024-03-11T19:55:48-0400
; FORMAT={-:-/ absolute / inch / decimal}
; #@! TF.CreationDate,2024-03-11T19:55:48-04:00
; #@! TF.GenerationSoftware,Kicad,Pcbnew,8.99.0-344-gfbc433deaa
; #@! TF.FileFunction,Plated,1,2,PTH
FMAT,2
INCH
; #@! TA.AperFunction,Plated,PTH,ViaDrill
T1C0.0059
; #@! TA.AperFunction,Plated,PTH,ViaDrill
T2C0.0098
; #@! TA.AperFunction,Plated,PTH,ViaDrill
T3C0.0100
%
G90
G05
T1
X5.1766Y-4.0185
X5.1773Y-4.077
X5.1793Y-3.5441
X5.1798Y-3.5832
X5.184Y-3.9911
X5.1854Y-4.1295
X5.1889Y-3.5147
X5.1962Y-4.0503
X5.2067Y-3.6794
X5.2114Y-4.1326
X5.2278Y-4.1218
X5.2293Y-3.7884
X5.237Y-4.1064
X5.2442Y-3.8363
X5.2512Y-4.1346
X5.2525Y-4.067
X5.2646Y-3.9498
X5.2648Y-3.6309
X5.2658Y-3.7901
X5.2658Y-3.8385
X5.2743Y-4.1861
X5.2773Y-3.9693
X5.2815Y-4.3458
X5.2856Y-3.8981
X5.2889Y-3.8322
X5.2907Y-3.7901
X5.2931Y-4.0347
X5.2974Y-4.1077
X5.3043Y-3.4722
X5.3081Y-4.2511
X5.3127Y-4.0306
X5.3131Y-3.8317
X5.3155Y-4.0934
X5.3205Y-3.8057
X5.3222Y-3.8977
X5.324Y-4.0743
X5.3244Y-4.0474
X5.3259Y-3.7579
X5.3364Y-4.2998
X5.3435Y-3.5167
X5.3454Y-4.2623
X5.3678Y-4.3145
X5.3699Y-3.4934
X5.3891Y-4.2608
X5.401Y-4.2896
X5.4096Y-4.3154
X5.4104Y-3.8868
X5.4119Y-3.916
X5.4187Y-3.6076
X5.4222Y-3.9498
X5.4222Y-4.2096
X5.4404Y-3.938
X5.443Y-4.06
X5.4465Y-3.7996
X5.4498Y-4.1033
X5.4569Y-3.9576
X5.4668Y-3.6371
X5.4722Y-4.0844
X5.4734Y-3.938
X5.4742Y-4.1225
X5.4768Y-4.197
X5.484Y-3.8315
X5.4848Y-4.3528
X5.4907Y-4.2231
X5.4998Y-3.9764
X5.5049Y-3.8658
X5.5072Y-3.9055
X5.5078Y-3.8077
X5.5084Y-3.9457
X5.5213Y-4.028
X5.5217Y-3.744
X5.5363Y-4.1894
X5.5387Y-4.0985
X5.5433Y-3.7442
X5.5612Y-3.6368
X5.5624Y-3.8953
X5.5624Y-3.9654
X5.5633Y-4.0339
X5.5668Y-4.3735
X5.5671Y-3.8426
X5.6002Y-4.1855
X5.623Y-4.1309
X5.624Y-3.7778
X5.627Y-3.8632
X5.627Y-3.9537
X5.627Y-4.0443
X5.6512Y-4.3534
X5.6554Y-4.3848
X5.6583Y-3.6414
X5.6686Y-3.7622
X5.6821Y-4.2018
X5.6903Y-3.7621
X5.7321Y-3.8564
X5.7341Y-3.7644
X5.7366Y-3.9459
X5.7372Y-4.0443
X5.7372Y-4.1309
X5.7556Y-3.7975
X5.7558Y-3.7644
X5.7697Y-3.781
X5.7963Y-4.1939
X5.8278Y-4.0128
X5.8285Y-4.2701
X5.829Y-3.7616
X5.8306Y-3.8127
X5.8306Y-3.9111
X5.8356Y-4.1033
X5.8698Y-4.1914
X5.9139Y-3.8061
X5.9175Y-4.2332
X5.9249Y-3.9864
X5.9255Y-3.751
X5.9266Y-4.094
X5.9454Y-3.6582
X5.9683Y-4.2734
X5.9844Y-4.3792
X6.1324Y-3.7895
X6.1624Y-4.2746
X6.1642Y-3.7661
X6.1646Y-3.7459
X6.1648Y-4.2489
X6.1658Y-3.7112
X6.1709Y-3.9383
X6.1712Y-3.7881
X6.1723Y-4.0811
X6.18Y-4.2275
X6.1848Y-3.8632
X6.185Y-4.0098
X6.1863Y-4.3521
X6.1919Y-3.7968
X6.2042Y-4.2228
X6.2147Y-3.7973
X6.221Y-3.6843
X6.2219Y-4.3381
X6.2291Y-3.8303
X6.2291Y-3.8696
X6.2291Y-3.909
X6.2291Y-3.9484
X6.2291Y-3.9877
X6.2291Y-4.0271
X6.2291Y-4.0665
X6.2291Y-4.1059
X6.2291Y-4.1452
X6.2291Y-4.1846
X6.2291Y-4.224
T2
X5.1982Y-3.9369
X5.2161Y-4.2269
X5.2712Y-4.2938
X5.2726Y-4.1427
X5.3381Y-4.3528
X5.4098Y-4.0846
X5.41Y-4.1847
X5.4133Y-4.1262
X5.4191Y-3.982
X5.4222Y-4.249
X5.4346Y-4.1724
X5.465Y-3.7456
X5.4744Y-4.2492
X5.501Y-4.0066
X5.5138Y-4.2484
X5.5411Y-4.0532
X5.5679Y-3.7444
X5.573Y-4.2672
X5.5955Y-3.7442
X5.6715Y-4.2672
X5.7504Y-4.2497
X5.7701Y-3.7444
X5.7894Y-4.2675
X5.888Y-4.2674
X5.9065Y-3.8474
X5.9065Y-4.1939
X5.9073Y-3.9277
X5.9243Y-4.1694
X5.9323Y-3.8711
X5.9329Y-4.0257
X5.9331Y-3.9498
X5.9535Y-3.7299
X6.0501Y-3.7875
X6.1363Y-4.0297
X6.1365Y-3.9703
X6.137Y-3.852
X6.137Y-3.9112
X6.1442Y-4.3052
X6.1451Y-4.1734
X6.1458Y-4.1457
T3
X5.2449Y-3.4464
X5.2843Y-3.2496
X5.2843Y-3.2889
X5.2843Y-3.3283
X5.2843Y-3.3677
X5.2843Y-3.407
X5.2843Y-3.4464
X5.3236Y-3.2496
X5.3236Y-3.2889
X5.3236Y-3.3283
X5.3236Y-3.3677
X5.3236Y-3.407
X5.3236Y-3.4464
X5.363Y-3.2496
X5.363Y-3.2889
X5.363Y-3.3283
X5.363Y-3.3677
X5.363Y-3.407
X5.363Y-3.4464
X5.4024Y-3.2496
X5.4024Y-3.2889
X5.4024Y-3.3283
M30
