G04 #@! TF.GenerationSoftware,KiCad,Pcbnew,9.0.0*
G04 #@! TF.CreationDate,2025-02-27T12:50:40-05:00*
G04 #@! TF.ProjectId,fujiflex,66756a69-666c-4657-982e-6b696361645f,rev?*
G04 #@! TF.SameCoordinates,Original*
G04 #@! TF.FileFunction,Copper,L2,Bot*
G04 #@! TF.FilePolarity,Positive*
%FSLAX46Y46*%
G04 Gerber Fmt 4.6, Leading zero omitted, Abs format (unit mm)*
G04 Created by KiCad (PCBNEW 9.0.0) date 2025-02-27 12:50:40*
%MOMM*%
%LPD*%
G01*
G04 APERTURE LIST*
G04 #@! TA.AperFunction,ViaPad*
%ADD10C,0.350000*%
G04 #@! TD*
G04 #@! TA.AperFunction,ViaPad*
%ADD11C,0.508000*%
G04 #@! TD*
G04 #@! TA.AperFunction,ViaPad*
%ADD12C,0.500000*%
G04 #@! TD*
G04 #@! TA.AperFunction,Conductor*
%ADD13C,0.088900*%
G04 #@! TD*
G04 #@! TA.AperFunction,Conductor*
%ADD14C,0.250000*%
G04 #@! TD*
G04 #@! TA.AperFunction,Conductor*
%ADD15C,0.400000*%
G04 #@! TD*
G04 #@! TA.AperFunction,Conductor*
%ADD16C,0.127000*%
G04 #@! TD*
G04 #@! TA.AperFunction,Conductor*
%ADD17C,0.200000*%
G04 #@! TD*
G04 APERTURE END LIST*
D10*
X133780588Y-92743525D03*
X133954070Y-91718280D03*
X139375483Y-110951747D03*
X142763387Y-110672658D03*
D11*
X136220000Y-82538700D03*
X135220000Y-83538700D03*
X137220000Y-83538700D03*
X134220000Y-83538700D03*
X134220000Y-87538700D03*
D12*
X141425000Y-95108700D03*
D10*
X136341534Y-109587605D03*
X138636969Y-102726195D03*
X142244004Y-106310938D03*
X140620780Y-106410938D03*
D11*
X136220000Y-87538700D03*
D12*
X144055762Y-108385809D03*
D10*
X139884004Y-99200938D03*
X158220000Y-106288700D03*
X154954004Y-94310938D03*
D12*
X135588415Y-110562188D03*
X137410000Y-103748700D03*
D10*
X158220000Y-103288700D03*
X134042603Y-100820059D03*
D12*
X146560000Y-95108700D03*
D10*
X135239338Y-102803030D03*
X158220000Y-100288700D03*
X138425000Y-104225000D03*
X156524539Y-108574248D03*
X156741186Y-100033597D03*
X141284004Y-100720938D03*
X137404470Y-109610222D03*
X141404004Y-97600938D03*
D12*
X150700998Y-100325000D03*
D10*
X131503815Y-103555951D03*
X138856590Y-92383431D03*
X141255116Y-92375200D03*
X134445234Y-102482088D03*
X142825000Y-104925000D03*
D12*
X141553790Y-108385809D03*
D10*
X150303887Y-107522401D03*
X158220000Y-99288700D03*
X137186330Y-108955803D03*
X158220000Y-101288700D03*
X139044004Y-104710938D03*
X142925000Y-98125000D03*
X134338611Y-97338061D03*
X157132418Y-110544390D03*
X139824004Y-98190938D03*
X137461146Y-99467250D03*
X145623417Y-104558108D03*
X132825000Y-96225000D03*
X135141658Y-96664083D03*
X134730298Y-88194892D03*
D12*
X150476706Y-105902920D03*
D10*
X135773164Y-108263446D03*
X157094421Y-98126128D03*
X149094004Y-106460938D03*
X134554259Y-104336499D03*
X139897378Y-96716113D03*
D12*
X155880131Y-97842060D03*
X155880131Y-99344052D03*
D10*
X158220000Y-98288700D03*
D12*
X150696622Y-102254043D03*
D10*
X152174004Y-95070938D03*
X142925000Y-102725000D03*
X145623417Y-102358108D03*
X140684004Y-104100938D03*
X156776510Y-103660142D03*
X150536517Y-103986454D03*
X151012841Y-92918627D03*
X148095979Y-96841545D03*
X138341018Y-96510362D03*
X152004299Y-111231592D03*
D12*
X149555205Y-108391926D03*
D10*
X156570939Y-95659709D03*
X157852778Y-96451106D03*
X136395731Y-88731491D03*
X156971306Y-107378845D03*
X139914004Y-100220938D03*
X156611667Y-94264093D03*
X139111651Y-106603688D03*
X139514004Y-107250938D03*
X135543830Y-109216020D03*
X139294004Y-97320938D03*
X157273164Y-96439959D03*
X158220000Y-97288700D03*
X131673263Y-101373338D03*
D12*
X138810000Y-95138700D03*
D10*
X157100000Y-101850000D03*
X142040170Y-111338018D03*
X141284004Y-98940938D03*
D12*
X156104290Y-105301638D03*
D10*
X145607658Y-99859022D03*
X133380229Y-105019771D03*
X133413148Y-103301006D03*
X158220000Y-105288700D03*
X140241539Y-102311025D03*
X131565873Y-91012964D03*
X134149049Y-110382474D03*
X158220000Y-104288700D03*
X131486039Y-102070670D03*
X142925000Y-100425000D03*
X157587120Y-107258097D03*
D12*
X155861962Y-102354094D03*
X155868018Y-100846045D03*
D10*
X135230275Y-103487332D03*
X150491716Y-101253603D03*
X135012748Y-103972234D03*
X158220000Y-102288700D03*
X131983508Y-102878385D03*
X144325000Y-106725000D03*
X138994530Y-103743917D03*
X145494004Y-97585938D03*
X141307860Y-102460706D03*
X156749281Y-96217031D03*
D12*
X147050000Y-108395002D03*
D10*
X131798719Y-89272750D03*
X156582085Y-95146974D03*
X137454004Y-101080938D03*
D12*
X150679850Y-98325000D03*
D10*
X133966968Y-106327142D03*
D12*
X153672734Y-96203330D03*
D10*
X158012832Y-93581172D03*
X151594642Y-108544115D03*
X135184795Y-99002273D03*
X131553618Y-90020307D03*
X158220000Y-107288700D03*
X148025000Y-101925000D03*
X143721920Y-92490754D03*
X143646969Y-111373266D03*
X147225000Y-106525000D03*
X148095979Y-99341937D03*
D12*
X137414067Y-106292086D03*
D10*
X156584913Y-107922210D03*
X133721817Y-100324299D03*
X139694004Y-101000938D03*
X150213951Y-96674958D03*
X155763903Y-96253983D03*
X136882832Y-108225509D03*
X134951497Y-97325438D03*
X134942385Y-102377134D03*
X158037198Y-110188315D03*
X134824731Y-107978916D03*
X148225000Y-104225000D03*
X142849841Y-95955646D03*
D12*
X137454004Y-101770938D03*
X139725000Y-101767776D03*
X142124967Y-95101682D03*
D10*
X132786053Y-104692584D03*
D12*
X133888415Y-109062188D03*
D10*
X132368903Y-104968878D03*
X131708058Y-104888756D03*
X133019007Y-104302521D03*
D11*
X136220000Y-86538700D03*
D10*
X146196708Y-95616130D03*
D11*
X136220000Y-84538700D03*
D10*
X140250038Y-95098688D03*
X138606281Y-100524248D03*
D11*
X137220000Y-82538700D03*
D10*
X139025000Y-100025000D03*
D11*
X134220000Y-85538700D03*
D10*
X133726300Y-92225344D03*
D11*
X135220000Y-86538700D03*
D10*
X144532824Y-95557683D03*
X137725000Y-100325000D03*
X132250725Y-93457122D03*
D11*
X134220000Y-82538700D03*
D10*
X138186831Y-100025000D03*
D11*
X135220000Y-82538700D03*
D10*
X146654004Y-96456655D03*
D11*
X133220000Y-87538700D03*
X135220000Y-85538700D03*
D10*
X148057722Y-95545326D03*
D11*
X136220000Y-85538700D03*
D10*
X135725000Y-89325000D03*
X143982824Y-95559578D03*
X140800017Y-95103800D03*
D11*
X134220000Y-84538700D03*
D10*
X145646706Y-95616652D03*
D11*
X134220000Y-86538700D03*
D10*
X147054004Y-96030938D03*
D11*
X135220000Y-87538700D03*
D10*
X148044004Y-108460938D03*
D12*
X140050000Y-107908700D03*
X150025000Y-97725000D03*
X150025000Y-106525000D03*
X150044297Y-99763455D03*
X137498358Y-104805066D03*
X133925000Y-105225000D03*
X132488415Y-107362188D03*
X140744004Y-102952007D03*
X132033841Y-99998324D03*
X146060000Y-107942914D03*
D10*
X137425000Y-98725000D03*
D12*
X156061435Y-109352459D03*
X156086023Y-106004723D03*
D10*
X138040000Y-105978700D03*
X133202589Y-97443020D03*
X139050000Y-107928700D03*
X133752456Y-97498758D03*
X137725000Y-107925000D03*
X134382966Y-96268215D03*
X137633878Y-91633879D03*
D12*
X150794004Y-93570938D03*
D11*
X137220000Y-84538700D03*
X135220000Y-84538700D03*
X136220000Y-83538700D03*
D10*
X134254134Y-99012119D03*
X135194004Y-95570938D03*
X133751292Y-96268961D03*
D13*
X133870664Y-92225344D02*
X133726300Y-92225344D01*
X136625000Y-95625000D02*
X136625000Y-94979680D01*
X139025000Y-100025000D02*
X139025000Y-98025000D01*
X139025000Y-98025000D02*
X136625000Y-95625000D01*
X136625000Y-94979680D02*
X133870664Y-92225344D01*
D14*
X139636263Y-101770938D02*
X139639425Y-101767776D01*
X142125000Y-95221939D02*
X142125000Y-95770113D01*
X142124967Y-95101682D02*
X142124967Y-95221906D01*
X142124967Y-95221906D02*
X142125000Y-95221939D01*
X139639425Y-101767776D02*
X139725000Y-101767776D01*
X140744004Y-97151109D02*
X140744004Y-100748772D01*
X140744004Y-100748772D02*
X139725000Y-101767776D01*
X142125000Y-95770113D02*
X140744004Y-97151109D01*
X137454004Y-101770938D02*
X139636263Y-101770938D01*
D15*
X131708058Y-104888756D02*
X131708058Y-107343951D01*
X133426295Y-109062188D02*
X133888415Y-109062188D01*
X131708058Y-107343951D02*
X133426295Y-109062188D01*
D13*
X146047785Y-94547785D02*
X145113900Y-93613900D01*
X136438700Y-86538700D02*
X136220000Y-86538700D01*
X137120773Y-89120661D02*
X137120773Y-87220773D01*
X136736100Y-91744666D02*
X136736100Y-89505334D01*
X143809617Y-93613900D02*
X143282386Y-93086669D01*
X143282386Y-93086669D02*
X138078103Y-93086669D01*
X137120773Y-87220773D02*
X136438700Y-86538700D01*
X145113900Y-93613900D02*
X143809617Y-93613900D01*
X146196708Y-95616130D02*
X146047785Y-95467207D01*
X146047785Y-95467207D02*
X146047785Y-94547785D01*
X136736100Y-89505334D02*
X137120773Y-89120661D01*
X138078103Y-93086669D02*
X136736100Y-91744666D01*
X132721550Y-87921550D02*
X133225000Y-88425000D01*
X132721550Y-87425000D02*
X132721550Y-87921550D01*
X138243542Y-95636271D02*
X138243841Y-95635972D01*
X134642200Y-92179098D02*
X137625000Y-95161898D01*
X135721550Y-85037150D02*
X134016635Y-85037150D01*
X137833926Y-95636271D02*
X138243542Y-95636271D01*
X133225000Y-88425000D02*
X133933566Y-88425000D01*
X134642200Y-89133634D02*
X134642200Y-92179098D01*
X137625000Y-95161898D02*
X137625000Y-95427345D01*
X137625000Y-95427345D02*
X137833926Y-95636271D01*
X133721550Y-86328450D02*
X132775000Y-87275000D01*
X132775000Y-87275000D02*
X132721550Y-87425000D01*
X134016635Y-85037150D02*
X133721550Y-85332235D01*
X138243841Y-95635972D02*
X139769318Y-95635972D01*
X133933566Y-88425000D02*
X134642200Y-89133634D01*
X136220000Y-84538700D02*
X135721550Y-85037150D01*
X140250038Y-95155252D02*
X140250038Y-95098688D01*
X139769318Y-95635972D02*
X140250038Y-95155252D01*
X133721550Y-85332235D02*
X133721550Y-86328450D01*
X133143750Y-86089118D02*
X132218113Y-87014755D01*
X134012850Y-84037150D02*
X133143750Y-84906250D01*
X136718450Y-83745165D02*
X136426465Y-84037150D01*
X132143750Y-88160882D02*
X133025000Y-89042132D01*
X136718450Y-83040250D02*
X136718450Y-83745165D01*
X132207970Y-87040722D02*
X132143750Y-87225000D01*
X133025000Y-92525000D02*
X134942178Y-94442178D01*
X135678932Y-94442178D02*
X136336100Y-95099346D01*
X138606281Y-98014847D02*
X138606281Y-100524248D01*
X136336100Y-95099346D02*
X136336100Y-95744666D01*
X132143750Y-87225000D02*
X132143750Y-88160882D01*
X137220000Y-82538700D02*
X136718450Y-83040250D01*
X134942178Y-94442178D02*
X135678932Y-94442178D01*
X136336100Y-95744666D02*
X138606281Y-98014847D01*
X132218113Y-87014755D02*
X132207970Y-87040722D01*
X133143750Y-84906250D02*
X133143750Y-86089118D01*
X136426465Y-84037150D02*
X134012850Y-84037150D01*
X133025000Y-89042132D02*
X133025000Y-92525000D01*
X136158300Y-89158300D02*
X135721550Y-88721550D01*
X135721550Y-87321550D02*
X135220000Y-86820000D01*
X143035006Y-93615478D02*
X137789780Y-93615478D01*
X144550052Y-94557754D02*
X144183998Y-94191700D01*
X144550052Y-95540455D02*
X144550052Y-94557754D01*
X143611228Y-94191700D02*
X143035006Y-93615478D01*
X136158300Y-91983998D02*
X136158300Y-89158300D01*
X144532824Y-95557683D02*
X144550052Y-95540455D01*
X135220000Y-86820000D02*
X135220000Y-86538700D01*
X137789780Y-93615478D02*
X136158300Y-91983998D01*
X144183998Y-94191700D02*
X143611228Y-94191700D01*
X135721550Y-88721550D02*
X135721550Y-87321550D01*
X138025000Y-98250698D02*
X138025000Y-99593639D01*
X135758300Y-95983998D02*
X138025000Y-98250698D01*
X135758300Y-95338678D02*
X135758300Y-95983998D01*
X134702846Y-95019978D02*
X135439600Y-95019978D01*
X137725000Y-99893639D02*
X137725000Y-100325000D01*
X133139990Y-93457122D02*
X134702846Y-95019978D01*
X138025000Y-99593639D02*
X137725000Y-99893639D01*
X132250725Y-93457122D02*
X133139990Y-93457122D01*
X135439600Y-95019978D02*
X135758300Y-95338678D01*
X136047200Y-95864332D02*
X138325000Y-98142132D01*
X132825000Y-85525000D02*
X132825000Y-85999302D01*
X132825000Y-85999302D02*
X132312151Y-86512151D01*
X132736100Y-89161798D02*
X132736100Y-90125000D01*
X133325000Y-83725000D02*
X132825000Y-84225000D01*
X134009750Y-83040250D02*
X133325000Y-83725000D01*
X131971035Y-86853267D02*
X131852704Y-87156194D01*
X134822512Y-94731078D02*
X135559266Y-94731078D01*
X132736100Y-90125000D02*
X132736100Y-92644666D01*
X134125000Y-83040250D02*
X134009750Y-83040250D01*
X134718450Y-83040250D02*
X134125000Y-83040250D01*
X132736100Y-92644666D02*
X133220717Y-93129283D01*
X135220000Y-82538700D02*
X134718450Y-83040250D01*
X132825000Y-84225000D02*
X132825000Y-85525000D01*
X132312151Y-86512151D02*
X131971035Y-86853267D01*
X136047200Y-95219012D02*
X136047200Y-95864332D01*
X135559266Y-94731078D02*
X136047200Y-95219012D01*
X131852704Y-88278402D02*
X132262151Y-88687849D01*
X133220717Y-93129283D02*
X133270717Y-93179283D01*
X138325000Y-98142132D02*
X138325000Y-99886831D01*
X132262151Y-88687849D02*
X132736100Y-89161798D01*
X131852704Y-87156194D02*
X131852704Y-88278402D01*
X133220717Y-93129283D02*
X134822512Y-94731078D01*
X138325000Y-99886831D02*
X138186831Y-100025000D01*
X134931100Y-92059432D02*
X134931100Y-89013968D01*
X137264576Y-94392908D02*
X134931100Y-92059432D01*
X133455832Y-87538700D02*
X133220000Y-87538700D01*
X142592908Y-94392908D02*
X137264576Y-94392908D01*
X143174291Y-94974291D02*
X142592908Y-94392908D01*
X143174291Y-95840815D02*
X143174291Y-94974291D01*
X143790131Y-96456655D02*
X143174291Y-95840815D01*
X146654004Y-96456655D02*
X143790131Y-96456655D01*
X134931100Y-89013968D02*
X133455832Y-87538700D01*
X148053384Y-94653384D02*
X148053384Y-95540988D01*
X137409673Y-89240327D02*
X137025000Y-89625000D01*
X135831931Y-86037150D02*
X136537150Y-86037150D01*
X135333481Y-85538700D02*
X135831931Y-86037150D01*
X138225000Y-92825000D02*
X143425000Y-92825000D01*
X135220000Y-85538700D02*
X135333481Y-85538700D01*
X137025000Y-91625000D02*
X138225000Y-92825000D01*
X136537150Y-86037150D02*
X137409673Y-86909673D01*
X148053384Y-95540988D02*
X148057722Y-95545326D01*
X143425000Y-92825000D02*
X143925000Y-93325000D01*
X146725000Y-93325000D02*
X148053384Y-94653384D01*
X137409673Y-86909673D02*
X137409673Y-89240327D01*
X143925000Y-93325000D02*
X146725000Y-93325000D01*
X137025000Y-89625000D02*
X137025000Y-91625000D01*
X135725000Y-89325000D02*
X135725000Y-92036200D01*
X137560790Y-93871990D02*
X142865313Y-93871990D01*
X144044450Y-95051127D02*
X144044450Y-95497952D01*
X142865313Y-93871990D02*
X144044450Y-95051127D01*
X135725000Y-92036200D02*
X137560790Y-93871990D01*
X144044450Y-95497952D02*
X143982824Y-95559578D01*
X137425000Y-95635911D02*
X137425000Y-95370464D01*
X133105334Y-88713900D02*
X132432650Y-88041216D01*
X133432650Y-85212569D02*
X134106519Y-84538700D01*
X137714260Y-95925171D02*
X137425000Y-95635911D01*
X140800017Y-95103800D02*
X140800017Y-95141901D01*
X140800017Y-95141901D02*
X140017046Y-95924872D01*
X140017046Y-95924872D02*
X139016875Y-95924872D01*
X132432650Y-88041216D02*
X132432650Y-87325000D01*
X134353300Y-92298764D02*
X134353300Y-89253300D01*
X134353300Y-89253300D02*
X133813900Y-88713900D01*
X133432650Y-86208784D02*
X133432650Y-85212569D01*
X133813900Y-88713900D02*
X133105334Y-88713900D01*
X132520717Y-87120717D02*
X133432650Y-86208784D01*
X132432650Y-87325000D02*
X132520717Y-87120717D01*
X139016875Y-95924872D02*
X139016576Y-95925171D01*
X134106519Y-84538700D02*
X134220000Y-84538700D01*
X139016576Y-95925171D02*
X137714260Y-95925171D01*
X137425000Y-95370464D02*
X134353300Y-92298764D01*
X144902800Y-93902800D02*
X143701176Y-93902800D01*
X143145503Y-93347127D02*
X137929995Y-93347127D01*
X134721550Y-86037150D02*
X134220000Y-86538700D01*
X135940250Y-87040250D02*
X135721550Y-86821550D01*
X145555248Y-94555248D02*
X144902800Y-93902800D01*
X135721550Y-86821550D02*
X135721550Y-86335335D01*
X136831873Y-89000995D02*
X136831873Y-87445658D01*
X136831873Y-87445658D02*
X136426465Y-87040250D01*
X135423365Y-86037150D02*
X134721550Y-86037150D01*
X136447200Y-89385668D02*
X136831873Y-89000995D01*
X145646706Y-95616652D02*
X145555248Y-95525194D01*
X143701176Y-93902800D02*
X143145503Y-93347127D01*
X135721550Y-86335335D02*
X135423365Y-86037150D01*
X137929995Y-93347127D02*
X136447200Y-91864332D01*
X136447200Y-91864332D02*
X136447200Y-89385668D01*
X145555248Y-95525194D02*
X145555248Y-94555248D01*
X136426465Y-87040250D02*
X135940250Y-87040250D01*
X143425000Y-94825000D02*
X142732449Y-94132449D01*
X143785514Y-96030938D02*
X147054004Y-96030938D01*
X137412683Y-94132449D02*
X135220000Y-91939766D01*
X143779247Y-96037205D02*
X143425000Y-95682958D01*
X143779247Y-96037205D02*
X143785514Y-96030938D01*
X142732449Y-94132449D02*
X137412683Y-94132449D01*
X135220000Y-91939766D02*
X135220000Y-87538700D01*
X143425000Y-95682958D02*
X143425000Y-94825000D01*
X147069004Y-96035938D02*
X147067737Y-96037205D01*
D14*
X140744004Y-102952007D02*
X140050000Y-103646011D01*
D16*
X137425000Y-98725000D02*
X136840229Y-99309771D01*
D14*
X150044297Y-99763455D02*
X149925000Y-99644158D01*
D15*
X132488415Y-106661585D02*
X133925000Y-105225000D01*
D17*
X132033841Y-99998324D02*
X132033841Y-100015779D01*
X132033841Y-100015779D02*
X133925000Y-101906938D01*
D14*
X140050000Y-103646011D02*
X140050000Y-107908700D01*
X149901706Y-99906046D02*
X150044297Y-99763455D01*
X145927895Y-107810809D02*
X146060000Y-107942914D01*
X140744004Y-102952007D02*
X140299078Y-103396933D01*
X140050000Y-107908700D02*
X140147891Y-107810809D01*
X148044004Y-107816986D02*
X148044004Y-108460938D01*
X148044004Y-107816986D02*
X150025000Y-106525000D01*
X148044004Y-107816986D02*
X146185928Y-107816986D01*
D17*
X133925000Y-101906938D02*
X133925000Y-105225000D01*
D14*
X149901706Y-106401706D02*
X149901706Y-99906046D01*
D16*
X136840229Y-104146937D02*
X137498358Y-104805066D01*
X136840229Y-99309771D02*
X136840229Y-104146937D01*
D14*
X149925000Y-97825000D02*
X150025000Y-97725000D01*
X149925000Y-99644158D02*
X149925000Y-97825000D01*
X140299078Y-103396933D02*
X140296933Y-103396933D01*
X146185928Y-107816986D02*
X146060000Y-107942914D01*
X140147891Y-107810809D02*
X145927895Y-107810809D01*
X150025000Y-106525000D02*
X149901706Y-106401706D01*
D15*
X132488415Y-107362188D02*
X132488415Y-106661585D01*
D14*
X156024539Y-106066207D02*
X156086023Y-106004723D01*
X156061435Y-109352459D02*
X156024539Y-109315563D01*
X156024539Y-109315563D02*
X156024539Y-106066207D01*
D13*
X136243379Y-99008766D02*
X135384359Y-98149746D01*
X133202589Y-97542083D02*
X133202589Y-97443020D01*
X136243379Y-105293347D02*
X136243379Y-99008766D01*
X133810252Y-98149746D02*
X133202589Y-97542083D01*
X138040000Y-105978700D02*
X137808728Y-105747428D01*
X137808728Y-105747428D02*
X136697460Y-105747428D01*
X135384359Y-98149746D02*
X133810252Y-98149746D01*
X136697460Y-105747428D02*
X136243379Y-105293347D01*
X136817126Y-105458528D02*
X138219086Y-105458528D01*
X133752456Y-97498758D02*
X134114544Y-97860846D01*
X138625000Y-105864442D02*
X138625000Y-106981934D01*
X136532279Y-105173681D02*
X136817126Y-105458528D01*
X139050000Y-107406934D02*
X139050000Y-107928700D01*
X138219086Y-105458528D02*
X138625000Y-105864442D01*
X136532279Y-98889100D02*
X136532279Y-105173681D01*
X138625000Y-106981934D02*
X139050000Y-107406934D01*
X134114544Y-97860846D02*
X135504025Y-97860846D01*
X135504025Y-97860846D02*
X136532279Y-98889100D01*
X136919617Y-106712809D02*
X136919617Y-106378151D01*
X137725000Y-107518192D02*
X136919617Y-106712809D01*
X135954479Y-105413013D02*
X135954479Y-99128432D01*
X136919617Y-106378151D02*
X135954479Y-105413013D01*
X137725000Y-107925000D02*
X137725000Y-107518192D01*
X133425000Y-97025000D02*
X133626181Y-97025000D01*
X133605023Y-98438646D02*
X132783139Y-97616762D01*
X133626181Y-97025000D02*
X134382966Y-96268215D01*
X133423570Y-97023570D02*
X133425000Y-97025000D01*
X132783139Y-97616762D02*
X132783139Y-97269278D01*
X132783139Y-97269278D02*
X133028847Y-97023570D01*
X135264693Y-98438646D02*
X133605023Y-98438646D01*
X133028847Y-97023570D02*
X133423570Y-97023570D01*
X135954479Y-99128432D02*
X135264693Y-98438646D01*
X148789528Y-92308228D02*
X141030398Y-91944763D01*
X150794004Y-93570938D02*
X150052238Y-93570938D01*
X140598390Y-91934650D02*
X137934649Y-91934650D01*
X150052238Y-93570938D02*
X148789528Y-92308228D01*
X137934649Y-91934650D02*
X137633878Y-91633879D01*
X141030398Y-91944763D02*
X140598390Y-91934650D01*
D16*
X132475189Y-97141720D02*
X132475189Y-97744320D01*
X134449315Y-95570938D02*
X133751292Y-96268961D01*
X133477466Y-98746596D02*
X133988611Y-98746596D01*
X133304633Y-96715620D02*
X132901289Y-96715620D01*
X132475189Y-97744320D02*
X133477466Y-98746596D01*
X133751292Y-96268961D02*
X133304633Y-96715620D01*
X132901289Y-96715620D02*
X132475189Y-97141720D01*
X133988611Y-98746596D02*
X134254134Y-99012119D01*
X135194004Y-95570938D02*
X134449315Y-95570938D01*
G04 #@! TA.AperFunction,Conductor*
G36*
X132725263Y-103339401D02*
G01*
X132848519Y-103355839D01*
X132859602Y-103358849D01*
X132973796Y-103406827D01*
X132983699Y-103412634D01*
X133081329Y-103488861D01*
X133089369Y-103497065D01*
X133163606Y-103596208D01*
X133169216Y-103606233D01*
X133215950Y-103724075D01*
X133217713Y-103729555D01*
X133290513Y-104020754D01*
X133291413Y-104025432D01*
X133316132Y-104207044D01*
X133316375Y-104216554D01*
X133301181Y-104396803D01*
X133299349Y-104406138D01*
X133245288Y-104578762D01*
X133241468Y-104587475D01*
X133151136Y-104744193D01*
X133145512Y-104751866D01*
X133021607Y-104886947D01*
X133018199Y-104890275D01*
X132907836Y-104986843D01*
X132904750Y-104989306D01*
X132762640Y-105092472D01*
X132755863Y-105096507D01*
X132599242Y-105171422D01*
X132591847Y-105174165D01*
X132424271Y-105219529D01*
X132416501Y-105220891D01*
X132241506Y-105235375D01*
X132237561Y-105235522D01*
X131907995Y-105232785D01*
X131901683Y-105232271D01*
X131783368Y-105213883D01*
X131771301Y-105210149D01*
X131666168Y-105159891D01*
X131655684Y-105152844D01*
X131569450Y-105074468D01*
X131561437Y-105064704D01*
X131516101Y-104989306D01*
X131501387Y-104964834D01*
X131496524Y-104953189D01*
X131467475Y-104839236D01*
X131466132Y-104828747D01*
X131465170Y-104650272D01*
X131465962Y-104641777D01*
X131477281Y-104583329D01*
X131500093Y-104465531D01*
X131502529Y-104457357D01*
X131523462Y-104406138D01*
X131570450Y-104291168D01*
X131574431Y-104283636D01*
X131674720Y-104132108D01*
X131677219Y-104128710D01*
X132066035Y-103650835D01*
X132069259Y-103647293D01*
X132196965Y-103521758D01*
X132204520Y-103515823D01*
X132354658Y-103422763D01*
X132363333Y-103418638D01*
X132530271Y-103360913D01*
X132539642Y-103358797D01*
X132714722Y-103339288D01*
X132725263Y-103339401D01*
G37*
G04 #@! TD.AperFunction*
G04 #@! TA.AperFunction,Conductor*
G36*
X131701752Y-87787862D02*
G01*
X131707754Y-87811360D01*
X131707754Y-88245613D01*
X131707753Y-88245627D01*
X131707753Y-88307235D01*
X131718787Y-88333872D01*
X131729821Y-88360510D01*
X131770596Y-88401285D01*
X131770597Y-88401285D01*
X131777488Y-88408176D01*
X131777487Y-88408176D01*
X131777489Y-88408177D01*
X132576798Y-89207486D01*
X132591150Y-89242134D01*
X132591150Y-92611877D01*
X132591149Y-92611891D01*
X132591149Y-92673499D01*
X132595640Y-92684340D01*
X132602183Y-92700136D01*
X132613217Y-92726774D01*
X132653992Y-92767549D01*
X132653993Y-92767549D01*
X132660884Y-92774440D01*
X132660883Y-92774440D01*
X132660885Y-92774441D01*
X133114968Y-93228524D01*
X133129320Y-93263172D01*
X133114968Y-93297820D01*
X133080320Y-93312172D01*
X132621300Y-93312172D01*
X132614229Y-93311659D01*
X132611040Y-93311194D01*
X132594982Y-93306646D01*
X132561587Y-93303981D01*
X132559997Y-93303750D01*
X132559467Y-93303434D01*
X132553513Y-93302351D01*
X132546305Y-93300276D01*
X132533748Y-93294651D01*
X132489579Y-93266833D01*
X132488255Y-93265968D01*
X132434362Y-93229540D01*
X132434335Y-93229523D01*
X132422344Y-93222522D01*
X132422332Y-93222516D01*
X132419593Y-93221150D01*
X132419577Y-93221143D01*
X132406755Y-93215775D01*
X132366956Y-93202117D01*
X132331692Y-93190015D01*
X132330825Y-93189748D01*
X132325201Y-93188018D01*
X132324315Y-93187777D01*
X132323746Y-93187622D01*
X132323744Y-93187621D01*
X132323741Y-93187621D01*
X132323675Y-93187611D01*
X132322514Y-93187286D01*
X132321047Y-93186887D01*
X132321049Y-93186877D01*
X132312344Y-93184446D01*
X132305529Y-93181623D01*
X132305526Y-93181622D01*
X132305525Y-93181622D01*
X132195925Y-93181622D01*
X132195923Y-93181622D01*
X132146446Y-93202117D01*
X132097193Y-93222519D01*
X132094665Y-93223566D01*
X132017169Y-93301062D01*
X132017168Y-93301063D01*
X132017168Y-93301064D01*
X132014856Y-93306646D01*
X131975225Y-93402320D01*
X131975225Y-93511923D01*
X131983456Y-93531793D01*
X132017168Y-93613180D01*
X132017169Y-93613181D01*
X132017170Y-93613183D01*
X132094664Y-93690677D01*
X132094665Y-93690677D01*
X132094667Y-93690679D01*
X132195925Y-93732622D01*
X132195927Y-93732622D01*
X132305523Y-93732622D01*
X132305525Y-93732622D01*
X132310561Y-93730535D01*
X132323081Y-93727541D01*
X132323053Y-93727378D01*
X132325415Y-93726960D01*
X132325416Y-93726959D01*
X132325423Y-93726959D01*
X132368708Y-93714833D01*
X132377258Y-93712040D01*
X132379124Y-93711341D01*
X132387398Y-93707832D01*
X132427730Y-93688665D01*
X132435460Y-93684591D01*
X132437141Y-93683614D01*
X132444567Y-93678873D01*
X132488835Y-93647930D01*
X132490666Y-93646713D01*
X132533052Y-93619864D01*
X132545492Y-93614236D01*
X132553026Y-93612028D01*
X132562839Y-93610213D01*
X132595128Y-93607598D01*
X132595129Y-93607597D01*
X132595134Y-93607597D01*
X132610031Y-93603682D01*
X132622487Y-93602072D01*
X133059654Y-93602072D01*
X133094302Y-93616424D01*
X134577167Y-95099289D01*
X134577170Y-95099293D01*
X134577171Y-95099293D01*
X134579962Y-95102084D01*
X134579963Y-95102086D01*
X134620738Y-95142861D01*
X134674014Y-95164928D01*
X134731678Y-95164928D01*
X135359264Y-95164928D01*
X135393912Y-95179280D01*
X135598998Y-95384366D01*
X135613350Y-95419014D01*
X135613350Y-95955163D01*
X135613349Y-95955166D01*
X135613349Y-96012830D01*
X135619878Y-96028591D01*
X135635417Y-96066106D01*
X135676192Y-96106881D01*
X135676193Y-96106881D01*
X135683084Y-96113772D01*
X135683083Y-96113772D01*
X135683085Y-96113773D01*
X137865698Y-98296386D01*
X137880050Y-98331034D01*
X137880050Y-99513302D01*
X137865698Y-99547950D01*
X137602119Y-99811528D01*
X137602114Y-99811536D01*
X137593989Y-99831153D01*
X137593989Y-99831154D01*
X137580049Y-99864804D01*
X137580049Y-99928171D01*
X137580050Y-99928180D01*
X137580050Y-99954427D01*
X137578196Y-99967779D01*
X137574525Y-99980738D01*
X137571986Y-100012554D01*
X137570229Y-100022210D01*
X137568155Y-100029415D01*
X137562530Y-100041972D01*
X137555987Y-100052361D01*
X137538707Y-100079800D01*
X137534703Y-100086157D01*
X137533836Y-100087485D01*
X137497423Y-100141354D01*
X137497401Y-100141388D01*
X137490405Y-100153370D01*
X137490397Y-100153384D01*
X137489030Y-100156126D01*
X137489023Y-100156142D01*
X137483655Y-100168964D01*
X137457890Y-100244042D01*
X137455904Y-100250491D01*
X137455511Y-100251934D01*
X137455495Y-100252040D01*
X137454950Y-100253987D01*
X137454772Y-100254643D01*
X137454768Y-100254641D01*
X137452332Y-100263361D01*
X137450787Y-100267093D01*
X137449500Y-100270200D01*
X137449500Y-100379800D01*
X137491443Y-100481058D01*
X137491444Y-100481059D01*
X137491445Y-100481061D01*
X137568939Y-100558555D01*
X137568940Y-100558555D01*
X137568942Y-100558557D01*
X137670200Y-100600500D01*
X137670202Y-100600500D01*
X137779798Y-100600500D01*
X137779800Y-100600500D01*
X137881058Y-100558557D01*
X137881060Y-100558555D01*
X137881061Y-100558555D01*
X137958555Y-100481061D01*
X137958555Y-100481060D01*
X137958557Y-100481058D01*
X138000500Y-100379800D01*
X138000500Y-100319351D01*
X138014852Y-100284703D01*
X138049500Y-100270351D01*
X138068249Y-100274080D01*
X138132031Y-100300500D01*
X138132033Y-100300500D01*
X138241629Y-100300500D01*
X138241631Y-100300500D01*
X138318972Y-100268464D01*
X138356472Y-100268464D01*
X138382991Y-100294982D01*
X138382991Y-100332485D01*
X138379045Y-100339874D01*
X138379129Y-100339927D01*
X138378682Y-100340636D01*
X138371686Y-100352618D01*
X138371678Y-100352632D01*
X138370311Y-100355374D01*
X138370304Y-100355390D01*
X138364936Y-100368212D01*
X138339171Y-100443290D01*
X138337185Y-100449739D01*
X138336792Y-100451182D01*
X138336776Y-100451288D01*
X138336244Y-100453192D01*
X138336053Y-100453891D01*
X138336049Y-100453889D01*
X138333613Y-100462609D01*
X138330781Y-100469448D01*
X138330781Y-100579048D01*
X138372724Y-100680306D01*
X138372725Y-100680307D01*
X138372726Y-100680309D01*
X138450220Y-100757803D01*
X138450221Y-100757803D01*
X138450223Y-100757805D01*
X138551481Y-100799748D01*
X138551483Y-100799748D01*
X138661079Y-100799748D01*
X138661081Y-100799748D01*
X138762339Y-100757805D01*
X138762341Y-100757803D01*
X138762342Y-100757803D01*
X138839836Y-100680309D01*
X138839836Y-100680308D01*
X138839838Y-100680306D01*
X138881781Y-100579048D01*
X138881781Y-100469448D01*
X138879693Y-100464408D01*
X138876699Y-100451890D01*
X138876537Y-100451919D01*
X138876119Y-100449556D01*
X138876118Y-100449553D01*
X138876118Y-100449549D01*
X138863992Y-100406264D01*
X138861199Y-100397714D01*
X138860500Y-100395848D01*
X138856992Y-100387574D01*
X138840387Y-100352632D01*
X138837822Y-100347234D01*
X138833761Y-100339532D01*
X138833750Y-100339511D01*
X138833504Y-100339088D01*
X138833496Y-100339029D01*
X138833278Y-100338615D01*
X138833430Y-100338534D01*
X138828497Y-100301924D01*
X138851237Y-100272101D01*
X138888404Y-100267093D01*
X138894611Y-100269189D01*
X138970200Y-100300500D01*
X138970202Y-100300500D01*
X139079798Y-100300500D01*
X139079800Y-100300500D01*
X139181058Y-100258557D01*
X139181060Y-100258555D01*
X139181061Y-100258555D01*
X139258555Y-100181061D01*
X139258555Y-100181060D01*
X139258557Y-100181058D01*
X139300500Y-100079800D01*
X139300500Y-99970200D01*
X139298412Y-99965160D01*
X139295418Y-99952642D01*
X139295256Y-99952671D01*
X139294838Y-99950308D01*
X139294837Y-99950305D01*
X139294837Y-99950301D01*
X139282711Y-99907016D01*
X139279918Y-99898466D01*
X139279219Y-99896600D01*
X139275711Y-99888326D01*
X139260404Y-99856115D01*
X139256541Y-99847986D01*
X139252474Y-99840272D01*
X139252469Y-99840263D01*
X139251492Y-99838582D01*
X139246750Y-99831155D01*
X139240551Y-99822287D01*
X139215832Y-99786922D01*
X139214598Y-99785069D01*
X139213358Y-99783112D01*
X139187740Y-99742666D01*
X139182113Y-99730227D01*
X139179904Y-99722686D01*
X139178091Y-99712883D01*
X139175476Y-99680597D01*
X139175475Y-99680593D01*
X139171559Y-99665691D01*
X139169950Y-99653237D01*
X139169950Y-98059542D01*
X139169951Y-98059533D01*
X139169951Y-97996170D01*
X139169950Y-97996166D01*
X139165745Y-97986015D01*
X139147883Y-97942892D01*
X139147881Y-97942890D01*
X139147881Y-97942889D01*
X136784302Y-95579310D01*
X136769950Y-95544662D01*
X136769950Y-95038700D01*
X136784302Y-95004052D01*
X136818950Y-94989700D01*
X136853596Y-95004051D01*
X137014346Y-95164800D01*
X137265698Y-95416152D01*
X137280050Y-95450800D01*
X137280050Y-95603122D01*
X137280049Y-95603136D01*
X137280049Y-95664744D01*
X137283628Y-95673384D01*
X137290626Y-95690277D01*
X137302117Y-95718019D01*
X137342892Y-95758794D01*
X137342893Y-95758794D01*
X137349784Y-95765685D01*
X137349783Y-95765685D01*
X137349785Y-95765686D01*
X137588581Y-96004482D01*
X137588584Y-96004486D01*
X137588585Y-96004486D01*
X137591376Y-96007277D01*
X137591377Y-96007279D01*
X137632152Y-96048054D01*
X137658442Y-96058943D01*
X137658443Y-96058944D01*
X137658444Y-96058944D01*
X137685427Y-96070121D01*
X137685428Y-96070121D01*
X138987742Y-96070121D01*
X138987744Y-96070122D01*
X139045408Y-96070122D01*
X139046075Y-96069845D01*
X139051534Y-96069822D01*
X139051574Y-96069838D01*
X139051744Y-96069822D01*
X139982505Y-96069822D01*
X139982513Y-96069823D01*
X139988214Y-96069823D01*
X140045877Y-96069823D01*
X140045878Y-96069823D01*
X140072516Y-96058788D01*
X140099154Y-96047755D01*
X140139929Y-96006980D01*
X140139929Y-96006979D01*
X140146818Y-96000090D01*
X140146820Y-96000087D01*
X140660010Y-95486896D01*
X140664727Y-95482750D01*
X140667411Y-95480679D01*
X140682797Y-95471897D01*
X140714479Y-95444381D01*
X140715611Y-95443509D01*
X140716092Y-95443378D01*
X140720600Y-95440130D01*
X140736684Y-95430627D01*
X140746009Y-95426366D01*
X140790130Y-95411566D01*
X140790596Y-95411413D01*
X140849826Y-95392473D01*
X140858967Y-95389077D01*
X140860957Y-95388231D01*
X140869764Y-95383994D01*
X140936069Y-95348231D01*
X140940176Y-95345896D01*
X140941068Y-95345362D01*
X140941077Y-95345353D01*
X140941233Y-95345236D01*
X140942340Y-95344600D01*
X140943369Y-95343985D01*
X140943380Y-95344004D01*
X140952094Y-95339005D01*
X140956075Y-95337357D01*
X141033574Y-95259858D01*
X141075517Y-95158600D01*
X141075517Y-95049000D01*
X141033574Y-94947742D01*
X141033572Y-94947740D01*
X141033572Y-94947739D01*
X140956078Y-94870245D01*
X140956076Y-94870244D01*
X140956075Y-94870243D01*
X140896761Y-94845674D01*
X140854818Y-94828300D01*
X140854817Y-94828300D01*
X140745217Y-94828300D01*
X140745215Y-94828300D01*
X140661329Y-94863048D01*
X140656296Y-94865133D01*
X140643957Y-94870244D01*
X140563047Y-94951154D01*
X140561863Y-94949970D01*
X140536291Y-94967055D01*
X140499509Y-94959736D01*
X140485992Y-94946217D01*
X140483594Y-94942628D01*
X140406099Y-94865133D01*
X140406097Y-94865132D01*
X140406096Y-94865131D01*
X140346782Y-94840562D01*
X140304839Y-94823188D01*
X140304838Y-94823188D01*
X140195238Y-94823188D01*
X140195236Y-94823188D01*
X140093978Y-94865132D01*
X140016482Y-94942628D01*
X139974538Y-95043886D01*
X139974538Y-95053802D01*
X139972651Y-95067268D01*
X139972185Y-95068895D01*
X139972185Y-95068899D01*
X139963995Y-95168293D01*
X139963897Y-95169351D01*
X139959144Y-95214934D01*
X139947764Y-95241562D01*
X139930043Y-95262437D01*
X139922303Y-95275711D01*
X139914623Y-95285675D01*
X139723630Y-95476670D01*
X139688982Y-95491022D01*
X138272675Y-95491022D01*
X138272673Y-95491021D01*
X138215009Y-95491021D01*
X138214341Y-95491297D01*
X138208883Y-95491321D01*
X138208842Y-95491304D01*
X138208673Y-95491321D01*
X137914262Y-95491321D01*
X137879614Y-95476969D01*
X137784302Y-95381657D01*
X137769950Y-95347009D01*
X137769950Y-95133065D01*
X137755961Y-95099293D01*
X137747883Y-95079790D01*
X137707108Y-95039015D01*
X137707106Y-95039014D01*
X137704315Y-95036223D01*
X137704315Y-95036222D01*
X137704311Y-95036219D01*
X137289598Y-94621506D01*
X137275246Y-94586858D01*
X137289598Y-94552210D01*
X137324246Y-94537858D01*
X142512572Y-94537858D01*
X142547220Y-94552210D01*
X143014989Y-95019979D01*
X143029341Y-95054627D01*
X143029341Y-95808026D01*
X143029340Y-95808040D01*
X143029340Y-95811983D01*
X143029340Y-95869647D01*
X143039082Y-95893164D01*
X143051408Y-95922923D01*
X143092183Y-95963698D01*
X143092184Y-95963698D01*
X143099075Y-95970589D01*
X143099074Y-95970589D01*
X143099076Y-95970590D01*
X143664452Y-96535966D01*
X143664455Y-96535970D01*
X143664456Y-96535970D01*
X143667247Y-96538761D01*
X143667248Y-96538763D01*
X143708023Y-96579538D01*
X143761299Y-96601605D01*
X146283434Y-96601605D01*
X146290504Y-96602118D01*
X146293688Y-96602582D01*
X146309745Y-96607130D01*
X146343159Y-96609795D01*
X146344733Y-96610025D01*
X146345263Y-96610341D01*
X146351212Y-96611423D01*
X146358424Y-96613499D01*
X146370978Y-96619123D01*
X146384960Y-96627929D01*
X146415136Y-96646934D01*
X146416463Y-96647800D01*
X146470375Y-96684241D01*
X146470381Y-96684245D01*
X146482391Y-96691257D01*
X146482400Y-96691261D01*
X146482401Y-96691262D01*
X146485134Y-96692625D01*
X146485141Y-96692628D01*
X146485145Y-96692630D01*
X146497971Y-96698000D01*
X146573027Y-96723758D01*
X146573041Y-96723762D01*
X146573046Y-96723764D01*
X146579489Y-96725748D01*
X146580504Y-96726024D01*
X146580946Y-96726145D01*
X146580957Y-96726145D01*
X146581035Y-96726158D01*
X146582809Y-96726653D01*
X146583643Y-96726881D01*
X146583641Y-96726886D01*
X146592369Y-96729324D01*
X146599204Y-96732155D01*
X146599206Y-96732155D01*
X146708802Y-96732155D01*
X146708804Y-96732155D01*
X146810062Y-96690212D01*
X146810064Y-96690210D01*
X146810065Y-96690210D01*
X146887559Y-96612716D01*
X146887559Y-96612715D01*
X146887561Y-96612713D01*
X146929504Y-96511455D01*
X146929504Y-96401855D01*
X146913715Y-96363737D01*
X146913715Y-96348001D01*
X146911629Y-96332400D01*
X146913715Y-96329670D01*
X146913715Y-96326236D01*
X146924843Y-96315107D01*
X146934400Y-96302601D01*
X146937728Y-96302221D01*
X146940233Y-96299717D01*
X146971572Y-96297631D01*
X146972726Y-96297937D01*
X146973027Y-96298041D01*
X146979495Y-96300032D01*
X146980946Y-96300428D01*
X146982285Y-96300478D01*
X146986203Y-96301520D01*
X146986955Y-96302094D01*
X146992369Y-96303607D01*
X146999204Y-96306438D01*
X146999206Y-96306438D01*
X147108802Y-96306438D01*
X147108804Y-96306438D01*
X147210062Y-96264495D01*
X147210064Y-96264493D01*
X147210065Y-96264493D01*
X147287559Y-96186999D01*
X147287559Y-96186998D01*
X147287561Y-96186996D01*
X147329504Y-96085738D01*
X147329504Y-95976138D01*
X147287561Y-95874880D01*
X147287559Y-95874878D01*
X147287559Y-95874877D01*
X147210065Y-95797383D01*
X147210063Y-95797382D01*
X147210062Y-95797381D01*
X147133545Y-95765686D01*
X147108805Y-95755438D01*
X147108804Y-95755438D01*
X146999204Y-95755438D01*
X146999203Y-95755438D01*
X146994155Y-95757528D01*
X146981641Y-95760521D01*
X146981670Y-95760683D01*
X146979299Y-95761101D01*
X146936029Y-95773223D01*
X146927485Y-95776013D01*
X146925623Y-95776709D01*
X146917348Y-95780218D01*
X146876992Y-95799396D01*
X146869232Y-95803487D01*
X146867574Y-95804451D01*
X146860171Y-95809179D01*
X146815929Y-95840101D01*
X146814080Y-95841332D01*
X146791335Y-95855740D01*
X146771672Y-95868194D01*
X146759234Y-95873821D01*
X146751698Y-95876029D01*
X146741887Y-95877844D01*
X146709604Y-95880459D01*
X146694697Y-95884378D01*
X146682239Y-95885988D01*
X146434762Y-95885988D01*
X146400114Y-95871636D01*
X146385762Y-95836988D01*
X146400114Y-95802340D01*
X146430263Y-95772191D01*
X146430263Y-95772190D01*
X146430265Y-95772188D01*
X146472208Y-95670930D01*
X146472208Y-95561330D01*
X146430265Y-95460072D01*
X146430263Y-95460070D01*
X146430263Y-95460069D01*
X146352767Y-95382573D01*
X146335906Y-95375588D01*
X146326558Y-95370460D01*
X146323698Y-95368457D01*
X146259795Y-95340340D01*
X146252185Y-95337381D01*
X146251203Y-95336999D01*
X146251149Y-95336980D01*
X146249284Y-95336347D01*
X146240430Y-95333768D01*
X146230096Y-95331242D01*
X146199849Y-95309071D01*
X146192735Y-95283644D01*
X146192735Y-94582326D01*
X146192736Y-94582317D01*
X146192736Y-94518955D01*
X146192735Y-94518951D01*
X146191840Y-94516791D01*
X146170668Y-94465677D01*
X146170666Y-94465675D01*
X146170666Y-94465674D01*
X145258588Y-93553598D01*
X145244236Y-93518950D01*
X145258588Y-93484302D01*
X145293236Y-93469950D01*
X146644664Y-93469950D01*
X146679312Y-93484302D01*
X147894082Y-94699072D01*
X147908434Y-94733720D01*
X147908434Y-95174848D01*
X147907938Y-95181805D01*
X147907477Y-95185012D01*
X147902911Y-95201224D01*
X147900204Y-95235725D01*
X147899979Y-95237295D01*
X147899673Y-95237810D01*
X147898620Y-95243692D01*
X147896131Y-95252479D01*
X147890846Y-95264596D01*
X147864119Y-95308520D01*
X147863356Y-95309733D01*
X147828185Y-95363898D01*
X147828181Y-95363905D01*
X147821671Y-95375466D01*
X147821668Y-95375471D01*
X147820393Y-95378113D01*
X147815394Y-95390375D01*
X147790292Y-95465047D01*
X147788416Y-95471256D01*
X147788047Y-95472626D01*
X147788032Y-95472731D01*
X147787641Y-95474134D01*
X147787325Y-95475312D01*
X147787315Y-95475309D01*
X147784850Y-95484180D01*
X147782222Y-95490525D01*
X147782222Y-95600127D01*
X147790277Y-95619573D01*
X147824165Y-95701384D01*
X147824166Y-95701385D01*
X147824167Y-95701387D01*
X147901661Y-95778881D01*
X147901662Y-95778881D01*
X147901664Y-95778883D01*
X148002922Y-95820826D01*
X148002924Y-95820826D01*
X148112520Y-95820826D01*
X148112522Y-95820826D01*
X148213780Y-95778883D01*
X148213782Y-95778881D01*
X148213783Y-95778881D01*
X148291277Y-95701387D01*
X148291277Y-95701386D01*
X148291279Y-95701384D01*
X148333222Y-95600126D01*
X148333222Y-95490526D01*
X148291279Y-95389268D01*
X148291277Y-95389266D01*
X148291277Y-95389265D01*
X148290931Y-95388919D01*
X148285492Y-95382450D01*
X148282995Y-95378898D01*
X148282194Y-95377116D01*
X148248067Y-95329211D01*
X148248018Y-95329141D01*
X148248012Y-95329115D01*
X148246368Y-95326634D01*
X148246125Y-95326239D01*
X148215118Y-95275828D01*
X148209197Y-95261545D01*
X148207211Y-95253228D01*
X148205944Y-95244491D01*
X148203776Y-95204105D01*
X148201088Y-95192956D01*
X148199699Y-95187192D01*
X148198334Y-95175708D01*
X148198334Y-94687926D01*
X148198335Y-94687917D01*
X148198335Y-94624554D01*
X148198334Y-94624550D01*
X148197073Y-94621506D01*
X148176267Y-94571276D01*
X148176265Y-94571274D01*
X148176265Y-94571273D01*
X146854775Y-93249785D01*
X146854774Y-93249783D01*
X146854774Y-93249784D01*
X146847883Y-93242892D01*
X146807108Y-93202117D01*
X146780470Y-93191083D01*
X146773071Y-93188018D01*
X146753833Y-93180049D01*
X146753832Y-93180049D01*
X146696168Y-93180049D01*
X146690467Y-93180049D01*
X146690459Y-93180050D01*
X144005337Y-93180050D01*
X143970689Y-93165698D01*
X143554775Y-92749785D01*
X143554774Y-92749783D01*
X143554774Y-92749784D01*
X143547883Y-92742892D01*
X143507108Y-92702117D01*
X143480470Y-92691083D01*
X143453833Y-92680049D01*
X143453832Y-92680049D01*
X143396168Y-92680049D01*
X143390467Y-92680049D01*
X143390459Y-92680050D01*
X138305336Y-92680050D01*
X138270688Y-92665698D01*
X137625329Y-92020339D01*
X137623178Y-92015147D01*
X137618582Y-92011911D01*
X137616232Y-91998377D01*
X137610977Y-91985691D01*
X137613127Y-91980499D01*
X137612166Y-91974961D01*
X137620073Y-91963729D01*
X137625329Y-91951043D01*
X137630520Y-91948892D01*
X137633757Y-91944296D01*
X137647290Y-91941946D01*
X137659977Y-91936691D01*
X137670707Y-91937880D01*
X137718442Y-91948593D01*
X137731217Y-91953410D01*
X137738095Y-91957171D01*
X137746320Y-91962828D01*
X137771003Y-91983811D01*
X137781391Y-91989875D01*
X137784316Y-91991583D01*
X137794261Y-91999252D01*
X137808970Y-92013961D01*
X137808973Y-92013965D01*
X137808974Y-92013965D01*
X137811765Y-92016756D01*
X137811766Y-92016758D01*
X137852541Y-92057533D01*
X137881515Y-92069534D01*
X137905816Y-92079600D01*
X137905817Y-92079600D01*
X140596084Y-92079600D01*
X140597231Y-92079613D01*
X141024796Y-92089620D01*
X141025890Y-92089660D01*
X148707759Y-92449505D01*
X148740113Y-92463803D01*
X149970127Y-93693819D01*
X149970128Y-93693819D01*
X149970130Y-93693821D01*
X150023406Y-93715889D01*
X150023408Y-93715889D01*
X150086772Y-93715889D01*
X150086780Y-93715888D01*
X150276462Y-93715888D01*
X150281524Y-93716150D01*
X150285198Y-93716531D01*
X150303746Y-93721348D01*
X150366441Y-93724970D01*
X150367536Y-93725084D01*
X150367925Y-93725295D01*
X150374018Y-93726202D01*
X150399646Y-93732422D01*
X150413133Y-93737925D01*
X150465509Y-93769089D01*
X150470744Y-93772684D01*
X150487783Y-93786092D01*
X150487849Y-93786143D01*
X150489046Y-93787071D01*
X150489304Y-93787268D01*
X150490468Y-93788143D01*
X150534412Y-93820692D01*
X150582480Y-93856296D01*
X150584426Y-93857704D01*
X150584449Y-93857720D01*
X150584858Y-93858009D01*
X150584859Y-93858010D01*
X150597656Y-93863528D01*
X150603461Y-93866032D01*
X150608553Y-93868590D01*
X150658714Y-93897551D01*
X150658716Y-93897552D01*
X150681002Y-93903523D01*
X150747857Y-93921438D01*
X150747860Y-93921438D01*
X150840150Y-93921438D01*
X150884720Y-93909495D01*
X150929292Y-93897552D01*
X151009216Y-93851407D01*
X151074473Y-93786150D01*
X151120618Y-93706226D01*
X151136236Y-93647938D01*
X151144504Y-93617084D01*
X151144504Y-93524791D01*
X151120618Y-93435651D01*
X151120617Y-93435648D01*
X151101376Y-93402322D01*
X151074473Y-93355726D01*
X151009216Y-93290469D01*
X151000745Y-93285578D01*
X150929293Y-93244324D01*
X150929290Y-93244323D01*
X150840151Y-93220438D01*
X150840148Y-93220438D01*
X150747860Y-93220438D01*
X150747857Y-93220438D01*
X150658717Y-93244323D01*
X150658713Y-93244324D01*
X150610476Y-93272175D01*
X150606898Y-93274049D01*
X150582480Y-93285578D01*
X150582479Y-93285579D01*
X150503160Y-93344332D01*
X150490361Y-93353812D01*
X150489891Y-93354164D01*
X150489328Y-93354586D01*
X150447937Y-93386014D01*
X150441796Y-93389990D01*
X150418393Y-93402774D01*
X150407231Y-93407196D01*
X150376772Y-93415114D01*
X150367432Y-93416599D01*
X150303361Y-93420513D01*
X150289435Y-93423952D01*
X150286979Y-93424559D01*
X150275233Y-93425988D01*
X150132575Y-93425988D01*
X150097927Y-93411636D01*
X149047948Y-92361658D01*
X149033596Y-92327010D01*
X149047948Y-92292362D01*
X149082596Y-92278010D01*
X149084857Y-92278063D01*
X157720025Y-92682565D01*
X157720026Y-92682566D01*
X157755540Y-92684229D01*
X157760176Y-92684668D01*
X157905662Y-92705477D01*
X157914721Y-92707668D01*
X158051404Y-92754878D01*
X158059885Y-92758745D01*
X158185158Y-92830983D01*
X158192753Y-92836386D01*
X158302080Y-92931038D01*
X158308514Y-92937781D01*
X158397940Y-93051423D01*
X158402981Y-93059263D01*
X158469269Y-93187777D01*
X158472735Y-93196429D01*
X158513492Y-93335180D01*
X158515256Y-93344332D01*
X158529277Y-93491168D01*
X158529499Y-93495825D01*
X158529499Y-93506788D01*
X158529498Y-93530836D01*
X158529499Y-93530839D01*
X158529500Y-93536546D01*
X158529500Y-109949729D01*
X158529499Y-109949743D01*
X158529499Y-109989121D01*
X158529252Y-109994031D01*
X158513732Y-110148131D01*
X158511773Y-110157757D01*
X158466560Y-110303308D01*
X158462720Y-110312350D01*
X158389384Y-110445954D01*
X158383818Y-110454048D01*
X158285306Y-110570341D01*
X158278238Y-110577162D01*
X158158508Y-110671470D01*
X158150221Y-110676744D01*
X158014087Y-110745275D01*
X158004914Y-110748790D01*
X157855718Y-110789368D01*
X157850914Y-110790419D01*
X153595443Y-111499665D01*
X153529443Y-111510665D01*
X153513482Y-111513325D01*
X153505592Y-111514640D01*
X153504594Y-111514795D01*
X153105292Y-111572900D01*
X153103284Y-111573150D01*
X152702478Y-111614666D01*
X152700462Y-111614833D01*
X152298289Y-111639770D01*
X152296268Y-111639854D01*
X151993957Y-111646095D01*
X151892462Y-111648190D01*
X151891471Y-111648200D01*
X135734868Y-111648200D01*
X135731937Y-111648112D01*
X135460522Y-111631847D01*
X135454702Y-111631147D01*
X135188617Y-111582848D01*
X135182923Y-111581458D01*
X134924505Y-111501725D01*
X134919017Y-111499665D01*
X134671965Y-111389638D01*
X134666762Y-111386936D01*
X134434632Y-111248200D01*
X134429789Y-111244897D01*
X134215883Y-111079427D01*
X134211469Y-111075569D01*
X134017864Y-110884760D01*
X134015838Y-110882640D01*
X133932475Y-110790015D01*
X131700358Y-108309885D01*
X131700358Y-108309884D01*
X131678375Y-108285458D01*
X131676003Y-108282822D01*
X131676002Y-108282821D01*
X131674072Y-108280540D01*
X131539411Y-108111177D01*
X131535988Y-108106286D01*
X131535699Y-108105815D01*
X131423747Y-107923054D01*
X131420941Y-107917775D01*
X131396152Y-107863361D01*
X131361966Y-107788317D01*
X131331862Y-107722235D01*
X131329719Y-107716651D01*
X131327728Y-107710334D01*
X131265122Y-107511697D01*
X131263684Y-107505924D01*
X131224541Y-107294632D01*
X131223813Y-107288701D01*
X131223343Y-107281015D01*
X131210590Y-107072329D01*
X131210500Y-107069344D01*
X131210500Y-107064042D01*
X131210501Y-107033342D01*
X131210500Y-107033339D01*
X131210500Y-104650860D01*
X131359671Y-104650860D01*
X131360633Y-104829317D01*
X131360634Y-104829330D01*
X131361484Y-104842129D01*
X131361485Y-104842144D01*
X131362828Y-104852634D01*
X131362830Y-104852644D01*
X131365246Y-104865311D01*
X131394289Y-104979237D01*
X131394291Y-104979245D01*
X131394293Y-104979250D01*
X131399089Y-104993597D01*
X131399174Y-104993850D01*
X131403773Y-105004861D01*
X131407558Y-105023744D01*
X131407558Y-107383514D01*
X131428037Y-107459940D01*
X131428037Y-107459942D01*
X131456280Y-107508859D01*
X131467594Y-107528456D01*
X131467596Y-107528458D01*
X131467598Y-107528462D01*
X131467601Y-107528465D01*
X133180291Y-109241155D01*
X133184709Y-109246225D01*
X133200689Y-109267331D01*
X133228915Y-109292410D01*
X133252109Y-109313018D01*
X133258336Y-109318138D01*
X133258339Y-109318140D01*
X133259769Y-109319227D01*
X133266438Y-109323902D01*
X133266443Y-109323905D01*
X133319519Y-109358132D01*
X133319523Y-109358134D01*
X133332339Y-109365191D01*
X133335278Y-109366553D01*
X133335295Y-109366559D01*
X133335306Y-109366564D01*
X133348957Y-109371772D01*
X133348959Y-109371773D01*
X133404996Y-109388801D01*
X133439003Y-109399135D01*
X133455046Y-109402674D01*
X133458638Y-109403177D01*
X133474981Y-109404182D01*
X133586907Y-109402366D01*
X133586939Y-109402365D01*
X133587021Y-109402364D01*
X133587861Y-109402346D01*
X133587961Y-109402344D01*
X133588266Y-109402336D01*
X133589961Y-109402278D01*
X133589989Y-109402276D01*
X133590013Y-109402276D01*
X133614992Y-109401218D01*
X133690044Y-109398042D01*
X133697308Y-109398274D01*
X133817834Y-109411154D01*
X133824710Y-109410695D01*
X133840658Y-109412255D01*
X133842271Y-109412688D01*
X133842272Y-109412688D01*
X133934561Y-109412688D01*
X133979131Y-109400745D01*
X134023703Y-109388802D01*
X134103627Y-109342657D01*
X134139969Y-109306315D01*
X155710935Y-109306315D01*
X155710935Y-109308651D01*
X155710935Y-109398605D01*
X155734820Y-109487745D01*
X155734821Y-109487748D01*
X155777865Y-109562301D01*
X155780966Y-109567671D01*
X155846223Y-109632928D01*
X155926147Y-109679073D01*
X155948433Y-109685044D01*
X156015288Y-109702959D01*
X156015291Y-109702959D01*
X156107581Y-109702959D01*
X156152151Y-109691016D01*
X156196723Y-109679073D01*
X156276647Y-109632928D01*
X156341904Y-109567671D01*
X156388049Y-109487747D01*
X156408572Y-109411154D01*
X156411935Y-109398605D01*
X156411935Y-109306317D01*
X156411935Y-109306315D01*
X156408206Y-109292403D01*
X156406623Y-109282606D01*
X156406316Y-109277400D01*
X156405773Y-109268173D01*
X156405592Y-109265096D01*
X156405591Y-109265091D01*
X156405591Y-109265087D01*
X156389549Y-109203610D01*
X156389542Y-109203582D01*
X156387603Y-109197034D01*
X156387430Y-109196514D01*
X156387116Y-109195568D01*
X156384756Y-109189160D01*
X156362154Y-109133422D01*
X156362146Y-109133403D01*
X156359115Y-109126626D01*
X156358377Y-109125122D01*
X156358375Y-109125118D01*
X156354859Y-109118549D01*
X156313351Y-109047170D01*
X156312449Y-109045548D01*
X156273030Y-108971397D01*
X156268743Y-108960214D01*
X156260987Y-108929000D01*
X156259660Y-108920576D01*
X156255540Y-108860890D01*
X156251539Y-108845091D01*
X156250039Y-108833062D01*
X156250039Y-106517654D01*
X156250394Y-106511766D01*
X156250814Y-106508291D01*
X156255534Y-106490769D01*
X156258736Y-106442843D01*
X156258894Y-106441539D01*
X156259094Y-106441182D01*
X156259841Y-106436208D01*
X156260066Y-106435249D01*
X156265112Y-106413797D01*
X156269659Y-106401804D01*
X156298106Y-106348939D01*
X156302343Y-106342382D01*
X156315862Y-106324730D01*
X156317498Y-106322536D01*
X156317860Y-106322037D01*
X156319492Y-106319723D01*
X156374071Y-106240075D01*
X156379195Y-106231803D01*
X156380244Y-106229921D01*
X156384577Y-106221229D01*
X156408063Y-106168125D01*
X156411010Y-106160718D01*
X156411603Y-106159046D01*
X156413998Y-106151377D01*
X156429782Y-106093135D01*
X156430627Y-106089804D01*
X156430800Y-106089072D01*
X156431043Y-106076835D01*
X156432703Y-106065122D01*
X156433636Y-106061640D01*
X156436523Y-106050867D01*
X156436523Y-105958579D01*
X156436523Y-105958576D01*
X156414138Y-105875037D01*
X156412637Y-105869435D01*
X156366492Y-105789511D01*
X156301235Y-105724254D01*
X156295865Y-105721153D01*
X156221312Y-105678109D01*
X156221309Y-105678108D01*
X156132170Y-105654223D01*
X156132167Y-105654223D01*
X156039879Y-105654223D01*
X156039876Y-105654223D01*
X155950736Y-105678108D01*
X155950733Y-105678109D01*
X155870817Y-105724250D01*
X155870807Y-105724257D01*
X155805557Y-105789507D01*
X155805550Y-105789517D01*
X155759409Y-105869433D01*
X155759408Y-105869436D01*
X155735523Y-105958576D01*
X155735523Y-106050869D01*
X155738219Y-106060933D01*
X155739884Y-106073018D01*
X155740051Y-106086867D01*
X155763483Y-106197638D01*
X155763720Y-106198829D01*
X155786391Y-106320860D01*
X155787175Y-106327821D01*
X155793670Y-106487710D01*
X155797784Y-106505537D01*
X155799039Y-106516555D01*
X155799039Y-108836130D01*
X155797668Y-108847640D01*
X155793670Y-108864183D01*
X155793668Y-108864193D01*
X155789797Y-108959118D01*
X155789218Y-108964890D01*
X155779138Y-109027660D01*
X155777957Y-109033053D01*
X155759694Y-109098544D01*
X155759370Y-109099726D01*
X155759350Y-109099802D01*
X155759290Y-109100027D01*
X155758998Y-109101149D01*
X155758970Y-109101256D01*
X155758965Y-109101278D01*
X155732731Y-109204184D01*
X155732731Y-109204185D01*
X155717048Y-109265697D01*
X155716444Y-109268193D01*
X155716320Y-109268732D01*
X155716320Y-109268735D01*
X155716109Y-109281343D01*
X155714773Y-109290876D01*
X155714875Y-109291479D01*
X155714670Y-109292372D01*
X155710935Y-109306315D01*
X134139969Y-109306315D01*
X134168884Y-109277400D01*
X134215029Y-109197476D01*
X134234416Y-109125122D01*
X134238915Y-109108334D01*
X134238915Y-109016041D01*
X134221000Y-108949186D01*
X134215029Y-108926900D01*
X134213841Y-108924843D01*
X134178821Y-108864187D01*
X134168884Y-108846976D01*
X134103627Y-108781719D01*
X134068933Y-108761688D01*
X134023704Y-108735574D01*
X134023701Y-108735573D01*
X133934562Y-108711688D01*
X133934559Y-108711688D01*
X133842271Y-108711688D01*
X133842270Y-108711688D01*
X133815669Y-108718814D01*
X133813784Y-108719320D01*
X133787642Y-108724133D01*
X133770723Y-108730857D01*
X133767961Y-108731598D01*
X133767960Y-108731597D01*
X133754811Y-108735122D01*
X133753127Y-108735574D01*
X133753126Y-108735574D01*
X133753124Y-108735575D01*
X133753123Y-108735575D01*
X133743527Y-108741115D01*
X133738368Y-108743701D01*
X133737721Y-108743978D01*
X133720052Y-108751004D01*
X133708519Y-108756417D01*
X133707625Y-108756904D01*
X133705747Y-108757711D01*
X133702912Y-108757747D01*
X133686410Y-108761688D01*
X133571062Y-108761688D01*
X133536414Y-108747336D01*
X132568708Y-107779630D01*
X132554356Y-107744982D01*
X132568708Y-107710334D01*
X132590674Y-107697652D01*
X132614809Y-107691185D01*
X132623703Y-107688802D01*
X132703627Y-107642657D01*
X132768884Y-107577400D01*
X132815029Y-107497476D01*
X132827048Y-107452622D01*
X132838915Y-107408334D01*
X132838915Y-107316044D01*
X132836473Y-107306930D01*
X132834864Y-107296682D01*
X132834804Y-107295482D01*
X132834803Y-107281380D01*
X132834458Y-107279651D01*
X132800083Y-107081119D01*
X132799383Y-107074048D01*
X132799338Y-107072333D01*
X132794178Y-106875618D01*
X132790054Y-106856826D01*
X132788915Y-106846322D01*
X132788915Y-106806351D01*
X132803266Y-106771704D01*
X133773115Y-105801854D01*
X133781613Y-105795064D01*
X133797149Y-105785264D01*
X133941146Y-105648628D01*
X133946634Y-105644130D01*
X134111271Y-105528092D01*
X134112794Y-105527076D01*
X134122854Y-105517034D01*
X134123732Y-105516242D01*
X134124518Y-105515961D01*
X134132092Y-105510156D01*
X134140212Y-105505469D01*
X134205469Y-105440212D01*
X134251614Y-105360288D01*
X134264130Y-105313577D01*
X134275500Y-105271146D01*
X134275500Y-105178858D01*
X134275500Y-105178856D01*
X134270552Y-105160394D01*
X134269182Y-105153114D01*
X134266838Y-105131958D01*
X134266837Y-105131953D01*
X134266750Y-105131679D01*
X134229771Y-105014959D01*
X134227806Y-105008756D01*
X134224373Y-104999465D01*
X134224372Y-104999463D01*
X134224367Y-104999449D01*
X134223511Y-104997430D01*
X134219239Y-104988537D01*
X134217731Y-104985741D01*
X134205154Y-104962417D01*
X134185021Y-104925084D01*
X134184055Y-104923191D01*
X134147302Y-104847230D01*
X134143624Y-104836729D01*
X134143497Y-104836169D01*
X134135944Y-104802872D01*
X134134830Y-104795134D01*
X134130983Y-104734127D01*
X134126947Y-104717888D01*
X134125500Y-104706069D01*
X134125500Y-101867058D01*
X134125499Y-101867054D01*
X134094976Y-101793364D01*
X134038574Y-101736962D01*
X132533029Y-100231417D01*
X132529395Y-100227355D01*
X132527154Y-100224550D01*
X132517723Y-100208369D01*
X132481477Y-100167380D01*
X132480715Y-100166426D01*
X132480617Y-100166088D01*
X132477780Y-100162338D01*
X132461791Y-100137461D01*
X132456698Y-100126966D01*
X132450624Y-100109374D01*
X132433329Y-100059289D01*
X132431782Y-100053778D01*
X132429613Y-100043852D01*
X132429004Y-100041227D01*
X132428867Y-100040669D01*
X132428244Y-100038255D01*
X132403994Y-99948679D01*
X132400455Y-99937929D01*
X132399542Y-99935587D01*
X132394844Y-99925225D01*
X132341305Y-99822287D01*
X132341296Y-99822270D01*
X132338618Y-99817435D01*
X132337991Y-99816372D01*
X132337992Y-99816372D01*
X132337328Y-99815667D01*
X132330303Y-99808201D01*
X132323556Y-99799126D01*
X132314313Y-99783117D01*
X132314312Y-99783116D01*
X132314310Y-99783112D01*
X132249053Y-99717855D01*
X132230216Y-99706979D01*
X132169130Y-99671710D01*
X132169127Y-99671709D01*
X132079988Y-99647824D01*
X132079985Y-99647824D01*
X131987697Y-99647824D01*
X131987694Y-99647824D01*
X131898554Y-99671709D01*
X131898551Y-99671710D01*
X131818635Y-99717851D01*
X131818625Y-99717858D01*
X131753375Y-99783108D01*
X131753368Y-99783118D01*
X131707227Y-99863034D01*
X131707226Y-99863037D01*
X131683341Y-99952177D01*
X131683341Y-100044470D01*
X131707226Y-100133610D01*
X131707227Y-100133613D01*
X131733714Y-100179488D01*
X131753372Y-100213536D01*
X131818629Y-100278793D01*
X131834558Y-100287989D01*
X131840938Y-100292382D01*
X131857091Y-100305508D01*
X131883294Y-100319351D01*
X131977296Y-100369014D01*
X131983210Y-100371841D01*
X131984920Y-100372659D01*
X131986129Y-100373178D01*
X131986655Y-100373405D01*
X131994512Y-100376416D01*
X131994523Y-100376419D01*
X131994529Y-100376422D01*
X132051714Y-100395747D01*
X132053934Y-100396559D01*
X132133255Y-100427769D01*
X132142324Y-100432482D01*
X132170641Y-100451190D01*
X132173672Y-100453192D01*
X132179292Y-100457520D01*
X132226057Y-100499261D01*
X132226058Y-100499261D01*
X132226062Y-100499265D01*
X132240738Y-100508192D01*
X132249918Y-100515406D01*
X133710148Y-101975636D01*
X133724500Y-102010284D01*
X133724500Y-104707387D01*
X133724221Y-104712609D01*
X133723833Y-104716228D01*
X133719035Y-104734636D01*
X133715612Y-104792928D01*
X133715486Y-104794109D01*
X133715329Y-104794395D01*
X133714727Y-104798920D01*
X133708117Y-104830520D01*
X133704475Y-104841386D01*
X133665379Y-104924294D01*
X133664472Y-104926117D01*
X133623754Y-105003913D01*
X133623749Y-105003923D01*
X133619569Y-105012919D01*
X133619557Y-105012946D01*
X133618744Y-105014935D01*
X133618735Y-105014959D01*
X133615381Y-105024428D01*
X133615379Y-105024436D01*
X133605260Y-105057995D01*
X133598398Y-105072077D01*
X133505869Y-105203357D01*
X133501363Y-105208855D01*
X133364740Y-105352842D01*
X133364731Y-105352854D01*
X133354358Y-105369059D01*
X133347738Y-105377289D01*
X132303904Y-106421125D01*
X132247956Y-106477073D01*
X132247955Y-106477073D01*
X132208394Y-106545593D01*
X132208394Y-106545595D01*
X132187915Y-106622021D01*
X132187915Y-106846889D01*
X132186706Y-106857707D01*
X132182652Y-106875615D01*
X132182651Y-106875620D01*
X132177444Y-107074046D01*
X132176743Y-107081119D01*
X132172640Y-107104817D01*
X132165945Y-107143484D01*
X132165945Y-107143487D01*
X132165945Y-107143488D01*
X132147620Y-107249324D01*
X132127567Y-107281015D01*
X132090978Y-107289246D01*
X132064690Y-107275612D01*
X132022910Y-107233832D01*
X132008558Y-107199184D01*
X132008558Y-105388531D01*
X132022910Y-105353883D01*
X132057558Y-105339531D01*
X132057843Y-105339532D01*
X132193153Y-105340656D01*
X132236669Y-105341018D01*
X132236674Y-105341017D01*
X132236685Y-105341018D01*
X132241489Y-105340949D01*
X132245434Y-105340802D01*
X132249390Y-105340564D01*
X132250210Y-105340515D01*
X132275063Y-105338457D01*
X132425203Y-105326031D01*
X132434716Y-105324807D01*
X132442486Y-105323445D01*
X132451838Y-105321364D01*
X132619414Y-105276000D01*
X132628537Y-105273080D01*
X132635932Y-105270337D01*
X132644765Y-105266595D01*
X132801386Y-105191680D01*
X132809835Y-105187156D01*
X132816612Y-105183121D01*
X132824619Y-105177847D01*
X132966729Y-105074681D01*
X132970561Y-105071763D01*
X132973647Y-105069300D01*
X132977308Y-105066240D01*
X133087671Y-104969672D01*
X133091908Y-104965755D01*
X133095316Y-104962427D01*
X133099354Y-104958261D01*
X133223259Y-104823180D01*
X133230603Y-104814234D01*
X133236227Y-104806561D01*
X133242539Y-104796878D01*
X133332871Y-104640160D01*
X133338090Y-104629836D01*
X133341910Y-104621123D01*
X133345966Y-104610292D01*
X133400027Y-104437668D01*
X133402874Y-104426455D01*
X133404706Y-104417120D01*
X133406308Y-104405665D01*
X133421502Y-104225416D01*
X133421841Y-104213859D01*
X133421598Y-104204349D01*
X133421597Y-104204344D01*
X133421597Y-104204330D01*
X133421243Y-104199958D01*
X133420668Y-104192816D01*
X133407131Y-104093358D01*
X133395952Y-104011225D01*
X133395014Y-104005508D01*
X133395013Y-104005500D01*
X133394113Y-104000822D01*
X133394111Y-104000813D01*
X133394107Y-104000792D01*
X133392866Y-103995180D01*
X133392863Y-103995166D01*
X133320063Y-103703967D01*
X133318144Y-103697245D01*
X133316381Y-103691765D01*
X133314019Y-103685182D01*
X133267285Y-103567340D01*
X133261281Y-103554713D01*
X133255671Y-103544688D01*
X133248055Y-103532974D01*
X133173818Y-103433831D01*
X133164718Y-103423222D01*
X133156678Y-103415018D01*
X133146255Y-103405705D01*
X133075345Y-103350340D01*
X133048631Y-103329482D01*
X133048629Y-103329481D01*
X133048625Y-103329478D01*
X133037065Y-103321627D01*
X133037055Y-103321621D01*
X133027167Y-103315822D01*
X133014665Y-103309565D01*
X133014654Y-103309560D01*
X133000595Y-103303653D01*
X132900467Y-103261585D01*
X132887253Y-103257037D01*
X132876170Y-103254027D01*
X132876167Y-103254026D01*
X132876162Y-103254025D01*
X132876153Y-103254023D01*
X132862470Y-103251265D01*
X132739207Y-103234826D01*
X132726402Y-103233907D01*
X132715861Y-103233794D01*
X132715826Y-103233794D01*
X132703051Y-103234436D01*
X132703044Y-103234436D01*
X132703039Y-103234437D01*
X132527959Y-103253946D01*
X132527957Y-103253946D01*
X132527951Y-103253947D01*
X132516385Y-103255891D01*
X132507046Y-103258001D01*
X132507024Y-103258006D01*
X132495803Y-103261202D01*
X132328851Y-103318932D01*
X132318036Y-103323357D01*
X132318017Y-103323365D01*
X132309354Y-103327485D01*
X132309343Y-103327490D01*
X132299061Y-103333099D01*
X132148950Y-103426143D01*
X132139336Y-103432868D01*
X132131811Y-103438780D01*
X132131797Y-103438791D01*
X132123008Y-103446519D01*
X132123001Y-103446525D01*
X131995289Y-103572067D01*
X131991245Y-103576270D01*
X131988024Y-103579808D01*
X131984182Y-103584272D01*
X131595383Y-104062127D01*
X131592230Y-104066201D01*
X131589732Y-104069597D01*
X131586744Y-104073879D01*
X131486467Y-104225389D01*
X131486455Y-104225408D01*
X131481159Y-104234335D01*
X131481150Y-104234350D01*
X131477178Y-104241867D01*
X131477171Y-104241880D01*
X131472795Y-104251246D01*
X131472790Y-104251257D01*
X131404874Y-104417434D01*
X131404863Y-104417462D01*
X131401426Y-104427213D01*
X131401421Y-104427229D01*
X131398987Y-104435398D01*
X131398980Y-104435424D01*
X131396520Y-104445456D01*
X131396512Y-104445493D01*
X131362386Y-104621714D01*
X131360918Y-104631973D01*
X131360125Y-104640485D01*
X131360124Y-104640511D01*
X131359671Y-104650860D01*
X131210500Y-104650860D01*
X131210500Y-97109096D01*
X132311188Y-97109096D01*
X132311188Y-97109098D01*
X132311188Y-97174342D01*
X132311188Y-97174343D01*
X132311189Y-97180050D01*
X132311189Y-97707741D01*
X132311188Y-97707755D01*
X132311188Y-97776943D01*
X132321439Y-97801689D01*
X132321665Y-97802235D01*
X132336156Y-97837219D01*
X132382290Y-97883353D01*
X132382291Y-97883353D01*
X132389182Y-97890244D01*
X132389181Y-97890244D01*
X132389183Y-97890245D01*
X133335637Y-98836698D01*
X133335640Y-98836702D01*
X133335641Y-98836702D01*
X133338432Y-98839493D01*
X133338433Y-98839495D01*
X133384567Y-98885629D01*
X133396962Y-98890763D01*
X133444844Y-98910597D01*
X133444846Y-98910597D01*
X133515789Y-98910597D01*
X133515797Y-98910596D01*
X133884644Y-98910596D01*
X133890742Y-98913122D01*
X133897288Y-98912255D01*
X133907458Y-98920046D01*
X133919292Y-98924948D01*
X133927059Y-98935062D01*
X133928807Y-98938084D01*
X133933301Y-98948457D01*
X133947284Y-98994778D01*
X133947548Y-98995684D01*
X133964574Y-99056280D01*
X133964575Y-99056282D01*
X133968092Y-99066683D01*
X133968108Y-99066727D01*
X133968996Y-99068962D01*
X133969000Y-99068971D01*
X133973597Y-99078979D01*
X134009184Y-99146874D01*
X134011772Y-99151521D01*
X134012381Y-99152552D01*
X134012503Y-99152714D01*
X134013229Y-99153988D01*
X134013761Y-99154887D01*
X134013747Y-99154895D01*
X134018595Y-99163392D01*
X134020577Y-99168178D01*
X134098073Y-99245674D01*
X134098074Y-99245674D01*
X134098076Y-99245676D01*
X134199334Y-99287619D01*
X134199336Y-99287619D01*
X134308932Y-99287619D01*
X134308934Y-99287619D01*
X134410192Y-99245676D01*
X134410194Y-99245674D01*
X134410195Y-99245674D01*
X134487689Y-99168180D01*
X134487689Y-99168179D01*
X134487691Y-99168177D01*
X134529634Y-99066919D01*
X134529634Y-98957319D01*
X134487691Y-98856061D01*
X134487689Y-98856059D01*
X134487689Y-98856058D01*
X134410195Y-98778564D01*
X134410192Y-98778562D01*
X134398388Y-98773672D01*
X134387532Y-98767445D01*
X134385490Y-98765896D01*
X134297655Y-98723190D01*
X134297649Y-98723187D01*
X134287764Y-98718988D01*
X134285560Y-98718181D01*
X134275245Y-98714993D01*
X134237908Y-98705512D01*
X134235250Y-98704756D01*
X134193927Y-98691743D01*
X134179253Y-98684212D01*
X134172496Y-98679146D01*
X134162698Y-98671800D01*
X134143585Y-98639536D01*
X134152885Y-98603204D01*
X134185151Y-98584090D01*
X134192091Y-98583596D01*
X135184357Y-98583596D01*
X135219005Y-98597948D01*
X135795177Y-99174120D01*
X135809529Y-99208768D01*
X135809529Y-105380224D01*
X135809528Y-105380238D01*
X135809528Y-105384181D01*
X135809528Y-105441845D01*
X135820562Y-105468483D01*
X135831596Y-105495121D01*
X135872371Y-105535896D01*
X135872372Y-105535896D01*
X135879263Y-105542787D01*
X135879262Y-105542787D01*
X135879264Y-105542788D01*
X136760315Y-106423839D01*
X136774667Y-106458487D01*
X136774667Y-106680020D01*
X136774666Y-106680034D01*
X136774666Y-106683977D01*
X136774666Y-106741641D01*
X136782889Y-106761492D01*
X136796734Y-106794917D01*
X136837509Y-106835692D01*
X136837510Y-106835692D01*
X136844401Y-106842583D01*
X136844400Y-106842583D01*
X136844402Y-106842584D01*
X137559122Y-107557304D01*
X137559917Y-107559223D01*
X137561769Y-107560170D01*
X137566990Y-107576298D01*
X137573474Y-107591952D01*
X137573319Y-107595850D01*
X137571986Y-107612553D01*
X137570229Y-107622210D01*
X137568155Y-107629415D01*
X137562530Y-107641972D01*
X137534703Y-107686157D01*
X137533836Y-107687485D01*
X137497423Y-107741354D01*
X137497401Y-107741388D01*
X137490405Y-107753370D01*
X137490397Y-107753384D01*
X137489030Y-107756126D01*
X137489023Y-107756142D01*
X137483655Y-107768964D01*
X137457890Y-107844042D01*
X137455904Y-107850491D01*
X137455511Y-107851934D01*
X137455495Y-107852040D01*
X137454950Y-107853987D01*
X137454772Y-107854643D01*
X137454768Y-107854641D01*
X137452332Y-107863361D01*
X137449500Y-107870199D01*
X137449500Y-107979801D01*
X137451033Y-107983501D01*
X137491443Y-108081058D01*
X137491444Y-108081059D01*
X137491445Y-108081061D01*
X137568939Y-108158555D01*
X137568940Y-108158555D01*
X137568942Y-108158557D01*
X137670200Y-108200500D01*
X137670202Y-108200500D01*
X137779798Y-108200500D01*
X137779800Y-108200500D01*
X137881058Y-108158557D01*
X137881060Y-108158555D01*
X137881061Y-108158555D01*
X137958555Y-108081061D01*
X137958555Y-108081060D01*
X137958557Y-108081058D01*
X138000500Y-107979800D01*
X138000500Y-107870200D01*
X137998412Y-107865160D01*
X137995418Y-107852642D01*
X137995256Y-107852671D01*
X137994838Y-107850308D01*
X137994837Y-107850305D01*
X137994837Y-107850301D01*
X137982711Y-107807016D01*
X137979918Y-107798466D01*
X137979219Y-107796600D01*
X137975711Y-107788326D01*
X137962175Y-107759842D01*
X137956541Y-107747986D01*
X137952474Y-107740272D01*
X137952469Y-107740263D01*
X137951492Y-107738582D01*
X137946750Y-107731155D01*
X137935698Y-107715344D01*
X137915832Y-107686922D01*
X137914598Y-107685069D01*
X137887740Y-107642666D01*
X137882113Y-107630227D01*
X137879904Y-107622686D01*
X137878091Y-107612883D01*
X137875476Y-107580597D01*
X137874152Y-107575559D01*
X137871559Y-107565691D01*
X137869950Y-107553237D01*
X137869950Y-107552734D01*
X137869951Y-107552725D01*
X137869951Y-107489362D01*
X137869950Y-107489358D01*
X137847883Y-107436084D01*
X137847881Y-107436082D01*
X137847881Y-107436081D01*
X137078919Y-106667119D01*
X137064567Y-106632471D01*
X137064567Y-106349318D01*
X137055629Y-106327741D01*
X137042500Y-106296043D01*
X137001725Y-106255268D01*
X137001723Y-106255267D01*
X136998932Y-106252476D01*
X136998932Y-106252475D01*
X136998928Y-106252472D01*
X136722482Y-105976026D01*
X136708130Y-105941378D01*
X136722482Y-105906730D01*
X136757130Y-105892378D01*
X137710543Y-105892378D01*
X137726614Y-105899035D01*
X137743073Y-105904733D01*
X137743737Y-105906127D01*
X137745191Y-105906730D01*
X137759457Y-105938468D01*
X137759480Y-105938857D01*
X137762364Y-106003911D01*
X137763017Y-106011854D01*
X137763228Y-106013606D01*
X137764060Y-106015859D01*
X137764414Y-106021795D01*
X137764220Y-106022354D01*
X137764500Y-106024705D01*
X137764500Y-106033501D01*
X137777765Y-106065525D01*
X137806443Y-106134758D01*
X137806444Y-106134759D01*
X137806445Y-106134761D01*
X137883939Y-106212255D01*
X137883940Y-106212255D01*
X137883942Y-106212257D01*
X137985200Y-106254200D01*
X137985202Y-106254200D01*
X138094798Y-106254200D01*
X138094800Y-106254200D01*
X138196058Y-106212257D01*
X138196060Y-106212255D01*
X138196061Y-106212255D01*
X138273555Y-106134761D01*
X138273555Y-106134760D01*
X138273557Y-106134758D01*
X138315500Y-106033500D01*
X138315500Y-105923900D01*
X138293826Y-105871575D01*
X138293826Y-105834073D01*
X138320344Y-105807554D01*
X138357847Y-105807554D01*
X138373744Y-105818176D01*
X138465698Y-105910130D01*
X138480050Y-105944778D01*
X138480050Y-106949145D01*
X138480049Y-106949159D01*
X138480049Y-106953102D01*
X138480049Y-107010766D01*
X138491083Y-107037404D01*
X138502117Y-107064042D01*
X138542892Y-107104817D01*
X138542893Y-107104817D01*
X138549784Y-107111708D01*
X138549783Y-107111708D01*
X138549785Y-107111709D01*
X138890698Y-107452622D01*
X138905050Y-107487270D01*
X138905050Y-107558127D01*
X138903196Y-107571479D01*
X138899525Y-107584438D01*
X138896986Y-107616254D01*
X138895229Y-107625910D01*
X138893155Y-107633115D01*
X138887530Y-107645672D01*
X138861601Y-107686844D01*
X138859703Y-107689857D01*
X138858836Y-107691185D01*
X138822423Y-107745054D01*
X138822401Y-107745088D01*
X138815405Y-107757070D01*
X138815397Y-107757084D01*
X138814030Y-107759826D01*
X138814023Y-107759842D01*
X138808655Y-107772664D01*
X138782890Y-107847742D01*
X138780904Y-107854191D01*
X138780511Y-107855634D01*
X138780495Y-107855740D01*
X138779950Y-107857687D01*
X138779772Y-107858343D01*
X138779768Y-107858341D01*
X138777332Y-107867061D01*
X138776033Y-107870199D01*
X138774500Y-107873900D01*
X138774500Y-107983500D01*
X138816443Y-108084758D01*
X138816444Y-108084759D01*
X138816445Y-108084761D01*
X138893939Y-108162255D01*
X138893940Y-108162255D01*
X138893942Y-108162257D01*
X138995200Y-108204200D01*
X138995202Y-108204200D01*
X139104798Y-108204200D01*
X139104800Y-108204200D01*
X139206058Y-108162257D01*
X139206060Y-108162255D01*
X139206061Y-108162255D01*
X139283555Y-108084761D01*
X139283555Y-108084760D01*
X139283557Y-108084758D01*
X139325500Y-107983500D01*
X139325500Y-107873900D01*
X139323412Y-107868860D01*
X139321904Y-107862555D01*
X139699500Y-107862555D01*
X139699500Y-107954846D01*
X139723385Y-108043986D01*
X139723386Y-108043989D01*
X139758223Y-108104326D01*
X139769531Y-108123912D01*
X139834788Y-108189169D01*
X139882484Y-108216707D01*
X139913835Y-108234808D01*
X139914712Y-108235314D01*
X139936998Y-108241285D01*
X140003853Y-108259200D01*
X140003856Y-108259200D01*
X140096147Y-108259200D01*
X140096147Y-108259199D01*
X140185288Y-108235314D01*
X140238535Y-108204569D01*
X140240067Y-108203722D01*
X140265445Y-108190285D01*
X140369179Y-108105820D01*
X140370991Y-108104310D01*
X140371390Y-108103970D01*
X140373171Y-108102418D01*
X140404747Y-108074264D01*
X140411051Y-108069500D01*
X140426604Y-108059610D01*
X140438418Y-108054148D01*
X140458803Y-108047849D01*
X140469533Y-108045811D01*
X140522023Y-108041827D01*
X140537313Y-108037871D01*
X140549587Y-108036309D01*
X145575618Y-108036309D01*
X145582356Y-108036774D01*
X145585632Y-108037228D01*
X145602069Y-108041828D01*
X145639301Y-108044679D01*
X145640788Y-108044886D01*
X145641341Y-108045210D01*
X145647779Y-108046384D01*
X145652298Y-108047703D01*
X145667709Y-108055346D01*
X145691340Y-108072826D01*
X145699613Y-108080577D01*
X145717532Y-108101764D01*
X145718551Y-108102951D01*
X145767033Y-108158556D01*
X145773019Y-108164875D01*
X145774402Y-108166218D01*
X145780888Y-108172022D01*
X145815493Y-108200499D01*
X145841947Y-108222269D01*
X145844141Y-108224074D01*
X145848095Y-108227172D01*
X145849013Y-108227856D01*
X145849016Y-108227858D01*
X145862260Y-108233773D01*
X145866767Y-108236072D01*
X145924712Y-108269528D01*
X145946998Y-108275499D01*
X146013853Y-108293414D01*
X146013856Y-108293414D01*
X146106146Y-108293414D01*
X146150716Y-108281471D01*
X146195288Y-108269528D01*
X146259396Y-108232514D01*
X146277586Y-108222269D01*
X146360215Y-108151350D01*
X146365723Y-108146273D01*
X146366906Y-108145102D01*
X146372063Y-108139619D01*
X146399716Y-108108032D01*
X146400074Y-108107628D01*
X146424984Y-108079966D01*
X146431331Y-108074066D01*
X146440994Y-108066559D01*
X146453816Y-108059387D01*
X146465201Y-108055108D01*
X146477872Y-108052189D01*
X146522454Y-108048019D01*
X146536405Y-108044212D01*
X146549301Y-108042486D01*
X147769504Y-108042486D01*
X147804152Y-108056838D01*
X147818504Y-108091486D01*
X147818504Y-108092979D01*
X147817102Y-108104618D01*
X147813117Y-108120910D01*
X147813117Y-108120913D01*
X147809108Y-108213218D01*
X147808310Y-108220145D01*
X147796261Y-108284235D01*
X147795744Y-108286652D01*
X147793068Y-108297765D01*
X147792701Y-108299348D01*
X147792683Y-108299427D01*
X147788845Y-108316634D01*
X147771972Y-108392280D01*
X147771563Y-108394194D01*
X147771075Y-108396578D01*
X147770823Y-108396526D01*
X147768929Y-108403997D01*
X147768504Y-108406136D01*
X147768504Y-108406138D01*
X147768504Y-108515738D01*
X147810447Y-108616996D01*
X147810448Y-108616997D01*
X147810449Y-108616999D01*
X147887943Y-108694493D01*
X147887944Y-108694493D01*
X147887946Y-108694495D01*
X147989204Y-108736438D01*
X147989206Y-108736438D01*
X148098802Y-108736438D01*
X148098804Y-108736438D01*
X148200062Y-108694495D01*
X148200064Y-108694493D01*
X148200065Y-108694493D01*
X148277559Y-108616999D01*
X148277559Y-108616998D01*
X148277561Y-108616996D01*
X148319504Y-108515738D01*
X148319504Y-108406138D01*
X148319503Y-108406135D01*
X148319492Y-108406083D01*
X148316938Y-108397947D01*
X148316057Y-108393934D01*
X148316018Y-108392209D01*
X148295652Y-108300907D01*
X148295622Y-108300766D01*
X148295622Y-108300763D01*
X148295460Y-108300001D01*
X148294125Y-108293414D01*
X148280605Y-108226708D01*
X148279687Y-108219338D01*
X148274918Y-108120359D01*
X148270822Y-108103054D01*
X148269504Y-108091767D01*
X148269504Y-107965680D01*
X148283856Y-107931032D01*
X148291732Y-107924639D01*
X149711966Y-106998376D01*
X149722482Y-106993194D01*
X149738291Y-106987641D01*
X149822204Y-106937994D01*
X149829263Y-106934550D01*
X149882727Y-106913594D01*
X149891198Y-106911128D01*
X149975575Y-106894635D01*
X149976233Y-106894513D01*
X150080350Y-106876163D01*
X150080910Y-106876062D01*
X150081119Y-106876024D01*
X150102146Y-106867560D01*
X150107723Y-106865698D01*
X150160288Y-106851614D01*
X150240212Y-106805469D01*
X150305469Y-106740212D01*
X150351614Y-106660288D01*
X150366984Y-106602927D01*
X150375500Y-106571146D01*
X150375500Y-106478853D01*
X150351614Y-106389713D01*
X150351614Y-106389712D01*
X150316076Y-106328159D01*
X150315884Y-106327821D01*
X150304559Y-106307604D01*
X150304557Y-106307600D01*
X150232942Y-106223765D01*
X150228132Y-106218506D01*
X150227016Y-106217367D01*
X150221838Y-106212425D01*
X150221836Y-106212423D01*
X150221818Y-106212406D01*
X150192748Y-106186497D01*
X150192195Y-106185995D01*
X150164748Y-106160754D01*
X150158951Y-106154397D01*
X150156651Y-106151380D01*
X150151220Y-106144257D01*
X150144222Y-106131528D01*
X150139726Y-106119357D01*
X150136896Y-106106862D01*
X150135634Y-106093135D01*
X150132740Y-106061643D01*
X150128918Y-106047566D01*
X150127206Y-106034727D01*
X150127206Y-100241556D01*
X150127712Y-100234534D01*
X150128176Y-100231325D01*
X150132731Y-100215242D01*
X150135458Y-100181040D01*
X150135683Y-100179488D01*
X150136035Y-100178895D01*
X150137279Y-100172312D01*
X150137683Y-100170979D01*
X150145841Y-100155179D01*
X150160788Y-100135891D01*
X150169484Y-100127193D01*
X150192543Y-100109316D01*
X150192905Y-100109034D01*
X150193052Y-100108919D01*
X150194012Y-100108159D01*
X150253379Y-100060595D01*
X150260944Y-100053916D01*
X150262546Y-100052359D01*
X150269430Y-100044996D01*
X150324107Y-99980614D01*
X150327802Y-99976009D01*
X150328591Y-99974967D01*
X150333635Y-99963787D01*
X150335843Y-99959480D01*
X150370911Y-99898743D01*
X150385731Y-99843433D01*
X150394797Y-99809601D01*
X150394797Y-99717308D01*
X150370911Y-99628168D01*
X150370911Y-99628167D01*
X150336847Y-99569168D01*
X150336500Y-99568554D01*
X150324178Y-99546365D01*
X150324177Y-99546363D01*
X150324174Y-99546358D01*
X150324170Y-99546353D01*
X150251465Y-99460608D01*
X150250861Y-99459940D01*
X150247015Y-99455683D01*
X150245994Y-99454622D01*
X150241234Y-99449978D01*
X150215995Y-99426859D01*
X150215355Y-99426262D01*
X150188122Y-99400408D01*
X150182491Y-99394047D01*
X150174419Y-99383153D01*
X150167682Y-99370567D01*
X150162861Y-99357162D01*
X150160169Y-99344959D01*
X150156033Y-99298726D01*
X150152188Y-99284458D01*
X150150500Y-99271708D01*
X150150500Y-98222001D01*
X150150857Y-98216095D01*
X150151278Y-98212619D01*
X150155996Y-98195130D01*
X150159205Y-98147332D01*
X150159364Y-98146028D01*
X150159623Y-98145568D01*
X150160632Y-98139418D01*
X150164370Y-98125279D01*
X150170756Y-98110953D01*
X150195325Y-98073464D01*
X150200493Y-98066883D01*
X150215344Y-98050989D01*
X150217527Y-98048580D01*
X150218017Y-98048022D01*
X150220246Y-98045398D01*
X150306194Y-97940828D01*
X150309306Y-97936852D01*
X150309974Y-97935955D01*
X150315916Y-97922642D01*
X150318224Y-97918119D01*
X150319100Y-97916602D01*
X150351614Y-97860288D01*
X150368575Y-97796988D01*
X150375500Y-97771146D01*
X150375500Y-97678853D01*
X150353477Y-97596665D01*
X150351614Y-97589712D01*
X150305469Y-97509788D01*
X150240212Y-97444531D01*
X150218848Y-97432196D01*
X150160289Y-97398386D01*
X150160286Y-97398385D01*
X150071147Y-97374500D01*
X150071144Y-97374500D01*
X149978856Y-97374500D01*
X149978853Y-97374500D01*
X149889713Y-97398385D01*
X149889710Y-97398386D01*
X149809794Y-97444527D01*
X149809784Y-97444534D01*
X149744534Y-97509784D01*
X149744527Y-97509794D01*
X149698386Y-97589710D01*
X149698385Y-97589713D01*
X149674500Y-97678853D01*
X149674500Y-97771149D01*
X149676166Y-97777368D01*
X149677803Y-97791817D01*
X149677445Y-97801689D01*
X149677446Y-97801690D01*
X149696005Y-97916602D01*
X149696596Y-97922536D01*
X149699464Y-97997265D01*
X149699500Y-97999144D01*
X149699500Y-98007005D01*
X149699469Y-98008741D01*
X149697997Y-98050261D01*
X149697956Y-98051702D01*
X149694816Y-98184342D01*
X149694813Y-98184482D01*
X149694813Y-98184504D01*
X149694789Y-98185857D01*
X149694786Y-98186134D01*
X149697886Y-98202172D01*
X149698609Y-98205909D01*
X149699500Y-98215210D01*
X149699500Y-99286658D01*
X149695473Y-99316426D01*
X149699500Y-99381352D01*
X149699500Y-99595346D01*
X149699499Y-99595360D01*
X149699499Y-99658188D01*
X149699232Y-99663296D01*
X149699179Y-99663800D01*
X149695786Y-99690718D01*
X149695976Y-99694359D01*
X149695575Y-99698189D01*
X149694197Y-99700727D01*
X149693229Y-99706979D01*
X149693669Y-99707097D01*
X149693045Y-99709426D01*
X149670981Y-99843433D01*
X149670205Y-99849104D01*
X149670063Y-99850396D01*
X149669598Y-99856115D01*
X149667295Y-99898741D01*
X149664157Y-99956804D01*
X149664018Y-99961233D01*
X149664007Y-99961567D01*
X149663997Y-99962592D01*
X149664053Y-99967067D01*
X149666700Y-100045386D01*
X149666712Y-100045770D01*
X149670945Y-100208966D01*
X149674017Y-100222976D01*
X149674883Y-100226928D01*
X149675069Y-100227773D01*
X149676206Y-100238267D01*
X149676206Y-106038264D01*
X149674624Y-106050616D01*
X149670740Y-106065525D01*
X149659186Y-106262963D01*
X149659181Y-106263055D01*
X149651665Y-106387471D01*
X149651533Y-106397425D01*
X149651533Y-106397428D01*
X149651605Y-106399570D01*
X149651608Y-106399610D01*
X149652400Y-106409423D01*
X149653512Y-106418115D01*
X149644568Y-106453109D01*
X149607316Y-106504450D01*
X149597535Y-106514510D01*
X149581324Y-106526981D01*
X149581293Y-106527007D01*
X149482610Y-106602927D01*
X149482608Y-106602929D01*
X149472084Y-106614497D01*
X149462608Y-106622565D01*
X147989168Y-107583529D01*
X147962400Y-107591486D01*
X146545311Y-107591486D01*
X146533179Y-107589960D01*
X146517852Y-107586043D01*
X146517849Y-107586042D01*
X146517847Y-107586042D01*
X146493950Y-107584753D01*
X146323447Y-107575559D01*
X146323398Y-107575557D01*
X146323365Y-107575555D01*
X146323340Y-107575554D01*
X146323229Y-107575548D01*
X146248083Y-107571575D01*
X146197734Y-107568914D01*
X146188121Y-107568846D01*
X146188118Y-107568846D01*
X146188116Y-107568846D01*
X146188110Y-107568846D01*
X146186348Y-107568914D01*
X146185984Y-107568928D01*
X146185971Y-107568929D01*
X146176396Y-107569737D01*
X146073823Y-107583140D01*
X146059667Y-107582927D01*
X145996875Y-107572792D01*
X145991138Y-107572028D01*
X145989906Y-107571898D01*
X145984279Y-107571457D01*
X145934921Y-107568914D01*
X145893447Y-107566777D01*
X145887847Y-107566637D01*
X145887831Y-107566637D01*
X145886607Y-107566638D01*
X145880791Y-107566809D01*
X145791229Y-107571900D01*
X145790567Y-107571933D01*
X145738119Y-107574203D01*
X145735863Y-107574301D01*
X145735847Y-107574301D01*
X145605951Y-107579922D01*
X145588316Y-107584031D01*
X145577199Y-107585309D01*
X140541734Y-107585309D01*
X140533139Y-107584549D01*
X140510803Y-107580569D01*
X140510799Y-107580569D01*
X140492827Y-107580929D01*
X140384827Y-107583097D01*
X140383795Y-107583107D01*
X140345170Y-107583068D01*
X140310536Y-107568681D01*
X140299515Y-107551736D01*
X140294656Y-107539167D01*
X140292147Y-107530245D01*
X140284883Y-107490167D01*
X140284164Y-107483924D01*
X140280924Y-107419329D01*
X140276834Y-107402163D01*
X140275500Y-107390806D01*
X140275500Y-103759711D01*
X140289851Y-103725064D01*
X140419921Y-103594993D01*
X140419924Y-103594992D01*
X140426813Y-103588103D01*
X140426814Y-103588103D01*
X140490248Y-103524669D01*
X140490248Y-103524668D01*
X140497137Y-103517779D01*
X140497139Y-103517776D01*
X140537769Y-103477145D01*
X140547361Y-103469685D01*
X140561079Y-103461526D01*
X140611068Y-103416515D01*
X140616279Y-103412427D01*
X140651236Y-103388656D01*
X140659188Y-103384268D01*
X140736426Y-103350579D01*
X140737548Y-103350108D01*
X140815865Y-103318465D01*
X140818613Y-103317244D01*
X140822393Y-103315567D01*
X140823812Y-103314878D01*
X140830112Y-103311555D01*
X140924394Y-103257671D01*
X140927307Y-103255944D01*
X140927964Y-103255540D01*
X140936829Y-103247034D01*
X140946246Y-103239963D01*
X140959216Y-103232476D01*
X141024473Y-103167219D01*
X141070618Y-103087295D01*
X141083211Y-103040299D01*
X141094504Y-102998153D01*
X141094504Y-102905860D01*
X141070618Y-102816720D01*
X141070617Y-102816717D01*
X141046122Y-102774291D01*
X141024473Y-102736795D01*
X140959216Y-102671538D01*
X140953846Y-102668437D01*
X140879293Y-102625393D01*
X140879290Y-102625392D01*
X140790151Y-102601507D01*
X140790148Y-102601507D01*
X140697860Y-102601507D01*
X140697857Y-102601507D01*
X140608717Y-102625392D01*
X140608714Y-102625393D01*
X140528798Y-102671534D01*
X140528794Y-102671536D01*
X140528792Y-102671538D01*
X140528790Y-102671539D01*
X140528787Y-102671542D01*
X140463537Y-102736791D01*
X140463536Y-102736792D01*
X140454752Y-102752005D01*
X140450077Y-102758732D01*
X140437206Y-102774291D01*
X140368641Y-102901376D01*
X140365555Y-102907576D01*
X140364944Y-102908911D01*
X140362271Y-102915293D01*
X140345798Y-102958553D01*
X140344817Y-102960939D01*
X140309708Y-103040299D01*
X140305169Y-103048389D01*
X140281972Y-103081856D01*
X140278041Y-103086810D01*
X140234681Y-103134751D01*
X140234671Y-103134765D01*
X140225431Y-103149786D01*
X140218344Y-103158760D01*
X140179076Y-103198028D01*
X140171661Y-103204116D01*
X140169196Y-103205763D01*
X140105763Y-103269196D01*
X140104116Y-103271661D01*
X140098028Y-103279076D01*
X139922265Y-103454840D01*
X139858830Y-103518274D01*
X139856871Y-103523005D01*
X139852742Y-103532973D01*
X139824499Y-103601154D01*
X139824499Y-103696566D01*
X139824500Y-103696575D01*
X139824500Y-107391538D01*
X139824273Y-107396246D01*
X139823913Y-107399974D01*
X139819064Y-107419067D01*
X139815487Y-107487270D01*
X139815381Y-107488368D01*
X139815253Y-107488608D01*
X139814743Y-107492828D01*
X139806836Y-107534344D01*
X139804312Y-107543083D01*
X139773548Y-107621443D01*
X139773042Y-107622680D01*
X139740067Y-107700370D01*
X139737509Y-107707009D01*
X139736991Y-107708501D01*
X139734876Y-107715335D01*
X139706303Y-107820127D01*
X139705420Y-107823597D01*
X139705241Y-107824354D01*
X139705240Y-107824361D01*
X139704999Y-107836514D01*
X139703340Y-107848222D01*
X139699500Y-107862555D01*
X139321904Y-107862555D01*
X139320418Y-107856342D01*
X139320256Y-107856371D01*
X139319838Y-107854008D01*
X139319837Y-107854005D01*
X139319837Y-107854001D01*
X139307711Y-107810716D01*
X139304918Y-107802166D01*
X139304219Y-107800300D01*
X139300711Y-107792026D01*
X139284106Y-107757084D01*
X139281541Y-107751686D01*
X139277474Y-107743972D01*
X139277469Y-107743963D01*
X139276492Y-107742282D01*
X139271750Y-107734855D01*
X139269153Y-107731140D01*
X139240832Y-107690622D01*
X139239598Y-107688769D01*
X139237254Y-107685069D01*
X139212740Y-107646366D01*
X139207113Y-107633927D01*
X139204904Y-107626386D01*
X139203091Y-107616583D01*
X139200476Y-107584297D01*
X139200116Y-107582927D01*
X139196559Y-107569391D01*
X139194950Y-107556937D01*
X139194950Y-107441475D01*
X139194951Y-107441466D01*
X139194951Y-107378104D01*
X139194950Y-107378100D01*
X139172883Y-107324826D01*
X139172881Y-107324824D01*
X139172881Y-107324823D01*
X138784302Y-106936244D01*
X138769950Y-106901596D01*
X138769950Y-105835609D01*
X138758329Y-105807554D01*
X138747883Y-105782334D01*
X138707108Y-105741559D01*
X138707106Y-105741558D01*
X138704315Y-105738767D01*
X138704315Y-105738766D01*
X138704311Y-105738763D01*
X138348861Y-105383313D01*
X138348860Y-105383311D01*
X138348860Y-105383312D01*
X138341969Y-105376421D01*
X138341969Y-105376420D01*
X138301194Y-105335645D01*
X138271740Y-105323445D01*
X138271739Y-105323444D01*
X138247918Y-105313577D01*
X138190254Y-105313577D01*
X138184553Y-105313577D01*
X138184545Y-105313578D01*
X136897462Y-105313578D01*
X136862814Y-105299226D01*
X136691581Y-105127993D01*
X136677229Y-105093345D01*
X136677229Y-104334164D01*
X136691581Y-104299516D01*
X136726229Y-104285164D01*
X136760877Y-104299516D01*
X137016010Y-104554649D01*
X137019881Y-104559010D01*
X137022053Y-104561772D01*
X137031164Y-104577570D01*
X137063449Y-104614420D01*
X137064259Y-104615451D01*
X137064366Y-104615834D01*
X137067330Y-104619829D01*
X137080058Y-104640260D01*
X137085318Y-104651815D01*
X137103285Y-104710457D01*
X137104963Y-104718026D01*
X137108095Y-104740427D01*
X137108537Y-104743304D01*
X137108622Y-104743812D01*
X137109088Y-104746398D01*
X137127577Y-104842022D01*
X137127578Y-104842028D01*
X137129799Y-104851258D01*
X137130391Y-104853307D01*
X137130391Y-104853310D01*
X137133486Y-104862437D01*
X137154838Y-104917076D01*
X137157982Y-104924310D01*
X137158741Y-104925893D01*
X137162396Y-104932835D01*
X137192813Y-104985734D01*
X137194495Y-104988556D01*
X137194898Y-104989208D01*
X137194899Y-104989209D01*
X137203427Y-104998082D01*
X137210529Y-105007531D01*
X137217889Y-105020278D01*
X137283146Y-105085535D01*
X137363070Y-105131680D01*
X137364108Y-105131958D01*
X137452211Y-105155566D01*
X137452214Y-105155566D01*
X137544504Y-105155566D01*
X137589074Y-105143623D01*
X137633646Y-105131680D01*
X137713570Y-105085535D01*
X137778827Y-105020278D01*
X137824972Y-104940354D01*
X137845080Y-104865311D01*
X137848858Y-104851212D01*
X137848858Y-104758919D01*
X137824972Y-104669779D01*
X137824971Y-104669776D01*
X137801906Y-104629827D01*
X137778827Y-104589854D01*
X137713570Y-104524597D01*
X137712978Y-104524255D01*
X137700703Y-104517167D01*
X137692847Y-104511529D01*
X137679370Y-104499678D01*
X137679368Y-104499676D01*
X137629106Y-104470568D01*
X137629096Y-104470562D01*
X137622431Y-104467014D01*
X137620950Y-104466293D01*
X137614146Y-104463271D01*
X137561593Y-104442121D01*
X137561571Y-104442113D01*
X137552399Y-104438907D01*
X137552337Y-104438887D01*
X137550295Y-104438278D01*
X137540746Y-104435908D01*
X137497120Y-104427226D01*
X137441798Y-104416215D01*
X137440695Y-104415982D01*
X137358564Y-104397550D01*
X137345785Y-104392731D01*
X137341140Y-104390191D01*
X137341130Y-104390185D01*
X137321824Y-104379628D01*
X137313596Y-104373969D01*
X137269656Y-104336616D01*
X137269650Y-104336612D01*
X137256343Y-104328844D01*
X137246398Y-104321175D01*
X137018581Y-104093358D01*
X137004229Y-104058710D01*
X137004229Y-101724791D01*
X137103504Y-101724791D01*
X137103504Y-101817084D01*
X137127389Y-101906224D01*
X137127390Y-101906227D01*
X137160869Y-101964213D01*
X137173535Y-101986150D01*
X137238792Y-102051407D01*
X137291206Y-102081669D01*
X137313237Y-102094389D01*
X137318716Y-102097552D01*
X137341002Y-102103523D01*
X137407857Y-102121438D01*
X137407860Y-102121438D01*
X137500145Y-102121438D01*
X137500148Y-102121438D01*
X137517129Y-102116886D01*
X137525178Y-102115438D01*
X137545282Y-102113538D01*
X137683613Y-102072160D01*
X137690135Y-102069975D01*
X137691569Y-102069442D01*
X137697981Y-102066816D01*
X137740198Y-102047882D01*
X137742548Y-102046902D01*
X137823542Y-102015591D01*
X137832452Y-102013085D01*
X137872535Y-102005821D01*
X137878774Y-102005102D01*
X137943373Y-102001862D01*
X137960538Y-101997772D01*
X137971895Y-101996438D01*
X139207905Y-101996438D01*
X139212538Y-101996658D01*
X139216283Y-101997013D01*
X139235471Y-102001869D01*
X139305277Y-102005466D01*
X139306337Y-102005567D01*
X139306571Y-102005691D01*
X139310754Y-102006189D01*
X139353701Y-102014262D01*
X139362158Y-102016654D01*
X139439760Y-102046348D01*
X139440826Y-102046772D01*
X139518515Y-102078801D01*
X139524879Y-102081188D01*
X139526299Y-102081669D01*
X139532741Y-102083624D01*
X139636794Y-102111614D01*
X139636803Y-102111616D01*
X139636828Y-102111623D01*
X139638839Y-102112131D01*
X139639939Y-102112409D01*
X139640650Y-102112577D01*
X139652980Y-102112821D01*
X139664693Y-102114480D01*
X139678856Y-102118276D01*
X139678857Y-102118276D01*
X139771146Y-102118276D01*
X139815716Y-102106333D01*
X139860288Y-102094390D01*
X139940212Y-102048245D01*
X140005469Y-101982988D01*
X140014252Y-101967773D01*
X140018931Y-101961042D01*
X140031796Y-101945490D01*
X140031797Y-101945489D01*
X140100354Y-101818415D01*
X140103425Y-101812248D01*
X140104062Y-101810857D01*
X140106735Y-101804476D01*
X140123214Y-101761199D01*
X140124171Y-101758870D01*
X140159297Y-101679473D01*
X140163828Y-101671396D01*
X140187035Y-101637914D01*
X140190949Y-101632981D01*
X140234322Y-101585030D01*
X140243569Y-101569995D01*
X140250650Y-101561029D01*
X140935174Y-100876508D01*
X140969504Y-100793627D01*
X140969504Y-100703918D01*
X140969504Y-97264809D01*
X140983855Y-97230162D01*
X142245843Y-95968173D01*
X142245846Y-95968172D01*
X142252735Y-95961283D01*
X142252736Y-95961283D01*
X142316170Y-95897849D01*
X142350500Y-95814968D01*
X142350500Y-95618842D01*
X142350726Y-95614137D01*
X142351085Y-95610412D01*
X142355936Y-95591314D01*
X142359514Y-95523033D01*
X142359616Y-95521985D01*
X142359745Y-95521742D01*
X142360253Y-95517533D01*
X142368162Y-95476005D01*
X142370683Y-95467278D01*
X142371561Y-95465043D01*
X142387820Y-95423617D01*
X142401461Y-95388863D01*
X142401966Y-95387625D01*
X142402171Y-95387143D01*
X142434916Y-95309976D01*
X142437469Y-95303347D01*
X142437987Y-95301854D01*
X142438189Y-95301203D01*
X142440095Y-95295040D01*
X142440101Y-95295022D01*
X142468661Y-95190260D01*
X142469517Y-95186904D01*
X142469695Y-95186155D01*
X142469945Y-95173912D01*
X142471604Y-95162240D01*
X142475467Y-95147826D01*
X142475467Y-95055538D01*
X142475467Y-95055535D01*
X142455953Y-94982709D01*
X142451581Y-94966394D01*
X142405436Y-94886470D01*
X142340179Y-94821213D01*
X142296801Y-94796168D01*
X142260256Y-94775068D01*
X142260253Y-94775067D01*
X142171114Y-94751182D01*
X142171111Y-94751182D01*
X142078823Y-94751182D01*
X142078820Y-94751182D01*
X141989680Y-94775067D01*
X141989677Y-94775068D01*
X141909761Y-94821209D01*
X141909751Y-94821216D01*
X141844501Y-94886466D01*
X141844494Y-94886476D01*
X141798353Y-94966392D01*
X141798352Y-94966395D01*
X141774467Y-95055535D01*
X141774467Y-95147826D01*
X141779014Y-95164800D01*
X141780465Y-95172862D01*
X141781263Y-95181295D01*
X141782367Y-95192959D01*
X141803797Y-95264596D01*
X141823741Y-95331267D01*
X141825791Y-95337382D01*
X141825941Y-95337830D01*
X141826421Y-95339121D01*
X141826485Y-95339291D01*
X141829081Y-95345625D01*
X141829087Y-95345639D01*
X141829091Y-95345648D01*
X141846291Y-95383994D01*
X141848047Y-95387909D01*
X141849040Y-95390289D01*
X141880338Y-95471224D01*
X141882850Y-95480155D01*
X141890112Y-95520206D01*
X141890836Y-95526493D01*
X141894073Y-95591046D01*
X141894074Y-95591048D01*
X141896955Y-95603136D01*
X141897894Y-95607079D01*
X141898165Y-95608214D01*
X141899500Y-95619573D01*
X141899500Y-95656411D01*
X141885148Y-95691059D01*
X140552834Y-97023372D01*
X140552834Y-97023374D01*
X140518503Y-97106252D01*
X140518503Y-97201664D01*
X140518504Y-97201673D01*
X140518504Y-100635070D01*
X140504152Y-100669718D01*
X139931239Y-101242630D01*
X139927751Y-101245798D01*
X139924857Y-101248182D01*
X139907926Y-101258255D01*
X139857163Y-101303960D01*
X139856317Y-101304658D01*
X139856054Y-101304738D01*
X139852709Y-101307362D01*
X139817765Y-101331123D01*
X139809804Y-101335516D01*
X139732695Y-101369150D01*
X139731461Y-101369668D01*
X139653151Y-101401309D01*
X139646597Y-101404219D01*
X139645210Y-101404892D01*
X139638881Y-101408231D01*
X139586591Y-101438115D01*
X139576429Y-101442484D01*
X139497400Y-101466321D01*
X139490462Y-101468681D01*
X139488937Y-101469260D01*
X139482267Y-101472056D01*
X139436805Y-101492973D01*
X139434468Y-101493976D01*
X139354304Y-101525932D01*
X139345168Y-101528580D01*
X139305944Y-101535916D01*
X139299472Y-101536685D01*
X139235441Y-101540003D01*
X139218392Y-101544089D01*
X139206973Y-101545438D01*
X137971169Y-101545438D01*
X137966462Y-101545211D01*
X137962730Y-101544850D01*
X137943637Y-101540001D01*
X137875427Y-101536424D01*
X137874333Y-101536319D01*
X137874092Y-101536191D01*
X137869872Y-101535681D01*
X137828356Y-101527774D01*
X137819618Y-101525250D01*
X137741298Y-101494503D01*
X137740059Y-101493997D01*
X137738900Y-101493505D01*
X137662317Y-101460999D01*
X137655657Y-101458434D01*
X137655648Y-101458431D01*
X137655638Y-101458427D01*
X137654164Y-101457916D01*
X137647352Y-101455810D01*
X137542612Y-101427251D01*
X137540398Y-101426687D01*
X137539164Y-101426373D01*
X137539142Y-101426367D01*
X137539135Y-101426366D01*
X137538892Y-101426308D01*
X137538426Y-101426198D01*
X137537927Y-101426187D01*
X137526216Y-101425950D01*
X137514531Y-101424291D01*
X137500149Y-101420438D01*
X137500148Y-101420438D01*
X137407860Y-101420438D01*
X137407857Y-101420438D01*
X137318717Y-101444323D01*
X137318714Y-101444324D01*
X137238798Y-101490465D01*
X137238788Y-101490472D01*
X137173538Y-101555722D01*
X137173531Y-101555732D01*
X137127390Y-101635648D01*
X137127389Y-101635651D01*
X137103504Y-101724791D01*
X137004229Y-101724791D01*
X137004229Y-99397997D01*
X137018580Y-99363350D01*
X137279261Y-99102668D01*
X137289737Y-99094694D01*
X137301957Y-99087767D01*
X137330394Y-99063218D01*
X137337862Y-99057905D01*
X137350960Y-99050325D01*
X137361333Y-99045830D01*
X137407699Y-99031835D01*
X137408530Y-99031593D01*
X137469163Y-99014557D01*
X137479588Y-99011032D01*
X137481855Y-99010131D01*
X137491868Y-99005532D01*
X137559741Y-98969956D01*
X137564422Y-98967349D01*
X137565436Y-98966750D01*
X137565441Y-98966745D01*
X137565583Y-98966639D01*
X137566786Y-98965952D01*
X137567772Y-98965370D01*
X137567780Y-98965384D01*
X137576271Y-98960539D01*
X137581058Y-98958557D01*
X137658557Y-98881058D01*
X137700500Y-98779800D01*
X137700500Y-98670200D01*
X137658557Y-98568942D01*
X137658555Y-98568940D01*
X137658555Y-98568939D01*
X137581061Y-98491445D01*
X137581059Y-98491444D01*
X137581058Y-98491443D01*
X137521744Y-98466874D01*
X137479801Y-98449500D01*
X137479800Y-98449500D01*
X137370200Y-98449500D01*
X137370198Y-98449500D01*
X137268940Y-98491444D01*
X137268939Y-98491444D01*
X137191445Y-98568939D01*
X137191441Y-98568944D01*
X137186551Y-98580748D01*
X137180330Y-98591594D01*
X137178784Y-98593633D01*
X137178779Y-98593639D01*
X137136062Y-98681496D01*
X137131862Y-98691387D01*
X137131861Y-98691389D01*
X137131039Y-98693638D01*
X137127880Y-98703866D01*
X137127869Y-98703905D01*
X137118390Y-98741231D01*
X137117635Y-98743888D01*
X137104624Y-98785204D01*
X137097092Y-98799879D01*
X137056661Y-98853807D01*
X137056659Y-98853809D01*
X137051773Y-98863139D01*
X137043015Y-98875052D01*
X136760877Y-99157191D01*
X136726229Y-99171543D01*
X136691581Y-99157191D01*
X136677229Y-99122543D01*
X136677229Y-98923641D01*
X136677230Y-98923632D01*
X136677230Y-98860270D01*
X136677229Y-98860266D01*
X136675487Y-98856061D01*
X136655162Y-98806992D01*
X136655160Y-98806990D01*
X136655160Y-98806989D01*
X135633800Y-97785631D01*
X135633799Y-97785629D01*
X135633799Y-97785630D01*
X135626908Y-97778738D01*
X135586133Y-97737963D01*
X135559495Y-97726929D01*
X135532858Y-97715895D01*
X135532857Y-97715895D01*
X135475193Y-97715895D01*
X135469492Y-97715895D01*
X135469484Y-97715896D01*
X134194881Y-97715896D01*
X134160233Y-97701544D01*
X134116985Y-97658296D01*
X134108855Y-97647545D01*
X134102284Y-97635782D01*
X134081585Y-97611493D01*
X134076001Y-97603426D01*
X134072368Y-97596857D01*
X134067465Y-97583999D01*
X134055901Y-97533088D01*
X134055583Y-97531570D01*
X134043231Y-97467679D01*
X134039704Y-97454250D01*
X134039702Y-97454243D01*
X134038726Y-97451324D01*
X134033446Y-97438433D01*
X133998585Y-97367144D01*
X133995388Y-97361110D01*
X133994641Y-97359804D01*
X133994636Y-97359799D01*
X133994622Y-97359779D01*
X133994298Y-97359205D01*
X133993250Y-97357372D01*
X133993261Y-97357365D01*
X133988833Y-97349510D01*
X133986013Y-97342700D01*
X133970094Y-97326781D01*
X133908516Y-97265202D01*
X133907567Y-97264809D01*
X133878859Y-97252917D01*
X133807257Y-97223258D01*
X133807256Y-97223258D01*
X133751210Y-97223258D01*
X133739322Y-97218333D01*
X133716563Y-97208908D01*
X133702210Y-97174260D01*
X133702210Y-97174258D01*
X133716559Y-97139612D01*
X133749064Y-97107108D01*
X133749064Y-97107106D01*
X134223432Y-96632738D01*
X134234180Y-96624612D01*
X134245941Y-96618043D01*
X134270229Y-96597343D01*
X134278292Y-96591761D01*
X134284865Y-96588126D01*
X134297717Y-96583226D01*
X134348665Y-96571654D01*
X134350166Y-96571339D01*
X134414052Y-96558988D01*
X134427480Y-96555461D01*
X134430399Y-96554485D01*
X134443290Y-96549205D01*
X134514579Y-96514344D01*
X134520613Y-96511147D01*
X134521919Y-96510400D01*
X134521920Y-96510398D01*
X134521948Y-96510379D01*
X134522483Y-96510076D01*
X134524351Y-96509009D01*
X134524357Y-96509020D01*
X134532215Y-96504592D01*
X134539024Y-96501772D01*
X134616523Y-96424273D01*
X134658466Y-96323015D01*
X134658466Y-96213415D01*
X134616523Y-96112157D01*
X134616521Y-96112155D01*
X134616521Y-96112154D01*
X134539027Y-96034660D01*
X134539025Y-96034659D01*
X134539024Y-96034658D01*
X134472204Y-96006980D01*
X134437767Y-95992715D01*
X134437766Y-95992715D01*
X134377765Y-95992715D01*
X134343117Y-95978363D01*
X134328765Y-95943715D01*
X134343117Y-95909067D01*
X134502894Y-95749290D01*
X134537542Y-95734938D01*
X134823892Y-95734938D01*
X134830422Y-95735375D01*
X134833728Y-95735819D01*
X134850484Y-95740451D01*
X134889443Y-95743311D01*
X134890892Y-95743506D01*
X134891353Y-95743774D01*
X134896990Y-95744725D01*
X134911608Y-95748625D01*
X134922123Y-95752782D01*
X134964825Y-95775682D01*
X134965533Y-95776070D01*
X135020485Y-95806915D01*
X135030383Y-95811808D01*
X135032623Y-95812773D01*
X135042923Y-95816588D01*
X135042940Y-95816593D01*
X135042942Y-95816594D01*
X135067811Y-95824358D01*
X135116068Y-95839424D01*
X135121163Y-95840875D01*
X135122303Y-95841169D01*
X135122306Y-95841169D01*
X135122550Y-95841204D01*
X135124381Y-95841705D01*
X135124935Y-95841848D01*
X135124932Y-95841856D01*
X135134393Y-95844445D01*
X135139204Y-95846438D01*
X135139206Y-95846438D01*
X135248802Y-95846438D01*
X135248804Y-95846438D01*
X135350062Y-95804495D01*
X135350064Y-95804493D01*
X135350065Y-95804493D01*
X135427559Y-95726999D01*
X135427559Y-95726998D01*
X135427561Y-95726996D01*
X135469504Y-95625738D01*
X135469504Y-95516138D01*
X135427561Y-95414880D01*
X135427559Y-95414878D01*
X135427559Y-95414877D01*
X135350065Y-95337383D01*
X135350063Y-95337382D01*
X135350062Y-95337381D01*
X135289357Y-95312236D01*
X135248805Y-95295438D01*
X135248804Y-95295438D01*
X135139204Y-95295438D01*
X135127393Y-95300329D01*
X135115322Y-95303600D01*
X135112787Y-95303948D01*
X135020444Y-95335871D01*
X135010469Y-95339903D01*
X135010432Y-95339919D01*
X135008325Y-95340898D01*
X135008294Y-95340913D01*
X134998859Y-95345896D01*
X134998837Y-95345909D01*
X134965735Y-95365602D01*
X134963330Y-95366943D01*
X134949830Y-95373977D01*
X134924892Y-95386970D01*
X134909190Y-95392020D01*
X134842471Y-95401563D01*
X134832415Y-95404707D01*
X134817798Y-95406938D01*
X134487646Y-95406938D01*
X134487638Y-95406937D01*
X134481937Y-95406937D01*
X134416694Y-95406937D01*
X134416692Y-95406937D01*
X134393272Y-95416639D01*
X134356415Y-95431905D01*
X134344812Y-95443509D01*
X134310282Y-95478039D01*
X134310281Y-95478040D01*
X133897038Y-95891282D01*
X133886558Y-95899259D01*
X133874340Y-95906186D01*
X133874330Y-95906193D01*
X133845894Y-95930738D01*
X133838419Y-95936056D01*
X133825329Y-95943631D01*
X133814948Y-95948129D01*
X133768617Y-95962115D01*
X133767711Y-95962379D01*
X133707145Y-95979397D01*
X133707102Y-95979410D01*
X133696699Y-95982928D01*
X133696691Y-95982931D01*
X133694436Y-95983828D01*
X133684422Y-95988427D01*
X133616529Y-96024014D01*
X133611821Y-96026638D01*
X133610837Y-96027220D01*
X133610685Y-96027335D01*
X133609497Y-96028012D01*
X133608502Y-96028601D01*
X133608492Y-96028585D01*
X133600013Y-96033424D01*
X133595232Y-96035404D01*
X133517737Y-96112900D01*
X133517733Y-96112905D01*
X133512843Y-96124709D01*
X133506622Y-96135555D01*
X133505076Y-96137594D01*
X133505071Y-96137600D01*
X133462354Y-96225457D01*
X133458154Y-96235348D01*
X133458153Y-96235350D01*
X133457331Y-96237599D01*
X133454172Y-96247827D01*
X133454161Y-96247866D01*
X133444682Y-96285192D01*
X133443927Y-96287849D01*
X133430916Y-96329165D01*
X133423384Y-96343840D01*
X133382953Y-96397768D01*
X133382951Y-96397770D01*
X133378065Y-96407100D01*
X133369307Y-96419013D01*
X133251053Y-96537268D01*
X133216406Y-96551620D01*
X132868667Y-96551620D01*
X132808390Y-96576587D01*
X132762256Y-96622721D01*
X132762255Y-96622722D01*
X132382291Y-97002686D01*
X132382290Y-97002687D01*
X132361605Y-97023372D01*
X132336156Y-97048820D01*
X132328843Y-97066476D01*
X132311188Y-97109096D01*
X131210500Y-97109096D01*
X131210500Y-90575162D01*
X131210520Y-90573765D01*
X131226416Y-90016599D01*
X131226572Y-90013875D01*
X131274150Y-89459185D01*
X131274463Y-89456446D01*
X131353585Y-88905384D01*
X131354054Y-88902670D01*
X131464461Y-88357020D01*
X131465084Y-88354338D01*
X131606696Y-87814817D01*
X131607041Y-87813578D01*
X131611734Y-87797571D01*
X131635256Y-87768362D01*
X131672542Y-87764340D01*
X131701752Y-87787862D01*
G37*
G04 #@! TD.AperFunction*
G04 #@! TA.AperFunction,Conductor*
G36*
X133768212Y-88873202D02*
G01*
X134193998Y-89298988D01*
X134208350Y-89333636D01*
X134208350Y-92233654D01*
X134193998Y-92268302D01*
X134159350Y-92282654D01*
X134124702Y-92268302D01*
X134120974Y-92263766D01*
X134120879Y-92263845D01*
X134119348Y-92261983D01*
X134106538Y-92249197D01*
X134105638Y-92248275D01*
X134032885Y-92171734D01*
X134028469Y-92166374D01*
X133994820Y-92119058D01*
X133964332Y-92076186D01*
X133964329Y-92076183D01*
X133963677Y-92075266D01*
X133962575Y-92073275D01*
X133962539Y-92073300D01*
X133959855Y-92069283D01*
X133882361Y-91991789D01*
X133882359Y-91991788D01*
X133882358Y-91991787D01*
X133812446Y-91962828D01*
X133781101Y-91949844D01*
X133781100Y-91949844D01*
X133671500Y-91949844D01*
X133671498Y-91949844D01*
X133587612Y-91984592D01*
X133570735Y-91991583D01*
X133570240Y-91991788D01*
X133492744Y-92069284D01*
X133450800Y-92170542D01*
X133450800Y-92280145D01*
X133452121Y-92283334D01*
X133492743Y-92381402D01*
X133492744Y-92381403D01*
X133492745Y-92381405D01*
X133570239Y-92458899D01*
X133570240Y-92458899D01*
X133570242Y-92458901D01*
X133671500Y-92500844D01*
X133691894Y-92500844D01*
X133701853Y-92501866D01*
X133705352Y-92502593D01*
X133770391Y-92503132D01*
X133775286Y-92503173D01*
X133775287Y-92503172D01*
X133775295Y-92503173D01*
X133790687Y-92502173D01*
X133794063Y-92501704D01*
X133809115Y-92498480D01*
X133862035Y-92483027D01*
X133865477Y-92482159D01*
X133881484Y-92478741D01*
X133915668Y-92485016D01*
X133916073Y-92484260D01*
X133927982Y-92490630D01*
X133939519Y-92499189D01*
X135653910Y-94213580D01*
X135668262Y-94248228D01*
X135653910Y-94282876D01*
X135619262Y-94297228D01*
X135022514Y-94297228D01*
X134987866Y-94282876D01*
X133184302Y-92479312D01*
X133169950Y-92444664D01*
X133169950Y-89076673D01*
X133169951Y-89076664D01*
X133169951Y-89013302D01*
X133169950Y-89013298D01*
X133164649Y-89000500D01*
X133147883Y-88960024D01*
X133147881Y-88960022D01*
X133147881Y-88960021D01*
X133130358Y-88942498D01*
X133116006Y-88907850D01*
X133130358Y-88873202D01*
X133165006Y-88858850D01*
X133733564Y-88858850D01*
X133768212Y-88873202D01*
G37*
G04 #@! TD.AperFunction*
G04 #@! TA.AperFunction,Conductor*
G36*
X135911416Y-87185200D02*
G01*
X135911418Y-87185201D01*
X135911420Y-87185201D01*
X135974784Y-87185201D01*
X135974792Y-87185200D01*
X136346129Y-87185200D01*
X136380777Y-87199552D01*
X136672571Y-87491346D01*
X136686923Y-87525994D01*
X136686923Y-88920658D01*
X136672571Y-88955306D01*
X136386898Y-89240979D01*
X136352250Y-89255331D01*
X136317602Y-89240979D01*
X136303250Y-89206331D01*
X136303250Y-89192841D01*
X136303251Y-89192832D01*
X136303251Y-89129470D01*
X136303250Y-89129466D01*
X136281183Y-89076192D01*
X136281181Y-89076190D01*
X136281181Y-89076189D01*
X135880852Y-88675860D01*
X135866500Y-88641212D01*
X135866500Y-87356091D01*
X135866501Y-87356082D01*
X135866501Y-87292720D01*
X135866500Y-87292716D01*
X135848709Y-87249765D01*
X135848709Y-87232318D01*
X135848708Y-87212265D01*
X135875226Y-87185745D01*
X135906388Y-87185744D01*
X135906684Y-87184259D01*
X135911416Y-87185200D01*
G37*
G04 #@! TD.AperFunction*
G04 #@! TA.AperFunction,Conductor*
G36*
X135051035Y-87939352D02*
G01*
X135063807Y-87961658D01*
X135064073Y-87962680D01*
X135065561Y-87972016D01*
X135069573Y-88037304D01*
X135073618Y-88053662D01*
X135075050Y-88065423D01*
X135075050Y-88834632D01*
X135060698Y-88869280D01*
X135026050Y-88883632D01*
X134991402Y-88869280D01*
X134130770Y-88008648D01*
X134116418Y-87974000D01*
X134130770Y-87939352D01*
X134165418Y-87925000D01*
X135016387Y-87925000D01*
X135051035Y-87939352D01*
G37*
G04 #@! TD.AperFunction*
G04 #@! TA.AperFunction,Conductor*
G36*
X139066932Y-99681790D02*
G01*
X139070321Y-99689118D01*
X139074214Y-99737169D01*
X139074215Y-99737173D01*
X139086981Y-99780752D01*
X139127350Y-99844484D01*
X139127352Y-99844487D01*
X139160279Y-99891595D01*
X139161256Y-99893276D01*
X139180423Y-99933609D01*
X139181122Y-99935475D01*
X139193248Y-99978760D01*
X139192180Y-99987651D01*
X139185138Y-99993182D01*
X139184329Y-99993378D01*
X139027347Y-100025519D01*
X139022653Y-100025519D01*
X138866403Y-99993528D01*
X138858986Y-99988512D01*
X138857288Y-99979719D01*
X138857684Y-99978268D01*
X138883443Y-99903208D01*
X138884816Y-99900454D01*
X138890266Y-99892392D01*
X138922647Y-99844488D01*
X138963477Y-99779658D01*
X138975916Y-99736444D01*
X138979691Y-99689132D01*
X138983765Y-99681158D01*
X138991354Y-99678363D01*
X139058659Y-99678363D01*
X139066932Y-99681790D01*
G37*
G04 #@! TD.AperFunction*
G04 #@! TA.AperFunction,Conductor*
G36*
X133878356Y-92137328D02*
G01*
X133948853Y-92236461D01*
X133948856Y-92236464D01*
X134030568Y-92322430D01*
X134044821Y-92336656D01*
X134048256Y-92344926D01*
X134044837Y-92353202D01*
X133997507Y-92400532D01*
X133989234Y-92403959D01*
X133982108Y-92401538D01*
X133948259Y-92375540D01*
X133948260Y-92375540D01*
X133910714Y-92364623D01*
X133837898Y-92380171D01*
X133837893Y-92380172D01*
X133779546Y-92397208D01*
X133776170Y-92397677D01*
X133706227Y-92397097D01*
X133697983Y-92393601D01*
X133694624Y-92385300D01*
X133694838Y-92383169D01*
X133724656Y-92229462D01*
X133729596Y-92221995D01*
X133729640Y-92221965D01*
X133862375Y-92134344D01*
X133871168Y-92132647D01*
X133878356Y-92137328D01*
G37*
G04 #@! TD.AperFunction*
G04 #@! TA.AperFunction,Conductor*
G36*
X142357918Y-95147969D02*
G01*
X142365342Y-95152972D01*
X142367054Y-95161762D01*
X142366876Y-95162511D01*
X142338316Y-95267273D01*
X142337798Y-95268766D01*
X142304003Y-95348409D01*
X142267218Y-95442132D01*
X142267218Y-95442134D01*
X142254653Y-95508108D01*
X142254653Y-95508111D01*
X142250581Y-95585791D01*
X142246726Y-95593873D01*
X142238897Y-95596878D01*
X142011127Y-95596878D01*
X142002854Y-95593451D01*
X141999442Y-95585764D01*
X141995702Y-95511217D01*
X141984036Y-95446876D01*
X141984034Y-95446870D01*
X141945984Y-95348474D01*
X141945967Y-95348433D01*
X141925351Y-95302471D01*
X141924817Y-95301036D01*
X141883441Y-95162723D01*
X141884353Y-95153818D01*
X141891297Y-95148164D01*
X141892317Y-95147908D01*
X142122642Y-95101154D01*
X142127292Y-95101154D01*
X142357918Y-95147969D01*
G37*
G04 #@! TD.AperFunction*
G04 #@! TA.AperFunction,Conductor*
G36*
X139994618Y-101337081D02*
G01*
X140155676Y-101498139D01*
X140159103Y-101506412D01*
X140156080Y-101514260D01*
X140106010Y-101569617D01*
X140106009Y-101569618D01*
X140068759Y-101623361D01*
X140026060Y-101719878D01*
X140008142Y-101766931D01*
X140007505Y-101768322D01*
X139938948Y-101895396D01*
X139932004Y-101901050D01*
X139923096Y-101900138D01*
X139922196Y-101899599D01*
X139850117Y-101851845D01*
X139726273Y-101769794D01*
X139722981Y-101766502D01*
X139593009Y-101570327D01*
X139591297Y-101561538D01*
X139596301Y-101554111D01*
X139596935Y-101553720D01*
X139691246Y-101499819D01*
X139692654Y-101499136D01*
X139772902Y-101466713D01*
X139865185Y-101426460D01*
X139920725Y-101388694D01*
X139978519Y-101336657D01*
X139986957Y-101333670D01*
X139994618Y-101337081D01*
G37*
G04 #@! TD.AperFunction*
G04 #@! TA.AperFunction,Conductor*
G36*
X137514822Y-101529026D02*
G01*
X137547695Y-101537989D01*
X137619602Y-101557595D01*
X137621096Y-101558113D01*
X137700758Y-101591926D01*
X137794476Y-101628718D01*
X137794478Y-101628718D01*
X137794480Y-101628719D01*
X137860446Y-101641284D01*
X137860448Y-101641284D01*
X137860453Y-101641285D01*
X137938114Y-101645356D01*
X137946195Y-101649211D01*
X137949200Y-101657040D01*
X137949200Y-101884810D01*
X137945773Y-101893083D01*
X137938086Y-101896495D01*
X137863535Y-101900235D01*
X137863527Y-101900236D01*
X137799193Y-101911896D01*
X137799192Y-101911896D01*
X137700742Y-101949956D01*
X137654813Y-101970552D01*
X137653379Y-101971085D01*
X137515048Y-102012463D01*
X137506140Y-102011551D01*
X137500486Y-102004607D01*
X137500229Y-102003582D01*
X137489342Y-101949950D01*
X137453476Y-101773263D01*
X137453476Y-101768612D01*
X137500291Y-101537986D01*
X137505294Y-101530563D01*
X137514084Y-101528851D01*
X137514822Y-101529026D01*
G37*
G04 #@! TD.AperFunction*
G04 #@! TA.AperFunction,Conductor*
G36*
X139672846Y-101527179D02*
G01*
X139678516Y-101534110D01*
X139678780Y-101535161D01*
X139725527Y-101765448D01*
X139725527Y-101770104D01*
X139678704Y-102000766D01*
X139673700Y-102008192D01*
X139664910Y-102009904D01*
X139664199Y-102009736D01*
X139560146Y-101981746D01*
X139558726Y-101981265D01*
X139479271Y-101948508D01*
X139386867Y-101913151D01*
X139386866Y-101913150D01*
X139386863Y-101913149D01*
X139386862Y-101913149D01*
X139320041Y-101900589D01*
X139320038Y-101900588D01*
X139320029Y-101900588D01*
X139240902Y-101896509D01*
X139232816Y-101892661D01*
X139229804Y-101884825D01*
X139229804Y-101657047D01*
X139233231Y-101648774D01*
X139240898Y-101645363D01*
X139315218Y-101641512D01*
X139379371Y-101629514D01*
X139450397Y-101601200D01*
X139477258Y-101590493D01*
X139477260Y-101590491D01*
X139477280Y-101590484D01*
X139526372Y-101567895D01*
X139527869Y-101567327D01*
X139663936Y-101526287D01*
X139672846Y-101527179D01*
G37*
G04 #@! TD.AperFunction*
G04 #@! TA.AperFunction,Conductor*
G36*
X133835568Y-108822298D02*
G01*
X133841809Y-108828720D01*
X133842407Y-108830734D01*
X133888655Y-109060578D01*
X133888653Y-109065207D01*
X133841755Y-109296938D01*
X133836755Y-109304367D01*
X133829044Y-109306251D01*
X133697082Y-109292150D01*
X133585500Y-109296872D01*
X133585195Y-109296880D01*
X133473269Y-109298696D01*
X133469677Y-109298193D01*
X133379637Y-109270832D01*
X133376698Y-109269470D01*
X133323613Y-109235238D01*
X133322183Y-109234151D01*
X133270763Y-109188464D01*
X133266854Y-109180408D01*
X133269788Y-109171947D01*
X133270244Y-109171462D01*
X133537292Y-108904414D01*
X133545564Y-108900988D01*
X133552401Y-108903194D01*
X133572451Y-108917637D01*
X133588670Y-108929321D01*
X133588672Y-108929322D01*
X133627169Y-108933437D01*
X133663505Y-108917642D01*
X133701366Y-108889857D01*
X133756555Y-108850389D01*
X133759027Y-108849041D01*
X133826617Y-108822170D01*
X133835568Y-108822298D01*
G37*
G04 #@! TD.AperFunction*
G04 #@! TA.AperFunction,Conductor*
G36*
X136437622Y-86407359D02*
G01*
X136437644Y-86407392D01*
X136485256Y-86479774D01*
X136485251Y-86479777D01*
X136485287Y-86479821D01*
X136487264Y-86482860D01*
X136563359Y-86591769D01*
X136563360Y-86591770D01*
X136672467Y-86709030D01*
X136675593Y-86717421D01*
X136672174Y-86725273D01*
X136624591Y-86772856D01*
X136616318Y-86776283D01*
X136609142Y-86773824D01*
X136558495Y-86734492D01*
X136558493Y-86734491D01*
X136506318Y-86719689D01*
X136454959Y-86726878D01*
X136454956Y-86726879D01*
X136398818Y-86747110D01*
X136398365Y-86747263D01*
X136281969Y-86783909D01*
X136273048Y-86783125D01*
X136267295Y-86776263D01*
X136266987Y-86775066D01*
X136220845Y-86545707D01*
X136222573Y-86536920D01*
X136225849Y-86533648D01*
X136421408Y-86404068D01*
X136430196Y-86402356D01*
X136437622Y-86407359D01*
G37*
G04 #@! TD.AperFunction*
G04 #@! TA.AperFunction,Conductor*
G36*
X146090440Y-95334605D02*
G01*
X146093735Y-95341133D01*
X146095437Y-95352424D01*
X146099131Y-95376933D01*
X146099132Y-95376935D01*
X146118346Y-95404018D01*
X146133413Y-95411760D01*
X146147665Y-95419085D01*
X146184870Y-95428793D01*
X146184888Y-95428797D01*
X146184898Y-95428800D01*
X146192148Y-95430572D01*
X146215374Y-95436250D01*
X146217295Y-95436902D01*
X146281211Y-95465025D01*
X146287403Y-95471493D01*
X146287208Y-95480446D01*
X146286248Y-95482203D01*
X146199421Y-95613041D01*
X146191991Y-95618040D01*
X146191890Y-95618060D01*
X146036945Y-95647978D01*
X146028172Y-95646182D01*
X146023239Y-95638708D01*
X146023172Y-95638327D01*
X146004258Y-95519334D01*
X146004115Y-95517704D01*
X146002505Y-95416639D01*
X146002505Y-95416474D01*
X146003222Y-95342763D01*
X146006729Y-95334525D01*
X146014921Y-95331178D01*
X146082167Y-95331178D01*
X146090440Y-95334605D01*
G37*
G04 #@! TD.AperFunction*
G04 #@! TA.AperFunction,Conductor*
G36*
X135982893Y-84491495D02*
G01*
X136212979Y-84536482D01*
X136220441Y-84541433D01*
X136222217Y-84545720D01*
X136267201Y-84775792D01*
X136265425Y-84784569D01*
X136257963Y-84789520D01*
X136257429Y-84789611D01*
X136141318Y-84806780D01*
X136140981Y-84806825D01*
X136106788Y-84810867D01*
X136015318Y-84834454D01*
X136015309Y-84834458D01*
X135960694Y-84867928D01*
X135903918Y-84918539D01*
X135895462Y-84921486D01*
X135887860Y-84918078D01*
X135840590Y-84870808D01*
X135837163Y-84862535D01*
X135840098Y-84854785D01*
X135893393Y-84794510D01*
X135927000Y-84737146D01*
X135943283Y-84681355D01*
X135951893Y-84617553D01*
X135969088Y-84501267D01*
X135973688Y-84493587D01*
X135982374Y-84491407D01*
X135982893Y-84491495D01*
G37*
G04 #@! TD.AperFunction*
G04 #@! TA.AperFunction,Conductor*
G36*
X140091210Y-95067031D02*
G01*
X140245917Y-95097044D01*
X140253386Y-95101984D01*
X140253453Y-95102084D01*
X140340349Y-95233722D01*
X140342047Y-95242515D01*
X140337031Y-95249932D01*
X140336332Y-95250359D01*
X140273404Y-95285846D01*
X140271850Y-95286578D01*
X140215286Y-95308293D01*
X140163016Y-95328736D01*
X140131427Y-95348010D01*
X140119113Y-95355524D01*
X140119112Y-95355525D01*
X140074595Y-95394568D01*
X140066115Y-95397447D01*
X140058607Y-95394045D01*
X140011119Y-95346557D01*
X140007692Y-95338284D01*
X140010472Y-95330714D01*
X140041512Y-95294152D01*
X140060987Y-95255501D01*
X140069006Y-95178594D01*
X140075309Y-95102084D01*
X140077330Y-95077558D01*
X140081424Y-95069595D01*
X140089951Y-95066859D01*
X140091210Y-95067031D01*
G37*
G04 #@! TD.AperFunction*
G04 #@! TA.AperFunction,Conductor*
G36*
X138648213Y-100181038D02*
G01*
X138651602Y-100188366D01*
X138655495Y-100236417D01*
X138655496Y-100236421D01*
X138668262Y-100280000D01*
X138708631Y-100343732D01*
X138708633Y-100343735D01*
X138741560Y-100390843D01*
X138742537Y-100392524D01*
X138761704Y-100432857D01*
X138762403Y-100434723D01*
X138774529Y-100478008D01*
X138773461Y-100486899D01*
X138766419Y-100492430D01*
X138765610Y-100492626D01*
X138608628Y-100524767D01*
X138603934Y-100524767D01*
X138447684Y-100492776D01*
X138440267Y-100487760D01*
X138438569Y-100478967D01*
X138438965Y-100477516D01*
X138464724Y-100402456D01*
X138466097Y-100399702D01*
X138471547Y-100391640D01*
X138503928Y-100343736D01*
X138544758Y-100278906D01*
X138557197Y-100235692D01*
X138560972Y-100188380D01*
X138565046Y-100180406D01*
X138572635Y-100177611D01*
X138639940Y-100177611D01*
X138648213Y-100181038D01*
G37*
G04 #@! TD.AperFunction*
G04 #@! TA.AperFunction,Conductor*
G36*
X136982893Y-82491495D02*
G01*
X137212979Y-82536482D01*
X137220441Y-82541433D01*
X137222217Y-82545720D01*
X137267201Y-82775792D01*
X137265425Y-82784569D01*
X137257963Y-82789520D01*
X137257429Y-82789611D01*
X137141318Y-82806780D01*
X137140981Y-82806825D01*
X137106788Y-82810867D01*
X137015318Y-82834454D01*
X137015309Y-82834458D01*
X136960694Y-82867928D01*
X136903918Y-82918539D01*
X136895462Y-82921486D01*
X136887860Y-82918078D01*
X136840590Y-82870808D01*
X136837163Y-82862535D01*
X136840098Y-82854785D01*
X136893393Y-82794510D01*
X136927000Y-82737146D01*
X136943283Y-82681355D01*
X136951893Y-82617553D01*
X136969088Y-82501267D01*
X136973688Y-82493587D01*
X136982374Y-82491407D01*
X136982893Y-82491495D01*
G37*
G04 #@! TD.AperFunction*
G04 #@! TA.AperFunction,Conductor*
G36*
X144592656Y-95214473D02*
G01*
X144595961Y-95221058D01*
X144609486Y-95313846D01*
X144644294Y-95379329D01*
X144667253Y-95417277D01*
X144668294Y-95419492D01*
X144700073Y-95510919D01*
X144699553Y-95519858D01*
X144692863Y-95525811D01*
X144691369Y-95526222D01*
X144537641Y-95557696D01*
X144528848Y-95555998D01*
X144528748Y-95555931D01*
X144397535Y-95467356D01*
X144392595Y-95459887D01*
X144394384Y-95451113D01*
X144394726Y-95450632D01*
X144443618Y-95385802D01*
X144486021Y-95325471D01*
X144500654Y-95279007D01*
X144504812Y-95221895D01*
X144508830Y-95213894D01*
X144516481Y-95211046D01*
X144584383Y-95211046D01*
X144592656Y-95214473D01*
G37*
G04 #@! TD.AperFunction*
G04 #@! TA.AperFunction,Conductor*
G36*
X135294344Y-86553091D02*
G01*
X135456097Y-86585633D01*
X135463531Y-86590624D01*
X135465259Y-86599411D01*
X135464876Y-86600840D01*
X135439980Y-86674702D01*
X135439106Y-86676673D01*
X135401038Y-86744783D01*
X135364755Y-86813841D01*
X135364755Y-86813844D01*
X135360787Y-86871583D01*
X135376295Y-86906605D01*
X135376296Y-86906606D01*
X135401522Y-86937217D01*
X135404139Y-86945781D01*
X135400766Y-86952931D01*
X135354116Y-86999581D01*
X135345843Y-87003008D01*
X135337570Y-86999581D01*
X135337166Y-86999157D01*
X135246629Y-86899071D01*
X135246407Y-86898817D01*
X135223163Y-86871583D01*
X135214656Y-86861615D01*
X135162772Y-86811577D01*
X135087861Y-86756493D01*
X135083226Y-86748831D01*
X135085038Y-86740606D01*
X135214947Y-86544550D01*
X135222372Y-86539549D01*
X135227007Y-86539545D01*
X135294344Y-86553091D01*
G37*
G04 #@! TD.AperFunction*
G04 #@! TA.AperFunction,Conductor*
G36*
X137766932Y-99981790D02*
G01*
X137770321Y-99989118D01*
X137774214Y-100037169D01*
X137774215Y-100037173D01*
X137786981Y-100080752D01*
X137827350Y-100144484D01*
X137827352Y-100144487D01*
X137860279Y-100191595D01*
X137861256Y-100193276D01*
X137880423Y-100233609D01*
X137881122Y-100235475D01*
X137893248Y-100278760D01*
X137892180Y-100287651D01*
X137885138Y-100293182D01*
X137884329Y-100293378D01*
X137727347Y-100325519D01*
X137722653Y-100325519D01*
X137566403Y-100293528D01*
X137558986Y-100288512D01*
X137557288Y-100279719D01*
X137557684Y-100278268D01*
X137583443Y-100203208D01*
X137584816Y-100200454D01*
X137590266Y-100192392D01*
X137622647Y-100144488D01*
X137663477Y-100079658D01*
X137675916Y-100036444D01*
X137679691Y-99989132D01*
X137683765Y-99981158D01*
X137691354Y-99978363D01*
X137758659Y-99978363D01*
X137766932Y-99981790D01*
G37*
G04 #@! TD.AperFunction*
G04 #@! TA.AperFunction,Conductor*
G36*
X132297447Y-93289802D02*
G01*
X132359106Y-93310962D01*
X132372512Y-93315563D01*
X132375266Y-93316936D01*
X132431233Y-93354766D01*
X132496063Y-93395597D01*
X132496065Y-93395598D01*
X132496067Y-93395599D01*
X132496068Y-93395599D01*
X132496072Y-93395601D01*
X132539270Y-93408035D01*
X132539271Y-93408035D01*
X132539281Y-93408038D01*
X132586593Y-93411812D01*
X132594567Y-93415886D01*
X132597362Y-93423475D01*
X132597362Y-93490781D01*
X132593935Y-93499054D01*
X132586607Y-93502443D01*
X132538555Y-93506336D01*
X132538551Y-93506337D01*
X132494971Y-93519103D01*
X132431239Y-93559473D01*
X132431236Y-93559475D01*
X132384128Y-93592401D01*
X132382447Y-93593378D01*
X132342115Y-93612545D01*
X132340249Y-93613244D01*
X132296964Y-93625370D01*
X132288073Y-93624302D01*
X132282542Y-93617260D01*
X132282346Y-93616451D01*
X132259004Y-93502443D01*
X132250205Y-93459466D01*
X132250205Y-93454777D01*
X132282196Y-93298523D01*
X132287212Y-93291107D01*
X132296005Y-93289409D01*
X132297447Y-93289802D01*
G37*
G04 #@! TD.AperFunction*
G04 #@! TA.AperFunction,Conductor*
G36*
X134982893Y-82491495D02*
G01*
X135212979Y-82536482D01*
X135220441Y-82541433D01*
X135222217Y-82545720D01*
X135267201Y-82775792D01*
X135265425Y-82784569D01*
X135257963Y-82789520D01*
X135257429Y-82789611D01*
X135141318Y-82806780D01*
X135140981Y-82806825D01*
X135106788Y-82810867D01*
X135015318Y-82834454D01*
X135015309Y-82834458D01*
X134960694Y-82867928D01*
X134903918Y-82918539D01*
X134895462Y-82921486D01*
X134887860Y-82918078D01*
X134840590Y-82870808D01*
X134837163Y-82862535D01*
X134840098Y-82854785D01*
X134893393Y-82794510D01*
X134927000Y-82737146D01*
X134943283Y-82681355D01*
X134951893Y-82617553D01*
X134969088Y-82501267D01*
X134973688Y-82493587D01*
X134982374Y-82491407D01*
X134982893Y-82491495D01*
G37*
G04 #@! TD.AperFunction*
G04 #@! TA.AperFunction,Conductor*
G36*
X138366419Y-99739021D02*
G01*
X138369838Y-99746890D01*
X138372651Y-99828691D01*
X138373564Y-99855239D01*
X138375109Y-99881733D01*
X138375128Y-99882533D01*
X138374406Y-99953754D01*
X138374274Y-99955397D01*
X138360301Y-100047107D01*
X138355667Y-100054770D01*
X138346972Y-100056912D01*
X138346516Y-100056833D01*
X138191648Y-100026930D01*
X138184174Y-100021997D01*
X138096845Y-99890402D01*
X138095127Y-99881615D01*
X138100126Y-99874185D01*
X138101251Y-99873525D01*
X138141437Y-99852935D01*
X138143229Y-99852197D01*
X138190447Y-99837213D01*
X138190508Y-99837194D01*
X138218861Y-99828691D01*
X138262195Y-99802377D01*
X138275756Y-99775822D01*
X138279321Y-99745909D01*
X138283703Y-99738100D01*
X138290939Y-99735594D01*
X138358146Y-99735594D01*
X138366419Y-99739021D01*
G37*
G04 #@! TD.AperFunction*
G04 #@! TA.AperFunction,Conductor*
G36*
X146616655Y-96289474D02*
G01*
X146622186Y-96296516D01*
X146622382Y-96297325D01*
X146654523Y-96454308D01*
X146654523Y-96459002D01*
X146622532Y-96615252D01*
X146617516Y-96622669D01*
X146608723Y-96624367D01*
X146607272Y-96623971D01*
X146532216Y-96598213D01*
X146529462Y-96596840D01*
X146473494Y-96559009D01*
X146408665Y-96518179D01*
X146408656Y-96518175D01*
X146365458Y-96505741D01*
X146365450Y-96505739D01*
X146365448Y-96505739D01*
X146344797Y-96504091D01*
X146318136Y-96501964D01*
X146310162Y-96497890D01*
X146307367Y-96490301D01*
X146307367Y-96422995D01*
X146310794Y-96414722D01*
X146318120Y-96411333D01*
X146366175Y-96407440D01*
X146409759Y-96394672D01*
X146473492Y-96354302D01*
X146520609Y-96321369D01*
X146522272Y-96320402D01*
X146562619Y-96301228D01*
X146564473Y-96300534D01*
X146607767Y-96288406D01*
X146616655Y-96289474D01*
G37*
G04 #@! TD.AperFunction*
G04 #@! TA.AperFunction,Conductor*
G36*
X133437744Y-87406866D02*
G01*
X133535749Y-87545707D01*
X133543784Y-87557089D01*
X133543784Y-87557090D01*
X133672201Y-87691974D01*
X133675423Y-87700329D01*
X133672000Y-87708315D01*
X133624532Y-87755783D01*
X133616259Y-87759210D01*
X133609157Y-87756808D01*
X133560520Y-87719656D01*
X133560519Y-87719655D01*
X133535350Y-87713384D01*
X133510183Y-87707113D01*
X133510181Y-87707113D01*
X133493805Y-87710254D01*
X133461049Y-87716537D01*
X133407912Y-87739064D01*
X133381625Y-87750963D01*
X133380449Y-87751421D01*
X133282073Y-87783709D01*
X133273143Y-87783033D01*
X133267307Y-87776241D01*
X133266954Y-87774900D01*
X133220845Y-87545707D01*
X133222573Y-87536920D01*
X133225849Y-87533648D01*
X133421723Y-87403859D01*
X133430512Y-87402147D01*
X133437744Y-87406866D01*
G37*
G04 #@! TD.AperFunction*
G04 #@! TA.AperFunction,Conductor*
G36*
X148095018Y-95202116D02*
G01*
X148098428Y-95209762D01*
X148101346Y-95264118D01*
X148101347Y-95264125D01*
X148112318Y-95310067D01*
X148146276Y-95365275D01*
X148159241Y-95386352D01*
X148159245Y-95386358D01*
X148196267Y-95438328D01*
X148198276Y-95447054D01*
X148193526Y-95454645D01*
X148193284Y-95454813D01*
X148061797Y-95543574D01*
X148053023Y-95545363D01*
X148052904Y-95545339D01*
X147899042Y-95513837D01*
X147891625Y-95508821D01*
X147889927Y-95500028D01*
X147890295Y-95498660D01*
X147915400Y-95423981D01*
X147916670Y-95421351D01*
X147953077Y-95365284D01*
X147991902Y-95301476D01*
X148004305Y-95257700D01*
X148008088Y-95209474D01*
X148012151Y-95201494D01*
X148019752Y-95198689D01*
X148086745Y-95198689D01*
X148095018Y-95202116D01*
G37*
G04 #@! TD.AperFunction*
G04 #@! TA.AperFunction,Conductor*
G36*
X135436924Y-85407822D02*
G01*
X135437365Y-85408543D01*
X135490595Y-85503043D01*
X135491330Y-85504608D01*
X135522227Y-85585457D01*
X135561335Y-85679330D01*
X135561338Y-85679336D01*
X135597689Y-85733466D01*
X135647542Y-85789049D01*
X135650515Y-85797495D01*
X135647105Y-85805133D01*
X135599543Y-85852695D01*
X135591270Y-85856122D01*
X135583889Y-85853500D01*
X135564728Y-85837920D01*
X135528583Y-85808530D01*
X135472593Y-85785414D01*
X135419066Y-85781676D01*
X135419063Y-85781676D01*
X135419059Y-85781676D01*
X135362970Y-85788180D01*
X135362955Y-85788182D01*
X135293807Y-85796114D01*
X135291671Y-85796162D01*
X135183670Y-85788729D01*
X135175651Y-85784743D01*
X135172801Y-85776254D01*
X135172990Y-85774812D01*
X135181074Y-85733466D01*
X135218354Y-85542795D01*
X135223304Y-85535335D01*
X135420709Y-85404531D01*
X135429498Y-85402819D01*
X135436924Y-85407822D01*
G37*
G04 #@! TD.AperFunction*
G04 #@! TA.AperFunction,Conductor*
G36*
X135883597Y-89356471D02*
G01*
X135891014Y-89361487D01*
X135892712Y-89370280D01*
X135892316Y-89371731D01*
X135866558Y-89446787D01*
X135865185Y-89449541D01*
X135827355Y-89505508D01*
X135786524Y-89570337D01*
X135786520Y-89570346D01*
X135774086Y-89613545D01*
X135774084Y-89613557D01*
X135770309Y-89660868D01*
X135766235Y-89668842D01*
X135758646Y-89671637D01*
X135691341Y-89671637D01*
X135683068Y-89668210D01*
X135679679Y-89660882D01*
X135675785Y-89612830D01*
X135675784Y-89612826D01*
X135663018Y-89569247D01*
X135622648Y-89505514D01*
X135622646Y-89505511D01*
X135589720Y-89458403D01*
X135588743Y-89456722D01*
X135585330Y-89449541D01*
X135569575Y-89416388D01*
X135568877Y-89414524D01*
X135556751Y-89371236D01*
X135557819Y-89362348D01*
X135564861Y-89356817D01*
X135565663Y-89356622D01*
X135722656Y-89324480D01*
X135727344Y-89324480D01*
X135883597Y-89356471D01*
G37*
G04 #@! TD.AperFunction*
G04 #@! TA.AperFunction,Conductor*
G36*
X144086387Y-95227753D02*
G01*
X144089775Y-95235077D01*
X144097404Y-95328873D01*
X144097405Y-95328879D01*
X144118448Y-95398664D01*
X144118501Y-95398845D01*
X144151015Y-95513307D01*
X144149979Y-95522202D01*
X144142957Y-95527759D01*
X144142107Y-95527966D01*
X143987641Y-95559591D01*
X143978848Y-95557893D01*
X143978748Y-95557826D01*
X143911303Y-95512297D01*
X143848033Y-95469587D01*
X143843094Y-95462119D01*
X143844883Y-95453345D01*
X143845573Y-95452424D01*
X143882739Y-95407729D01*
X143884155Y-95406299D01*
X143926226Y-95370626D01*
X143926473Y-95370425D01*
X143937940Y-95361367D01*
X143981952Y-95313238D01*
X143995244Y-95276364D01*
X143995244Y-95276361D01*
X143995245Y-95276359D01*
X143995245Y-95276358D01*
X143999028Y-95234961D01*
X144003193Y-95227034D01*
X144010679Y-95224326D01*
X144078114Y-95224326D01*
X144086387Y-95227753D01*
G37*
G04 #@! TD.AperFunction*
G04 #@! TA.AperFunction,Conductor*
G36*
X134018579Y-84404123D02*
G01*
X134019527Y-84404688D01*
X134177782Y-84509550D01*
X134216626Y-84535289D01*
X134221629Y-84542715D01*
X134221646Y-84542797D01*
X134267048Y-84775009D01*
X134265272Y-84783786D01*
X134257810Y-84788737D01*
X134256546Y-84788913D01*
X134162598Y-84796819D01*
X134160414Y-84796798D01*
X134077098Y-84788187D01*
X134077022Y-84788179D01*
X134015837Y-84781449D01*
X134015835Y-84781449D01*
X133940109Y-84793948D01*
X133896487Y-84818377D01*
X133896480Y-84818381D01*
X133856149Y-84853080D01*
X133847642Y-84855878D01*
X133840245Y-84852484D01*
X133792903Y-84805142D01*
X133789476Y-84796869D01*
X133792473Y-84789049D01*
X133841406Y-84734619D01*
X133877525Y-84681351D01*
X133877527Y-84681345D01*
X133877529Y-84681343D01*
X133900005Y-84627786D01*
X133917776Y-84585446D01*
X133936590Y-84533216D01*
X133937264Y-84531697D01*
X134002751Y-84408937D01*
X134009666Y-84403253D01*
X134018579Y-84404123D01*
G37*
G04 #@! TD.AperFunction*
G04 #@! TA.AperFunction,Conductor*
G36*
X140640750Y-95072058D02*
G01*
X140795896Y-95102156D01*
X140803365Y-95107096D01*
X140803432Y-95107196D01*
X140890196Y-95238633D01*
X140891894Y-95247426D01*
X140886878Y-95254843D01*
X140885986Y-95255377D01*
X140819681Y-95291140D01*
X140817691Y-95291986D01*
X140757567Y-95311213D01*
X140697028Y-95331521D01*
X140654840Y-95356446D01*
X140613622Y-95392241D01*
X140605129Y-95395078D01*
X140597678Y-95391680D01*
X140550229Y-95344231D01*
X140546802Y-95335958D01*
X140549657Y-95328300D01*
X140582308Y-95290625D01*
X140603647Y-95251560D01*
X140616315Y-95172490D01*
X140626910Y-95082181D01*
X140631277Y-95074365D01*
X140639893Y-95071926D01*
X140640750Y-95072058D01*
G37*
G04 #@! TD.AperFunction*
G04 #@! TA.AperFunction,Conductor*
G36*
X134552139Y-86159321D02*
G01*
X134599409Y-86206591D01*
X134602836Y-86214864D01*
X134599901Y-86222614D01*
X134546609Y-86282886D01*
X134546603Y-86282893D01*
X134512997Y-86340255D01*
X134496716Y-86396041D01*
X134488112Y-86459802D01*
X134488091Y-86459948D01*
X134470911Y-86576129D01*
X134466311Y-86583812D01*
X134457626Y-86585992D01*
X134457092Y-86585901D01*
X134227020Y-86540917D01*
X134219558Y-86535966D01*
X134217782Y-86531679D01*
X134172798Y-86301607D01*
X134174574Y-86292830D01*
X134182036Y-86287879D01*
X134182548Y-86287791D01*
X134298731Y-86270610D01*
X134298978Y-86270578D01*
X134333206Y-86266533D01*
X134424688Y-86242943D01*
X134479303Y-86209473D01*
X134536083Y-86158859D01*
X134544537Y-86155913D01*
X134552139Y-86159321D01*
G37*
G04 #@! TD.AperFunction*
G04 #@! TA.AperFunction,Conductor*
G36*
X145597616Y-95297183D02*
G01*
X145600956Y-95304035D01*
X145606232Y-95347157D01*
X145606233Y-95347161D01*
X145624151Y-95382681D01*
X145624152Y-95382683D01*
X145684035Y-95426749D01*
X145684038Y-95426751D01*
X145684041Y-95426753D01*
X145704953Y-95439561D01*
X145729083Y-95454340D01*
X145731404Y-95456206D01*
X145782569Y-95509401D01*
X145785835Y-95517740D01*
X145782248Y-95525944D01*
X145780683Y-95527209D01*
X145650781Y-95614900D01*
X145642007Y-95616689D01*
X145641888Y-95616665D01*
X145486545Y-95584860D01*
X145479128Y-95579844D01*
X145477430Y-95571052D01*
X145488069Y-95519427D01*
X145489098Y-95514434D01*
X145490735Y-95505264D01*
X145506281Y-95418213D01*
X145510389Y-95305032D01*
X145514113Y-95296888D01*
X145522081Y-95293756D01*
X145589343Y-95293756D01*
X145597616Y-95297183D01*
G37*
G04 #@! TD.AperFunction*
G04 #@! TA.AperFunction,Conductor*
G36*
X147016655Y-95863757D02*
G01*
X147022186Y-95870799D01*
X147022382Y-95871608D01*
X147054523Y-96028591D01*
X147054523Y-96033285D01*
X147022532Y-96189535D01*
X147017516Y-96196952D01*
X147008723Y-96198650D01*
X147007272Y-96198254D01*
X146932216Y-96172496D01*
X146929462Y-96171123D01*
X146873494Y-96133292D01*
X146808665Y-96092462D01*
X146808656Y-96092458D01*
X146765458Y-96080024D01*
X146765450Y-96080022D01*
X146765448Y-96080022D01*
X146744797Y-96078374D01*
X146718136Y-96076247D01*
X146710162Y-96072173D01*
X146707367Y-96064584D01*
X146707367Y-95997278D01*
X146710794Y-95989005D01*
X146718120Y-95985616D01*
X146766175Y-95981723D01*
X146809759Y-95968955D01*
X146873492Y-95928585D01*
X146920609Y-95895652D01*
X146922272Y-95894685D01*
X146962619Y-95875511D01*
X146964473Y-95874817D01*
X147007767Y-95862689D01*
X147016655Y-95863757D01*
G37*
G04 #@! TD.AperFunction*
G04 #@! TA.AperFunction,Conductor*
G36*
X135226530Y-87542094D02*
G01*
X135421026Y-87672973D01*
X135425977Y-87680435D01*
X135424201Y-87689212D01*
X135423888Y-87689654D01*
X135353930Y-87783890D01*
X135353723Y-87784160D01*
X135332403Y-87811197D01*
X135332398Y-87811204D01*
X135284396Y-87892565D01*
X135269443Y-87954851D01*
X135265083Y-88030790D01*
X135261187Y-88038853D01*
X135253402Y-88041819D01*
X135186553Y-88041819D01*
X135178280Y-88038392D01*
X135174875Y-88030837D01*
X135174872Y-88030790D01*
X135169940Y-87950531D01*
X135153141Y-87886205D01*
X135125204Y-87835241D01*
X135086177Y-87784038D01*
X135016111Y-87689654D01*
X135013931Y-87680968D01*
X135018531Y-87673286D01*
X135018940Y-87672995D01*
X135213469Y-87542094D01*
X135222245Y-87540319D01*
X135226530Y-87542094D01*
G37*
G04 #@! TD.AperFunction*
G04 #@! TA.AperFunction,Conductor*
G36*
X140545907Y-102819644D02*
G01*
X140546801Y-102820179D01*
X140670845Y-102902362D01*
X140742730Y-102949988D01*
X140746022Y-102953280D01*
X140875994Y-103149455D01*
X140877706Y-103158244D01*
X140872702Y-103165671D01*
X140872045Y-103166075D01*
X140777764Y-103219958D01*
X140776342Y-103220648D01*
X140696100Y-103253070D01*
X140603818Y-103293321D01*
X140548284Y-103331085D01*
X140548276Y-103331091D01*
X140490487Y-103383123D01*
X140482045Y-103386112D01*
X140474385Y-103382701D01*
X140313327Y-103221643D01*
X140309900Y-103213370D01*
X140312922Y-103205523D01*
X140362993Y-103150164D01*
X140400245Y-103096419D01*
X140442941Y-102999909D01*
X140460866Y-102952835D01*
X140461489Y-102951474D01*
X140530056Y-102824385D01*
X140536999Y-102818732D01*
X140545907Y-102819644D01*
G37*
G04 #@! TD.AperFunction*
G04 #@! TA.AperFunction,Conductor*
G36*
X137289297Y-98634366D02*
G01*
X137290619Y-98635119D01*
X137423709Y-98722974D01*
X137427025Y-98726290D01*
X137515095Y-98859706D01*
X137516793Y-98868498D01*
X137511777Y-98875915D01*
X137510763Y-98876514D01*
X137442890Y-98912090D01*
X137440623Y-98912991D01*
X137386265Y-98928265D01*
X137378582Y-98930424D01*
X137378579Y-98930425D01*
X137313667Y-98950018D01*
X137313655Y-98950023D01*
X137272455Y-98973866D01*
X137233021Y-99007905D01*
X137224519Y-99010717D01*
X137217103Y-99007321D01*
X137142163Y-98932381D01*
X137138736Y-98924108D01*
X137141073Y-98917093D01*
X137197331Y-98842056D01*
X137219575Y-98771418D01*
X137230132Y-98729844D01*
X137230943Y-98727626D01*
X137273660Y-98639770D01*
X137280358Y-98633830D01*
X137289297Y-98634366D01*
G37*
G04 #@! TD.AperFunction*
G04 #@! TA.AperFunction,Conductor*
G36*
X133726847Y-105092542D02*
G01*
X133823928Y-105156861D01*
X133923726Y-105222981D01*
X133927018Y-105226273D01*
X134057456Y-105423151D01*
X134059168Y-105431940D01*
X134054203Y-105439341D01*
X134051596Y-105441082D01*
X133876682Y-105564364D01*
X133876678Y-105564367D01*
X133724532Y-105708733D01*
X133716172Y-105711942D01*
X133708206Y-105708519D01*
X133441480Y-105441793D01*
X133438053Y-105433520D01*
X133441265Y-105425468D01*
X133585630Y-105273322D01*
X133708934Y-105098379D01*
X133710657Y-105095798D01*
X133718100Y-105090822D01*
X133726847Y-105092542D01*
G37*
G04 #@! TD.AperFunction*
G04 #@! TA.AperFunction,Conductor*
G36*
X132247082Y-99869905D02*
G01*
X132247708Y-99870968D01*
X132301247Y-99973906D01*
X132302160Y-99976248D01*
X132326410Y-100065824D01*
X132326547Y-100066382D01*
X132330652Y-100085161D01*
X132363025Y-100178915D01*
X132395419Y-100229321D01*
X132395421Y-100229324D01*
X132438691Y-100278256D01*
X132441604Y-100286723D01*
X132438199Y-100294279D01*
X132312377Y-100420101D01*
X132304104Y-100423528D01*
X132296313Y-100420557D01*
X132241178Y-100371346D01*
X132186964Y-100335529D01*
X132089037Y-100296999D01*
X132028306Y-100276475D01*
X132026587Y-100275736D01*
X131906373Y-100212226D01*
X131900658Y-100205331D01*
X131901493Y-100196416D01*
X131902077Y-100195429D01*
X132031822Y-99999596D01*
X132035114Y-99996305D01*
X132230868Y-99866612D01*
X132239655Y-99864901D01*
X132247082Y-99869905D01*
G37*
G04 #@! TD.AperFunction*
G04 #@! TA.AperFunction,Conductor*
G36*
X140172146Y-107416931D02*
G01*
X140175557Y-107424616D01*
X140179297Y-107499167D01*
X140179298Y-107499175D01*
X140190958Y-107563509D01*
X140190958Y-107563510D01*
X140229018Y-107661960D01*
X140249614Y-107707889D01*
X140250147Y-107709323D01*
X140291525Y-107847655D01*
X140290613Y-107856563D01*
X140283669Y-107862217D01*
X140282644Y-107862474D01*
X140052328Y-107909227D01*
X140047672Y-107909227D01*
X139817051Y-107862413D01*
X139809625Y-107857409D01*
X139807913Y-107848619D01*
X139808086Y-107847887D01*
X139836658Y-107743096D01*
X139837175Y-107741607D01*
X139870988Y-107661944D01*
X139907780Y-107568228D01*
X139907781Y-107568223D01*
X139920346Y-107502257D01*
X139920346Y-107502255D01*
X139920345Y-107502255D01*
X139920347Y-107502250D01*
X139923249Y-107446897D01*
X139924419Y-107424591D01*
X139928274Y-107416509D01*
X139936103Y-107413504D01*
X140163873Y-107413504D01*
X140172146Y-107416931D01*
G37*
G04 #@! TD.AperFunction*
G04 #@! TA.AperFunction,Conductor*
G36*
X140545907Y-102819644D02*
G01*
X140546801Y-102820179D01*
X140670845Y-102902362D01*
X140742730Y-102949988D01*
X140746022Y-102953280D01*
X140875994Y-103149455D01*
X140877706Y-103158244D01*
X140872702Y-103165671D01*
X140872045Y-103166075D01*
X140777764Y-103219958D01*
X140776342Y-103220648D01*
X140696100Y-103253070D01*
X140603818Y-103293321D01*
X140548284Y-103331085D01*
X140548276Y-103331091D01*
X140490487Y-103383123D01*
X140482045Y-103386112D01*
X140474385Y-103382701D01*
X140313327Y-103221643D01*
X140309900Y-103213370D01*
X140312922Y-103205523D01*
X140362993Y-103150164D01*
X140400245Y-103096419D01*
X140442941Y-102999909D01*
X140460866Y-102952835D01*
X140461489Y-102951474D01*
X140530056Y-102824385D01*
X140536999Y-102818732D01*
X140545907Y-102819644D01*
G37*
G04 #@! TD.AperFunction*
G04 #@! TA.AperFunction,Conductor*
G36*
X148166128Y-108117728D02*
G01*
X148169540Y-108125437D01*
X148170954Y-108154769D01*
X148174876Y-108236155D01*
X148174876Y-108236158D01*
X148192360Y-108322424D01*
X148213048Y-108415176D01*
X148211505Y-108423997D01*
X148204176Y-108429142D01*
X148203976Y-108429185D01*
X148046351Y-108461457D01*
X148041657Y-108461457D01*
X147914689Y-108435462D01*
X147884029Y-108429184D01*
X147876613Y-108424169D01*
X147874915Y-108415376D01*
X147874932Y-108415293D01*
X147895653Y-108322394D01*
X147899227Y-108307554D01*
X147914032Y-108228804D01*
X147918518Y-108125492D01*
X147922301Y-108117377D01*
X147930207Y-108114301D01*
X148157855Y-108114301D01*
X148166128Y-108117728D01*
G37*
G04 #@! TD.AperFunction*
G04 #@! TA.AperFunction,Conductor*
G36*
X149826884Y-106392570D02*
G01*
X150021754Y-106521747D01*
X150026757Y-106529174D01*
X150026774Y-106529259D01*
X150071491Y-106758502D01*
X150069711Y-106767278D01*
X150062247Y-106772226D01*
X150062038Y-106772264D01*
X149956643Y-106790840D01*
X149857245Y-106810270D01*
X149779184Y-106840866D01*
X149779182Y-106840867D01*
X149684571Y-106896842D01*
X149675706Y-106898105D01*
X149668814Y-106893163D01*
X149634707Y-106840867D01*
X149544274Y-106702207D01*
X149542626Y-106693407D01*
X149546939Y-106686546D01*
X149646892Y-106609648D01*
X149679580Y-106584502D01*
X149679580Y-106584500D01*
X149679582Y-106584500D01*
X149763134Y-106469351D01*
X149810703Y-106396019D01*
X149818079Y-106390944D01*
X149826884Y-106392570D01*
G37*
G04 #@! TD.AperFunction*
G04 #@! TA.AperFunction,Conductor*
G36*
X146317660Y-107680901D02*
G01*
X146512167Y-107691389D01*
X146520244Y-107695256D01*
X146523237Y-107703072D01*
X146523237Y-107931329D01*
X146519810Y-107939602D01*
X146512627Y-107942978D01*
X146463556Y-107947569D01*
X146447449Y-107949076D01*
X146447446Y-107949076D01*
X146447446Y-107949077D01*
X146394769Y-107968874D01*
X146355773Y-107999171D01*
X146355761Y-107999182D01*
X146321033Y-108037747D01*
X146292687Y-108070123D01*
X146291504Y-108071294D01*
X146208875Y-108142213D01*
X146200365Y-108145001D01*
X146192377Y-108140955D01*
X146191548Y-108139867D01*
X146096865Y-107999177D01*
X146060322Y-107944879D01*
X146058546Y-107940586D01*
X146013608Y-107709940D01*
X146015389Y-107701167D01*
X146022854Y-107696221D01*
X146023564Y-107696105D01*
X146190053Y-107674350D01*
X146192178Y-107674268D01*
X146317660Y-107680901D01*
G37*
G04 #@! TD.AperFunction*
G04 #@! TA.AperFunction,Conductor*
G36*
X134022288Y-104733231D02*
G01*
X134025692Y-104740767D01*
X134030319Y-104814133D01*
X134044645Y-104877288D01*
X134090564Y-104972193D01*
X134126380Y-105038611D01*
X134127236Y-105040630D01*
X134166264Y-105163816D01*
X134165495Y-105172738D01*
X134158644Y-105178504D01*
X134157438Y-105178816D01*
X133927328Y-105225527D01*
X133922672Y-105225527D01*
X133692383Y-105178780D01*
X133684957Y-105173776D01*
X133683245Y-105164986D01*
X133683503Y-105163956D01*
X133716394Y-105054873D01*
X133717227Y-105052834D01*
X133759439Y-104972186D01*
X133807658Y-104869931D01*
X133820332Y-104809336D01*
X133824354Y-104740818D01*
X133828260Y-104732760D01*
X133836034Y-104729804D01*
X134014015Y-104729804D01*
X134022288Y-104733231D01*
G37*
G04 #@! TD.AperFunction*
G04 #@! TA.AperFunction,Conductor*
G36*
X149810925Y-99716986D02*
G01*
X149934159Y-99740996D01*
X150041969Y-99762001D01*
X150046263Y-99763778D01*
X150241307Y-99895041D01*
X150246258Y-99902504D01*
X150244482Y-99911280D01*
X150243693Y-99912322D01*
X150189016Y-99976704D01*
X150187414Y-99978261D01*
X150128047Y-100025825D01*
X150127900Y-100025940D01*
X150089382Y-100055803D01*
X150089379Y-100055806D01*
X150044985Y-100113097D01*
X150044984Y-100113098D01*
X150031490Y-100157645D01*
X150027565Y-100206854D01*
X150023491Y-100214829D01*
X150015902Y-100217624D01*
X149788106Y-100217624D01*
X149779833Y-100214197D01*
X149776410Y-100206227D01*
X149772165Y-100042527D01*
X149769494Y-99963512D01*
X149769503Y-99962497D01*
X149774943Y-99861829D01*
X149775081Y-99860565D01*
X149791017Y-99763778D01*
X149797144Y-99726567D01*
X149801869Y-99718963D01*
X149810589Y-99716925D01*
X149810925Y-99716986D01*
G37*
G04 #@! TD.AperFunction*
G04 #@! TA.AperFunction,Conductor*
G36*
X150024305Y-106064099D02*
G01*
X150027683Y-106071301D01*
X150033704Y-106136801D01*
X150033705Y-106136806D01*
X150053284Y-106189811D01*
X150075091Y-106218410D01*
X150083313Y-106229194D01*
X150083316Y-106229197D01*
X150083319Y-106229200D01*
X150121669Y-106264468D01*
X150127220Y-106269415D01*
X150151623Y-106291165D01*
X150152731Y-106292297D01*
X150224342Y-106376128D01*
X150227110Y-106384644D01*
X150223045Y-106392623D01*
X150221978Y-106393434D01*
X150026966Y-106524676D01*
X150022671Y-106526453D01*
X149792060Y-106571384D01*
X149783285Y-106569603D01*
X149778339Y-106562137D01*
X149778218Y-106561386D01*
X149757047Y-106396035D01*
X149756973Y-106393844D01*
X149757047Y-106392623D01*
X149764489Y-106269415D01*
X149776061Y-106071687D01*
X149779965Y-106063630D01*
X149787741Y-106060672D01*
X150016032Y-106060672D01*
X150024305Y-106064099D01*
G37*
G04 #@! TD.AperFunction*
G04 #@! TA.AperFunction,Conductor*
G36*
X137201323Y-104416996D02*
G01*
X137257322Y-104464600D01*
X137257325Y-104464601D01*
X137257328Y-104464604D01*
X137289653Y-104482280D01*
X137314245Y-104495729D01*
X137419406Y-104519329D01*
X137520140Y-104539377D01*
X137522209Y-104539994D01*
X137574745Y-104561137D01*
X137576235Y-104561863D01*
X137626497Y-104590971D01*
X137631938Y-104598083D01*
X137630758Y-104606960D01*
X137630387Y-104607558D01*
X137500376Y-104803792D01*
X137497084Y-104807084D01*
X137300882Y-104937074D01*
X137292093Y-104938786D01*
X137284666Y-104933782D01*
X137284277Y-104933152D01*
X137253852Y-104880239D01*
X137253099Y-104878670D01*
X137231748Y-104824032D01*
X137231160Y-104821996D01*
X137227640Y-104803792D01*
X137212674Y-104726389D01*
X137212581Y-104725834D01*
X137207751Y-104691282D01*
X137180275Y-104601606D01*
X137150238Y-104553386D01*
X137110517Y-104508048D01*
X137107643Y-104499568D01*
X137111044Y-104492067D01*
X137185474Y-104417637D01*
X137193746Y-104414211D01*
X137201323Y-104416996D01*
G37*
G04 #@! TD.AperFunction*
G04 #@! TA.AperFunction,Conductor*
G36*
X150047573Y-99300898D02*
G01*
X150050953Y-99308128D01*
X150056860Y-99374155D01*
X150056861Y-99374160D01*
X150076107Y-99427681D01*
X150076111Y-99427687D01*
X150105729Y-99467659D01*
X150105730Y-99467660D01*
X150105732Y-99467662D01*
X150105733Y-99467663D01*
X150143724Y-99503730D01*
X150163425Y-99521776D01*
X150169975Y-99527775D01*
X150170996Y-99528836D01*
X150243707Y-99614588D01*
X150246444Y-99623115D01*
X150242350Y-99631079D01*
X150241315Y-99631862D01*
X150048358Y-99761721D01*
X150039582Y-99763497D01*
X150039498Y-99763480D01*
X149809738Y-99716841D01*
X149802312Y-99711837D01*
X149800458Y-99703913D01*
X149817328Y-99570087D01*
X149810626Y-99468783D01*
X149810642Y-99468734D01*
X149810623Y-99468736D01*
X149800771Y-99309895D01*
X149803680Y-99301426D01*
X149811725Y-99297493D01*
X149812449Y-99297471D01*
X150039300Y-99297471D01*
X150047573Y-99300898D01*
G37*
G04 #@! TD.AperFunction*
G04 #@! TA.AperFunction,Conductor*
G36*
X150028991Y-97726686D02*
G01*
X150222184Y-97856703D01*
X150227135Y-97864166D01*
X150225359Y-97872942D01*
X150224691Y-97873839D01*
X150138743Y-97978409D01*
X150138253Y-97978967D01*
X150114358Y-98004543D01*
X150114352Y-98004550D01*
X150068784Y-98074080D01*
X150068783Y-98074082D01*
X150054848Y-98126788D01*
X150050733Y-98188061D01*
X150046759Y-98196086D01*
X150039059Y-98198977D01*
X149811980Y-98198977D01*
X149803707Y-98195550D01*
X149800280Y-98187277D01*
X149800283Y-98187000D01*
X149802956Y-98074083D01*
X149803429Y-98054079D01*
X149805250Y-98002707D01*
X149805249Y-98002698D01*
X149805250Y-98002689D01*
X149805250Y-98002688D01*
X149801658Y-97909087D01*
X149801656Y-97909069D01*
X149794359Y-97863893D01*
X149781596Y-97784868D01*
X149783660Y-97776155D01*
X149790817Y-97771537D01*
X150020201Y-97724974D01*
X150028991Y-97726686D01*
G37*
G04 #@! TD.AperFunction*
G04 #@! TA.AperFunction,Conductor*
G36*
X140186687Y-107676805D02*
G01*
X140263885Y-107688487D01*
X140263892Y-107688487D01*
X140263896Y-107688488D01*
X140385319Y-107688610D01*
X140512917Y-107686048D01*
X140521256Y-107689308D01*
X140524849Y-107697511D01*
X140524851Y-107697746D01*
X140524851Y-107924964D01*
X140521424Y-107933237D01*
X140514037Y-107936630D01*
X140444238Y-107941929D01*
X140444230Y-107941931D01*
X140387480Y-107959467D01*
X140387476Y-107959469D01*
X140343884Y-107987188D01*
X140343881Y-107987191D01*
X140302964Y-108023670D01*
X140302565Y-108024010D01*
X140198831Y-108108475D01*
X140190252Y-108111041D01*
X140182371Y-108106789D01*
X140181737Y-108105934D01*
X140051733Y-107912761D01*
X140049957Y-107903985D01*
X140049974Y-107903901D01*
X140091822Y-107697746D01*
X140096559Y-107674406D01*
X140101563Y-107666982D01*
X140109773Y-107665168D01*
X140186687Y-107676805D01*
G37*
G04 #@! TD.AperFunction*
G04 #@! TA.AperFunction,Conductor*
G36*
X145978846Y-107676817D02*
G01*
X145980079Y-107676947D01*
X146096841Y-107695792D01*
X146104463Y-107700494D01*
X146106528Y-107709207D01*
X146106461Y-107709581D01*
X146061453Y-107940586D01*
X146059676Y-107944880D01*
X145928300Y-108140092D01*
X145920837Y-108145043D01*
X145912061Y-108143267D01*
X145911158Y-108142594D01*
X145847929Y-108090561D01*
X145846548Y-108089219D01*
X145798082Y-108033632D01*
X145798023Y-108033563D01*
X145768546Y-107998710D01*
X145708307Y-107954150D01*
X145708305Y-107954149D01*
X145661905Y-107940603D01*
X145661902Y-107940602D01*
X145661900Y-107940602D01*
X145636577Y-107938662D01*
X145610127Y-107936636D01*
X145602140Y-107932587D01*
X145599321Y-107924970D01*
X145599321Y-107697013D01*
X145602748Y-107688740D01*
X145610513Y-107685324D01*
X145739359Y-107679748D01*
X145796234Y-107677288D01*
X145822927Y-107675770D01*
X145886781Y-107672139D01*
X145888018Y-107672137D01*
X145978846Y-107676817D01*
G37*
G04 #@! TD.AperFunction*
G04 #@! TA.AperFunction,Conductor*
G36*
X132685291Y-106870419D02*
G01*
X132688714Y-106878385D01*
X132694215Y-107088049D01*
X132694217Y-107088064D01*
X132730732Y-107298957D01*
X132731335Y-107301985D01*
X132729588Y-107310768D01*
X132722188Y-107315733D01*
X132490743Y-107362715D01*
X132486087Y-107362715D01*
X132254640Y-107315733D01*
X132247214Y-107310729D01*
X132245494Y-107301981D01*
X132246098Y-107298949D01*
X132269898Y-107161485D01*
X132282614Y-107088051D01*
X132288116Y-106878384D01*
X132291759Y-106870205D01*
X132299812Y-106866992D01*
X132677018Y-106866992D01*
X132685291Y-106870419D01*
G37*
G04 #@! TD.AperFunction*
G04 #@! TA.AperFunction,Conductor*
G36*
X156318991Y-106051013D02*
G01*
X156326416Y-106056017D01*
X156328128Y-106064807D01*
X156327955Y-106065539D01*
X156312171Y-106123781D01*
X156311578Y-106125453D01*
X156288092Y-106178557D01*
X156287043Y-106180439D01*
X156232464Y-106260087D01*
X156232102Y-106260586D01*
X156211064Y-106288058D01*
X156211063Y-106288059D01*
X156167090Y-106369777D01*
X156167087Y-106369785D01*
X156154233Y-106424429D01*
X156154232Y-106424434D01*
X156150269Y-106483734D01*
X156146298Y-106491760D01*
X156138595Y-106494654D01*
X155910773Y-106494654D01*
X155902500Y-106491227D01*
X155899083Y-106483429D01*
X155896687Y-106424429D01*
X155892140Y-106312477D01*
X155887603Y-106288059D01*
X155867099Y-106177692D01*
X155856048Y-106125453D01*
X155843268Y-106065035D01*
X155844909Y-106056233D01*
X155852293Y-106051168D01*
X156083698Y-106004195D01*
X156088348Y-106004195D01*
X156318991Y-106051013D01*
G37*
G04 #@! TD.AperFunction*
G04 #@! TA.AperFunction,Conductor*
G36*
X156146892Y-108860690D02*
G01*
X156150291Y-108868157D01*
X156155343Y-108941324D01*
X156170945Y-109004119D01*
X156220677Y-109097670D01*
X156263658Y-109171583D01*
X156264386Y-109173067D01*
X156286988Y-109228805D01*
X156287467Y-109230248D01*
X156303509Y-109291725D01*
X156302282Y-109300595D01*
X156295142Y-109306000D01*
X156294516Y-109306145D01*
X156063763Y-109352986D01*
X156059107Y-109352986D01*
X155828284Y-109306131D01*
X155820858Y-109301127D01*
X155819146Y-109292337D01*
X155819275Y-109291775D01*
X155834961Y-109230248D01*
X155861228Y-109127210D01*
X155861288Y-109126985D01*
X155869464Y-109097670D01*
X155881921Y-109053000D01*
X155894837Y-108972573D01*
X155899081Y-108868485D01*
X155902842Y-108860360D01*
X155910771Y-108857263D01*
X156138619Y-108857263D01*
X156146892Y-108860690D01*
G37*
G04 #@! TD.AperFunction*
G04 #@! TA.AperFunction,Conductor*
G36*
X133370111Y-97413168D02*
G01*
X133375051Y-97420637D01*
X133375231Y-97421969D01*
X133379841Y-97481966D01*
X133379788Y-97484289D01*
X133372819Y-97540942D01*
X133372764Y-97541333D01*
X133369882Y-97559187D01*
X133371150Y-97622336D01*
X133386957Y-97656873D01*
X133412295Y-97687509D01*
X133414927Y-97696068D01*
X133411552Y-97703239D01*
X133363941Y-97750850D01*
X133355668Y-97754277D01*
X133347982Y-97751398D01*
X133275852Y-97688553D01*
X133211680Y-97650985D01*
X133211665Y-97650976D01*
X133115994Y-97594771D01*
X133110596Y-97587626D01*
X133111832Y-97578757D01*
X133112146Y-97578252D01*
X133199173Y-97446415D01*
X133206590Y-97441400D01*
X133206633Y-97441391D01*
X133361338Y-97411379D01*
X133370111Y-97413168D01*
G37*
G04 #@! TD.AperFunction*
G04 #@! TA.AperFunction,Conductor*
G36*
X137802607Y-105705022D02*
G01*
X137880684Y-105716890D01*
X137884609Y-105718231D01*
X137941770Y-105750004D01*
X137942353Y-105750350D01*
X137976605Y-105772077D01*
X138023062Y-105788741D01*
X138064702Y-105803677D01*
X138071333Y-105809696D01*
X138072240Y-105816908D01*
X138042493Y-105970967D01*
X138037560Y-105978441D01*
X138033275Y-105980227D01*
X137881719Y-106010199D01*
X137872938Y-106008442D01*
X137867971Y-106000991D01*
X137867760Y-105999239D01*
X137863660Y-105906751D01*
X137863649Y-105906230D01*
X137863662Y-105852193D01*
X137847956Y-105810351D01*
X137847955Y-105810350D01*
X137847954Y-105810349D01*
X137825431Y-105796687D01*
X137821110Y-105796114D01*
X137799319Y-105793225D01*
X137791570Y-105788741D01*
X137789159Y-105781627D01*
X137789159Y-105716590D01*
X137792586Y-105708317D01*
X137800859Y-105704890D01*
X137802607Y-105705022D01*
G37*
G04 #@! TD.AperFunction*
G04 #@! TA.AperFunction,Conductor*
G36*
X133903063Y-97412184D02*
G01*
X133903810Y-97413490D01*
X133938671Y-97484779D01*
X133939647Y-97487698D01*
X133952472Y-97554030D01*
X133969439Y-97628728D01*
X133969440Y-97628733D01*
X133991202Y-97668089D01*
X134021988Y-97704213D01*
X134024746Y-97712732D01*
X134021356Y-97720075D01*
X133973763Y-97767668D01*
X133965490Y-97771095D01*
X133957912Y-97768309D01*
X133921180Y-97737083D01*
X133921177Y-97737081D01*
X133921173Y-97737078D01*
X133881338Y-97715295D01*
X133881332Y-97715293D01*
X133807742Y-97698777D01*
X133807726Y-97698774D01*
X133807721Y-97698773D01*
X133775743Y-97693106D01*
X133751127Y-97688745D01*
X133749248Y-97688247D01*
X133707178Y-97673282D01*
X133705364Y-97672457D01*
X133666181Y-97650423D01*
X133660650Y-97643381D01*
X133661718Y-97634490D01*
X133662140Y-97633798D01*
X133750432Y-97500045D01*
X133753743Y-97496734D01*
X133886854Y-97408865D01*
X133895646Y-97407168D01*
X133903063Y-97412184D01*
G37*
G04 #@! TD.AperFunction*
G04 #@! TA.AperFunction,Conductor*
G36*
X139091932Y-107585490D02*
G01*
X139095321Y-107592818D01*
X139099214Y-107640869D01*
X139099215Y-107640873D01*
X139111981Y-107684452D01*
X139152350Y-107748184D01*
X139152352Y-107748187D01*
X139185279Y-107795295D01*
X139186256Y-107796976D01*
X139205423Y-107837309D01*
X139206122Y-107839175D01*
X139218248Y-107882460D01*
X139217180Y-107891351D01*
X139210138Y-107896882D01*
X139209329Y-107897078D01*
X139052347Y-107929219D01*
X139047653Y-107929219D01*
X138891403Y-107897228D01*
X138883986Y-107892212D01*
X138882288Y-107883419D01*
X138882684Y-107881968D01*
X138908443Y-107806908D01*
X138909816Y-107804154D01*
X138915266Y-107796092D01*
X138947647Y-107748188D01*
X138988477Y-107683358D01*
X139000916Y-107640144D01*
X139004691Y-107592832D01*
X139008765Y-107584858D01*
X139016354Y-107582063D01*
X139083659Y-107582063D01*
X139091932Y-107585490D01*
G37*
G04 #@! TD.AperFunction*
G04 #@! TA.AperFunction,Conductor*
G36*
X137766932Y-107581790D02*
G01*
X137770321Y-107589118D01*
X137774214Y-107637169D01*
X137774215Y-107637173D01*
X137786981Y-107680752D01*
X137827350Y-107744484D01*
X137827352Y-107744487D01*
X137860279Y-107791595D01*
X137861256Y-107793276D01*
X137880423Y-107833609D01*
X137881122Y-107835475D01*
X137893248Y-107878760D01*
X137892180Y-107887651D01*
X137885138Y-107893182D01*
X137884329Y-107893378D01*
X137727347Y-107925519D01*
X137722653Y-107925519D01*
X137566403Y-107893528D01*
X137558986Y-107888512D01*
X137557288Y-107879719D01*
X137557684Y-107878268D01*
X137583443Y-107803208D01*
X137584816Y-107800454D01*
X137590266Y-107792392D01*
X137622647Y-107744488D01*
X137663477Y-107679658D01*
X137675916Y-107636444D01*
X137679691Y-107589132D01*
X137683765Y-107581158D01*
X137691354Y-107578363D01*
X137758659Y-107578363D01*
X137766932Y-107581790D01*
G37*
G04 #@! TD.AperFunction*
G04 #@! TA.AperFunction,Conductor*
G36*
X134247233Y-96177477D02*
G01*
X134247937Y-96177907D01*
X134381675Y-96266189D01*
X134384992Y-96269506D01*
X134472857Y-96402612D01*
X134474555Y-96411405D01*
X134469539Y-96418822D01*
X134468233Y-96419569D01*
X134396944Y-96454430D01*
X134394025Y-96455406D01*
X134327699Y-96468230D01*
X134252993Y-96485198D01*
X134252990Y-96485199D01*
X134213634Y-96506961D01*
X134177510Y-96537747D01*
X134168990Y-96540505D01*
X134161648Y-96537115D01*
X134114055Y-96489522D01*
X134110628Y-96481249D01*
X134113413Y-96473673D01*
X134144640Y-96436939D01*
X134166430Y-96397093D01*
X134182950Y-96323481D01*
X134192978Y-96266880D01*
X134193472Y-96265014D01*
X134208441Y-96222935D01*
X134209266Y-96221123D01*
X134231302Y-96181938D01*
X134238342Y-96176409D01*
X134247233Y-96177477D01*
G37*
G04 #@! TD.AperFunction*
G04 #@! TA.AperFunction,Conductor*
G36*
X150661640Y-93372794D02*
G01*
X150661945Y-93373226D01*
X150790608Y-93564406D01*
X150792384Y-93573182D01*
X150790608Y-93577470D01*
X150661945Y-93768649D01*
X150654482Y-93773600D01*
X150645706Y-93771824D01*
X150645274Y-93771519D01*
X150641399Y-93768649D01*
X150553291Y-93703387D01*
X150553021Y-93703181D01*
X150528086Y-93683561D01*
X150447114Y-93635381D01*
X150385337Y-93620387D01*
X150309832Y-93616024D01*
X150301771Y-93612126D01*
X150298808Y-93604344D01*
X150298808Y-93537495D01*
X150302235Y-93529222D01*
X150309795Y-93525817D01*
X150310283Y-93525787D01*
X150388816Y-93520991D01*
X150452233Y-93504505D01*
X150502524Y-93477035D01*
X150553156Y-93438589D01*
X150645276Y-93370355D01*
X150653962Y-93368186D01*
X150661640Y-93372794D01*
G37*
G04 #@! TD.AperFunction*
G04 #@! TA.AperFunction,Conductor*
G36*
X137784485Y-91547305D02*
G01*
X137785232Y-91548611D01*
X137820093Y-91619900D01*
X137821069Y-91622819D01*
X137833894Y-91689151D01*
X137850861Y-91763849D01*
X137850862Y-91763854D01*
X137872624Y-91803210D01*
X137903410Y-91839334D01*
X137906168Y-91847853D01*
X137902778Y-91855196D01*
X137855185Y-91902789D01*
X137846912Y-91906216D01*
X137839334Y-91903430D01*
X137802602Y-91872204D01*
X137802599Y-91872202D01*
X137802595Y-91872199D01*
X137762760Y-91850416D01*
X137762754Y-91850414D01*
X137689164Y-91833898D01*
X137689148Y-91833895D01*
X137689143Y-91833894D01*
X137657165Y-91828227D01*
X137632549Y-91823866D01*
X137630670Y-91823368D01*
X137588600Y-91808403D01*
X137586786Y-91807578D01*
X137547603Y-91785544D01*
X137542072Y-91778502D01*
X137543140Y-91769611D01*
X137543562Y-91768919D01*
X137631854Y-91635166D01*
X137635165Y-91631855D01*
X137768276Y-91543986D01*
X137777068Y-91542289D01*
X137784485Y-91547305D01*
G37*
G04 #@! TD.AperFunction*
G04 #@! TA.AperFunction,Conductor*
G36*
X133959187Y-95986638D02*
G01*
X134034128Y-96061579D01*
X134037555Y-96069852D01*
X134035216Y-96076870D01*
X133978961Y-96151901D01*
X133978959Y-96151905D01*
X133956716Y-96222544D01*
X133946161Y-96264107D01*
X133945343Y-96266343D01*
X133902632Y-96354187D01*
X133895933Y-96360129D01*
X133886994Y-96359593D01*
X133885664Y-96358835D01*
X133752583Y-96270987D01*
X133749265Y-96267669D01*
X133746914Y-96264107D01*
X133661195Y-96134253D01*
X133659498Y-96125462D01*
X133664514Y-96118045D01*
X133665519Y-96117451D01*
X133733402Y-96081869D01*
X133735666Y-96080969D01*
X133797710Y-96063536D01*
X133862626Y-96043941D01*
X133862635Y-96043936D01*
X133903835Y-96020093D01*
X133903837Y-96020090D01*
X133903839Y-96020090D01*
X133943272Y-95986052D01*
X133951771Y-95983242D01*
X133959187Y-95986638D01*
G37*
G04 #@! TD.AperFunction*
G04 #@! TA.AperFunction,Conductor*
G36*
X133615589Y-96178327D02*
G01*
X133616911Y-96179080D01*
X133750001Y-96266935D01*
X133753317Y-96270251D01*
X133841387Y-96403667D01*
X133843085Y-96412459D01*
X133838069Y-96419876D01*
X133837055Y-96420475D01*
X133769182Y-96456051D01*
X133766915Y-96456952D01*
X133712557Y-96472226D01*
X133704874Y-96474385D01*
X133704871Y-96474386D01*
X133639959Y-96493979D01*
X133639947Y-96493984D01*
X133598747Y-96517827D01*
X133559313Y-96551866D01*
X133550811Y-96554678D01*
X133543395Y-96551282D01*
X133468455Y-96476342D01*
X133465028Y-96468069D01*
X133467365Y-96461054D01*
X133523623Y-96386017D01*
X133545867Y-96315379D01*
X133556424Y-96273805D01*
X133557235Y-96271587D01*
X133599952Y-96183731D01*
X133606650Y-96177791D01*
X133615589Y-96178327D01*
G37*
G04 #@! TD.AperFunction*
G04 #@! TA.AperFunction,Conductor*
G36*
X134062041Y-98728193D02*
G01*
X134137077Y-98784450D01*
X134207715Y-98806694D01*
X134249286Y-98817250D01*
X134251510Y-98818064D01*
X134339361Y-98860778D01*
X134345303Y-98867477D01*
X134344767Y-98876416D01*
X134344009Y-98877746D01*
X134256160Y-99010827D01*
X134252842Y-99014145D01*
X134119428Y-99102214D01*
X134110635Y-99103912D01*
X134103218Y-99098896D01*
X134102619Y-99097882D01*
X134067043Y-99030009D01*
X134066142Y-99027742D01*
X134061389Y-99010827D01*
X134048709Y-98965700D01*
X134029114Y-98900784D01*
X134029110Y-98900778D01*
X134029109Y-98900774D01*
X134005266Y-98859574D01*
X133994950Y-98847623D01*
X133971226Y-98820139D01*
X133968415Y-98811639D01*
X133971810Y-98804224D01*
X134046753Y-98729281D01*
X134055025Y-98725855D01*
X134062041Y-98728193D01*
G37*
G04 #@! TD.AperFunction*
G04 #@! TA.AperFunction,Conductor*
G36*
X135156192Y-95404195D02*
G01*
X135162134Y-95410894D01*
X135162538Y-95412370D01*
X135194523Y-95568591D01*
X135194523Y-95573285D01*
X135162458Y-95729897D01*
X135157442Y-95737314D01*
X135148649Y-95739012D01*
X135147509Y-95738718D01*
X135074364Y-95715882D01*
X135072124Y-95714917D01*
X135015898Y-95683357D01*
X134956164Y-95651325D01*
X134956162Y-95651324D01*
X134910164Y-95639050D01*
X134910162Y-95639049D01*
X134910159Y-95639049D01*
X134872198Y-95636261D01*
X134858210Y-95635234D01*
X134850210Y-95631210D01*
X134847367Y-95623565D01*
X134847367Y-95517583D01*
X134850794Y-95509310D01*
X134857409Y-95506001D01*
X134950247Y-95492723D01*
X135015924Y-95458503D01*
X135052780Y-95436575D01*
X135054927Y-95435577D01*
X135147256Y-95403659D01*
X135156192Y-95404195D01*
G37*
G04 #@! TD.AperFunction*
M02*
