%TF.GenerationSoftware,KiCad,Pcbnew,8.0.0-rc1-4-g5bc78f7d9f*%
%TF.CreationDate,2024-02-12T22:06:08-05:00*%
%TF.ProjectId,fujiflex,66756a69-666c-4657-982e-6b696361645f,rev?*%
%TF.SameCoordinates,Original*%
%TF.FileFunction,Soldermask,Bot*%
%TF.FilePolarity,Negative*%
%FSLAX46Y46*%
G04 Gerber Fmt 4.6, Leading zero omitted, Abs format (unit mm)*
G04 Created by KiCad (PCBNEW 8.0.0-rc1-4-g5bc78f7d9f) date 2024-02-12 22:06:08*
%MOMM*%
%LPD*%
G01*
G04 APERTURE LIST*
%ADD10C,0.259000*%
G04 APERTURE END LIST*
D10*
X137349500Y-84538700D02*
G75*
G02*
X137090500Y-84538700I-129500J0D01*
G01*
X137090500Y-84538700D02*
G75*
G02*
X137349500Y-84538700I129500J0D01*
G01*
X137349500Y-83538700D02*
G75*
G02*
X137090500Y-83538700I-129500J0D01*
G01*
X137090500Y-83538700D02*
G75*
G02*
X137349500Y-83538700I129500J0D01*
G01*
X134349500Y-82538700D02*
G75*
G02*
X134090500Y-82538700I-129500J0D01*
G01*
X134090500Y-82538700D02*
G75*
G02*
X134349500Y-82538700I129500J0D01*
G01*
X135349500Y-84538700D02*
G75*
G02*
X135090500Y-84538700I-129500J0D01*
G01*
X135090500Y-84538700D02*
G75*
G02*
X135349500Y-84538700I129500J0D01*
G01*
X134349500Y-84538700D02*
G75*
G02*
X134090500Y-84538700I-129500J0D01*
G01*
X134090500Y-84538700D02*
G75*
G02*
X134349500Y-84538700I129500J0D01*
G01*
X136349500Y-85538700D02*
G75*
G02*
X136090500Y-85538700I-129500J0D01*
G01*
X136090500Y-85538700D02*
G75*
G02*
X136349500Y-85538700I129500J0D01*
G01*
X134349500Y-85538700D02*
G75*
G02*
X134090500Y-85538700I-129500J0D01*
G01*
X134090500Y-85538700D02*
G75*
G02*
X134349500Y-85538700I129500J0D01*
G01*
X135349500Y-82538700D02*
G75*
G02*
X135090500Y-82538700I-129500J0D01*
G01*
X135090500Y-82538700D02*
G75*
G02*
X135349500Y-82538700I129500J0D01*
G01*
X134349500Y-83538700D02*
G75*
G02*
X134090500Y-83538700I-129500J0D01*
G01*
X134090500Y-83538700D02*
G75*
G02*
X134349500Y-83538700I129500J0D01*
G01*
X135349500Y-87538700D02*
G75*
G02*
X135090500Y-87538700I-129500J0D01*
G01*
X135090500Y-87538700D02*
G75*
G02*
X135349500Y-87538700I129500J0D01*
G01*
X133349500Y-87538700D02*
G75*
G02*
X133090500Y-87538700I-129500J0D01*
G01*
X133090500Y-87538700D02*
G75*
G02*
X133349500Y-87538700I129500J0D01*
G01*
X135349500Y-85538700D02*
G75*
G02*
X135090500Y-85538700I-129500J0D01*
G01*
X135090500Y-85538700D02*
G75*
G02*
X135349500Y-85538700I129500J0D01*
G01*
X136349500Y-82538700D02*
G75*
G02*
X136090500Y-82538700I-129500J0D01*
G01*
X136090500Y-82538700D02*
G75*
G02*
X136349500Y-82538700I129500J0D01*
G01*
X136349500Y-86538700D02*
G75*
G02*
X136090500Y-86538700I-129500J0D01*
G01*
X136090500Y-86538700D02*
G75*
G02*
X136349500Y-86538700I129500J0D01*
G01*
X136349500Y-87538700D02*
G75*
G02*
X136090500Y-87538700I-129500J0D01*
G01*
X136090500Y-87538700D02*
G75*
G02*
X136349500Y-87538700I129500J0D01*
G01*
X135349500Y-83538700D02*
G75*
G02*
X135090500Y-83538700I-129500J0D01*
G01*
X135090500Y-83538700D02*
G75*
G02*
X135349500Y-83538700I129500J0D01*
G01*
X136349500Y-83538700D02*
G75*
G02*
X136090500Y-83538700I-129500J0D01*
G01*
X136090500Y-83538700D02*
G75*
G02*
X136349500Y-83538700I129500J0D01*
G01*
X134349500Y-86538700D02*
G75*
G02*
X134090500Y-86538700I-129500J0D01*
G01*
X134090500Y-86538700D02*
G75*
G02*
X134349500Y-86538700I129500J0D01*
G01*
X137349500Y-82538700D02*
G75*
G02*
X137090500Y-82538700I-129500J0D01*
G01*
X137090500Y-82538700D02*
G75*
G02*
X137349500Y-82538700I129500J0D01*
G01*
X136349500Y-84538700D02*
G75*
G02*
X136090500Y-84538700I-129500J0D01*
G01*
X136090500Y-84538700D02*
G75*
G02*
X136349500Y-84538700I129500J0D01*
G01*
X135349500Y-86538700D02*
G75*
G02*
X135090500Y-86538700I-129500J0D01*
G01*
X135090500Y-86538700D02*
G75*
G02*
X135349500Y-86538700I129500J0D01*
G01*
X134349500Y-87538700D02*
G75*
G02*
X134090500Y-87538700I-129500J0D01*
G01*
X134090500Y-87538700D02*
G75*
G02*
X134349500Y-87538700I129500J0D01*
G01*
M02*
