%TF.GenerationSoftware,KiCad,Pcbnew,8.99.0-344-gfbc433deaa*%
%TF.CreationDate,2024-03-16T14:02:09-04:00*%
%TF.ProjectId,fujiflex,66756a69-666c-4657-982e-6b696361645f,rev?*%
%TF.SameCoordinates,Original*%
%TF.FileFunction,Legend,Bot*%
%TF.FilePolarity,Positive*%
%FSLAX46Y46*%
G04 Gerber Fmt 4.6, Leading zero omitted, Abs format (unit mm)*
G04 Created by KiCad (PCBNEW 8.99.0-344-gfbc433deaa) date 2024-03-16 14:02:09*
%MOMM*%
%LPD*%
G01*
G04 APERTURE LIST*
%ADD10C,0.125000*%
%ADD11C,0.150000*%
%ADD12C,0.200000*%
G04 APERTURE END LIST*
D10*
G36*
X157914116Y-93084069D02*
G01*
X157907665Y-93074276D01*
X157898002Y-93066555D01*
X157857481Y-93062728D01*
X157845093Y-93064430D01*
X157834647Y-93071344D01*
X157827431Y-93080587D01*
X157699986Y-93337263D01*
X157593618Y-93069179D01*
X157587362Y-93059395D01*
X157577512Y-93051483D01*
X157565293Y-93048975D01*
X157524602Y-93049358D01*
X157514156Y-93056271D01*
X157507136Y-93065523D01*
X157504366Y-93076044D01*
X157506239Y-93087853D01*
X157745134Y-93673837D01*
X157751585Y-93683629D01*
X157761292Y-93690252D01*
X157773699Y-93692950D01*
X157815373Y-93692424D01*
X157831624Y-93677311D01*
X157835601Y-93665921D01*
X157832557Y-93654065D01*
X157743080Y-93442575D01*
X157913227Y-93106216D01*
X157915996Y-93095694D01*
X157914116Y-93084069D01*
G37*
G36*
X157452576Y-93065531D02*
G01*
X157446125Y-93055739D01*
X157436462Y-93048018D01*
X157395941Y-93044190D01*
X157383553Y-93045893D01*
X157373107Y-93052806D01*
X157365891Y-93062050D01*
X157238358Y-93320922D01*
X157132071Y-93050825D01*
X157125823Y-93040858D01*
X157115972Y-93032945D01*
X157103672Y-93032451D01*
X157074386Y-93031275D01*
X157062974Y-93033017D01*
X157052528Y-93039930D01*
X157045507Y-93049182D01*
X157042694Y-93060802D01*
X157044611Y-93071512D01*
X157203468Y-93464168D01*
X157209716Y-93474136D01*
X157219618Y-93480767D01*
X157231830Y-93483457D01*
X157243242Y-93481715D01*
X157254816Y-93475947D01*
X157261844Y-93466513D01*
X157451679Y-93087861D01*
X157454449Y-93077340D01*
X157452576Y-93065531D01*
G37*
G36*
X156787193Y-93019740D02*
G01*
X156800664Y-93020281D01*
X156866690Y-93056116D01*
X156921855Y-93114064D01*
X156929187Y-93126275D01*
X156955120Y-93210915D01*
X156952157Y-93284678D01*
X156919519Y-93366965D01*
X156911240Y-93378366D01*
X156842411Y-93436650D01*
X156782918Y-93462127D01*
X156769314Y-93464880D01*
X156681457Y-93461352D01*
X156667986Y-93460811D01*
X156602899Y-93425930D01*
X156546692Y-93369591D01*
X156540241Y-93359798D01*
X156538564Y-93347998D01*
X156541131Y-93337651D01*
X156548390Y-93327310D01*
X156587965Y-93296266D01*
X156611633Y-93296117D01*
X156629000Y-93311664D01*
X156650807Y-93357823D01*
X156692756Y-93379674D01*
X156764603Y-93382559D01*
X156812747Y-93362127D01*
X156833824Y-93343724D01*
X156858841Y-93280746D01*
X156573210Y-93269274D01*
X156560998Y-93266584D01*
X156551147Y-93258672D01*
X156544704Y-93248696D01*
X156542997Y-93237628D01*
X156544923Y-93189666D01*
X156636051Y-93189666D01*
X156853154Y-93198386D01*
X156841462Y-93153551D01*
X156822076Y-93129856D01*
X156775895Y-93101418D01*
X156704047Y-93098533D01*
X156660327Y-93120793D01*
X156636918Y-93168068D01*
X156636051Y-93189666D01*
X156544923Y-93189666D01*
X156546386Y-93153249D01*
X156550271Y-93139289D01*
X156580605Y-93085142D01*
X156626225Y-93044808D01*
X156685732Y-93018965D01*
X156699336Y-93016212D01*
X156787193Y-93019740D01*
G37*
G36*
X156417974Y-92835148D02*
G01*
X156411718Y-92825363D01*
X156401816Y-92818732D01*
X156360319Y-92814866D01*
X156347930Y-92816568D01*
X156337528Y-92822383D01*
X156330508Y-92831635D01*
X156327702Y-92843072D01*
X156304662Y-93416702D01*
X156306542Y-93428327D01*
X156312798Y-93438112D01*
X156322700Y-93444743D01*
X156334912Y-93447433D01*
X156376586Y-93446907D01*
X156386988Y-93441091D01*
X156394008Y-93431840D01*
X156396814Y-93420403D01*
X156419854Y-92846773D01*
X156417974Y-92835148D01*
G37*
G36*
X156206663Y-93013290D02*
G01*
X156200407Y-93003506D01*
X156189377Y-92995730D01*
X156121906Y-92991003D01*
X156128199Y-92834325D01*
X156126312Y-92822883D01*
X156120042Y-92813465D01*
X156110139Y-92806834D01*
X156097920Y-92804327D01*
X156068635Y-92803150D01*
X156056335Y-92802656D01*
X156045932Y-92808472D01*
X156038912Y-92817723D01*
X156036106Y-92829160D01*
X156029674Y-92989315D01*
X155973445Y-92987057D01*
X155962317Y-92986610D01*
X155951871Y-92993524D01*
X155944655Y-93002767D01*
X155940917Y-93013067D01*
X155939814Y-93040522D01*
X155942670Y-93052186D01*
X155949121Y-93061978D01*
X155959024Y-93068609D01*
X156026292Y-93073511D01*
X156013001Y-93404438D01*
X156014866Y-93416429D01*
X156021121Y-93426213D01*
X156031016Y-93433027D01*
X156072514Y-93436894D01*
X156084902Y-93435192D01*
X156095311Y-93429193D01*
X156102332Y-93419942D01*
X156105152Y-93408139D01*
X156118444Y-93077212D01*
X156174672Y-93079471D01*
X156186084Y-93077729D01*
X156197658Y-93071961D01*
X156204678Y-93062710D01*
X156207484Y-93051272D01*
X156208587Y-93023817D01*
X156206663Y-93013290D01*
G37*
G36*
X155492187Y-92967728D02*
G01*
X155502045Y-92975457D01*
X155508301Y-92985241D01*
X155509791Y-93006567D01*
X155523622Y-92998140D01*
X155583245Y-92974318D01*
X155596834Y-92971931D01*
X155684495Y-92975451D01*
X155697966Y-92975992D01*
X155763016Y-93011788D01*
X155819157Y-93069775D01*
X155826489Y-93081986D01*
X155852422Y-93166626D01*
X155849459Y-93240389D01*
X155816822Y-93322676D01*
X155808542Y-93334077D01*
X155739713Y-93392361D01*
X155680220Y-93417838D01*
X155666616Y-93420591D01*
X155578955Y-93417071D01*
X155565484Y-93416530D01*
X155508052Y-93385807D01*
X155494970Y-93375565D01*
X155491738Y-93397618D01*
X155484718Y-93406869D01*
X155474308Y-93412868D01*
X155461920Y-93414570D01*
X155421399Y-93410743D01*
X155411504Y-93403929D01*
X155405255Y-93393961D01*
X155403383Y-93382153D01*
X155407228Y-93286427D01*
X155498550Y-93286427D01*
X155590058Y-93335385D01*
X155662100Y-93338278D01*
X155710274Y-93317114D01*
X155731184Y-93297971D01*
X155758942Y-93225203D01*
X155760854Y-93177614D01*
X155739021Y-93102856D01*
X155719713Y-93082097D01*
X155673392Y-93057137D01*
X155601350Y-93054244D01*
X155506211Y-93095705D01*
X155498550Y-93286427D01*
X155407228Y-93286427D01*
X155419027Y-92992655D01*
X155421796Y-92982133D01*
X155429019Y-92972707D01*
X155439277Y-92965602D01*
X155479968Y-92965220D01*
X155492187Y-92967728D01*
G37*
G36*
X155256705Y-92788506D02*
G01*
X155250449Y-92778722D01*
X155240547Y-92772091D01*
X155199050Y-92768224D01*
X155186662Y-92769927D01*
X155176259Y-92775742D01*
X155169239Y-92784993D01*
X155166433Y-92796430D01*
X155143394Y-93370061D01*
X155145273Y-93381686D01*
X155151529Y-93391470D01*
X155161431Y-93398101D01*
X155173643Y-93400792D01*
X155215317Y-93400265D01*
X155225719Y-93394450D01*
X155232739Y-93385199D01*
X155235545Y-93373762D01*
X155258585Y-92800131D01*
X155256705Y-92788506D01*
G37*
G36*
X154651301Y-92933954D02*
G01*
X154661160Y-92941683D01*
X154667415Y-92951468D01*
X154668906Y-92972794D01*
X154682737Y-92964366D01*
X154742359Y-92940545D01*
X154755948Y-92938157D01*
X154843610Y-92941678D01*
X154857081Y-92942219D01*
X154914535Y-92972393D01*
X154978467Y-93036009D01*
X154985799Y-93048220D01*
X155012521Y-93142425D01*
X155008769Y-93206623D01*
X154976132Y-93288911D01*
X154967852Y-93300311D01*
X154907046Y-93353601D01*
X154839335Y-93384064D01*
X154825731Y-93386818D01*
X154738070Y-93383297D01*
X154724598Y-93382756D01*
X154667167Y-93352033D01*
X154654085Y-93341791D01*
X154652556Y-93379863D01*
X154675651Y-93447522D01*
X154695199Y-93467190D01*
X154741645Y-93489039D01*
X154784402Y-93490756D01*
X154832494Y-93471605D01*
X154859236Y-93448479D01*
X154869646Y-93442481D01*
X154882229Y-93440786D01*
X154951840Y-93445782D01*
X154961735Y-93452596D01*
X154967998Y-93462197D01*
X154969871Y-93474006D01*
X154967109Y-93484345D01*
X154960089Y-93493596D01*
X154899422Y-93543408D01*
X154831792Y-93571858D01*
X154818203Y-93574245D01*
X154730542Y-93570725D01*
X154717070Y-93570184D01*
X154650812Y-93535256D01*
X154595784Y-93478780D01*
X154588242Y-93466928D01*
X154561576Y-93376208D01*
X154566538Y-93252654D01*
X154657665Y-93252654D01*
X154749173Y-93301611D01*
X154821215Y-93304505D01*
X154869389Y-93283340D01*
X154890299Y-93264197D01*
X154918057Y-93191430D01*
X154919968Y-93143841D01*
X154898136Y-93069082D01*
X154878828Y-93048324D01*
X154832507Y-93023364D01*
X154760464Y-93020470D01*
X154665325Y-93061932D01*
X154657665Y-93252654D01*
X154566538Y-93252654D01*
X154578337Y-92958890D01*
X154580911Y-92948360D01*
X154588134Y-92938934D01*
X154598392Y-92931829D01*
X154610968Y-92930318D01*
X154651301Y-92933954D01*
G37*
G36*
X154410086Y-92941316D02*
G01*
X154403830Y-92931531D01*
X154392808Y-92923572D01*
X154352475Y-92919935D01*
X154339899Y-92921447D01*
X154329647Y-92928368D01*
X154322432Y-92937612D01*
X154318344Y-92985847D01*
X154278258Y-92946837D01*
X154220804Y-92916664D01*
X154206242Y-92914062D01*
X154107176Y-92912100D01*
X154096730Y-92919013D01*
X154089710Y-92928265D01*
X154086948Y-92938603D01*
X154087725Y-92977684D01*
X154093980Y-92987468D01*
X154103883Y-92994099D01*
X154196142Y-93000005D01*
X154242485Y-93024416D01*
X154291074Y-93075683D01*
X154312933Y-93120560D01*
X154304288Y-93335809D01*
X154306153Y-93347800D01*
X154312408Y-93357584D01*
X154322303Y-93364398D01*
X154334515Y-93367089D01*
X154375017Y-93366516D01*
X154386598Y-93360564D01*
X154393619Y-93351313D01*
X154396432Y-93339693D01*
X154411995Y-92952209D01*
X154410086Y-92941316D01*
G37*
G36*
X153995717Y-92722093D02*
G01*
X153954219Y-92718227D01*
X153941831Y-92719929D01*
X153901041Y-92752023D01*
X153894020Y-92761275D01*
X153890112Y-92800167D01*
X153891991Y-92811792D01*
X153898247Y-92821577D01*
X153936332Y-92856839D01*
X153977830Y-92860706D01*
X153990218Y-92859003D01*
X154031008Y-92826909D01*
X154038029Y-92817658D01*
X154041937Y-92778765D01*
X154040058Y-92767140D01*
X154033802Y-92757356D01*
X153995717Y-92722093D01*
G37*
G36*
X154004303Y-92927034D02*
G01*
X153998047Y-92917250D01*
X153988189Y-92909521D01*
X153946692Y-92905654D01*
X153934303Y-92907356D01*
X153923857Y-92914270D01*
X153916837Y-92923521D01*
X153914060Y-92934226D01*
X153898578Y-93319697D01*
X153900450Y-93331505D01*
X153906699Y-93341473D01*
X153916601Y-93348104D01*
X153928813Y-93350794D01*
X153970487Y-93350268D01*
X153980889Y-93344453D01*
X153987916Y-93335018D01*
X153990730Y-93323398D01*
X154006212Y-92937927D01*
X154004303Y-92927034D01*
G37*
G36*
X153772450Y-92915522D02*
G01*
X153766194Y-92905738D01*
X153755164Y-92897961D01*
X153687693Y-92893235D01*
X153688948Y-92832786D01*
X153656663Y-92740742D01*
X153590688Y-92703626D01*
X153576046Y-92703038D01*
X153517475Y-92700685D01*
X153506265Y-92702252D01*
X153495870Y-92707884D01*
X153488677Y-92716578D01*
X153484917Y-92727427D01*
X153483873Y-92753418D01*
X153486751Y-92764533D01*
X153493224Y-92773776D01*
X153503133Y-92780224D01*
X153514181Y-92782685D01*
X153565919Y-92784763D01*
X153581432Y-92792902D01*
X153597386Y-92843592D01*
X153595460Y-92891547D01*
X153539232Y-92889289D01*
X153528104Y-92888842D01*
X153517657Y-92895755D01*
X153510442Y-92904999D01*
X153506704Y-92915298D01*
X153505601Y-92942754D01*
X153508457Y-92954418D01*
X153514908Y-92964210D01*
X153524810Y-92970841D01*
X153592079Y-92975743D01*
X153578787Y-93306670D01*
X153580652Y-93318661D01*
X153586908Y-93328445D01*
X153596803Y-93335259D01*
X153638300Y-93339126D01*
X153650689Y-93337424D01*
X153661098Y-93331425D01*
X153668118Y-93322174D01*
X153670939Y-93310371D01*
X153684231Y-92979444D01*
X153740459Y-92981703D01*
X153751871Y-92979961D01*
X153763444Y-92974193D01*
X153770465Y-92964941D01*
X153773271Y-92953504D01*
X153774373Y-92926049D01*
X153772450Y-92915522D01*
G37*
G36*
X153366357Y-92899212D02*
G01*
X153360101Y-92889427D01*
X153349071Y-92881651D01*
X153281600Y-92876925D01*
X153282855Y-92816476D01*
X153250570Y-92724431D01*
X153184596Y-92687315D01*
X153169953Y-92686727D01*
X153111382Y-92684375D01*
X153100172Y-92685941D01*
X153089778Y-92691574D01*
X153082584Y-92700268D01*
X153078824Y-92711117D01*
X153077780Y-92737107D01*
X153080658Y-92748223D01*
X153087131Y-92757466D01*
X153097041Y-92763914D01*
X153108088Y-92766374D01*
X153159826Y-92768452D01*
X153175339Y-92776592D01*
X153191294Y-92827282D01*
X153189368Y-92875237D01*
X153133140Y-92872978D01*
X153122011Y-92872531D01*
X153111565Y-92879445D01*
X153104349Y-92888688D01*
X153100611Y-92898988D01*
X153099508Y-92926443D01*
X153102364Y-92938108D01*
X153108815Y-92947900D01*
X153118718Y-92954531D01*
X153185986Y-92959433D01*
X153172695Y-93290359D01*
X153174560Y-93302350D01*
X153180815Y-93312135D01*
X153190710Y-93318949D01*
X153232208Y-93322816D01*
X153244596Y-93321113D01*
X153255005Y-93315115D01*
X153262026Y-93305864D01*
X153264846Y-93294060D01*
X153278138Y-92963134D01*
X153334366Y-92965392D01*
X153345778Y-92963651D01*
X153357352Y-92957882D01*
X153364372Y-92948631D01*
X153367178Y-92937194D01*
X153368281Y-92909739D01*
X153366357Y-92899212D01*
G37*
G36*
X152921133Y-92678934D02*
G01*
X152879636Y-92675067D01*
X152867248Y-92676769D01*
X152826457Y-92708864D01*
X152819437Y-92718115D01*
X152815528Y-92757007D01*
X152817408Y-92768632D01*
X152823663Y-92778417D01*
X152861749Y-92813679D01*
X152903246Y-92817546D01*
X152915634Y-92815843D01*
X152956425Y-92783749D01*
X152963445Y-92774498D01*
X152967354Y-92735606D01*
X152965474Y-92723980D01*
X152959218Y-92714196D01*
X152921133Y-92678934D01*
G37*
G36*
X152929719Y-92883875D02*
G01*
X152923463Y-92874090D01*
X152913605Y-92866361D01*
X152872108Y-92862494D01*
X152859720Y-92864197D01*
X152849273Y-92871110D01*
X152842253Y-92880361D01*
X152839476Y-92891066D01*
X152823994Y-93276537D01*
X152825867Y-93288346D01*
X152832115Y-93298313D01*
X152842017Y-93304944D01*
X152854229Y-93307634D01*
X152895903Y-93307108D01*
X152906305Y-93301293D01*
X152913333Y-93291859D01*
X152916146Y-93280238D01*
X152931628Y-92894768D01*
X152929719Y-92883875D01*
G37*
G36*
X152668573Y-92871369D02*
G01*
X152662122Y-92861577D01*
X152652466Y-92853673D01*
X152612133Y-92850036D01*
X152599557Y-92851548D01*
X152589306Y-92858469D01*
X152582105Y-92867346D01*
X152577851Y-92914841D01*
X152536572Y-92876334D01*
X152480463Y-92846764D01*
X152465820Y-92846176D01*
X152378159Y-92842655D01*
X152364367Y-92845218D01*
X152294427Y-92877608D01*
X152288383Y-92886899D01*
X152254409Y-92978116D01*
X152243360Y-93253217D01*
X152245232Y-93265025D01*
X152251481Y-93274992D01*
X152261383Y-93281623D01*
X152273595Y-93284314D01*
X152301709Y-93285443D01*
X152314009Y-93285937D01*
X152324426Y-93279755D01*
X152331453Y-93270321D01*
X152334274Y-93258518D01*
X152345242Y-92985430D01*
X152368177Y-92945102D01*
X152411765Y-92926137D01*
X152454522Y-92927854D01*
X152504118Y-92954046D01*
X152574256Y-93004345D01*
X152563472Y-93272857D01*
X152565329Y-93285031D01*
X152573869Y-93296374D01*
X152593978Y-93297182D01*
X152622288Y-93298319D01*
X152634676Y-93296616D01*
X152645086Y-93290618D01*
X152652106Y-93281367D01*
X152654919Y-93269746D01*
X152670482Y-92882262D01*
X152668573Y-92871369D01*
G37*
G36*
X151817345Y-93226573D02*
G01*
X151810938Y-93215682D01*
X151561070Y-92932119D01*
X151509218Y-92850104D01*
X151485126Y-92802387D01*
X151486795Y-92760839D01*
X151509852Y-92722349D01*
X151553417Y-92703932D01*
X151654550Y-92707994D01*
X151696498Y-92729845D01*
X151716213Y-92769686D01*
X151717284Y-92801445D01*
X151723735Y-92811238D01*
X151733442Y-92817861D01*
X151745812Y-92821474D01*
X151786351Y-92819986D01*
X151796754Y-92814170D01*
X151803774Y-92804919D01*
X151807646Y-92766942D01*
X151804878Y-92753081D01*
X151778955Y-92697408D01*
X151736615Y-92656108D01*
X151679319Y-92626857D01*
X151665653Y-92626308D01*
X151548706Y-92621611D01*
X151535110Y-92624182D01*
X151475429Y-92649468D01*
X151430071Y-92688162D01*
X151399737Y-92742309D01*
X151395859Y-92756086D01*
X151393683Y-92810264D01*
X151396450Y-92824125D01*
X151424555Y-92883920D01*
X151479645Y-92968081D01*
X151662673Y-93177645D01*
X151381727Y-93166361D01*
X151369151Y-93167872D01*
X151358749Y-93173688D01*
X151351743Y-93182573D01*
X151347879Y-93220367D01*
X151349766Y-93231809D01*
X151356036Y-93241227D01*
X151365939Y-93247858D01*
X151378434Y-93248360D01*
X151785307Y-93264702D01*
X151797891Y-93263007D01*
X151808293Y-93257192D01*
X151815321Y-93247758D01*
X151818090Y-93237236D01*
X151817345Y-93226573D01*
G37*
G36*
X151063152Y-92602109D02*
G01*
X151164140Y-92638982D01*
X151225784Y-92730372D01*
X151253627Y-92879438D01*
X151250106Y-92967111D01*
X151215094Y-93108519D01*
X151148297Y-93198968D01*
X151131044Y-93209825D01*
X151043256Y-93233798D01*
X150974684Y-93232144D01*
X150869249Y-93193993D01*
X150807598Y-93102786D01*
X150779762Y-92953537D01*
X150779907Y-92949917D01*
X150872208Y-92949917D01*
X150893924Y-93081137D01*
X150923700Y-93128532D01*
X150983639Y-93150372D01*
X151030691Y-93152262D01*
X151092189Y-93135299D01*
X151125670Y-93090444D01*
X151157840Y-92961389D01*
X151160942Y-92884148D01*
X151139226Y-92752929D01*
X151109450Y-92705534D01*
X151049511Y-92683693D01*
X151002459Y-92681803D01*
X150940961Y-92698766D01*
X150907480Y-92743621D01*
X150875310Y-92872676D01*
X150872208Y-92949917D01*
X150779907Y-92949917D01*
X150783284Y-92865863D01*
X150818296Y-92724456D01*
X150884897Y-92633999D01*
X150902150Y-92623142D01*
X150989938Y-92599169D01*
X151063152Y-92602109D01*
G37*
G36*
X150661543Y-93180151D02*
G01*
X150655136Y-93169261D01*
X150405268Y-92885697D01*
X150353416Y-92803682D01*
X150329324Y-92755966D01*
X150330993Y-92714417D01*
X150354049Y-92675927D01*
X150397615Y-92657510D01*
X150498748Y-92661572D01*
X150540696Y-92683423D01*
X150560411Y-92723265D01*
X150561482Y-92755024D01*
X150567933Y-92764816D01*
X150577640Y-92771439D01*
X150590010Y-92775052D01*
X150630549Y-92773564D01*
X150640952Y-92767749D01*
X150647972Y-92758497D01*
X150651844Y-92720520D01*
X150649076Y-92706659D01*
X150623153Y-92650986D01*
X150580812Y-92609686D01*
X150523517Y-92580435D01*
X150509851Y-92579886D01*
X150392904Y-92575189D01*
X150379307Y-92577760D01*
X150319626Y-92603046D01*
X150274269Y-92641740D01*
X150243934Y-92695887D01*
X150240057Y-92709664D01*
X150237881Y-92763843D01*
X150240648Y-92777704D01*
X150268753Y-92837498D01*
X150323842Y-92921659D01*
X150506871Y-93131223D01*
X150225925Y-93119939D01*
X150213349Y-93121451D01*
X150202947Y-93127266D01*
X150195941Y-93136151D01*
X150192076Y-93173945D01*
X150193963Y-93185387D01*
X150200234Y-93194806D01*
X150210136Y-93201437D01*
X150222631Y-93201938D01*
X150629505Y-93218280D01*
X150642088Y-93216586D01*
X150652491Y-93210770D01*
X150659518Y-93201336D01*
X150662288Y-93190814D01*
X150661543Y-93180151D01*
G37*
G36*
X149749793Y-92549359D02*
G01*
X149761117Y-92549814D01*
X149773204Y-92555616D01*
X149780915Y-92563259D01*
X150083817Y-93011383D01*
X150089096Y-93021128D01*
X150084939Y-93041861D01*
X150067402Y-93054907D01*
X150056274Y-93054460D01*
X149796413Y-93044022D01*
X149789160Y-93166195D01*
X149782132Y-93175630D01*
X149771722Y-93181628D01*
X149759334Y-93183331D01*
X149719009Y-93179511D01*
X149709114Y-93172697D01*
X149702670Y-93162722D01*
X149704262Y-93040321D01*
X149619919Y-93036934D01*
X149607505Y-93034418D01*
X149597790Y-93027978D01*
X149591325Y-93018552D01*
X149589626Y-93007301D01*
X149590640Y-92982042D01*
X149593236Y-92970963D01*
X149600437Y-92962086D01*
X149600551Y-92962023D01*
X149799707Y-92962023D01*
X149950422Y-92968260D01*
X149807918Y-92757573D01*
X149799707Y-92962023D01*
X149600551Y-92962023D01*
X149610637Y-92956446D01*
X149623213Y-92954934D01*
X149707555Y-92958322D01*
X149723037Y-92572851D01*
X149726827Y-92561270D01*
X149738665Y-92548912D01*
X149749793Y-92549359D01*
G37*
D11*
G36*
X145260073Y-110470783D02*
G01*
X145260073Y-110689624D01*
X144851211Y-110689624D01*
X144851211Y-110924097D01*
X145640848Y-110924097D01*
X145640848Y-110283204D01*
X144576926Y-110283204D01*
X144576926Y-110033099D01*
X145701176Y-110033099D01*
X145751036Y-110037324D01*
X145804012Y-110047617D01*
X145853872Y-110067321D01*
X145893137Y-110100445D01*
X145913081Y-110151667D01*
X145913912Y-110166700D01*
X145913912Y-110995416D01*
X145904778Y-111050863D01*
X145881686Y-111101052D01*
X145845199Y-111135627D01*
X145795319Y-111154587D01*
X145751490Y-111158571D01*
X144772809Y-111158571D01*
X144716378Y-111151589D01*
X144669511Y-111137667D01*
X144625897Y-111111798D01*
X144592421Y-111068985D01*
X144578648Y-111021461D01*
X144576926Y-110993951D01*
X144578392Y-110470783D01*
X145260073Y-110470783D01*
G37*
G36*
X143252641Y-110267573D02*
G01*
X144014191Y-110267573D01*
X144014191Y-110924097D01*
X143249955Y-110924097D01*
X143249955Y-110688159D01*
X142975426Y-110688159D01*
X142973960Y-110994684D01*
X142977000Y-111047361D01*
X143003943Y-111094425D01*
X143043358Y-111123387D01*
X143076054Y-111137566D01*
X143126372Y-111151304D01*
X143176926Y-111157655D01*
X143193779Y-111158571D01*
X143247543Y-111158891D01*
X143299607Y-111159071D01*
X143361734Y-111159200D01*
X143433925Y-111159277D01*
X143487643Y-111159300D01*
X143545834Y-111159300D01*
X143608498Y-111159277D01*
X143675634Y-111159232D01*
X143747243Y-111159163D01*
X143823324Y-111159071D01*
X143903879Y-111158957D01*
X143988906Y-111158820D01*
X144078406Y-111158659D01*
X144124833Y-111158571D01*
X144176607Y-111152835D01*
X144224574Y-111131644D01*
X144259147Y-111094838D01*
X144280326Y-111042419D01*
X144287254Y-110995416D01*
X144286666Y-110937535D01*
X144286336Y-110885553D01*
X144286100Y-110826226D01*
X144285958Y-110759552D01*
X144285911Y-110685533D01*
X144285932Y-110632106D01*
X144285995Y-110575414D01*
X144286100Y-110515457D01*
X144286247Y-110452235D01*
X144286436Y-110385749D01*
X144286666Y-110315998D01*
X144286939Y-110242981D01*
X144287254Y-110166700D01*
X144277074Y-110117982D01*
X144240510Y-110075671D01*
X144195637Y-110053294D01*
X144146815Y-110040773D01*
X144087607Y-110033821D01*
X144074519Y-110033099D01*
X143192558Y-110033099D01*
X143134484Y-110036313D01*
X143085439Y-110045956D01*
X143038502Y-110066011D01*
X143000172Y-110101108D01*
X142979537Y-110148805D01*
X142976891Y-110164746D01*
X142976891Y-110470783D01*
X143252641Y-110470783D01*
X143252641Y-110267573D01*
G37*
G36*
X142046326Y-111158571D02*
G01*
X141826507Y-111158571D01*
X141122355Y-110033099D01*
X141448664Y-110038473D01*
X141935684Y-110773644D01*
X142383625Y-110038473D01*
X142688929Y-110033099D01*
X142046326Y-111158571D01*
G37*
G36*
X140866877Y-110033099D02*
G01*
X140540569Y-110033099D01*
X140540569Y-111158571D01*
X140866877Y-111158571D01*
X140866877Y-110033099D01*
G37*
G36*
X140216214Y-111158571D02*
G01*
X139264156Y-111158571D01*
X139207812Y-111156072D01*
X139154736Y-111148576D01*
X139104927Y-111136082D01*
X139058385Y-111118591D01*
X139001412Y-111087496D01*
X138950246Y-111047516D01*
X138915684Y-111011701D01*
X138884390Y-110970889D01*
X138856362Y-110925079D01*
X138831602Y-110874272D01*
X138822262Y-110851950D01*
X138805799Y-110804718D01*
X138792289Y-110754034D01*
X138781733Y-110699897D01*
X138774131Y-110642310D01*
X138770209Y-110593637D01*
X139036033Y-110593637D01*
X139037556Y-110611448D01*
X139044471Y-110662101D01*
X139056277Y-110713488D01*
X139072425Y-110759722D01*
X139098258Y-110807076D01*
X139129350Y-110846404D01*
X139173603Y-110883004D01*
X139225429Y-110908045D01*
X139274403Y-110920084D01*
X139328636Y-110924097D01*
X139938999Y-110924097D01*
X139938999Y-110267573D01*
X139327170Y-110267573D01*
X139272973Y-110271556D01*
X139224107Y-110283506D01*
X139172504Y-110308361D01*
X139128577Y-110344688D01*
X139097836Y-110383724D01*
X139072425Y-110430727D01*
X139067125Y-110443738D01*
X139052280Y-110490487D01*
X139041775Y-110542437D01*
X139036033Y-110593637D01*
X138770209Y-110593637D01*
X138770052Y-110591683D01*
X138771438Y-110571475D01*
X138776337Y-110522582D01*
X138784924Y-110466980D01*
X138796464Y-110414728D01*
X138810958Y-110365824D01*
X138831602Y-110313002D01*
X138856362Y-110262980D01*
X138884390Y-110217879D01*
X138915684Y-110177697D01*
X138950246Y-110142436D01*
X139001412Y-110103075D01*
X139058385Y-110072461D01*
X139104927Y-110055240D01*
X139154736Y-110042940D01*
X139207812Y-110035560D01*
X139264156Y-110033099D01*
X140216214Y-110033099D01*
X140216214Y-111158571D01*
G37*
G36*
X137273332Y-111158571D02*
G01*
X137273332Y-110908466D01*
X138169459Y-110908466D01*
X138169459Y-110720887D01*
X137643116Y-110720887D01*
X137643116Y-110455151D01*
X138170681Y-110455151D01*
X138170681Y-110267573D01*
X137270646Y-110267573D01*
X137270646Y-110033099D01*
X138460597Y-110033099D01*
X138460597Y-111158571D01*
X137273332Y-111158571D01*
G37*
G36*
X136818940Y-110033821D02*
G01*
X136878148Y-110040773D01*
X136926969Y-110053294D01*
X136971843Y-110075671D01*
X137008407Y-110117982D01*
X137018587Y-110166700D01*
X137018272Y-110242981D01*
X137017999Y-110315998D01*
X137017768Y-110385749D01*
X137017580Y-110452235D01*
X137017433Y-110515457D01*
X137017328Y-110575414D01*
X137017265Y-110632106D01*
X137017244Y-110685533D01*
X137017291Y-110759552D01*
X137017433Y-110826226D01*
X137017669Y-110885553D01*
X137017999Y-110937535D01*
X137018587Y-110995416D01*
X137011659Y-111042419D01*
X136990480Y-111094838D01*
X136955907Y-111131644D01*
X136907940Y-111152835D01*
X136856166Y-111158571D01*
X136808792Y-111158659D01*
X136717489Y-111158820D01*
X136630779Y-111158957D01*
X136548662Y-111159071D01*
X136471137Y-111159163D01*
X136398206Y-111159232D01*
X136329868Y-111159277D01*
X136266122Y-111159300D01*
X136206970Y-111159300D01*
X136152410Y-111159277D01*
X136079182Y-111159200D01*
X136016289Y-111159071D01*
X135963729Y-111158891D01*
X135909724Y-111158571D01*
X135897237Y-111157735D01*
X135840748Y-111149557D01*
X135786042Y-111130944D01*
X135740256Y-111097096D01*
X135713894Y-111050181D01*
X135706759Y-110999568D01*
X135708038Y-110267573D01*
X135983974Y-110267573D01*
X135983974Y-110924097D01*
X136745524Y-110924097D01*
X136745524Y-110267573D01*
X135983974Y-110267573D01*
X135708038Y-110267573D01*
X135708224Y-110161083D01*
X135719550Y-110117588D01*
X135753645Y-110073594D01*
X135801284Y-110048222D01*
X135855346Y-110036224D01*
X135909724Y-110033099D01*
X136805851Y-110033099D01*
X136818940Y-110033821D01*
G37*
G36*
X153987280Y-109885230D02*
G01*
X153998271Y-109900617D01*
X154000469Y-109885596D01*
X154006331Y-109889076D01*
X154055790Y-109842182D01*
X154197940Y-109842182D01*
X154289714Y-109926262D01*
X154342287Y-110028112D01*
X154273228Y-110065664D01*
X154223036Y-109973340D01*
X154166066Y-109919301D01*
X154124484Y-109919301D01*
X154111478Y-109931575D01*
X154111478Y-109979568D01*
X154286783Y-110570697D01*
X154398524Y-110570697D01*
X154398524Y-110647817D01*
X154076490Y-110647817D01*
X154076490Y-110570697D01*
X154165700Y-110570697D01*
X154079787Y-110269546D01*
X154085649Y-110307464D01*
X154067148Y-110360221D01*
X153970428Y-110405284D01*
X153880668Y-110405284D01*
X153750609Y-110365167D01*
X153665979Y-110245915D01*
X153625312Y-110130327D01*
X153625312Y-110117871D01*
X153741999Y-110117871D01*
X153775522Y-110210561D01*
X153839452Y-110302519D01*
X153896788Y-110328530D01*
X153951377Y-110328530D01*
X154001935Y-110304900D01*
X154031244Y-110222285D01*
X154031244Y-110130327D01*
X153998271Y-110037271D01*
X153934341Y-109945313D01*
X153877188Y-109919301D01*
X153822600Y-109919301D01*
X153768744Y-109944397D01*
X153741999Y-109994223D01*
X153741999Y-110117871D01*
X153625312Y-110117871D01*
X153625312Y-110010893D01*
X153669093Y-109927545D01*
X153714888Y-109882848D01*
X153803549Y-109842182D01*
X153896788Y-109842182D01*
X153987280Y-109885230D01*
G37*
G36*
X153465028Y-109882848D02*
G01*
X153550208Y-110002466D01*
X153590874Y-110118054D01*
X153590874Y-110237489D01*
X153547094Y-110320470D01*
X153500199Y-110364617D01*
X153412821Y-110405284D01*
X153322879Y-110405284D01*
X153193003Y-110365167D01*
X153107823Y-110245915D01*
X153067706Y-110130327D01*
X153067706Y-110117871D01*
X153184393Y-110117871D01*
X153217915Y-110210561D01*
X153281846Y-110302519D01*
X153338632Y-110328530D01*
X153393221Y-110328530D01*
X153447443Y-110303618D01*
X153473638Y-110253609D01*
X153473638Y-110130327D01*
X153440665Y-110037271D01*
X153376185Y-109945313D01*
X153319581Y-109919301D01*
X153264810Y-109919301D01*
X153211138Y-109944397D01*
X153184393Y-109994223D01*
X153184393Y-110117871D01*
X153067706Y-110117871D01*
X153067706Y-110010893D01*
X153110937Y-109927545D01*
X153157832Y-109882848D01*
X153245759Y-109842182D01*
X153335152Y-109842182D01*
X153465028Y-109882848D01*
G37*
G36*
X151954325Y-110059436D02*
G01*
X151992793Y-110207264D01*
X152034376Y-110286032D01*
X152118273Y-110364617D01*
X152206200Y-110405284D01*
X152299074Y-110405284D01*
X152387001Y-110364068D01*
X152440674Y-110313326D01*
X152440674Y-110298489D01*
X152467052Y-110345200D01*
X152487568Y-110364617D01*
X152575679Y-110405284D01*
X152668369Y-110405284D01*
X152756480Y-110364068D01*
X152809969Y-110313326D01*
X152809969Y-110222285D01*
X152736330Y-110013640D01*
X152736330Y-109931025D01*
X152748786Y-109919301D01*
X152790368Y-109919301D01*
X152846788Y-109973340D01*
X152896614Y-110065114D01*
X152967139Y-110028295D01*
X152914016Y-109926262D01*
X152822242Y-109842182D01*
X152680093Y-109842182D01*
X152618910Y-109900067D01*
X152618910Y-110025913D01*
X152692732Y-110234008D01*
X152692732Y-110281819D01*
X152642540Y-110328530D01*
X152594180Y-110328530D01*
X152534829Y-110300137D01*
X152470899Y-110239504D01*
X152438659Y-110179970D01*
X152360440Y-109848410D01*
X152294311Y-109848410D01*
X152243203Y-109860134D01*
X152323803Y-110197555D01*
X152323803Y-110281819D01*
X152273611Y-110328530D01*
X152224885Y-110328530D01*
X152165534Y-110300137D01*
X152101603Y-110239504D01*
X152069363Y-110179237D01*
X152034559Y-110049361D01*
X152034559Y-109959785D01*
X152096657Y-109842182D01*
X151954325Y-109842182D01*
X151954325Y-110059436D01*
G37*
G36*
X151757771Y-109882848D02*
G01*
X151842950Y-110002466D01*
X151883617Y-110118054D01*
X151883617Y-110237489D01*
X151839836Y-110320470D01*
X151792942Y-110364617D01*
X151705564Y-110405284D01*
X151615621Y-110405284D01*
X151490508Y-110366266D01*
X151384995Y-110268996D01*
X151443430Y-110214042D01*
X151532090Y-110298855D01*
X151627894Y-110328530D01*
X151685963Y-110328530D01*
X151740185Y-110303618D01*
X151766380Y-110253609D01*
X151766380Y-110222468D01*
X151531724Y-110159087D01*
X151406610Y-110080502D01*
X151355503Y-109984514D01*
X151445445Y-109984514D01*
X151467976Y-110028478D01*
X151564330Y-110089295D01*
X151766380Y-110142784D01*
X151766380Y-110130327D01*
X151733407Y-110037271D01*
X151668927Y-109945313D01*
X151612324Y-109919301D01*
X151520550Y-109919301D01*
X151466877Y-109944214D01*
X151445445Y-109984514D01*
X151355503Y-109984514D01*
X151407343Y-109886512D01*
X151501499Y-109842182D01*
X151627894Y-109842182D01*
X151757771Y-109882848D01*
G37*
G36*
X150616546Y-109966013D02*
G01*
X150693482Y-110038553D01*
X150786356Y-109950076D01*
X150699711Y-109866728D01*
X150640543Y-109921683D01*
X150681942Y-109959418D01*
X150701542Y-109938719D01*
X150696230Y-109934322D01*
X150696230Y-109931575D01*
X150709236Y-109919301D01*
X150757596Y-109919301D01*
X150816947Y-109947328D01*
X150881977Y-110008328D01*
X150954883Y-110139303D01*
X151030171Y-110399971D01*
X151095018Y-110399971D01*
X151147408Y-110386965D01*
X151029072Y-109979568D01*
X151029072Y-109931025D01*
X151041528Y-109919301D01*
X151083111Y-109919301D01*
X151139531Y-109973340D01*
X151189356Y-110065114D01*
X151259881Y-110028295D01*
X151206759Y-109926262D01*
X151114984Y-109842182D01*
X150972835Y-109842182D01*
X150920811Y-109894938D01*
X150917514Y-109894938D01*
X150963493Y-110058337D01*
X150888388Y-109905196D01*
X150864758Y-109882848D01*
X150776097Y-109842182D01*
X150677729Y-109842182D01*
X150616546Y-109900067D01*
X150616546Y-109966013D01*
G37*
G36*
X150491616Y-109882848D02*
G01*
X150576795Y-110002466D01*
X150617462Y-110118054D01*
X150617462Y-110237489D01*
X150573681Y-110320470D01*
X150526787Y-110364617D01*
X150439409Y-110405284D01*
X150349466Y-110405284D01*
X150224353Y-110366266D01*
X150118840Y-110268996D01*
X150177275Y-110214042D01*
X150265935Y-110298855D01*
X150361739Y-110328530D01*
X150419808Y-110328530D01*
X150474030Y-110303618D01*
X150500225Y-110253609D01*
X150500225Y-110222468D01*
X150265569Y-110159087D01*
X150140455Y-110080502D01*
X150089348Y-109984514D01*
X150179290Y-109984514D01*
X150201821Y-110028478D01*
X150298175Y-110089295D01*
X150500225Y-110142784D01*
X150500225Y-110130327D01*
X150467252Y-110037271D01*
X150402772Y-109945313D01*
X150346169Y-109919301D01*
X150254395Y-109919301D01*
X150200722Y-109944214D01*
X150179290Y-109984514D01*
X150089348Y-109984514D01*
X150141188Y-109886512D01*
X150235344Y-109842182D01*
X150361739Y-109842182D01*
X150491616Y-109882848D01*
G37*
G36*
X149537786Y-109676219D02*
G01*
X149449126Y-109676219D01*
X149535039Y-109978836D01*
X149529177Y-109938352D01*
X149546762Y-109887611D01*
X149644581Y-109842182D01*
X149733791Y-109842182D01*
X149864217Y-109882848D01*
X149948847Y-110002466D01*
X149989697Y-110117871D01*
X149989697Y-110237489D01*
X149945733Y-110320470D01*
X149899021Y-110364617D01*
X149811460Y-110405284D01*
X149718221Y-110405284D01*
X149627545Y-110361686D01*
X149615455Y-110345200D01*
X149614356Y-110364800D01*
X149608495Y-110359122D01*
X149559035Y-110405284D01*
X149416703Y-110405284D01*
X149325112Y-110320470D01*
X149272539Y-110219720D01*
X149341598Y-110182717D01*
X149391973Y-110274675D01*
X149448210Y-110328530D01*
X149490342Y-110328530D01*
X149503348Y-110316440D01*
X149503348Y-110268263D01*
X149458803Y-110117871D01*
X149583032Y-110117871D01*
X149616555Y-110210561D01*
X149680485Y-110302519D01*
X149737821Y-110328530D01*
X149792409Y-110328530D01*
X149846082Y-110303801D01*
X149872277Y-110253609D01*
X149872277Y-110130327D01*
X149839304Y-110037271D01*
X149775373Y-109945313D01*
X149718221Y-109919301D01*
X149663632Y-109919301D01*
X149612891Y-109942932D01*
X149583032Y-110025913D01*
X149583032Y-110117871D01*
X149458803Y-110117871D01*
X149305145Y-109599099D01*
X149537786Y-109599099D01*
X149537786Y-109676219D01*
G37*
G36*
X148342706Y-109676219D02*
G01*
X148254779Y-109676219D01*
X148388135Y-110083066D01*
X148388135Y-110199570D01*
X148346186Y-110318089D01*
X148298010Y-110364068D01*
X148209899Y-110405284D01*
X148120140Y-110405284D01*
X147990080Y-110365167D01*
X147905450Y-110245915D01*
X147864784Y-110130327D01*
X147864784Y-110117871D01*
X147981654Y-110117871D01*
X148014993Y-110210561D01*
X148079107Y-110302519D01*
X148136260Y-110328530D01*
X148190848Y-110328530D01*
X148241406Y-110304900D01*
X148271265Y-110222102D01*
X148271265Y-110095156D01*
X148242139Y-110006496D01*
X148176926Y-109947878D01*
X148116659Y-109919301D01*
X148062071Y-109919301D01*
X148008399Y-109944397D01*
X147981654Y-109994223D01*
X147981654Y-110117871D01*
X147864784Y-110117871D01*
X147864784Y-110010893D01*
X147908748Y-109926262D01*
X147955459Y-109882848D01*
X148043020Y-109842182D01*
X148136260Y-109842182D01*
X148220524Y-109887794D01*
X148199458Y-109876071D01*
X148108782Y-109599099D01*
X148342706Y-109599099D01*
X148342706Y-109676219D01*
G37*
G36*
X146929089Y-109860134D02*
G01*
X147125461Y-110486983D01*
X147210640Y-110607334D01*
X147340517Y-110647817D01*
X147466363Y-110647817D01*
X147554473Y-110606784D01*
X147607962Y-110555493D01*
X147607962Y-110489547D01*
X147531026Y-110416458D01*
X147437603Y-110504385D01*
X147523699Y-110588283D01*
X147583416Y-110534244D01*
X147542200Y-110496325D01*
X147522233Y-110516109D01*
X147528278Y-110521055D01*
X147528278Y-110523436D01*
X147507212Y-110542304D01*
X147447861Y-110570697D01*
X147355721Y-110570697D01*
X147298934Y-110544502D01*
X147234454Y-110454560D01*
X147200749Y-110344650D01*
X147189025Y-110334392D01*
X147211923Y-110364617D01*
X147300033Y-110405284D01*
X147393823Y-110405284D01*
X147402066Y-110401620D01*
X147480834Y-110364068D01*
X147534323Y-110313326D01*
X147534323Y-110222285D01*
X147460684Y-110013640D01*
X147460684Y-109931025D01*
X147473140Y-109919301D01*
X147514723Y-109919301D01*
X147571143Y-109973340D01*
X147620968Y-110065114D01*
X147691493Y-110028295D01*
X147638371Y-109926262D01*
X147546596Y-109842182D01*
X147404447Y-109842182D01*
X147343264Y-109900067D01*
X147343264Y-110025913D01*
X147417087Y-110234008D01*
X147417087Y-110281819D01*
X147366895Y-110328530D01*
X147318535Y-110328530D01*
X147259184Y-110300137D01*
X147195253Y-110239504D01*
X147130040Y-110119520D01*
X147045960Y-109848410D01*
X146981663Y-109848410D01*
X146929089Y-109860134D01*
G37*
D12*
G36*
X144851260Y-109214831D02*
G01*
X144834621Y-109178226D01*
X144808664Y-109172236D01*
X144772058Y-109188875D01*
X144766068Y-109214831D01*
X144766068Y-109649975D01*
X144782707Y-109686580D01*
X144808664Y-109692571D01*
X144845270Y-109675931D01*
X144851260Y-109649975D01*
X144851260Y-109214831D01*
G37*
G36*
X144851260Y-109033701D02*
G01*
X144851260Y-108997358D01*
X144834621Y-108960752D01*
X144808664Y-108954762D01*
X144772058Y-108971401D01*
X144766068Y-108997358D01*
X144766068Y-109033701D01*
X144782707Y-109070139D01*
X144808664Y-109076102D01*
X144845270Y-109059539D01*
X144851260Y-109033701D01*
G37*
G36*
X144202160Y-109649779D02*
G01*
X144202160Y-109210142D01*
X144185521Y-109173368D01*
X144159564Y-109167351D01*
X143978238Y-109167351D01*
X143936912Y-109172592D01*
X143900249Y-109188315D01*
X143870967Y-109211705D01*
X143845937Y-109244443D01*
X143831296Y-109281936D01*
X143827003Y-109320149D01*
X143827003Y-109649779D01*
X143843566Y-109686553D01*
X143869403Y-109692571D01*
X143906009Y-109675855D01*
X143911999Y-109649779D01*
X143911999Y-109321517D01*
X143923687Y-109282853D01*
X143931148Y-109274036D01*
X143966368Y-109255804D01*
X143978238Y-109254887D01*
X144117163Y-109254887D01*
X144117163Y-109649779D01*
X144133726Y-109686553D01*
X144159564Y-109692571D01*
X144196170Y-109675855D01*
X144202160Y-109649779D01*
G37*
G36*
X143294624Y-109171682D02*
G01*
X143331775Y-109186453D01*
X143364309Y-109211705D01*
X143387390Y-109241270D01*
X143402906Y-109278331D01*
X143408078Y-109320149D01*
X143408078Y-109539772D01*
X143403095Y-109579828D01*
X143388147Y-109616758D01*
X143370427Y-109642522D01*
X143337844Y-109671174D01*
X143298058Y-109687832D01*
X143256647Y-109692571D01*
X143117917Y-109692571D01*
X143117917Y-109761349D01*
X143119138Y-109775161D01*
X143137457Y-109810002D01*
X143146303Y-109817844D01*
X143184156Y-109830128D01*
X143329334Y-109830128D01*
X143356913Y-109837352D01*
X143371930Y-109873896D01*
X143365940Y-109900568D01*
X143329334Y-109917665D01*
X143184156Y-109917665D01*
X143146394Y-109913295D01*
X143109307Y-109898395D01*
X143076884Y-109872919D01*
X143053700Y-109843129D01*
X143038116Y-109805864D01*
X143032921Y-109763889D01*
X143032921Y-109254887D01*
X143117917Y-109254887D01*
X143117917Y-109605034D01*
X143256842Y-109605034D01*
X143268360Y-109604099D01*
X143303542Y-109585494D01*
X143311155Y-109576581D01*
X143323081Y-109538795D01*
X143323081Y-109321126D01*
X143322155Y-109309465D01*
X143303737Y-109274231D01*
X143294881Y-109266694D01*
X143256842Y-109254887D01*
X143117917Y-109254887D01*
X143032921Y-109254887D01*
X143032921Y-109210533D01*
X143038911Y-109184219D01*
X143075517Y-109167351D01*
X143256842Y-109167351D01*
X143294624Y-109171682D01*
G37*
G36*
X142450161Y-109168705D02*
G01*
X142490087Y-109177972D01*
X142526397Y-109196018D01*
X142559089Y-109222843D01*
X142574907Y-109240691D01*
X142596623Y-109275678D01*
X142609652Y-109314343D01*
X142613995Y-109356688D01*
X142613995Y-109503233D01*
X142612655Y-109527217D01*
X142603486Y-109567550D01*
X142585631Y-109604236D01*
X142559089Y-109637274D01*
X142541373Y-109653204D01*
X142506671Y-109675074D01*
X142468352Y-109688196D01*
X142426417Y-109692571D01*
X142402673Y-109691220D01*
X142362746Y-109681986D01*
X142326437Y-109664004D01*
X142293744Y-109637274D01*
X142277926Y-109619370D01*
X142256211Y-109584305D01*
X142243181Y-109545593D01*
X142238838Y-109503233D01*
X142238838Y-109502452D01*
X142323835Y-109502452D01*
X142331357Y-109541775D01*
X142353925Y-109574943D01*
X142386996Y-109597511D01*
X142426417Y-109605034D01*
X142466131Y-109597609D01*
X142499299Y-109575334D01*
X142521574Y-109542166D01*
X142528999Y-109502452D01*
X142528999Y-109357274D01*
X142521525Y-109317951D01*
X142499103Y-109284783D01*
X142465886Y-109262215D01*
X142426417Y-109254692D01*
X142386996Y-109262215D01*
X142353925Y-109284783D01*
X142331357Y-109317951D01*
X142323835Y-109357274D01*
X142323835Y-109502452D01*
X142238838Y-109502452D01*
X142238838Y-109356688D01*
X142240164Y-109332386D01*
X142249235Y-109291719D01*
X142266900Y-109255009D01*
X142293158Y-109222256D01*
X142310734Y-109206439D01*
X142345400Y-109184723D01*
X142383961Y-109171694D01*
X142426417Y-109167351D01*
X142450161Y-109168705D01*
G37*
G36*
X140940834Y-109453603D02*
G01*
X140940834Y-109649975D01*
X140957397Y-109686580D01*
X140983235Y-109692571D01*
X141019840Y-109675931D01*
X141025831Y-109649975D01*
X141025831Y-108997358D01*
X141009192Y-108960752D01*
X140983235Y-108954762D01*
X140946797Y-108971401D01*
X140940834Y-108997358D01*
X140940834Y-109346918D01*
X140718866Y-109180833D01*
X140693269Y-109172236D01*
X140656664Y-109188875D01*
X140650674Y-109214831D01*
X140667477Y-109249025D01*
X140803863Y-109351217D01*
X140655363Y-109630044D01*
X140650674Y-109649975D01*
X140663374Y-109680065D01*
X140693269Y-109692571D01*
X140728170Y-109674116D01*
X140730590Y-109670100D01*
X140872837Y-109403387D01*
X140940834Y-109453603D01*
G37*
G36*
X140067914Y-109168705D02*
G01*
X140107840Y-109177972D01*
X140144150Y-109196018D01*
X140176842Y-109222843D01*
X140192660Y-109240691D01*
X140214376Y-109275678D01*
X140227405Y-109314343D01*
X140231748Y-109356688D01*
X140231748Y-109503233D01*
X140230408Y-109527217D01*
X140221239Y-109567550D01*
X140203384Y-109604236D01*
X140176842Y-109637274D01*
X140159126Y-109653204D01*
X140124424Y-109675074D01*
X140086105Y-109688196D01*
X140044170Y-109692571D01*
X140020426Y-109691220D01*
X139980499Y-109681986D01*
X139944190Y-109664004D01*
X139911497Y-109637274D01*
X139895679Y-109619370D01*
X139873964Y-109584305D01*
X139860934Y-109545593D01*
X139856591Y-109503233D01*
X139856591Y-109502452D01*
X139941588Y-109502452D01*
X139949110Y-109541775D01*
X139971678Y-109574943D01*
X140004749Y-109597511D01*
X140044170Y-109605034D01*
X140083884Y-109597609D01*
X140117052Y-109575334D01*
X140139327Y-109542166D01*
X140146752Y-109502452D01*
X140146752Y-109357274D01*
X140139278Y-109317951D01*
X140116856Y-109284783D01*
X140083639Y-109262215D01*
X140044170Y-109254692D01*
X140004749Y-109262215D01*
X139971678Y-109284783D01*
X139949110Y-109317951D01*
X139941588Y-109357274D01*
X139941588Y-109502452D01*
X139856591Y-109502452D01*
X139856591Y-109356688D01*
X139857917Y-109332386D01*
X139866988Y-109291719D01*
X139884653Y-109255009D01*
X139910911Y-109222256D01*
X139928487Y-109206439D01*
X139963153Y-109184723D01*
X140001714Y-109171694D01*
X140044170Y-109167351D01*
X140067914Y-109168705D01*
G37*
G36*
X139401518Y-109210142D02*
G01*
X139384879Y-109173368D01*
X139358922Y-109167351D01*
X139141253Y-109167351D01*
X139104815Y-109184448D01*
X139098852Y-109211119D01*
X139098852Y-109284978D01*
X139115415Y-109321584D01*
X139141253Y-109327574D01*
X139177859Y-109310935D01*
X139183849Y-109284978D01*
X139183849Y-109254887D01*
X139316326Y-109254887D01*
X139316326Y-109649779D01*
X139332965Y-109686553D01*
X139358922Y-109692571D01*
X139395528Y-109675855D01*
X139401518Y-109649779D01*
X139401518Y-109210142D01*
G37*
G36*
X138626944Y-108960752D02*
G01*
X138643584Y-108997358D01*
X138643584Y-109649975D01*
X138637593Y-109675931D01*
X138600988Y-109692571D01*
X138419662Y-109692571D01*
X138381899Y-109688258D01*
X138344813Y-109673553D01*
X138312390Y-109648411D01*
X138289206Y-109618744D01*
X138273621Y-109581613D01*
X138268427Y-109539772D01*
X138268427Y-109538795D01*
X138353423Y-109538795D01*
X138354349Y-109550456D01*
X138372767Y-109585690D01*
X138381623Y-109593227D01*
X138419662Y-109605034D01*
X138558587Y-109605034D01*
X138558587Y-109254887D01*
X138419662Y-109254887D01*
X138407791Y-109255804D01*
X138372572Y-109274036D01*
X138365110Y-109282767D01*
X138353423Y-109321126D01*
X138353423Y-109538795D01*
X138268427Y-109538795D01*
X138268427Y-109320149D01*
X138273409Y-109280093D01*
X138288357Y-109243164D01*
X138306070Y-109217399D01*
X138338617Y-109188747D01*
X138378336Y-109172089D01*
X138419662Y-109167351D01*
X138558587Y-109167351D01*
X138558587Y-108996381D01*
X138564550Y-108971019D01*
X138600988Y-108954762D01*
X138626944Y-108960752D01*
G37*
G36*
X137643751Y-108954762D02*
G01*
X137607313Y-108970866D01*
X137601350Y-108995990D01*
X137602523Y-109006541D01*
X137638866Y-109148397D01*
X137664988Y-109177890D01*
X137680094Y-109179856D01*
X137716700Y-109163599D01*
X137722690Y-109138237D01*
X137713263Y-109097693D01*
X137703209Y-109057651D01*
X137691719Y-109012524D01*
X137684979Y-108986220D01*
X137658931Y-108956728D01*
X137643751Y-108954762D01*
G37*
G36*
X136765258Y-109556576D02*
G01*
X136780646Y-109520086D01*
X136792614Y-109512417D01*
X136978824Y-109422145D01*
X137012334Y-109400639D01*
X137038589Y-109369410D01*
X137052726Y-109330730D01*
X137055419Y-109300805D01*
X137049000Y-109258710D01*
X137029744Y-109223773D01*
X137001099Y-109198223D01*
X136963382Y-109179410D01*
X136923304Y-109169793D01*
X136886598Y-109167351D01*
X136846359Y-109170001D01*
X136803689Y-109179317D01*
X136763769Y-109195342D01*
X136738685Y-109209751D01*
X136716950Y-109242236D01*
X136716605Y-109248049D01*
X136729110Y-109278139D01*
X136759006Y-109290644D01*
X136779327Y-109285369D01*
X136814923Y-109268015D01*
X136855283Y-109257298D01*
X136886598Y-109254887D01*
X136927119Y-109258689D01*
X136962236Y-109277606D01*
X136970422Y-109302954D01*
X136954442Y-109339543D01*
X136944239Y-109345941D01*
X136756270Y-109437190D01*
X136723017Y-109458696D01*
X136696963Y-109489925D01*
X136682934Y-109528605D01*
X136680262Y-109558530D01*
X136685643Y-109598834D01*
X136703992Y-109635278D01*
X136735363Y-109663457D01*
X136773602Y-109681198D01*
X136815076Y-109690268D01*
X136853577Y-109692571D01*
X136898377Y-109690551D01*
X136939943Y-109684492D01*
X136978274Y-109674394D01*
X137018119Y-109657908D01*
X137031972Y-109650365D01*
X137055052Y-109617411D01*
X137055419Y-109611286D01*
X137042914Y-109581391D01*
X137013018Y-109568691D01*
X136996605Y-109572012D01*
X136959535Y-109586781D01*
X136945607Y-109591942D01*
X136906781Y-109600419D01*
X136865834Y-109604714D01*
X136851427Y-109605034D01*
X136809773Y-109601201D01*
X136773673Y-109582130D01*
X136765258Y-109556576D01*
G37*
M02*
