G04 #@! TF.GenerationSoftware,KiCad,Pcbnew,9.0.0-rc2-6-ga1fa0bdb0b*
G04 #@! TF.CreationDate,2025-02-02T00:09:41-05:00*
G04 #@! TF.ProjectId,fujiflex,66756a69-666c-4657-982e-6b696361645f,rev?*
G04 #@! TF.SameCoordinates,Original*
G04 #@! TF.FileFunction,Legend,Top*
G04 #@! TF.FilePolarity,Positive*
%FSLAX46Y46*%
G04 Gerber Fmt 4.6, Leading zero omitted, Abs format (unit mm)*
G04 Created by KiCad (PCBNEW 9.0.0-rc2-6-ga1fa0bdb0b) date 2025-02-02 00:09:41*
%MOMM*%
%LPD*%
G01*
G04 APERTURE LIST*
%ADD10C,0.150000*%
%ADD11C,0.273607*%
%ADD12C,0.120000*%
%ADD13C,0.125000*%
%ADD14C,0.200000*%
%ADD15C,0.350000*%
%ADD16C,0.100000*%
G04 APERTURE END LIST*
D10*
X134820000Y-94838700D02*
X134620000Y-94238700D01*
X134820000Y-94638700D02*
X134920000Y-94338700D01*
X135020000Y-94238700D02*
X134820000Y-94838700D01*
D11*
X150202041Y-92800771D02*
G75*
G02*
X149928435Y-92800771I-136803J0D01*
G01*
X149928435Y-92800771D02*
G75*
G02*
X150202041Y-92800771I136803J0D01*
G01*
D10*
X134620000Y-94238700D02*
X135020000Y-94238700D01*
D12*
X151744896Y-110161173D02*
X151744896Y-109961681D01*
D10*
X134720000Y-94338700D02*
X134820000Y-94638700D01*
X134920000Y-94338700D02*
X134720000Y-94338700D01*
D12*
X152375110Y-110451343D02*
X151744896Y-110161173D01*
D13*
G36*
X144416092Y-92333529D02*
G01*
X144424939Y-92339385D01*
X144430795Y-92348232D01*
X144432761Y-92359003D01*
X144432761Y-92546130D01*
X144444515Y-92537368D01*
X144495422Y-92512107D01*
X144507176Y-92509372D01*
X144583557Y-92509372D01*
X144595311Y-92512321D01*
X144653099Y-92542668D01*
X144704048Y-92593617D01*
X144710887Y-92604431D01*
X144736361Y-92680854D01*
X144737344Y-92740608D01*
X144710887Y-92824854D01*
X144704048Y-92835625D01*
X144653099Y-92886574D01*
X144595311Y-92916964D01*
X144583557Y-92919700D01*
X144507176Y-92919700D01*
X144495422Y-92916793D01*
X144444515Y-92891660D01*
X144432761Y-92882941D01*
X144430795Y-92902773D01*
X144424939Y-92911279D01*
X144416092Y-92916964D01*
X144380872Y-92918930D01*
X144370101Y-92916964D01*
X144361253Y-92911108D01*
X144355397Y-92902261D01*
X144353431Y-92891532D01*
X144353431Y-92629179D01*
X144432761Y-92629179D01*
X144432761Y-92799892D01*
X144514057Y-92840369D01*
X144576718Y-92840369D01*
X144617836Y-92819639D01*
X144635489Y-92801858D01*
X144657031Y-92735736D01*
X144657031Y-92693335D01*
X144635489Y-92627213D01*
X144617836Y-92609432D01*
X144576718Y-92588702D01*
X144514057Y-92588702D01*
X144432761Y-92629179D01*
X144353431Y-92629179D01*
X144353431Y-92358961D01*
X144355397Y-92348190D01*
X144361253Y-92339385D01*
X144370101Y-92333529D01*
X144380872Y-92331563D01*
X144416092Y-92333529D01*
G37*
G36*
X144877155Y-92333529D02*
G01*
X144913401Y-92331563D01*
X144924172Y-92333529D01*
X144958451Y-92364859D01*
X144964307Y-92373664D01*
X144966273Y-92409910D01*
X144964307Y-92420681D01*
X144958451Y-92429486D01*
X144924172Y-92460816D01*
X144887926Y-92462782D01*
X144877155Y-92460816D01*
X144842875Y-92429486D01*
X144836977Y-92420681D01*
X144835054Y-92384435D01*
X144836977Y-92373664D01*
X144842875Y-92364859D01*
X144877155Y-92333529D01*
G37*
G36*
X144862452Y-92526981D02*
G01*
X144868307Y-92518176D01*
X144877155Y-92511338D01*
X144913358Y-92509372D01*
X144924129Y-92511338D01*
X144932977Y-92518176D01*
X144938832Y-92526981D01*
X144940799Y-92536812D01*
X144940799Y-92892259D01*
X144938832Y-92903073D01*
X144932977Y-92911878D01*
X144924129Y-92917733D01*
X144913358Y-92919700D01*
X144877155Y-92917733D01*
X144868307Y-92911878D01*
X144862452Y-92903073D01*
X144860485Y-92892259D01*
X144860485Y-92536812D01*
X144862452Y-92526981D01*
G37*
G36*
X145041329Y-92527836D02*
G01*
X145047185Y-92518989D01*
X145056973Y-92512107D01*
X145115744Y-92510141D01*
X145115744Y-92359174D01*
X145117710Y-92348318D01*
X145123565Y-92339470D01*
X145132413Y-92333529D01*
X145143184Y-92331563D01*
X145168616Y-92331563D01*
X145179387Y-92334298D01*
X145188235Y-92340154D01*
X145194091Y-92348959D01*
X145196057Y-92359730D01*
X145196057Y-92509372D01*
X145244997Y-92509372D01*
X145254828Y-92512107D01*
X145263633Y-92518989D01*
X145269488Y-92527836D01*
X145272438Y-92537624D01*
X145272438Y-92563184D01*
X145269488Y-92573955D01*
X145263633Y-92582803D01*
X145254828Y-92588702D01*
X145196057Y-92590668D01*
X145196057Y-92892344D01*
X145194091Y-92903115D01*
X145188235Y-92911878D01*
X145179387Y-92917733D01*
X145143184Y-92919700D01*
X145132413Y-92917733D01*
X145123565Y-92911878D01*
X145117710Y-92903115D01*
X145115744Y-92892344D01*
X145115744Y-92590668D01*
X145066761Y-92590668D01*
X145056973Y-92588702D01*
X145047185Y-92582803D01*
X145041329Y-92573955D01*
X145039363Y-92563184D01*
X145039363Y-92537624D01*
X145041329Y-92527836D01*
G37*
G36*
X145431653Y-92333529D02*
G01*
X145440501Y-92339385D01*
X145446357Y-92348232D01*
X145448323Y-92359003D01*
X145448323Y-92546130D01*
X145460077Y-92537368D01*
X145510983Y-92512107D01*
X145522738Y-92509372D01*
X145599118Y-92509372D01*
X145610873Y-92512321D01*
X145668661Y-92542668D01*
X145719610Y-92593617D01*
X145726448Y-92604431D01*
X145751923Y-92680854D01*
X145752906Y-92740608D01*
X145726448Y-92824854D01*
X145719610Y-92835625D01*
X145668661Y-92886574D01*
X145610873Y-92916964D01*
X145599118Y-92919700D01*
X145522738Y-92919700D01*
X145510983Y-92916793D01*
X145460077Y-92891660D01*
X145448323Y-92882941D01*
X145446357Y-92902773D01*
X145440501Y-92911279D01*
X145431653Y-92916964D01*
X145396434Y-92918930D01*
X145385662Y-92916964D01*
X145376815Y-92911108D01*
X145370959Y-92902261D01*
X145368993Y-92891532D01*
X145368993Y-92629179D01*
X145448323Y-92629179D01*
X145448323Y-92799892D01*
X145529619Y-92840369D01*
X145592280Y-92840369D01*
X145633398Y-92819639D01*
X145651051Y-92801858D01*
X145672593Y-92735736D01*
X145672593Y-92693335D01*
X145651051Y-92627213D01*
X145633398Y-92609432D01*
X145592280Y-92588702D01*
X145529619Y-92588702D01*
X145448323Y-92629179D01*
X145368993Y-92629179D01*
X145368993Y-92358961D01*
X145370959Y-92348190D01*
X145376815Y-92339385D01*
X145385662Y-92333529D01*
X145396434Y-92331563D01*
X145431653Y-92333529D01*
G37*
G36*
X145877030Y-92526981D02*
G01*
X145882886Y-92518176D01*
X145891734Y-92511338D01*
X145902505Y-92509372D01*
X145937725Y-92511338D01*
X145946572Y-92518219D01*
X145952428Y-92527067D01*
X145954394Y-92536855D01*
X145954394Y-92785360D01*
X145972987Y-92821691D01*
X146010216Y-92840369D01*
X146047445Y-92840369D01*
X146091512Y-92818827D01*
X146154173Y-92776683D01*
X146154173Y-92537582D01*
X146156139Y-92527794D01*
X146161994Y-92518946D01*
X146170842Y-92512107D01*
X146181613Y-92509372D01*
X146206062Y-92509372D01*
X146216833Y-92511338D01*
X146225681Y-92518176D01*
X146231536Y-92526981D01*
X146233503Y-92536727D01*
X146233503Y-92891532D01*
X146231536Y-92902303D01*
X146225681Y-92911108D01*
X146216833Y-92916964D01*
X146206062Y-92919700D01*
X146181613Y-92919700D01*
X146170842Y-92917776D01*
X146161994Y-92911963D01*
X146156139Y-92903244D01*
X146154173Y-92892601D01*
X146154173Y-92857766D01*
X146116944Y-92891746D01*
X146067021Y-92916964D01*
X146054283Y-92919700D01*
X145977903Y-92919700D01*
X145966148Y-92916750D01*
X145906394Y-92884437D01*
X145901522Y-92875632D01*
X145875064Y-92790446D01*
X145875064Y-92536812D01*
X145877030Y-92526981D01*
G37*
G36*
X146398788Y-92333529D02*
G01*
X146435034Y-92331563D01*
X146445805Y-92333529D01*
X146480084Y-92364859D01*
X146485940Y-92373664D01*
X146487906Y-92409910D01*
X146485940Y-92420681D01*
X146480084Y-92429486D01*
X146445805Y-92460816D01*
X146409559Y-92462782D01*
X146398788Y-92460816D01*
X146364508Y-92429486D01*
X146358610Y-92420681D01*
X146356687Y-92384435D01*
X146358610Y-92373664D01*
X146364508Y-92364859D01*
X146398788Y-92333529D01*
G37*
G36*
X146384084Y-92526981D02*
G01*
X146389940Y-92518176D01*
X146398788Y-92511338D01*
X146434991Y-92509372D01*
X146445762Y-92511338D01*
X146454610Y-92518176D01*
X146460465Y-92526981D01*
X146462431Y-92536812D01*
X146462431Y-92892259D01*
X146460465Y-92903073D01*
X146454610Y-92911878D01*
X146445762Y-92917733D01*
X146434991Y-92919700D01*
X146398788Y-92917733D01*
X146389940Y-92911878D01*
X146384084Y-92903073D01*
X146382118Y-92892259D01*
X146382118Y-92536812D01*
X146384084Y-92526981D01*
G37*
G36*
X146613868Y-92348232D02*
G01*
X146619724Y-92339385D01*
X146628572Y-92333529D01*
X146664774Y-92331563D01*
X146675546Y-92333529D01*
X146684393Y-92339385D01*
X146690249Y-92348232D01*
X146692215Y-92359003D01*
X146692215Y-92892259D01*
X146690249Y-92903030D01*
X146684393Y-92911878D01*
X146675546Y-92917733D01*
X146664774Y-92919700D01*
X146628572Y-92917733D01*
X146619724Y-92911878D01*
X146613868Y-92903030D01*
X146611902Y-92892259D01*
X146611902Y-92359003D01*
X146613868Y-92348232D01*
G37*
G36*
X146792745Y-92527836D02*
G01*
X146798601Y-92518989D01*
X146808389Y-92512107D01*
X146867160Y-92510141D01*
X146867160Y-92359174D01*
X146869126Y-92348318D01*
X146874982Y-92339470D01*
X146883830Y-92333529D01*
X146894601Y-92331563D01*
X146920033Y-92331563D01*
X146930804Y-92334298D01*
X146939651Y-92340154D01*
X146945507Y-92348959D01*
X146947473Y-92359730D01*
X146947473Y-92509372D01*
X146996413Y-92509372D01*
X147006244Y-92512107D01*
X147015049Y-92518989D01*
X147020905Y-92527836D01*
X147023854Y-92537624D01*
X147023854Y-92563184D01*
X147020905Y-92573955D01*
X147015049Y-92582803D01*
X147006244Y-92588702D01*
X146947473Y-92590668D01*
X146947473Y-92892344D01*
X146945507Y-92903115D01*
X146939651Y-92911878D01*
X146930804Y-92917733D01*
X146894601Y-92919700D01*
X146883830Y-92917733D01*
X146874982Y-92911878D01*
X146869126Y-92903115D01*
X146867160Y-92892344D01*
X146867160Y-92590668D01*
X146818177Y-92590668D01*
X146808389Y-92588702D01*
X146798601Y-92582803D01*
X146792745Y-92573955D01*
X146790779Y-92563184D01*
X146790779Y-92537624D01*
X146792745Y-92527836D01*
G37*
G36*
X147163537Y-92788395D02*
G01*
X147199740Y-92785659D01*
X147210511Y-92787625D01*
X147244833Y-92819468D01*
X147250689Y-92828402D01*
X147252655Y-92865246D01*
X147250689Y-92876188D01*
X147244833Y-92885121D01*
X147210511Y-92916964D01*
X147174308Y-92918930D01*
X147163537Y-92916964D01*
X147154689Y-92911023D01*
X147123359Y-92876401D01*
X147121393Y-92839814D01*
X147123359Y-92828957D01*
X147129214Y-92820024D01*
X147163537Y-92788395D01*
G37*
G36*
X147402083Y-92527751D02*
G01*
X147407938Y-92518946D01*
X147416786Y-92512107D01*
X147452006Y-92510141D01*
X147462777Y-92512107D01*
X147471625Y-92518775D01*
X147477480Y-92527366D01*
X147479446Y-92571305D01*
X147516675Y-92537325D01*
X147566598Y-92512107D01*
X147579336Y-92509372D01*
X147655717Y-92509372D01*
X147667471Y-92512321D01*
X147727225Y-92544634D01*
X147732097Y-92553439D01*
X147758555Y-92638625D01*
X147758555Y-92892259D01*
X147756589Y-92903073D01*
X147750733Y-92911878D01*
X147741885Y-92917733D01*
X147731114Y-92919700D01*
X147706666Y-92919700D01*
X147695894Y-92916964D01*
X147687047Y-92911066D01*
X147681191Y-92902261D01*
X147679225Y-92891489D01*
X147679225Y-92644566D01*
X147660632Y-92607337D01*
X147623403Y-92588702D01*
X147586174Y-92588702D01*
X147542107Y-92610201D01*
X147479446Y-92652302D01*
X147479446Y-92890934D01*
X147477480Y-92901705D01*
X147469658Y-92911493D01*
X147452006Y-92919700D01*
X147427557Y-92919700D01*
X147416786Y-92917733D01*
X147407938Y-92911878D01*
X147402083Y-92903073D01*
X147400116Y-92892344D01*
X147400116Y-92537539D01*
X147402083Y-92527751D01*
G37*
G36*
X148123619Y-92512321D02*
G01*
X148174525Y-92537710D01*
X148212737Y-92575793D01*
X148237228Y-92625631D01*
X148240135Y-92638326D01*
X148240135Y-92714536D01*
X148238211Y-92724324D01*
X148232313Y-92733086D01*
X148223508Y-92739925D01*
X148212737Y-92741891D01*
X147963975Y-92741891D01*
X147983551Y-92801559D01*
X148001204Y-92819468D01*
X148042322Y-92840369D01*
X148105026Y-92840369D01*
X148142212Y-92821776D01*
X148162771Y-92779675D01*
X148178457Y-92765955D01*
X148199016Y-92766938D01*
X148232313Y-92797285D01*
X148238211Y-92807073D01*
X148240135Y-92816861D01*
X148238211Y-92827632D01*
X148232313Y-92836480D01*
X148181407Y-92886916D01*
X148123619Y-92916964D01*
X148111864Y-92919700D01*
X148035484Y-92919700D01*
X148023729Y-92916750D01*
X147972780Y-92891276D01*
X147915035Y-92835454D01*
X147908154Y-92824640D01*
X147882722Y-92748217D01*
X147882722Y-92680641D01*
X147888739Y-92662561D01*
X147971840Y-92662561D01*
X148160847Y-92662561D01*
X148160847Y-92645592D01*
X148142212Y-92607679D01*
X148105026Y-92588702D01*
X148042322Y-92588702D01*
X148001204Y-92609645D01*
X147983551Y-92627640D01*
X147971840Y-92662561D01*
X147888739Y-92662561D01*
X147908154Y-92604217D01*
X147915035Y-92593446D01*
X147964959Y-92542497D01*
X148023729Y-92512107D01*
X148035484Y-92509372D01*
X148111864Y-92509372D01*
X148123619Y-92512321D01*
G37*
G36*
X148314378Y-92527836D02*
G01*
X148320234Y-92518989D01*
X148330022Y-92512107D01*
X148388793Y-92510141D01*
X148388793Y-92359174D01*
X148390759Y-92348318D01*
X148396615Y-92339470D01*
X148405463Y-92333529D01*
X148416234Y-92331563D01*
X148441666Y-92331563D01*
X148452437Y-92334298D01*
X148461284Y-92340154D01*
X148467140Y-92348959D01*
X148469106Y-92359730D01*
X148469106Y-92509372D01*
X148518046Y-92509372D01*
X148527877Y-92512107D01*
X148536682Y-92518989D01*
X148542538Y-92527836D01*
X148545487Y-92537624D01*
X148545487Y-92563184D01*
X148542538Y-92573955D01*
X148536682Y-92582803D01*
X148527877Y-92588702D01*
X148469106Y-92590668D01*
X148469106Y-92892344D01*
X148467140Y-92903115D01*
X148461284Y-92911878D01*
X148452437Y-92917733D01*
X148416234Y-92919700D01*
X148405463Y-92917733D01*
X148396615Y-92911878D01*
X148390759Y-92903115D01*
X148388793Y-92892344D01*
X148388793Y-92590668D01*
X148339810Y-92590668D01*
X148330022Y-92588702D01*
X148320234Y-92582803D01*
X148314378Y-92573955D01*
X148312412Y-92563184D01*
X148312412Y-92537624D01*
X148314378Y-92527836D01*
G37*
D14*
G36*
X148213108Y-111079437D02*
G01*
X148225687Y-111059654D01*
X148245287Y-111046953D01*
X148267697Y-111042740D01*
X148439766Y-111042740D01*
X148462175Y-111046953D01*
X148480310Y-111059593D01*
X148492950Y-111079193D01*
X148498506Y-111101603D01*
X148498506Y-111239050D01*
X148491545Y-111265673D01*
X148446788Y-111349814D01*
X148362829Y-111429743D01*
X148292854Y-111464792D01*
X148267697Y-111468700D01*
X148129211Y-111468700D01*
X148103993Y-111463143D01*
X148020034Y-111417042D01*
X147950120Y-111348593D01*
X147905362Y-111264818D01*
X147864757Y-111134881D01*
X147864757Y-110964521D01*
X147902554Y-110843010D01*
X147950120Y-110750870D01*
X148035422Y-110671247D01*
X148103993Y-110636320D01*
X148129211Y-110628504D01*
X148267697Y-110628504D01*
X148292854Y-110634122D01*
X148362829Y-110669048D01*
X148446788Y-110748733D01*
X148491545Y-110832691D01*
X148497102Y-110855100D01*
X148492950Y-110881662D01*
X148480310Y-110901262D01*
X148464923Y-110911032D01*
X148443979Y-110918054D01*
X148404778Y-110918054D01*
X148383834Y-110913841D01*
X148365638Y-110902667D01*
X148351655Y-110885875D01*
X148322224Y-110825669D01*
X148301280Y-110804725D01*
X148253714Y-110780912D01*
X148143194Y-110780912D01*
X148095628Y-110804725D01*
X148074623Y-110825730D01*
X148046657Y-110881845D01*
X148017287Y-110971543D01*
X148017287Y-111125660D01*
X148046657Y-111215359D01*
X148074623Y-111271473D01*
X148095628Y-111292478D01*
X148143194Y-111316292D01*
X148253714Y-111316292D01*
X148301280Y-111292906D01*
X148322224Y-111272267D01*
X148346038Y-111225434D01*
X148346038Y-111195148D01*
X148267697Y-111195148D01*
X148245287Y-111190934D01*
X148225687Y-111178234D01*
X148213108Y-111159854D01*
X148208956Y-111102030D01*
X148213108Y-111079437D01*
G37*
G36*
X149169747Y-111348837D02*
G01*
X149101175Y-111418141D01*
X149015812Y-111464792D01*
X148990655Y-111468700D01*
X148852170Y-111468700D01*
X148826952Y-111463143D01*
X148742993Y-111417042D01*
X148673079Y-111348593D01*
X148628321Y-111264818D01*
X148590525Y-111154481D01*
X148587716Y-110964521D01*
X148625512Y-110843010D01*
X148663309Y-110766196D01*
X148742993Y-110682421D01*
X148826952Y-110636320D01*
X148852170Y-110628504D01*
X148990655Y-110628504D01*
X149015812Y-110634122D01*
X149101175Y-110680223D01*
X149169747Y-110748733D01*
X149214504Y-110832691D01*
X149220061Y-110855100D01*
X149215908Y-110881662D01*
X149203269Y-110901262D01*
X149187882Y-110911032D01*
X149166938Y-110918054D01*
X149127737Y-110918054D01*
X149106793Y-110913841D01*
X149088597Y-110902667D01*
X149074614Y-110885875D01*
X149045183Y-110825669D01*
X149024239Y-110804725D01*
X148976673Y-110780912D01*
X148866153Y-110780912D01*
X148824143Y-110801917D01*
X148768211Y-110884654D01*
X148740245Y-110971543D01*
X148740245Y-111125660D01*
X148768211Y-111212550D01*
X148824143Y-111295287D01*
X148866153Y-111316292D01*
X148976673Y-111316292D01*
X149024239Y-111292478D01*
X149045183Y-111271473D01*
X149074614Y-111211329D01*
X149088597Y-111194537D01*
X149106793Y-111183363D01*
X149127737Y-111179150D01*
X149166938Y-111179150D01*
X149185134Y-111183363D01*
X149203269Y-111195941D01*
X149217313Y-111219755D01*
X149220061Y-111242103D01*
X149215908Y-111261704D01*
X149169747Y-111348837D01*
G37*
G36*
X149891728Y-111348837D02*
G01*
X149823157Y-111418141D01*
X149737794Y-111464792D01*
X149712637Y-111468700D01*
X149574152Y-111468700D01*
X149548934Y-111463143D01*
X149464975Y-111417042D01*
X149395061Y-111348593D01*
X149350303Y-111264818D01*
X149312506Y-111154481D01*
X149309698Y-110964521D01*
X149347494Y-110843010D01*
X149385291Y-110766196D01*
X149464975Y-110682421D01*
X149548934Y-110636320D01*
X149574152Y-110628504D01*
X149712637Y-110628504D01*
X149737794Y-110634122D01*
X149823157Y-110680223D01*
X149891728Y-110748733D01*
X149936486Y-110832691D01*
X149942042Y-110855100D01*
X149937890Y-110881662D01*
X149925251Y-110901262D01*
X149909863Y-110911032D01*
X149888920Y-110918054D01*
X149849719Y-110918054D01*
X149828775Y-110913841D01*
X149810579Y-110902667D01*
X149796596Y-110885875D01*
X149767165Y-110825669D01*
X149746221Y-110804725D01*
X149698654Y-110780912D01*
X149588135Y-110780912D01*
X149546125Y-110801917D01*
X149490193Y-110884654D01*
X149462227Y-110971543D01*
X149462227Y-111125660D01*
X149490193Y-111212550D01*
X149546125Y-111295287D01*
X149588135Y-111316292D01*
X149698654Y-111316292D01*
X149746221Y-111292478D01*
X149767165Y-111271473D01*
X149796596Y-111211329D01*
X149810579Y-111194537D01*
X149828775Y-111183363D01*
X149849719Y-111179150D01*
X149888920Y-111179150D01*
X149907116Y-111183363D01*
X149925251Y-111195941D01*
X149939295Y-111219755D01*
X149942042Y-111242103D01*
X149937890Y-111261704D01*
X149891728Y-111348837D01*
G37*
D10*
G36*
X154557943Y-106674071D02*
G01*
X154573391Y-106681398D01*
X154613996Y-106739101D01*
X154727386Y-106826204D01*
X154730195Y-106837744D01*
X154727386Y-106849285D01*
X154719021Y-106858719D01*
X154706381Y-106864993D01*
X154690994Y-106867099D01*
X153929200Y-106867099D01*
X153913813Y-106864993D01*
X153901174Y-106858719D01*
X153892808Y-106849285D01*
X153890000Y-106810450D01*
X153892808Y-106798910D01*
X153901174Y-106789476D01*
X153913813Y-106783202D01*
X153929200Y-106781095D01*
X154524359Y-106781095D01*
X154510376Y-106769555D01*
X154471175Y-106703426D01*
X154472580Y-106691886D01*
X154481006Y-106681398D01*
X154493585Y-106675124D01*
X154508972Y-106671965D01*
X154557943Y-106674071D01*
G37*
G36*
X154594152Y-107163900D02*
G01*
X154609539Y-107171273D01*
X154682506Y-107225816D01*
X154692337Y-107237356D01*
X154728790Y-107318139D01*
X154730195Y-107354868D01*
X154692337Y-107446184D01*
X154682506Y-107457724D01*
X154609539Y-107511213D01*
X154591343Y-107519594D01*
X154437042Y-107546888D01*
X154254715Y-107546888D01*
X154065305Y-107519594D01*
X154051322Y-107515427D01*
X153933475Y-107454564D01*
X153890000Y-107364301D01*
X153888595Y-107300325D01*
X153926392Y-107210062D01*
X153934757Y-107199575D01*
X154018715Y-107166007D01*
X154034103Y-107162847D01*
X154049490Y-107163900D01*
X154063473Y-107170220D01*
X154071838Y-107179654D01*
X154076051Y-107192248D01*
X154073243Y-107230029D01*
X154053703Y-107245737D01*
X154025676Y-107256224D01*
X154003328Y-107305546D01*
X154003328Y-107349647D01*
X154028607Y-107406296D01*
X154088996Y-107435651D01*
X154226627Y-107456671D01*
X154218201Y-107446184D01*
X154181870Y-107364301D01*
X154181870Y-107332840D01*
X154294344Y-107332840D01*
X154294344Y-107349647D01*
X154315287Y-107395809D01*
X154341910Y-107426217D01*
X154381050Y-107446184D01*
X154438447Y-107459785D01*
X154536327Y-107441971D01*
X154567102Y-107426217D01*
X154593724Y-107395809D01*
X154614668Y-107349647D01*
X154614668Y-107332840D01*
X154593724Y-107286678D01*
X154567102Y-107256224D01*
X154527962Y-107236303D01*
X154466413Y-107221603D01*
X154442599Y-107221603D01*
X154381050Y-107236303D01*
X154341910Y-107256224D01*
X154315287Y-107286678D01*
X154294344Y-107332840D01*
X154181870Y-107332840D01*
X154181870Y-107318139D01*
X154218201Y-107237356D01*
X154226627Y-107225816D01*
X154299595Y-107171273D01*
X154314982Y-107163900D01*
X154424403Y-107136652D01*
X154484731Y-107136652D01*
X154594152Y-107163900D01*
G37*
D15*
G36*
X136281741Y-88248426D02*
G01*
X136288194Y-88258123D01*
X136284480Y-88275618D01*
X136260513Y-88318450D01*
X136184215Y-88422198D01*
X136098027Y-88516481D01*
X136001604Y-88601945D01*
X135844805Y-88715504D01*
X135687394Y-88807411D01*
X135525787Y-88883520D01*
X135374980Y-88940078D01*
X135229026Y-88983253D01*
X135120971Y-89007328D01*
X134925494Y-89030944D01*
X134725503Y-89028341D01*
X134328183Y-88990328D01*
X134234555Y-89100003D01*
X134148381Y-89221353D01*
X134069758Y-89355333D01*
X133967773Y-89565630D01*
X133876050Y-89795514D01*
X133797253Y-90033174D01*
X133727413Y-90283844D01*
X133606338Y-90790642D01*
X133695432Y-90763540D01*
X133700177Y-90726696D01*
X133829309Y-90726696D01*
X133921831Y-90693021D01*
X134013398Y-90653222D01*
X134078733Y-90612681D01*
X134131073Y-90554023D01*
X134165320Y-90482425D01*
X134181399Y-90392158D01*
X134185982Y-90399162D01*
X134180426Y-90355952D01*
X134162239Y-90338354D01*
X134134645Y-90332482D01*
X134104366Y-90335755D01*
X134045013Y-90361463D01*
X133989044Y-90406654D01*
X133935493Y-90476533D01*
X133874472Y-90594421D01*
X133829309Y-90726696D01*
X133700177Y-90726696D01*
X133709032Y-90657940D01*
X133731838Y-90555085D01*
X133764667Y-90456112D01*
X133805681Y-90369759D01*
X133857350Y-90291506D01*
X133916044Y-90227689D01*
X133985290Y-90177639D01*
X134062464Y-90146642D01*
X134104185Y-90140561D01*
X134146038Y-90147313D01*
X134184818Y-90165267D01*
X134220892Y-90194877D01*
X134250702Y-90233201D01*
X134277679Y-90285556D01*
X134296003Y-90344474D01*
X134305147Y-90416018D01*
X134298507Y-90525753D01*
X134279428Y-90611710D01*
X134250484Y-90678473D01*
X134207822Y-90739115D01*
X134156234Y-90787933D01*
X134095011Y-90826327D01*
X133951051Y-90885456D01*
X133799951Y-90932932D01*
X133799795Y-91049493D01*
X133815718Y-91163003D01*
X133830391Y-91239478D01*
X133832726Y-91281963D01*
X133824921Y-91311460D01*
X133811574Y-91316725D01*
X133794102Y-91307968D01*
X133768838Y-91277604D01*
X133721974Y-91177796D01*
X133694813Y-91070175D01*
X133684139Y-90961816D01*
X133563668Y-90999443D01*
X133497703Y-91307509D01*
X133426390Y-91613371D01*
X133353467Y-91893832D01*
X133274861Y-92146481D01*
X133179387Y-92385648D01*
X133068277Y-92592404D01*
X132979713Y-92720288D01*
X132882630Y-92832055D01*
X132776965Y-92929138D01*
X132658542Y-93012406D01*
X132525904Y-93079391D01*
X132377070Y-93130398D01*
X132376492Y-93140482D01*
X132252128Y-93169623D01*
X132135341Y-93181223D01*
X132024469Y-93176512D01*
X131916981Y-93155996D01*
X131816227Y-93120303D01*
X131721006Y-93068783D01*
X131635896Y-93004650D01*
X131556268Y-92924522D01*
X131482092Y-92826411D01*
X131421266Y-92720800D01*
X131368942Y-92599315D01*
X131325860Y-92460087D01*
X131300593Y-92314933D01*
X131293316Y-92189211D01*
X131301425Y-92080289D01*
X131324094Y-91972097D01*
X131356282Y-91880258D01*
X131396909Y-91802499D01*
X131449575Y-91730561D01*
X131508465Y-91671930D01*
X131573823Y-91625040D01*
X131683223Y-91572350D01*
X131796239Y-91543179D01*
X131911751Y-91536569D01*
X132025500Y-91552884D01*
X132131801Y-91590414D01*
X132225501Y-91647715D01*
X132276781Y-91698146D01*
X132293694Y-91733454D01*
X132294722Y-91769435D01*
X132285523Y-91805965D01*
X132252653Y-91887497D01*
X132242528Y-91935845D01*
X132248481Y-92003790D01*
X132269063Y-92066638D01*
X132298202Y-92109769D01*
X132334989Y-92137839D01*
X132404116Y-92161562D01*
X132480369Y-92163419D01*
X132558289Y-92146705D01*
X132636177Y-92113811D01*
X132704628Y-92069152D01*
X132749784Y-92022491D01*
X132877572Y-91830966D01*
X132990886Y-91611279D01*
X133087102Y-91379595D01*
X133172955Y-91133222D01*
X133053453Y-91201858D01*
X132936373Y-91288759D01*
X132866722Y-91355394D01*
X132800167Y-91438108D01*
X132736883Y-91539316D01*
X132705463Y-91586449D01*
X132683839Y-91603070D01*
X132667394Y-91603760D01*
X132648358Y-91584031D01*
X132642385Y-91525923D01*
X132660903Y-91417901D01*
X132702746Y-91318995D01*
X132764290Y-91227320D01*
X132841765Y-91143226D01*
X132931735Y-91068185D01*
X133032075Y-91002358D01*
X133138835Y-90945915D01*
X133244970Y-90900259D01*
X133329782Y-90630861D01*
X133449394Y-90254309D01*
X133577735Y-89887176D01*
X133648919Y-89709230D01*
X133724931Y-89539071D01*
X133808653Y-89373936D01*
X133898649Y-89219709D01*
X133981141Y-89089064D01*
X134072215Y-88968406D01*
X133842606Y-88965165D01*
X133734499Y-88974180D01*
X133614881Y-88995120D01*
X133493807Y-89024370D01*
X133349523Y-89070446D01*
X133203828Y-89127474D01*
X133055814Y-89196669D01*
X132911903Y-89275743D01*
X132771776Y-89365783D01*
X132642519Y-89466475D01*
X132531918Y-89576584D01*
X132441077Y-89697139D01*
X132375134Y-89824602D01*
X132346932Y-89913412D01*
X132333875Y-90005544D01*
X132336262Y-90102067D01*
X132359477Y-90175152D01*
X132390712Y-90228928D01*
X132428900Y-90267369D01*
X132476975Y-90294469D01*
X132528724Y-90306200D01*
X132586499Y-90303164D01*
X132652505Y-90285350D01*
X132723034Y-90253265D01*
X132790771Y-90210250D01*
X132860092Y-90153579D01*
X132972834Y-90062665D01*
X133025365Y-90035813D01*
X133047685Y-90037386D01*
X133058315Y-90057680D01*
X133056260Y-90117847D01*
X133023338Y-90255868D01*
X132963421Y-90417604D01*
X132891739Y-90563029D01*
X132806988Y-90697881D01*
X132718005Y-90810564D01*
X132618798Y-90909099D01*
X132518847Y-90984241D01*
X132412164Y-91040170D01*
X132311060Y-91069598D01*
X132214785Y-91074049D01*
X132125616Y-91052644D01*
X132039702Y-91003299D01*
X131971515Y-90934101D01*
X131914117Y-90834644D01*
X131869676Y-90696589D01*
X131855266Y-90536414D01*
X131864583Y-90376049D01*
X131897835Y-90214203D01*
X131951015Y-90054950D01*
X132020625Y-89899180D01*
X132107120Y-89746320D01*
X132207452Y-89599440D01*
X132321144Y-89457394D01*
X132448710Y-89319885D01*
X132656853Y-89128866D01*
X132875702Y-88962158D01*
X133108113Y-88817433D01*
X133343940Y-88701213D01*
X133507250Y-88638359D01*
X133661979Y-88593465D01*
X133809251Y-88565022D01*
X134131035Y-88524608D01*
X134406782Y-88502846D01*
X134875890Y-88488054D01*
X135073465Y-88484031D01*
X135239220Y-88473250D01*
X135468336Y-88452598D01*
X135695458Y-88419929D01*
X135924541Y-88369553D01*
X136037853Y-88334910D01*
X136155896Y-88289155D01*
X136213311Y-88265251D01*
X136264846Y-88247375D01*
X136281741Y-88248426D01*
G37*
G36*
X135739162Y-91204482D02*
G01*
X135631741Y-91385700D01*
X135543070Y-91517915D01*
X135453852Y-91633158D01*
X135380404Y-91713587D01*
X135305770Y-91778938D01*
X135246688Y-91816047D01*
X135187065Y-91839671D01*
X135135273Y-91849473D01*
X135088788Y-91846555D01*
X135048782Y-91825228D01*
X135015627Y-91791910D01*
X134987886Y-91751332D01*
X134950085Y-91661428D01*
X134935753Y-91585072D01*
X134933944Y-91480576D01*
X134851715Y-91609133D01*
X134776754Y-91711522D01*
X134700187Y-91802494D01*
X134637789Y-91865796D01*
X134574656Y-91917035D01*
X134522614Y-91947519D01*
X134470750Y-91966921D01*
X134429070Y-91973995D01*
X134382585Y-91971078D01*
X134342579Y-91949750D01*
X134309425Y-91916432D01*
X134281683Y-91875854D01*
X134243901Y-91786056D01*
X134226923Y-91710166D01*
X134227280Y-91591654D01*
X134240927Y-91474521D01*
X134296478Y-91231874D01*
X134381292Y-90968118D01*
X134482984Y-90669269D01*
X134515271Y-90603225D01*
X134547313Y-90574160D01*
X134589903Y-90559117D01*
X134653339Y-90550257D01*
X134723893Y-90546713D01*
X134751599Y-90551257D01*
X134771576Y-90561851D01*
X134784898Y-90578945D01*
X134791564Y-90606286D01*
X134789725Y-90639532D01*
X134777228Y-90692362D01*
X134724538Y-90863325D01*
X134665122Y-91055221D01*
X134608823Y-91242987D01*
X134562195Y-91399101D01*
X134556439Y-91431769D01*
X134558580Y-91461586D01*
X134581623Y-91510690D01*
X134618126Y-91537673D01*
X134637833Y-91540949D01*
X134657872Y-91536633D01*
X134736575Y-91470999D01*
X134822293Y-91370600D01*
X134899381Y-91257834D01*
X134953252Y-91155455D01*
X135079109Y-90874805D01*
X135194478Y-90543813D01*
X135227058Y-90477883D01*
X135260251Y-90448450D01*
X135304305Y-90433153D01*
X135370245Y-90423847D01*
X135440920Y-90420282D01*
X135468626Y-90424826D01*
X135488603Y-90435420D01*
X135501924Y-90452514D01*
X135508590Y-90479855D01*
X135506727Y-90513101D01*
X135494135Y-90565952D01*
X135438678Y-90737403D01*
X135379383Y-90929278D01*
X135323065Y-91116939D01*
X135279323Y-91272544D01*
X135274302Y-91335494D01*
X135294560Y-91384980D01*
X135312193Y-91401966D01*
X135332387Y-91411730D01*
X135354350Y-91414645D01*
X135374779Y-91410223D01*
X135409683Y-91385286D01*
X135453602Y-91344567D01*
X135539199Y-91244190D01*
X135616408Y-91131402D01*
X135670158Y-91029045D01*
X135802172Y-90736893D01*
X135829129Y-90707847D01*
X135852854Y-90698009D01*
X135876881Y-90699926D01*
X135897706Y-90712561D01*
X135912719Y-90733343D01*
X135922582Y-90765031D01*
X135923266Y-90799656D01*
X135912939Y-90835523D01*
X135830158Y-91017976D01*
X135739162Y-91204482D01*
G37*
G36*
X136217225Y-90292829D02*
G01*
X136237500Y-90303369D01*
X136250504Y-90320591D01*
X136256063Y-90348164D01*
X136243013Y-90433796D01*
X136068309Y-91025353D01*
X135913322Y-91562762D01*
X136067554Y-91394511D01*
X136148590Y-91295581D01*
X136231915Y-91181723D01*
X136311354Y-91060553D01*
X136392413Y-90922416D01*
X136469672Y-90775869D01*
X136551189Y-90604821D01*
X136578046Y-90575796D01*
X136601751Y-90565958D01*
X136625606Y-90567952D01*
X136645280Y-90580743D01*
X136659290Y-90601604D01*
X136668834Y-90633446D01*
X136669607Y-90668056D01*
X136659311Y-90703918D01*
X136561007Y-90920028D01*
X136462123Y-91103263D01*
X136354962Y-91274105D01*
X136249878Y-91420738D01*
X136139012Y-91557128D01*
X136030609Y-91675868D01*
X135810571Y-91890769D01*
X135790868Y-91955549D01*
X135768325Y-92021805D01*
X135716768Y-92219586D01*
X135659864Y-92439793D01*
X135585409Y-92659623D01*
X135538096Y-92764587D01*
X135484066Y-92857068D01*
X135419093Y-92939771D01*
X135346366Y-93005152D01*
X135261316Y-93053230D01*
X135161353Y-93080417D01*
X135118273Y-93078010D01*
X135076042Y-93064970D01*
X135037809Y-93042770D01*
X135003257Y-93010856D01*
X134948889Y-92927563D01*
X134930775Y-92878348D01*
X134921322Y-92823268D01*
X134920204Y-92785293D01*
X135092603Y-92785293D01*
X135096868Y-92818790D01*
X135111870Y-92843650D01*
X135139102Y-92853659D01*
X135178758Y-92834437D01*
X135220248Y-92789222D01*
X135254790Y-92732662D01*
X135285555Y-92668008D01*
X135333258Y-92535576D01*
X135362937Y-92435944D01*
X135388133Y-92348170D01*
X135407342Y-92274255D01*
X135284635Y-92413836D01*
X135161619Y-92581900D01*
X135124202Y-92653817D01*
X135096433Y-92742479D01*
X135092603Y-92785293D01*
X134920204Y-92785293D01*
X134918927Y-92741927D01*
X134930732Y-92662207D01*
X134956863Y-92583174D01*
X135015174Y-92468410D01*
X135092146Y-92355982D01*
X135182452Y-92248648D01*
X135284892Y-92143831D01*
X135493107Y-91949785D01*
X135587918Y-91580970D01*
X135685423Y-91216887D01*
X135799851Y-90834848D01*
X135946141Y-90411274D01*
X135977816Y-90349190D01*
X136010315Y-90318798D01*
X136053209Y-90301807D01*
X136116617Y-90292241D01*
X136188374Y-90288486D01*
X136217225Y-90292829D01*
G37*
G36*
X136367295Y-89600848D02*
G01*
X136409207Y-89635736D01*
X136435806Y-89670547D01*
X136454828Y-89710915D01*
X136471091Y-89801036D01*
X136460155Y-89895844D01*
X136444168Y-89941292D01*
X136421421Y-89980689D01*
X136376849Y-90031019D01*
X136330357Y-90062090D01*
X136280662Y-90077664D01*
X136229840Y-90077913D01*
X136184778Y-90061706D01*
X136142828Y-90026666D01*
X136118528Y-89991529D01*
X136100027Y-89949904D01*
X136083765Y-89859784D01*
X136094490Y-89768702D01*
X136110218Y-89725048D01*
X136133242Y-89683962D01*
X136176397Y-89632369D01*
X136221987Y-89600761D01*
X136271308Y-89585075D01*
X136322215Y-89584739D01*
X136367295Y-89600848D01*
G37*
G36*
X137211941Y-90944791D02*
G01*
X137104839Y-91126016D01*
X137017172Y-91257991D01*
X136929405Y-91373012D01*
X136857272Y-91453175D01*
X136783837Y-91518254D01*
X136724879Y-91555402D01*
X136665891Y-91579012D01*
X136618876Y-91587874D01*
X136572391Y-91584956D01*
X136532385Y-91563629D01*
X136499230Y-91530310D01*
X136471489Y-91489732D01*
X136433706Y-91399934D01*
X136416729Y-91324045D01*
X136417086Y-91205532D01*
X136430732Y-91088399D01*
X136486284Y-90845753D01*
X136571098Y-90581996D01*
X136672789Y-90283147D01*
X136705076Y-90217103D01*
X136737119Y-90188038D01*
X136779709Y-90172995D01*
X136843144Y-90164135D01*
X136913699Y-90160592D01*
X136941405Y-90165136D01*
X136961382Y-90175729D01*
X136974703Y-90192823D01*
X136981369Y-90220164D01*
X136979530Y-90253410D01*
X136967034Y-90306240D01*
X136914344Y-90477203D01*
X136854928Y-90669099D01*
X136798628Y-90856866D01*
X136752000Y-91012979D01*
X136746245Y-91045647D01*
X136748385Y-91075464D01*
X136771428Y-91124569D01*
X136807932Y-91151552D01*
X136827638Y-91154827D01*
X136847678Y-91150511D01*
X136926381Y-91084877D01*
X137012098Y-90984478D01*
X137089187Y-90871712D01*
X137143058Y-90769333D01*
X137275071Y-90477181D01*
X137302128Y-90448218D01*
X137326956Y-90438085D01*
X137352226Y-90439863D01*
X137373251Y-90452382D01*
X137387962Y-90473202D01*
X137396786Y-90504980D01*
X137397152Y-90539817D01*
X137388604Y-90575323D01*
X137304398Y-90758136D01*
X137211941Y-90944791D01*
G37*
G36*
X136872122Y-89898072D02*
G01*
X136847822Y-89862935D01*
X136829321Y-89821310D01*
X136813058Y-89731189D01*
X136823783Y-89640107D01*
X136839512Y-89596454D01*
X136862536Y-89555368D01*
X136905691Y-89503775D01*
X136951281Y-89472166D01*
X137000602Y-89456480D01*
X137051509Y-89456145D01*
X137096589Y-89472254D01*
X137138501Y-89507142D01*
X137165099Y-89541953D01*
X137184122Y-89582321D01*
X137200385Y-89672442D01*
X137189449Y-89767250D01*
X137173462Y-89812698D01*
X137150715Y-89852095D01*
X137106143Y-89902425D01*
X137059650Y-89933496D01*
X137009956Y-89949070D01*
X136959134Y-89949319D01*
X136914072Y-89933112D01*
X136872122Y-89898072D01*
G37*
D10*
G36*
X154557943Y-96519195D02*
G01*
X154573391Y-96528965D01*
X154613996Y-96605901D01*
X154727386Y-96722039D01*
X154730195Y-96737426D01*
X154727386Y-96752813D01*
X154719021Y-96765392D01*
X154706381Y-96773757D01*
X154690994Y-96776566D01*
X153929200Y-96776566D01*
X153913813Y-96773757D01*
X153901174Y-96765392D01*
X153892808Y-96752813D01*
X153890000Y-96701034D01*
X153892808Y-96685646D01*
X153901174Y-96673068D01*
X153913813Y-96664703D01*
X153929200Y-96661894D01*
X154524359Y-96661894D01*
X154510376Y-96646507D01*
X154471175Y-96558335D01*
X154472580Y-96542948D01*
X154481006Y-96528965D01*
X154493585Y-96520599D01*
X154508972Y-96516386D01*
X154557943Y-96519195D01*
G37*
D14*
G36*
X133753728Y-107444220D02*
G01*
X133776076Y-107459607D01*
X133829260Y-107476399D01*
X133913219Y-107476399D01*
X133964998Y-107459607D01*
X133997116Y-107438541D01*
X134018121Y-107406301D01*
X134034913Y-107354461D01*
X134034913Y-107339073D01*
X134018121Y-107285767D01*
X133997116Y-107254932D01*
X133964998Y-107233927D01*
X133913219Y-107215731D01*
X133804103Y-107214326D01*
X133783098Y-107203091D01*
X133767711Y-107186300D01*
X133760689Y-107156868D01*
X133764902Y-107134398D01*
X133773329Y-107120415D01*
X133913219Y-106941019D01*
X133715932Y-106941019D01*
X133693583Y-106935401D01*
X133673983Y-106922823D01*
X133661404Y-106904565D01*
X133657191Y-106882156D01*
X133661404Y-106824759D01*
X133673983Y-106805097D01*
X133693583Y-106792519D01*
X133715932Y-106788611D01*
X134093714Y-106788611D01*
X134116062Y-106792824D01*
X134134259Y-106803998D01*
X134146837Y-106822194D01*
X134152455Y-106843199D01*
X134151050Y-106864204D01*
X134141281Y-106883805D01*
X133985942Y-107082679D01*
X134044682Y-107100876D01*
X134067092Y-107114858D01*
X134135663Y-107184895D01*
X134149646Y-107207304D01*
X134184634Y-107310924D01*
X134187442Y-107364169D01*
X134149646Y-107485985D01*
X134135663Y-107508395D01*
X134067092Y-107576966D01*
X134044682Y-107591010D01*
X133922988Y-107628807D01*
X133801294Y-107625998D01*
X133697735Y-107591071D01*
X133673983Y-107577088D01*
X133629225Y-107528117D01*
X133594238Y-107458203D01*
X133588620Y-107435794D01*
X133592833Y-107412041D01*
X133604007Y-107392440D01*
X133623608Y-107378458D01*
X133647360Y-107374244D01*
X133700544Y-107377053D01*
X133720145Y-107388227D01*
X133728510Y-107399401D01*
X133753728Y-107444220D01*
G37*
G36*
X134246610Y-107067231D02*
G01*
X134259189Y-107049035D01*
X134277385Y-107035113D01*
X134334782Y-107030900D01*
X134357130Y-107035113D01*
X134376731Y-107047692D01*
X134389309Y-107067231D01*
X134506851Y-107349393D01*
X134624332Y-107066987D01*
X134636971Y-107047386D01*
X134656511Y-107034808D01*
X134713908Y-107030656D01*
X134736256Y-107034808D01*
X134754452Y-107048791D01*
X134767031Y-107066926D01*
X134771244Y-107090740D01*
X134767031Y-107113088D01*
X134561378Y-107593880D01*
X134547395Y-107612015D01*
X134530604Y-107624593D01*
X134508255Y-107628807D01*
X134484442Y-107624593D01*
X134466246Y-107612015D01*
X134452263Y-107593880D01*
X134246610Y-107111928D01*
X134242397Y-107089579D01*
X134246610Y-107067231D01*
G37*
G36*
X134992528Y-107444220D02*
G01*
X135014876Y-107459607D01*
X135068060Y-107476399D01*
X135152018Y-107476399D01*
X135203798Y-107459607D01*
X135235916Y-107438541D01*
X135256921Y-107406301D01*
X135273712Y-107354461D01*
X135273712Y-107339073D01*
X135256921Y-107285767D01*
X135235916Y-107254932D01*
X135203798Y-107233927D01*
X135152018Y-107215731D01*
X135042903Y-107214326D01*
X135021898Y-107203091D01*
X135006511Y-107186300D01*
X134999489Y-107156868D01*
X135003702Y-107134398D01*
X135012128Y-107120415D01*
X135152018Y-106941019D01*
X134954731Y-106941019D01*
X134932383Y-106935401D01*
X134912783Y-106922823D01*
X134900204Y-106904565D01*
X134895991Y-106882156D01*
X134900204Y-106824759D01*
X134912783Y-106805097D01*
X134932383Y-106792519D01*
X134954731Y-106788611D01*
X135332514Y-106788611D01*
X135354862Y-106792824D01*
X135373058Y-106803998D01*
X135385637Y-106822194D01*
X135391254Y-106843199D01*
X135389850Y-106864204D01*
X135380080Y-106883805D01*
X135224742Y-107082679D01*
X135283482Y-107100876D01*
X135305891Y-107114858D01*
X135374463Y-107184895D01*
X135388446Y-107207304D01*
X135423433Y-107310924D01*
X135426242Y-107364169D01*
X135388446Y-107485985D01*
X135374463Y-107508395D01*
X135305891Y-107576966D01*
X135283482Y-107591010D01*
X135161788Y-107628807D01*
X135040094Y-107625998D01*
X134936535Y-107591071D01*
X134912783Y-107577088D01*
X134868025Y-107528117D01*
X134833037Y-107458203D01*
X134827420Y-107435794D01*
X134831633Y-107412041D01*
X134842807Y-107392440D01*
X134862408Y-107378458D01*
X134886160Y-107374244D01*
X134939344Y-107377053D01*
X134958944Y-107388227D01*
X134967310Y-107399401D01*
X134992528Y-107444220D01*
G37*
D10*
G36*
X136597477Y-92130963D02*
G01*
X136531329Y-92124853D01*
X136402750Y-92139537D01*
X136330291Y-92160798D01*
X136264616Y-92197823D01*
X136204351Y-92252100D01*
X136148926Y-92326548D01*
X136098607Y-92425303D01*
X136268608Y-92389375D01*
X136176846Y-92691264D01*
X135998315Y-92716791D01*
X135959760Y-92857329D01*
X135958768Y-92857504D01*
X135863110Y-93172202D01*
X135781188Y-93396511D01*
X135711575Y-93549544D01*
X135652873Y-93648127D01*
X135603275Y-93706136D01*
X135546721Y-93750614D01*
X135482347Y-93782776D01*
X135408681Y-93802882D01*
X135349034Y-93805578D01*
X135281565Y-93792484D01*
X135203670Y-93760381D01*
X135112671Y-93704463D01*
X135005848Y-93618616D01*
X135044514Y-93626497D01*
X135106319Y-93626590D01*
X135200330Y-93614457D01*
X135275005Y-93591983D01*
X135345229Y-93551186D01*
X135412322Y-93489653D01*
X135452745Y-93431519D01*
X135503107Y-93326479D01*
X135565136Y-93154697D01*
X135640589Y-92892775D01*
X135641581Y-92892600D01*
X135676573Y-92773523D01*
X135503686Y-92809960D01*
X135595358Y-92508087D01*
X135769830Y-92483276D01*
X135854879Y-92266241D01*
X135917508Y-92146695D01*
X135979702Y-92065597D01*
X136046098Y-92006715D01*
X136117291Y-91966803D01*
X136194650Y-91944092D01*
X136254259Y-91941467D01*
X136321681Y-91954779D01*
X136399549Y-91987308D01*
X136490568Y-92043956D01*
X136597477Y-92130963D01*
G37*
G36*
X136914855Y-91829005D02*
G01*
X136787809Y-92148712D01*
X136677651Y-92477184D01*
X136584379Y-92814957D01*
X136508091Y-93162607D01*
X136145849Y-93226480D01*
X136249742Y-92925969D01*
X136382756Y-92492742D01*
X136550629Y-91893228D01*
X136914855Y-91829005D01*
G37*
G36*
X137404823Y-92116792D02*
G01*
X137455932Y-92139685D01*
X137495252Y-92175567D01*
X137524469Y-92226568D01*
X137542934Y-92297154D01*
X137547776Y-92393543D01*
X137531771Y-92565447D01*
X136962251Y-92665869D01*
X136952762Y-92721763D01*
X136956845Y-92751484D01*
X136970470Y-92774736D01*
X136994752Y-92793226D01*
X137035200Y-92806613D01*
X137081738Y-92805511D01*
X137135116Y-92787418D01*
X137188513Y-92750267D01*
X137243244Y-92689237D01*
X137492015Y-92645372D01*
X137438386Y-92757585D01*
X137371342Y-92856791D01*
X137290451Y-92944300D01*
X137193609Y-93020324D01*
X137093668Y-93071986D01*
X136989138Y-93101595D01*
X136916219Y-93107950D01*
X136855483Y-93100630D01*
X136804260Y-93081343D01*
X136760511Y-93050299D01*
X136725773Y-93009327D01*
X136700672Y-92958614D01*
X136685481Y-92895949D01*
X136681673Y-92818390D01*
X136694846Y-92707860D01*
X136728087Y-92597397D01*
X136769998Y-92511990D01*
X137024774Y-92511990D01*
X137324868Y-92459075D01*
X137314392Y-92402564D01*
X137292266Y-92370080D01*
X137258822Y-92354062D01*
X137208331Y-92354626D01*
X137152712Y-92375746D01*
X137092305Y-92424649D01*
X137024774Y-92511990D01*
X136769998Y-92511990D01*
X136782982Y-92485530D01*
X136862178Y-92371021D01*
X136956686Y-92268463D01*
X137052322Y-92193959D01*
X137149941Y-92143614D01*
X137250986Y-92114967D01*
X137338226Y-92107476D01*
X137404823Y-92116792D01*
G37*
G36*
X138586777Y-91885383D02*
G01*
X138129103Y-92434452D01*
X138295306Y-92847473D01*
X137998278Y-92899847D01*
X137913283Y-92692089D01*
X137694216Y-92953461D01*
X137364626Y-93011577D01*
X137823043Y-92464610D01*
X137655917Y-92049519D01*
X137953937Y-91996970D01*
X138038035Y-92207025D01*
X138258000Y-91943356D01*
X138586777Y-91885383D01*
G37*
D14*
G36*
X137050871Y-111090029D02*
G01*
X137063450Y-111070246D01*
X137083050Y-111057545D01*
X137105460Y-111053332D01*
X137277529Y-111053332D01*
X137299938Y-111057545D01*
X137318073Y-111070185D01*
X137330713Y-111089785D01*
X137336269Y-111112195D01*
X137336269Y-111249642D01*
X137329308Y-111276265D01*
X137284551Y-111360406D01*
X137200592Y-111440335D01*
X137130617Y-111475384D01*
X137105460Y-111479292D01*
X136966974Y-111479292D01*
X136941756Y-111473735D01*
X136857797Y-111427634D01*
X136787883Y-111359185D01*
X136743125Y-111275410D01*
X136702520Y-111145473D01*
X136702520Y-110975113D01*
X136740317Y-110853602D01*
X136787883Y-110761462D01*
X136873185Y-110681839D01*
X136941756Y-110646912D01*
X136966974Y-110639096D01*
X137105460Y-110639096D01*
X137130617Y-110644714D01*
X137200592Y-110679640D01*
X137284551Y-110759325D01*
X137329308Y-110843283D01*
X137334865Y-110865692D01*
X137330713Y-110892254D01*
X137318073Y-110911854D01*
X137302686Y-110921624D01*
X137281742Y-110928646D01*
X137242541Y-110928646D01*
X137221597Y-110924433D01*
X137203401Y-110913259D01*
X137189418Y-110896467D01*
X137159987Y-110836261D01*
X137139043Y-110815317D01*
X137091477Y-110791504D01*
X136980957Y-110791504D01*
X136933391Y-110815317D01*
X136912386Y-110836322D01*
X136884420Y-110892437D01*
X136855050Y-110982135D01*
X136855050Y-111136252D01*
X136884420Y-111225951D01*
X136912386Y-111282065D01*
X136933391Y-111303070D01*
X136980957Y-111326884D01*
X137091477Y-111326884D01*
X137139043Y-111303498D01*
X137159987Y-111282859D01*
X137183801Y-111236026D01*
X137183801Y-111205740D01*
X137105460Y-111205740D01*
X137083050Y-111201526D01*
X137063450Y-111188826D01*
X137050871Y-111170446D01*
X137046719Y-111112622D01*
X137050871Y-111090029D01*
G37*
G36*
X137459062Y-110700279D02*
G01*
X137467428Y-110669565D01*
X137482876Y-110652774D01*
X137503820Y-110643004D01*
X137540212Y-110645813D01*
X137559812Y-110658391D01*
X137905355Y-111136680D01*
X137905355Y-110697837D01*
X137910973Y-110675366D01*
X137923551Y-110655644D01*
X137941747Y-110643004D01*
X137964156Y-110638791D01*
X138021492Y-110643004D01*
X138041093Y-110655644D01*
X138053671Y-110675305D01*
X138057824Y-110697714D01*
X138057824Y-111421772D01*
X138049458Y-111452608D01*
X138034010Y-111469461D01*
X138013066Y-111479292D01*
X137989252Y-111479292D01*
X137957073Y-111463904D01*
X137611531Y-110985616D01*
X137611531Y-111420979D01*
X137605974Y-111443266D01*
X137593396Y-111462805D01*
X137575200Y-111475384D01*
X137517864Y-111479597D01*
X137495454Y-111475384D01*
X137475854Y-111462805D01*
X137463275Y-111443266D01*
X137459062Y-111420917D01*
X137459062Y-110700279D01*
G37*
G36*
X138635336Y-110676893D02*
G01*
X138657745Y-110690937D01*
X138737490Y-110774956D01*
X138775226Y-110851954D01*
X138808809Y-110954169D01*
X138813022Y-111144618D01*
X138775226Y-111266434D01*
X138737490Y-111343431D01*
X138657745Y-111427451D01*
X138635336Y-111441495D01*
X138513642Y-111479292D01*
X138273002Y-111479292D01*
X138249249Y-111475384D01*
X138231053Y-111462744D01*
X138218474Y-111443144D01*
X138214261Y-111420734D01*
X138214261Y-111326884D01*
X138365386Y-111326884D01*
X138503872Y-111326884D01*
X138585022Y-111300261D01*
X138601813Y-111282065D01*
X138631184Y-111225951D01*
X138660554Y-111136252D01*
X138660554Y-110982135D01*
X138631184Y-110892437D01*
X138601813Y-110836322D01*
X138585022Y-110818126D01*
X138503872Y-110791504D01*
X138365386Y-110791504D01*
X138365386Y-111326884D01*
X138214261Y-111326884D01*
X138214261Y-110697653D01*
X138218474Y-110675244D01*
X138231053Y-110655644D01*
X138249249Y-110643004D01*
X138273063Y-110639096D01*
X138513642Y-110639096D01*
X138635336Y-110676893D01*
G37*
G36*
X150436512Y-109405119D02*
G01*
X150449090Y-109386984D01*
X150467287Y-109373001D01*
X150489635Y-109368788D01*
X150706522Y-109368788D01*
X150706522Y-109153366D01*
X150710736Y-109130957D01*
X150723314Y-109111356D01*
X150742915Y-109098778D01*
X150800251Y-109094564D01*
X150822599Y-109098778D01*
X150840795Y-109111356D01*
X150853373Y-109130957D01*
X150858991Y-109153366D01*
X150858991Y-109368788D01*
X151074474Y-109368788D01*
X151096823Y-109373001D01*
X151116423Y-109386984D01*
X151129002Y-109405119D01*
X151133215Y-109462455D01*
X151129002Y-109484864D01*
X151116423Y-109504404D01*
X151096823Y-109516982D01*
X151074474Y-109521196D01*
X150858991Y-109521196D01*
X150858991Y-109736679D01*
X150853373Y-109760431D01*
X150840795Y-109778628D01*
X150822599Y-109791206D01*
X150765263Y-109795419D01*
X150742915Y-109791206D01*
X150723314Y-109778628D01*
X150710736Y-109760431D01*
X150706522Y-109736679D01*
X150706522Y-109521196D01*
X150489635Y-109521196D01*
X150467287Y-109516982D01*
X150449090Y-109504404D01*
X150436512Y-109484864D01*
X150430894Y-109427528D01*
X150436512Y-109405119D01*
G37*
G36*
X151324640Y-109042174D02*
G01*
X151331601Y-109021353D01*
X151346988Y-109003340D01*
X151366589Y-108993631D01*
X151383380Y-108989723D01*
X151727580Y-108989723D01*
X151749928Y-108993936D01*
X151769528Y-109006515D01*
X151782107Y-109026054D01*
X151786320Y-109083390D01*
X151782107Y-109105800D01*
X151769528Y-109123935D01*
X151749928Y-109136513D01*
X151727580Y-109142131D01*
X151468743Y-109142131D01*
X151454760Y-109239828D01*
X151486939Y-109229264D01*
X151608633Y-109232012D01*
X151712131Y-109267122D01*
X151734541Y-109281166D01*
X151803112Y-109349920D01*
X151817095Y-109372391D01*
X151852082Y-109476255D01*
X151854891Y-109564671D01*
X151817095Y-109686731D01*
X151803112Y-109709201D01*
X151734541Y-109778017D01*
X151712131Y-109792000D01*
X151590437Y-109829919D01*
X151468743Y-109827110D01*
X151365184Y-109792183D01*
X151341432Y-109778200D01*
X151296674Y-109729229D01*
X151261686Y-109659315D01*
X151256069Y-109636906D01*
X151260282Y-109613153D01*
X151271456Y-109593552D01*
X151291057Y-109579570D01*
X151314809Y-109575356D01*
X151367993Y-109578165D01*
X151390402Y-109592148D01*
X151421177Y-109645332D01*
X151443525Y-109660719D01*
X151496709Y-109677511D01*
X151580668Y-109677511D01*
X151632447Y-109660536D01*
X151664565Y-109639348D01*
X151685570Y-109606803D01*
X151702362Y-109554474D01*
X151702362Y-109503549D01*
X151685570Y-109451220D01*
X151664565Y-109418675D01*
X151632447Y-109397487D01*
X151580668Y-109380512D01*
X151465935Y-109380512D01*
X151410003Y-109408477D01*
X151383380Y-109414095D01*
X151342836Y-109414095D01*
X151320427Y-109407073D01*
X151303635Y-109391686D01*
X151292461Y-109372207D01*
X151291057Y-109349981D01*
X151324640Y-109042174D01*
G37*
G36*
X151914059Y-109026115D02*
G01*
X151926638Y-109006515D01*
X151946238Y-108993936D01*
X152002231Y-108989723D01*
X152024579Y-108993936D01*
X152044179Y-109007919D01*
X152056758Y-109027520D01*
X152242810Y-109505014D01*
X152428923Y-109027275D01*
X152441502Y-109007614D01*
X152461102Y-108993631D01*
X152518438Y-108989418D01*
X152540847Y-108993631D01*
X152557639Y-109004866D01*
X152571622Y-109024467D01*
X152577178Y-109046876D01*
X152573026Y-109069285D01*
X152297398Y-109792122D01*
X152286224Y-109811722D01*
X152266624Y-109824301D01*
X152244214Y-109829919D01*
X152221866Y-109825705D01*
X152202266Y-109814531D01*
X152189687Y-109794931D01*
X151912655Y-109069529D01*
X151909846Y-109047120D01*
X151914059Y-109026115D01*
G37*
D13*
G36*
X154464403Y-93222050D02*
G01*
X154472768Y-93209532D01*
X154485408Y-93199763D01*
X154537126Y-93196954D01*
X154552514Y-93199763D01*
X154565153Y-93209288D01*
X154573518Y-93221561D01*
X154576327Y-93284332D01*
X154628107Y-93235788D01*
X154700830Y-93199763D01*
X154717622Y-93195855D01*
X154826737Y-93195855D01*
X154844933Y-93200007D01*
X154928892Y-93245619D01*
X154952644Y-93306436D01*
X155026772Y-93235788D01*
X155099557Y-93199763D01*
X155116348Y-93195855D01*
X155225464Y-93195855D01*
X155243660Y-93200068D01*
X155315040Y-93236399D01*
X155327618Y-93246230D01*
X155335984Y-93258808D01*
X155373780Y-93380502D01*
X155373780Y-93742837D01*
X155370971Y-93758285D01*
X155362606Y-93770863D01*
X155349966Y-93779229D01*
X155298248Y-93782038D01*
X155282861Y-93779229D01*
X155270221Y-93770802D01*
X155261856Y-93758163D01*
X155259047Y-93742775D01*
X155259047Y-93389173D01*
X155232486Y-93335867D01*
X155180706Y-93309183D01*
X155126118Y-93309183D01*
X155064569Y-93339958D01*
X154975054Y-93400164D01*
X154975054Y-93741737D01*
X154972245Y-93757125D01*
X154963880Y-93769703D01*
X154951240Y-93778130D01*
X154935853Y-93782038D01*
X154899522Y-93782038D01*
X154884134Y-93779229D01*
X154871495Y-93770802D01*
X154863129Y-93758163D01*
X154860321Y-93742775D01*
X154860321Y-93389173D01*
X154833759Y-93335867D01*
X154781980Y-93309183D01*
X154727391Y-93309183D01*
X154665842Y-93339958D01*
X154576327Y-93400164D01*
X154576327Y-93741737D01*
X154573518Y-93757125D01*
X154565153Y-93769703D01*
X154552514Y-93778130D01*
X154500795Y-93780938D01*
X154485408Y-93778130D01*
X154472768Y-93769764D01*
X154464403Y-93757247D01*
X154461594Y-93741921D01*
X154461594Y-93235972D01*
X154464403Y-93222050D01*
G37*
G36*
X155896277Y-93199763D02*
G01*
X155978831Y-93243177D01*
X156051554Y-93316022D01*
X156061385Y-93331409D01*
X156097716Y-93440647D01*
X156099120Y-93526071D01*
X156061385Y-93646483D01*
X156051554Y-93661870D01*
X155978831Y-93734715D01*
X155896277Y-93778130D01*
X155879485Y-93782038D01*
X155770369Y-93782038D01*
X155753578Y-93777824D01*
X155669619Y-93734471D01*
X155598300Y-93661748D01*
X155588531Y-93646361D01*
X155552139Y-93537184D01*
X155552139Y-93458660D01*
X155664002Y-93458660D01*
X155664002Y-93519232D01*
X155696181Y-93613693D01*
X155721338Y-93639094D01*
X155780139Y-93668709D01*
X155869654Y-93668709D01*
X155928395Y-93639094D01*
X155953613Y-93613693D01*
X155984387Y-93519232D01*
X155984387Y-93458660D01*
X155953613Y-93364199D01*
X155928395Y-93338798D01*
X155869654Y-93309183D01*
X155780139Y-93309183D01*
X155721338Y-93338798D01*
X155696181Y-93364199D01*
X155664002Y-93458660D01*
X155552139Y-93458660D01*
X155552139Y-93440708D01*
X155588531Y-93331532D01*
X155598300Y-93316144D01*
X155680854Y-93236399D01*
X155767561Y-93195855D01*
X155879485Y-93195855D01*
X155896277Y-93199763D01*
G37*
G36*
X156764072Y-92944651D02*
G01*
X156776711Y-92953016D01*
X156785076Y-92965595D01*
X156787885Y-92980982D01*
X156787885Y-93741798D01*
X156785076Y-93757125D01*
X156776711Y-93769764D01*
X156764072Y-93778130D01*
X156713757Y-93780938D01*
X156698370Y-93778130D01*
X156685731Y-93770009D01*
X156677365Y-93757857D01*
X156674557Y-93729525D01*
X156657765Y-93742043D01*
X156585042Y-93778130D01*
X156568250Y-93782038D01*
X156459134Y-93782038D01*
X156442343Y-93777824D01*
X156359789Y-93734471D01*
X156287065Y-93661687D01*
X156277296Y-93646238D01*
X156240903Y-93537062D01*
X156240903Y-93458660D01*
X156354171Y-93458660D01*
X156354171Y-93519232D01*
X156384946Y-93613693D01*
X156410164Y-93639094D01*
X156468904Y-93668709D01*
X156558419Y-93668709D01*
X156674557Y-93610884D01*
X156674557Y-93367008D01*
X156558419Y-93309183D01*
X156468904Y-93309183D01*
X156410164Y-93338798D01*
X156384946Y-93364199D01*
X156354171Y-93458660D01*
X156240903Y-93458660D01*
X156240903Y-93440525D01*
X156277296Y-93331348D01*
X156287065Y-93315961D01*
X156359789Y-93243177D01*
X156442343Y-93199763D01*
X156459134Y-93195855D01*
X156568250Y-93195855D01*
X156585042Y-93200007D01*
X156657765Y-93235910D01*
X156674557Y-93248367D01*
X156674557Y-92981043D01*
X156677365Y-92965656D01*
X156685731Y-92953016D01*
X156698370Y-92944651D01*
X156713757Y-92941842D01*
X156764072Y-92944651D01*
G37*
G36*
X157309954Y-93200068D02*
G01*
X157382678Y-93236338D01*
X157437266Y-93290743D01*
X157472254Y-93361940D01*
X157476406Y-93380075D01*
X157476406Y-93488946D01*
X157473658Y-93502929D01*
X157465232Y-93515446D01*
X157452653Y-93525216D01*
X157437266Y-93528025D01*
X157081893Y-93528025D01*
X157109858Y-93613266D01*
X157135076Y-93638850D01*
X157193817Y-93668709D01*
X157283393Y-93668709D01*
X157336516Y-93642147D01*
X157365886Y-93582003D01*
X157388295Y-93562402D01*
X157417665Y-93563807D01*
X157465232Y-93607160D01*
X157473658Y-93621143D01*
X157476406Y-93635125D01*
X157473658Y-93650513D01*
X157465232Y-93663152D01*
X157392508Y-93735204D01*
X157309954Y-93778130D01*
X157293163Y-93782038D01*
X157184047Y-93782038D01*
X157167255Y-93777824D01*
X157094471Y-93741432D01*
X157011978Y-93661687D01*
X157002147Y-93646238D01*
X156965816Y-93537062D01*
X156965816Y-93440525D01*
X156974411Y-93414696D01*
X157093128Y-93414696D01*
X157363138Y-93414696D01*
X157363138Y-93390455D01*
X157336516Y-93336294D01*
X157283393Y-93309183D01*
X157193817Y-93309183D01*
X157135076Y-93339103D01*
X157109858Y-93364810D01*
X157093128Y-93414696D01*
X156974411Y-93414696D01*
X157002147Y-93331348D01*
X157011978Y-93315961D01*
X157083297Y-93243177D01*
X157167255Y-93199763D01*
X157184047Y-93195855D01*
X157293163Y-93195855D01*
X157309954Y-93200068D01*
G37*
D14*
G36*
X135037728Y-108643193D02*
G01*
X135048902Y-108623592D01*
X135067099Y-108609549D01*
X135127243Y-108578774D01*
X135223780Y-108482115D01*
X135241976Y-108469536D01*
X135265729Y-108465323D01*
X135288138Y-108469536D01*
X135306334Y-108482115D01*
X135318913Y-108501715D01*
X135324531Y-108524125D01*
X135324531Y-109246717D01*
X135318913Y-109269126D01*
X135306334Y-109288727D01*
X135288138Y-109301305D01*
X135230802Y-109305519D01*
X135208393Y-109301305D01*
X135188793Y-109288727D01*
X135176214Y-109269126D01*
X135172001Y-109246717D01*
X135172001Y-108722999D01*
X135118817Y-108748156D01*
X135096469Y-108755178D01*
X135072655Y-108750965D01*
X135053116Y-108738387D01*
X135039072Y-108718786D01*
X135034920Y-108696377D01*
X135037728Y-108643193D01*
G37*
G36*
X135590755Y-108743943D02*
G01*
X135603334Y-108725747D01*
X135621530Y-108711825D01*
X135678927Y-108707612D01*
X135701275Y-108711825D01*
X135720876Y-108724404D01*
X135733454Y-108743943D01*
X135850996Y-109026105D01*
X135968477Y-108743699D01*
X135981116Y-108724098D01*
X136000656Y-108711520D01*
X136058053Y-108707368D01*
X136080401Y-108711520D01*
X136098597Y-108725503D01*
X136111176Y-108743638D01*
X136115389Y-108767452D01*
X136111176Y-108789800D01*
X135905523Y-109270592D01*
X135891540Y-109288727D01*
X135874749Y-109301305D01*
X135852400Y-109305519D01*
X135828587Y-109301305D01*
X135810391Y-109288727D01*
X135796408Y-109270592D01*
X135590755Y-108788640D01*
X135586542Y-108766291D01*
X135590755Y-108743943D01*
G37*
G36*
X136661272Y-108503059D02*
G01*
X136680811Y-108514294D01*
X136694794Y-108532429D01*
X136729782Y-108601000D01*
X136735399Y-108627561D01*
X136735399Y-108696072D01*
X136729782Y-108722633D01*
X136694794Y-108791143D01*
X136657058Y-108833092D01*
X136718608Y-108894641D01*
X136764770Y-108978538D01*
X136770387Y-109005161D01*
X136770387Y-109108598D01*
X136764770Y-109133816D01*
X136729843Y-109203730D01*
X136685024Y-109252640D01*
X136661272Y-109266623D01*
X136557713Y-109301611D01*
X136402435Y-109304419D01*
X136280680Y-109266623D01*
X136256928Y-109252640D01*
X136212109Y-109203730D01*
X136177182Y-109133816D01*
X136171565Y-109108598D01*
X136171565Y-109020182D01*
X136324094Y-109020182D01*
X136324094Y-109095714D01*
X136336673Y-109120932D01*
X136359082Y-109136319D01*
X136412205Y-109153111D01*
X136529747Y-109153111D01*
X136582870Y-109136319D01*
X136605279Y-109120932D01*
X136617857Y-109095714D01*
X136617857Y-109020182D01*
X136594105Y-108972615D01*
X136573100Y-108951611D01*
X136518512Y-108923645D01*
X136471006Y-108912471D01*
X136423440Y-108923645D01*
X136368852Y-108951611D01*
X136347847Y-108972615D01*
X136324094Y-109020182D01*
X136171565Y-109020182D01*
X136171565Y-109005161D01*
X136177182Y-108978538D01*
X136223344Y-108894641D01*
X136284893Y-108833092D01*
X136247158Y-108791143D01*
X136212170Y-108722633D01*
X136206553Y-108696072D01*
X136206553Y-108641544D01*
X136357617Y-108641544D01*
X136357617Y-108682089D01*
X136377217Y-108721290D01*
X136423379Y-108743638D01*
X136470945Y-108756216D01*
X136518512Y-108743638D01*
X136564674Y-108721290D01*
X136584274Y-108682089D01*
X136584274Y-108641544D01*
X136580061Y-108634522D01*
X136529747Y-108617731D01*
X136412205Y-108617731D01*
X136361830Y-108634522D01*
X136357617Y-108641544D01*
X136206553Y-108641544D01*
X136206553Y-108627561D01*
X136212170Y-108601000D01*
X136247158Y-108532429D01*
X136261141Y-108514294D01*
X136280680Y-108503059D01*
X136392604Y-108466728D01*
X136539517Y-108465323D01*
X136661272Y-108503059D01*
G37*
D12*
X133602312Y-93638242D02*
G75*
G02*
X132602312Y-93638242I-500000J0D01*
G01*
X132602312Y-93638242D02*
G75*
G02*
X133602312Y-93638242I500000J0D01*
G01*
X132272377Y-100361964D02*
X132056705Y-100361964D01*
X132272377Y-101081964D02*
X132056705Y-101081964D01*
D14*
X137400000Y-95100000D02*
X149700000Y-95100000D01*
X137400000Y-108400000D02*
X137400000Y-95100000D01*
X149700000Y-95100000D02*
X150700000Y-96100000D01*
X150700000Y-108400000D02*
X137400000Y-108400000D01*
X150700000Y-108400000D02*
X150700000Y-96100000D01*
D12*
X154563962Y-109855670D02*
X156494185Y-109515319D01*
X154772339Y-111037442D02*
X156702563Y-110697088D01*
X156702563Y-110697088D02*
X156494185Y-109515319D01*
X152846300Y-97331536D02*
X152846300Y-97115864D01*
X153566300Y-97331536D02*
X153566300Y-97115864D01*
X144742836Y-110725000D02*
X144527164Y-110725000D01*
X144742836Y-111445000D02*
X144527164Y-111445000D01*
X132444004Y-98074994D02*
G75*
G02*
X131444004Y-98074994I-500000J0D01*
G01*
X131444004Y-98074994D02*
G75*
G02*
X132444004Y-98074994I500000J0D01*
G01*
X134825000Y-93425000D02*
G75*
G02*
X133825000Y-93425000I-500000J0D01*
G01*
X133825000Y-93425000D02*
G75*
G02*
X134825000Y-93425000I500000J0D01*
G01*
X153908641Y-95115000D02*
X153601359Y-95115000D01*
X153908641Y-95875000D02*
X153601359Y-95875000D01*
X136343726Y-93863828D02*
X136077612Y-94017469D01*
X136723726Y-94522007D02*
X136457612Y-94675648D01*
X131941913Y-102321913D02*
X131482294Y-102781533D01*
X131941913Y-102321913D02*
X132401533Y-101862294D01*
X134148087Y-104528087D02*
X133688467Y-104987706D01*
X134148087Y-104528087D02*
X135332490Y-103343683D01*
X132527164Y-105225000D02*
X132742836Y-105225000D01*
X132527164Y-105945000D02*
X132742836Y-105945000D01*
X134475000Y-101202836D02*
X134475000Y-100987164D01*
X135195000Y-101202836D02*
X135195000Y-100987164D01*
X151625000Y-110925000D02*
G75*
G02*
X150225000Y-110925000I-700000J0D01*
G01*
X150225000Y-110925000D02*
G75*
G02*
X151625000Y-110925000I700000J0D01*
G01*
X153735000Y-110675000D02*
G75*
G02*
X152335000Y-110675000I-700000J0D01*
G01*
X152335000Y-110675000D02*
G75*
G02*
X153735000Y-110675000I700000J0D01*
G01*
X142427164Y-92165000D02*
X142642836Y-92165000D01*
X142427164Y-92885000D02*
X142642836Y-92885000D01*
X152831807Y-105184974D02*
X152831807Y-105400646D01*
X153551807Y-105184974D02*
X153551807Y-105400646D01*
X132444004Y-95574165D02*
G75*
G02*
X131444004Y-95574165I-500000J0D01*
G01*
X131444004Y-95574165D02*
G75*
G02*
X132444004Y-95574165I500000J0D01*
G01*
X139928464Y-92163700D02*
X140144136Y-92163700D01*
X139928464Y-92883700D02*
X140144136Y-92883700D01*
X132444004Y-96816179D02*
G75*
G02*
X131444004Y-96816179I-500000J0D01*
G01*
X131444004Y-96816179D02*
G75*
G02*
X132444004Y-96816179I500000J0D01*
G01*
X134330014Y-105611917D02*
X134330014Y-105827589D01*
X135050014Y-105611917D02*
X135050014Y-105827589D01*
X151275000Y-93875000D02*
X151275000Y-93275000D01*
X151975000Y-92575000D02*
X153375000Y-92575000D01*
X153375000Y-94575000D02*
X151975000Y-94575000D01*
X154075000Y-93275000D02*
X154075000Y-93875000D01*
X151275000Y-93275000D02*
G75*
G02*
X151975000Y-92575000I699999J1D01*
G01*
X151975000Y-94575000D02*
G75*
G02*
X151275000Y-93875000I-1J699999D01*
G01*
X153375000Y-92575000D02*
G75*
G02*
X154075000Y-93275000I0J-700000D01*
G01*
X154075000Y-93875000D02*
G75*
G02*
X153375000Y-94575000I-700000J0D01*
G01*
X134241701Y-99237334D02*
X134457373Y-99237334D01*
X134241701Y-99957334D02*
X134457373Y-99957334D01*
X146758464Y-110763700D02*
X146974136Y-110763700D01*
X146758464Y-111483700D02*
X146974136Y-111483700D01*
X132444004Y-94310938D02*
G75*
G02*
X131444004Y-94310938I-500000J0D01*
G01*
X131444004Y-94310938D02*
G75*
G02*
X132444004Y-94310938I500000J0D01*
G01*
X133438414Y-107362188D02*
G75*
G02*
X131538416Y-107362188I-949999J0D01*
G01*
X131538416Y-107362188D02*
G75*
G02*
X133438414Y-107362188I949999J0D01*
G01*
X134824999Y-109075000D02*
G75*
G02*
X132925001Y-109075000I-949999J0D01*
G01*
X132925001Y-109075000D02*
G75*
G02*
X134824999Y-109075000I949999J0D01*
G01*
X153775000Y-108748641D02*
X153775000Y-108441359D01*
X154535000Y-108748641D02*
X154535000Y-108441359D01*
X152775000Y-108748641D02*
X152775000Y-108441359D01*
X153535000Y-108748641D02*
X153535000Y-108441359D01*
X140288789Y-110701628D02*
X139981507Y-110701628D01*
X140288789Y-111461628D02*
X139981507Y-111461628D01*
X136524999Y-110575000D02*
G75*
G02*
X134625001Y-110575000I-949999J0D01*
G01*
X134625001Y-110575000D02*
G75*
G02*
X136524999Y-110575000I949999J0D01*
G01*
X131997918Y-99633435D02*
X132264032Y-99787076D01*
X132377918Y-98975256D02*
X132644032Y-99128897D01*
D16*
X155150000Y-94750000D02*
X156650000Y-94750000D01*
X155150000Y-96350000D02*
X155150000Y-94750000D01*
X155150000Y-108950000D02*
X155150000Y-107350000D01*
X156650000Y-108950000D02*
X155150000Y-108950000D01*
X158650000Y-94750000D02*
X159250000Y-94750000D01*
X159250000Y-94750000D02*
X159250000Y-108950000D01*
X159250000Y-108950000D02*
X158650000Y-108950000D01*
D12*
X142301359Y-110715000D02*
X142608641Y-110715000D01*
X142301359Y-111475000D02*
X142608641Y-111475000D01*
M02*
