%TF.GenerationSoftware,KiCad,Pcbnew,8.0.0-rc1-4-g5bc78f7d9f*%
%TF.CreationDate,2024-02-12T22:06:08-05:00*%
%TF.ProjectId,fujiflex,66756a69-666c-4657-982e-6b696361645f,rev?*%
%TF.SameCoordinates,Original*%
%TF.FileFunction,Paste,Top*%
%TF.FilePolarity,Positive*%
%FSLAX46Y46*%
G04 Gerber Fmt 4.6, Leading zero omitted, Abs format (unit mm)*
G04 Created by KiCad (PCBNEW 8.0.0-rc1-4-g5bc78f7d9f) date 2024-02-12 22:06:08*
%MOMM*%
%LPD*%
G01*
G04 APERTURE LIST*
G04 Aperture macros list*
%AMRoundRect*
0 Rectangle with rounded corners*
0 $1 Rounding radius*
0 $2 $3 $4 $5 $6 $7 $8 $9 X,Y pos of 4 corners*
0 Add a 4 corners polygon primitive as box body*
4,1,4,$2,$3,$4,$5,$6,$7,$8,$9,$2,$3,0*
0 Add four circle primitives for the rounded corners*
1,1,$1+$1,$2,$3*
1,1,$1+$1,$4,$5*
1,1,$1+$1,$6,$7*
1,1,$1+$1,$8,$9*
0 Add four rect primitives between the rounded corners*
20,1,$1+$1,$2,$3,$4,$5,0*
20,1,$1+$1,$4,$5,$6,$7,0*
20,1,$1+$1,$6,$7,$8,$9,0*
20,1,$1+$1,$8,$9,$2,$3,0*%
G04 Aperture macros list end*
%ADD10RoundRect,0.140000X0.140000X0.170000X-0.140000X0.170000X-0.140000X-0.170000X0.140000X-0.170000X0*%
%ADD11RoundRect,0.120000X-0.030000X-0.617500X0.030000X-0.617500X0.030000X0.617500X-0.030000X0.617500X0*%
%ADD12RoundRect,0.120000X-0.617500X0.030000X-0.617500X-0.030000X0.617500X-0.030000X0.617500X0.030000X0*%
%ADD13RoundRect,0.150000X-0.112992X-0.223009X0.182451X-0.170914X0.112992X0.223009X-0.182451X0.170914X0*%
%ADD14RoundRect,0.140000X0.170000X-0.140000X0.170000X0.140000X-0.170000X0.140000X-0.170000X-0.140000X0*%
%ADD15RoundRect,0.135000X0.135000X0.185000X-0.135000X0.185000X-0.135000X-0.185000X0.135000X-0.185000X0*%
%ADD16RoundRect,0.135000X0.024413X0.227715X-0.209413X0.092715X-0.024413X-0.227715X0.209413X-0.092715X0*%
%ADD17RoundRect,0.150000X0.309359X0.521491X-0.521491X-0.309359X-0.309359X-0.521491X0.521491X0.309359X0*%
%ADD18RoundRect,0.140000X-0.140000X-0.170000X0.140000X-0.170000X0.140000X0.170000X-0.140000X0.170000X0*%
%ADD19RoundRect,0.140000X-0.170000X0.140000X-0.170000X-0.140000X0.170000X-0.140000X0.170000X0.140000X0*%
%ADD20RoundRect,0.090000X-0.060000X-0.385000X0.060000X-0.385000X0.060000X0.385000X-0.060000X0.385000X0*%
%ADD21RoundRect,0.075000X-0.750000X0.050000X-0.750000X-0.050000X0.750000X-0.050000X0.750000X0.050000X0*%
%ADD22RoundRect,0.135000X0.185000X-0.135000X0.185000X0.135000X-0.185000X0.135000X-0.185000X-0.135000X0*%
%ADD23RoundRect,0.135000X-0.209413X-0.092715X0.024413X-0.227715X0.209413X0.092715X-0.024413X0.227715X0*%
%ADD24RoundRect,0.075000X0.425000X-0.075000X0.425000X0.075000X-0.425000X0.075000X-0.425000X-0.075000X0*%
%ADD25RoundRect,0.325000X0.325000X0.675000X-0.325000X0.675000X-0.325000X-0.675000X0.325000X-0.675000X0*%
%ADD26RoundRect,0.135000X-0.135000X-0.185000X0.135000X-0.185000X0.135000X0.185000X-0.135000X0.185000X0*%
G04 APERTURE END LIST*
D10*
%TO.C,C2*%
X132644541Y-100721964D03*
X131684541Y-100721964D03*
%TD*%
D11*
%TO.C,U1*%
X150050000Y-94012000D03*
X149550000Y-94012000D03*
X149050000Y-94012000D03*
X148550000Y-94012000D03*
X148050000Y-94012000D03*
X147550000Y-94012000D03*
X147050000Y-94012000D03*
X146550000Y-94012000D03*
X146050000Y-94012000D03*
X145550000Y-94012000D03*
X145050000Y-94012000D03*
X144550000Y-94012000D03*
X144050000Y-94012000D03*
X143550000Y-94012000D03*
X143050000Y-94012000D03*
X142550000Y-94012000D03*
X142050000Y-94012000D03*
X141550000Y-94012000D03*
X141050000Y-94012000D03*
X140550000Y-94012000D03*
X140050000Y-94012000D03*
X139550000Y-94012000D03*
X139050000Y-94012000D03*
X138550000Y-94012000D03*
X138050000Y-94012000D03*
D12*
X136312000Y-95750000D03*
X136312000Y-96250000D03*
X136312000Y-96750000D03*
X136312000Y-97250000D03*
X136312000Y-97750000D03*
X136312000Y-98250000D03*
X136312000Y-98750000D03*
X136312000Y-99250000D03*
X136312000Y-99750000D03*
X136312000Y-100250000D03*
X136312000Y-100750000D03*
X136312000Y-101250000D03*
X136312000Y-101750000D03*
X136312000Y-102250000D03*
X136312000Y-102750000D03*
X136312000Y-103250000D03*
X136312000Y-103750000D03*
X136312000Y-104250000D03*
X136312000Y-104750000D03*
X136312000Y-105250000D03*
X136312000Y-105750000D03*
X136312000Y-106250000D03*
X136312000Y-106750000D03*
X136312000Y-107250000D03*
X136312000Y-107750000D03*
D11*
X138050000Y-109488000D03*
X138550000Y-109488000D03*
X139050000Y-109488000D03*
X139550000Y-109488000D03*
X140050000Y-109488000D03*
X140550000Y-109488000D03*
X141050000Y-109488000D03*
X141550000Y-109488000D03*
X142050000Y-109488000D03*
X142550000Y-109488000D03*
X143050000Y-109488000D03*
X143550000Y-109488000D03*
X144050000Y-109488000D03*
X144550000Y-109488000D03*
X145050000Y-109488000D03*
X145550000Y-109488000D03*
X146050000Y-109488000D03*
X146550000Y-109488000D03*
X147050000Y-109488000D03*
X147550000Y-109488000D03*
X148050000Y-109488000D03*
X148550000Y-109488000D03*
X149050000Y-109488000D03*
X149550000Y-109488000D03*
X150050000Y-109488000D03*
D12*
X151788000Y-107750000D03*
X151788000Y-107250000D03*
X151788000Y-106750000D03*
X151788000Y-106250000D03*
X151788000Y-105750000D03*
X151788000Y-105250000D03*
X151788000Y-104750000D03*
X151788000Y-104250000D03*
X151788000Y-103750000D03*
X151788000Y-103250000D03*
X151788000Y-102750000D03*
X151788000Y-102250000D03*
X151788000Y-101750000D03*
X151788000Y-101250000D03*
X151788000Y-100750000D03*
X151788000Y-100250000D03*
X151788000Y-99750000D03*
X151788000Y-99250000D03*
X151788000Y-98750000D03*
X151788000Y-98250000D03*
X151788000Y-97750000D03*
X151788000Y-97250000D03*
X151788000Y-96750000D03*
X151788000Y-96250000D03*
X151788000Y-95750000D03*
%TD*%
D13*
%TO.C,D1*%
X156046882Y-110203446D03*
X154668150Y-110446554D03*
%TD*%
D14*
%TO.C,C9*%
X153206300Y-97703700D03*
X153206300Y-96743700D03*
%TD*%
D10*
%TO.C,C3*%
X145115000Y-111085000D03*
X144155000Y-111085000D03*
%TD*%
D15*
%TO.C,R4*%
X154265000Y-95495000D03*
X153245000Y-95495000D03*
%TD*%
D16*
%TO.C,R5*%
X136842342Y-94014738D03*
X135958996Y-94524738D03*
%TD*%
D17*
%TO.C,U3*%
X134379664Y-103433839D03*
X133036161Y-102090336D03*
X132382087Y-104087913D03*
%TD*%
D18*
%TO.C,C1*%
X132155000Y-105585000D03*
X133115000Y-105585000D03*
%TD*%
D14*
%TO.C,C6*%
X134835000Y-101575000D03*
X134835000Y-100615000D03*
%TD*%
D18*
%TO.C,C5*%
X142055000Y-92525000D03*
X143015000Y-92525000D03*
%TD*%
D19*
%TO.C,C4*%
X153191807Y-104812810D03*
X153191807Y-105772810D03*
%TD*%
D20*
%TO.C,U2*%
X134754134Y-95486698D03*
X134254134Y-95486698D03*
X133754134Y-95486698D03*
X133254134Y-95486698D03*
X133254134Y-98286698D03*
X133754134Y-98286698D03*
X134254134Y-98286698D03*
X134754134Y-98286698D03*
D21*
X134004134Y-96886698D03*
%TD*%
D18*
%TO.C,C8*%
X139556300Y-92523700D03*
X140516300Y-92523700D03*
%TD*%
D19*
%TO.C,C10*%
X134690014Y-105239753D03*
X134690014Y-106199753D03*
%TD*%
D18*
%TO.C,C12*%
X133869537Y-99597334D03*
X134829537Y-99597334D03*
%TD*%
%TO.C,C7*%
X146386300Y-111123700D03*
X147346300Y-111123700D03*
%TD*%
D22*
%TO.C,R1*%
X154155000Y-109105000D03*
X154155000Y-108085000D03*
%TD*%
%TO.C,R2*%
X153155000Y-109105000D03*
X153155000Y-108085000D03*
%TD*%
D15*
%TO.C,R3*%
X140645148Y-111081628D03*
X139625148Y-111081628D03*
%TD*%
D23*
%TO.C,R6*%
X131879303Y-99126166D03*
X132762647Y-99636166D03*
%TD*%
D24*
%TO.C,J1*%
X154950000Y-106350000D03*
X154950000Y-105850000D03*
X154950000Y-105350000D03*
X154950000Y-104850000D03*
X154950000Y-104350000D03*
X154950000Y-103850000D03*
X154950000Y-103350000D03*
X154950000Y-102850000D03*
X154950000Y-102350000D03*
X154950000Y-101850000D03*
X154950000Y-101350000D03*
X154950000Y-100850000D03*
X154950000Y-100350000D03*
X154950000Y-99850000D03*
X154950000Y-99350000D03*
X154950000Y-98850000D03*
X154950000Y-98350000D03*
X154950000Y-97850000D03*
X154950000Y-97350000D03*
D25*
X157650000Y-108650000D03*
X157650000Y-95050000D03*
%TD*%
D26*
%TO.C,R7*%
X141945000Y-111095000D03*
X142965000Y-111095000D03*
%TD*%
M02*
