M48
; DRILL file {KiCad 9.0.0-rc2-6-ga1fa0bdb0b} date 2025-02-02T00:09:24-0500
; FORMAT={-:-/ absolute / metric / decimal}
; #@! TF.CreationDate,2025-02-02T00:09:24-05:00
; #@! TF.GenerationSoftware,Kicad,Pcbnew,9.0.0-rc2-6-ga1fa0bdb0b
; #@! TF.FileFunction,Plated,1,2,PTH
FMAT,2
METRIC
; #@! TA.AperFunction,Plated,PTH,ViaDrill
T1C0.150
; #@! TA.AperFunction,Plated,PTH,ViaDrill
T2C0.250
; #@! TA.AperFunction,Plated,PTH,ViaDrill
T3C0.254
%
G90
G05
T1
X131.486Y-102.071
X131.504Y-103.556
X131.554Y-90.02
X131.566Y-91.013
X131.673Y-101.373
X131.708Y-104.889
X131.799Y-89.273
X131.984Y-102.878
X132.251Y-93.457
X132.369Y-104.969
X132.786Y-104.693
X132.825Y-96.225
X133.019Y-104.303
X133.203Y-97.443
X133.38Y-105.02
X133.413Y-103.301
X133.722Y-100.324
X133.726Y-92.225
X133.751Y-96.269
X133.752Y-97.499
X133.967Y-106.327
X134.043Y-100.82
X134.149Y-110.382
X134.254Y-99.012
X134.339Y-97.338
X134.383Y-96.268
X134.445Y-102.482
X134.554Y-104.336
X134.73Y-88.195
X134.825Y-107.979
X134.942Y-102.377
X134.951Y-97.325
X135.013Y-103.972
X135.142Y-96.664
X135.185Y-99.002
X135.194Y-95.571
X135.23Y-103.487
X135.239Y-102.803
X135.544Y-109.216
X135.725Y-89.325
X135.773Y-108.263
X136.342Y-109.588
X136.396Y-88.731
X136.883Y-108.226
X137.186Y-108.956
X137.404Y-109.61
X137.425Y-98.725
X137.454Y-101.081
X137.461Y-99.467
X137.634Y-91.634
X137.725Y-100.325
X137.725Y-106.925
X137.725Y-107.925
X138.04Y-105.979
X138.187Y-100.025
X138.252Y-103.124
X138.341Y-96.51
X138.425Y-104.225
X138.606Y-100.524
X138.857Y-92.383
X138.995Y-103.744
X139.025Y-100.025
X139.044Y-104.711
X139.05Y-107.929
X139.112Y-106.604
X139.294Y-97.321
X139.314Y-110.561
X139.514Y-107.251
X139.694Y-101.001
X139.824Y-98.191
X139.884Y-99.201
X139.897Y-96.716
X139.914Y-100.221
X140.242Y-102.311
X140.25Y-95.099
X140.621Y-106.411
X140.684Y-104.101
X140.8Y-95.104
X141.255Y-92.375
X141.284Y-98.941
X141.284Y-100.721
X141.308Y-102.461
X141.396Y-111.088
X141.404Y-97.601
X142.244Y-106.311
X142.825Y-104.925
X142.85Y-95.956
X142.925Y-98.125
X142.925Y-100.425
X142.925Y-102.725
X143.541Y-110.578
X143.647Y-111.373
X143.722Y-92.491
X143.983Y-95.56
X144.325Y-106.725
X144.533Y-95.558
X145.596Y-97.953
X145.647Y-95.617
X145.709Y-100.226
X145.725Y-102.725
X145.725Y-104.925
X146.191Y-96.457
X146.197Y-95.616
X146.551Y-96.037
X147.225Y-106.525
X148.025Y-101.925
X148.044Y-108.461
X148.058Y-95.545
X148.096Y-96.842
X148.096Y-99.342
X148.225Y-104.225
X149.094Y-106.461
X150.214Y-96.675
X150.304Y-107.522
X150.492Y-101.254
X150.508Y-95.276
X150.537Y-103.986
X150.804Y-94.351
X151.013Y-92.919
X151.595Y-108.544
X152.004Y-111.232
X152.174Y-95.071
X154.954Y-94.311
X155.764Y-96.254
X156.525Y-108.574
X156.571Y-95.66
X156.582Y-95.147
X156.585Y-107.922
X156.612Y-94.264
X156.741Y-100.034
X156.749Y-96.217
X156.777Y-103.66
X156.971Y-107.379
X157.094Y-98.126
X157.1Y-101.85
X157.132Y-110.544
X157.273Y-96.44
X157.587Y-107.258
X157.853Y-96.451
X158.013Y-93.581
X158.037Y-110.188
X158.22Y-97.289
X158.22Y-98.289
X158.22Y-99.289
X158.22Y-100.289
X158.22Y-101.289
X158.22Y-102.289
X158.22Y-103.289
X158.22Y-104.289
X158.22Y-105.289
X158.22Y-106.289
X158.22Y-107.289
T2
X132.034Y-99.998
X132.488Y-107.362
X133.888Y-109.062
X133.925Y-105.225
X135.588Y-110.562
X137.41Y-103.749
X137.414Y-106.292
X137.454Y-101.771
X137.498Y-104.805
X138.81Y-95.139
X139.725Y-101.768
X140.05Y-107.909
X140.744Y-102.952
X141.425Y-95.109
X141.554Y-108.386
X142.125Y-95.102
X144.056Y-108.386
X146.06Y-107.943
X146.56Y-95.109
X147.05Y-108.395
X149.555Y-108.392
X150.025Y-97.725
X150.025Y-106.525
X150.044Y-99.763
X150.477Y-105.903
X150.68Y-98.325
X150.697Y-102.254
X150.701Y-100.325
X150.794Y-93.571
X153.673Y-96.203
X155.862Y-102.354
X155.868Y-100.846
X155.88Y-97.842
X155.88Y-99.344
X156.061Y-109.352
X156.086Y-106.005
X156.104Y-105.302
T3
X133.22Y-87.539
X134.22Y-82.539
X134.22Y-83.539
X134.22Y-84.539
X134.22Y-85.539
X134.22Y-86.539
X134.22Y-87.539
X135.22Y-82.539
X135.22Y-83.539
X135.22Y-84.539
X135.22Y-85.539
X135.22Y-86.539
X135.22Y-87.539
X136.22Y-82.539
X136.22Y-83.539
X136.22Y-84.539
X136.22Y-85.539
X136.22Y-86.539
X136.22Y-87.539
X137.22Y-82.539
X137.22Y-83.539
X137.22Y-84.539
M30
