G04 #@! TF.GenerationSoftware,KiCad,Pcbnew,9.0.0*
G04 #@! TF.CreationDate,2025-02-27T12:50:40-05:00*
G04 #@! TF.ProjectId,fujiflex,66756a69-666c-4657-982e-6b696361645f,rev?*
G04 #@! TF.SameCoordinates,Original*
G04 #@! TF.FileFunction,Legend,Bot*
G04 #@! TF.FilePolarity,Positive*
%FSLAX46Y46*%
G04 Gerber Fmt 4.6, Leading zero omitted, Abs format (unit mm)*
G04 Created by KiCad (PCBNEW 9.0.0) date 2025-02-27 12:50:40*
%MOMM*%
%LPD*%
G01*
G04 APERTURE LIST*
%ADD10C,0.125000*%
%ADD11C,0.150000*%
%ADD12C,0.200000*%
G04 APERTURE END LIST*
D10*
G36*
X157914033Y-93089794D02*
G01*
X157907727Y-93080054D01*
X157897966Y-93072328D01*
X157857783Y-93068606D01*
X157845398Y-93070217D01*
X157835001Y-93077133D01*
X157827934Y-93086336D01*
X157701169Y-93341894D01*
X157595278Y-93077771D01*
X157588969Y-93068076D01*
X157579209Y-93060351D01*
X157566993Y-93057752D01*
X157526641Y-93058239D01*
X157516292Y-93065157D01*
X157509178Y-93074313D01*
X157506512Y-93084701D01*
X157508294Y-93096323D01*
X157745987Y-93676942D01*
X157752295Y-93686637D01*
X157762098Y-93693309D01*
X157774313Y-93695908D01*
X157815788Y-93695466D01*
X157832088Y-93680354D01*
X157835919Y-93668958D01*
X157833014Y-93657292D01*
X157743992Y-93446645D01*
X157913149Y-93111804D01*
X157915815Y-93101416D01*
X157914033Y-93089794D01*
G37*
G36*
X157452495Y-93071211D02*
G01*
X157446187Y-93061516D01*
X157436426Y-93053791D01*
X157396243Y-93050069D01*
X157383858Y-93051680D01*
X157373461Y-93058595D01*
X157366395Y-93067753D01*
X157239639Y-93323128D01*
X157133738Y-93059234D01*
X157127429Y-93049539D01*
X157117669Y-93041813D01*
X157105486Y-93038391D01*
X157076396Y-93037223D01*
X157065134Y-93038878D01*
X157054786Y-93045796D01*
X157047671Y-93054952D01*
X157044963Y-93066393D01*
X157046785Y-93077007D01*
X157204821Y-93464543D01*
X157211179Y-93474240D01*
X157220981Y-93480913D01*
X157233197Y-93483512D01*
X157244459Y-93481856D01*
X157255888Y-93476036D01*
X157263002Y-93466880D01*
X157451609Y-93093267D01*
X157454277Y-93082833D01*
X157452495Y-93071211D01*
G37*
G36*
X156788178Y-93025646D02*
G01*
X156801483Y-93029114D01*
X156867289Y-93064344D01*
X156922107Y-93121178D01*
X156929502Y-93133025D01*
X156955258Y-93216008D01*
X156952352Y-93288352D01*
X156920024Y-93369002D01*
X156911701Y-93380263D01*
X156843360Y-93437376D01*
X156784084Y-93462311D01*
X156770534Y-93464929D01*
X156683312Y-93461426D01*
X156670007Y-93457959D01*
X156605309Y-93423140D01*
X156549346Y-93366810D01*
X156542991Y-93357067D01*
X156541258Y-93345448D01*
X156543875Y-93335057D01*
X156551031Y-93324849D01*
X156590359Y-93293888D01*
X156613878Y-93293778D01*
X156631201Y-93309186D01*
X156652868Y-93355201D01*
X156694533Y-93376812D01*
X156766136Y-93379688D01*
X156813989Y-93359198D01*
X156834917Y-93340834D01*
X156859838Y-93277853D01*
X156575768Y-93266444D01*
X156563553Y-93263845D01*
X156553792Y-93256120D01*
X156547433Y-93246469D01*
X156545657Y-93235902D01*
X156547746Y-93183896D01*
X156638433Y-93183896D01*
X156854268Y-93192564D01*
X156842396Y-93154642D01*
X156823011Y-93134568D01*
X156776957Y-93110261D01*
X156705354Y-93107385D01*
X156662074Y-93125996D01*
X156639163Y-93165729D01*
X156638433Y-93183896D01*
X156547746Y-93183896D01*
X156548934Y-93154314D01*
X156552799Y-93140857D01*
X156582910Y-93088626D01*
X156628183Y-93049607D01*
X156687406Y-93024762D01*
X156700956Y-93022143D01*
X156788178Y-93025646D01*
G37*
G36*
X156418495Y-92838010D02*
G01*
X156412188Y-92828269D01*
X156402336Y-92821595D01*
X156361079Y-92817829D01*
X156348695Y-92819440D01*
X156338340Y-92825303D01*
X156331272Y-92834507D01*
X156328564Y-92845948D01*
X156305635Y-93416833D01*
X156307417Y-93428454D01*
X156313723Y-93438195D01*
X156323575Y-93444869D01*
X156335791Y-93447468D01*
X156377217Y-93447024D01*
X156387572Y-93441161D01*
X156394639Y-93431957D01*
X156397347Y-93420516D01*
X156420277Y-92849631D01*
X156418495Y-92838010D01*
G37*
G36*
X156206505Y-93022084D02*
G01*
X156200199Y-93012343D01*
X156189317Y-93004527D01*
X156122289Y-92999727D01*
X156128781Y-92838107D01*
X156127002Y-92826394D01*
X156120696Y-92816654D01*
X156110848Y-92809887D01*
X156098632Y-92807288D01*
X156069591Y-92806122D01*
X156057173Y-92808557D01*
X156046818Y-92814420D01*
X156039753Y-92823577D01*
X156037044Y-92835018D01*
X156030610Y-92995219D01*
X155974723Y-92992975D01*
X155963380Y-92995452D01*
X155953029Y-93002416D01*
X155945962Y-93011619D01*
X155942173Y-93021963D01*
X155941074Y-93049326D01*
X155943979Y-93060993D01*
X155950285Y-93070733D01*
X155960086Y-93077452D01*
X156027114Y-93082252D01*
X156014143Y-93405217D01*
X156015925Y-93416838D01*
X156022235Y-93426487D01*
X156032087Y-93433162D01*
X156073343Y-93436927D01*
X156085728Y-93435316D01*
X156096083Y-93429453D01*
X156103147Y-93420341D01*
X156105855Y-93408900D01*
X156118827Y-93085936D01*
X156174762Y-93088182D01*
X156186024Y-93086527D01*
X156197455Y-93080661D01*
X156204522Y-93071457D01*
X156207231Y-93060016D01*
X156208330Y-93032653D01*
X156206505Y-93022084D01*
G37*
G36*
X155494177Y-92976607D02*
G01*
X155503946Y-92984104D01*
X155510268Y-92993478D01*
X155511700Y-93013794D01*
X155525498Y-93004998D01*
X155584710Y-92980427D01*
X155598258Y-92977854D01*
X155685480Y-92981358D01*
X155698785Y-92984825D01*
X155763468Y-93020010D01*
X155819409Y-93076889D01*
X155826756Y-93088734D01*
X155852560Y-93171719D01*
X155849654Y-93244063D01*
X155817278Y-93324711D01*
X155809003Y-93335975D01*
X155740613Y-93393085D01*
X155681386Y-93418022D01*
X155667836Y-93420640D01*
X155580614Y-93417137D01*
X155567309Y-93413670D01*
X155510264Y-93384291D01*
X155497218Y-93374372D01*
X155494120Y-93395514D01*
X155487068Y-93404351D01*
X155476720Y-93410031D01*
X155464335Y-93411642D01*
X155424201Y-93407922D01*
X155414349Y-93401247D01*
X155408039Y-93391598D01*
X155406255Y-93380022D01*
X155410053Y-93285463D01*
X155500789Y-93285463D01*
X155591884Y-93332525D01*
X155663438Y-93335399D01*
X155711284Y-93315092D01*
X155732207Y-93296866D01*
X155759650Y-93227065D01*
X155761473Y-93181673D01*
X155739716Y-93109896D01*
X155720322Y-93090051D01*
X155674259Y-93065972D01*
X155602705Y-93063098D01*
X155508129Y-93102703D01*
X155500789Y-93285463D01*
X155410053Y-93285463D01*
X155421484Y-93000866D01*
X155424148Y-92990523D01*
X155431211Y-92981412D01*
X155441609Y-92974496D01*
X155481912Y-92974006D01*
X155494177Y-92976607D01*
G37*
G36*
X155257226Y-92791369D02*
G01*
X155250919Y-92781628D01*
X155241067Y-92774953D01*
X155199811Y-92771188D01*
X155187426Y-92772799D01*
X155177071Y-92778662D01*
X155170004Y-92787866D01*
X155167295Y-92799307D01*
X155144366Y-93370191D01*
X155146148Y-93381813D01*
X155152455Y-93391553D01*
X155162306Y-93398228D01*
X155174522Y-93400827D01*
X155215948Y-93400382D01*
X155226303Y-93394519D01*
X155233370Y-93385316D01*
X155236079Y-93373875D01*
X155259008Y-92802990D01*
X155257226Y-92791369D01*
G37*
G36*
X154653438Y-92942840D02*
G01*
X154663208Y-92950336D01*
X154669529Y-92959711D01*
X154670962Y-92980026D01*
X154684759Y-92971231D01*
X154743972Y-92946659D01*
X154757519Y-92944087D01*
X154844741Y-92947590D01*
X154858046Y-92951058D01*
X154915082Y-92980665D01*
X154978670Y-93043122D01*
X154986017Y-93054966D01*
X155012565Y-93147423D01*
X155008915Y-93210296D01*
X154976539Y-93290944D01*
X154968264Y-93302207D01*
X154907942Y-93354416D01*
X154840647Y-93384255D01*
X154827098Y-93386873D01*
X154739876Y-93383370D01*
X154726571Y-93379902D01*
X154669525Y-93350524D01*
X154656479Y-93340604D01*
X154655252Y-93371171D01*
X154678074Y-93444411D01*
X154697362Y-93465673D01*
X154743499Y-93489113D01*
X154785964Y-93490819D01*
X154833809Y-93471749D01*
X154860451Y-93448666D01*
X154870806Y-93442802D01*
X154883190Y-93441192D01*
X154952415Y-93446080D01*
X154962218Y-93452753D01*
X154968575Y-93462450D01*
X154970357Y-93474071D01*
X154967691Y-93484460D01*
X154960575Y-93493661D01*
X154900280Y-93545184D01*
X154833000Y-93574656D01*
X154819452Y-93577229D01*
X154732230Y-93573726D01*
X154718925Y-93570258D01*
X154653128Y-93534799D01*
X154598328Y-93477508D01*
X154590937Y-93465569D01*
X154564426Y-93373390D01*
X154569314Y-93251695D01*
X154660050Y-93251695D01*
X154751145Y-93298757D01*
X154822699Y-93301631D01*
X154870545Y-93281324D01*
X154891468Y-93263098D01*
X154918911Y-93193298D01*
X154920734Y-93147905D01*
X154898977Y-93076128D01*
X154879584Y-93056283D01*
X154833521Y-93032204D01*
X154761966Y-93029330D01*
X154667391Y-93068935D01*
X154660050Y-93251695D01*
X154569314Y-93251695D01*
X154580745Y-92967099D01*
X154583409Y-92956756D01*
X154590473Y-92947644D01*
X154600870Y-92940728D01*
X154613255Y-92939118D01*
X154653438Y-92942840D01*
G37*
G36*
X154410330Y-92949850D02*
G01*
X154404021Y-92940155D01*
X154393138Y-92932385D01*
X154352955Y-92928663D01*
X154340571Y-92930274D01*
X154330171Y-92937235D01*
X154323106Y-92946393D01*
X154318918Y-92994669D01*
X154279029Y-92955622D01*
X154222013Y-92925512D01*
X154207553Y-92922823D01*
X154109069Y-92920976D01*
X154098669Y-92927937D01*
X154091602Y-92937140D01*
X154088936Y-92947529D01*
X154089619Y-92986514D01*
X154095925Y-92996255D01*
X154105775Y-93002975D01*
X154197354Y-93008762D01*
X154243475Y-93032614D01*
X154291868Y-93082681D01*
X154313623Y-93126500D01*
X154305186Y-93336578D01*
X154306968Y-93348199D01*
X154313278Y-93357848D01*
X154323129Y-93364523D01*
X154335345Y-93367122D01*
X154375697Y-93366635D01*
X154387126Y-93360815D01*
X154394192Y-93351657D01*
X154396898Y-93340262D01*
X154412154Y-92960419D01*
X154410330Y-92949850D01*
G37*
G36*
X153996237Y-92724956D02*
G01*
X153954932Y-92721189D01*
X153942547Y-92722799D01*
X153902055Y-92754768D01*
X153894989Y-92763926D01*
X153891186Y-92802639D01*
X153892968Y-92814260D01*
X153899276Y-92823955D01*
X153937074Y-92859069D01*
X153978380Y-92862836D01*
X153990764Y-92861225D01*
X154031256Y-92829256D01*
X154038370Y-92820100D01*
X154042125Y-92781385D01*
X154040392Y-92769766D01*
X154034035Y-92760069D01*
X153996237Y-92724956D01*
G37*
G36*
X154004709Y-92932734D02*
G01*
X153998401Y-92923039D01*
X153988592Y-92915312D01*
X153947335Y-92911546D01*
X153934950Y-92913157D01*
X153924553Y-92920073D01*
X153917487Y-92929231D01*
X153914819Y-92939665D01*
X153899536Y-93320194D01*
X153901316Y-93331861D01*
X153907624Y-93341556D01*
X153917476Y-93348230D01*
X153929691Y-93350829D01*
X153971117Y-93350385D01*
X153981473Y-93344522D01*
X153988538Y-93335364D01*
X153991248Y-93323877D01*
X154006532Y-92943348D01*
X154004709Y-92932734D01*
G37*
G36*
X153772438Y-92924321D02*
G01*
X153766132Y-92914581D01*
X153755251Y-92906765D01*
X153688222Y-92901964D01*
X153689564Y-92840557D01*
X153657481Y-92747145D01*
X153591771Y-92709536D01*
X153577392Y-92706025D01*
X153519212Y-92703688D01*
X153507952Y-92705298D01*
X153497647Y-92711118D01*
X153490536Y-92720182D01*
X153486760Y-92731443D01*
X153485679Y-92758349D01*
X153488540Y-92769876D01*
X153494901Y-92779481D01*
X153504706Y-92786108D01*
X153515801Y-92788616D01*
X153567246Y-92790682D01*
X153582614Y-92798770D01*
X153598467Y-92849548D01*
X153596543Y-92897457D01*
X153540656Y-92895213D01*
X153529362Y-92897692D01*
X153518962Y-92904654D01*
X153511895Y-92913857D01*
X153508106Y-92924200D01*
X153507007Y-92951564D01*
X153509912Y-92963231D01*
X153516218Y-92972971D01*
X153526068Y-92979692D01*
X153593047Y-92984490D01*
X153580076Y-93307455D01*
X153581858Y-93319076D01*
X153588168Y-93328725D01*
X153598020Y-93335400D01*
X153639277Y-93339165D01*
X153651661Y-93337554D01*
X153662016Y-93331691D01*
X153669080Y-93322579D01*
X153671788Y-93311138D01*
X153684760Y-92988174D01*
X153740695Y-92990420D01*
X153751957Y-92988764D01*
X153763388Y-92982899D01*
X153770455Y-92973695D01*
X153773164Y-92962254D01*
X153774263Y-92934890D01*
X153772438Y-92924321D01*
G37*
G36*
X153366346Y-92908011D02*
G01*
X153360039Y-92898271D01*
X153349158Y-92890454D01*
X153282130Y-92885654D01*
X153283472Y-92824247D01*
X153251389Y-92730835D01*
X153185678Y-92693225D01*
X153171300Y-92689715D01*
X153113119Y-92687378D01*
X153101859Y-92688988D01*
X153091554Y-92694807D01*
X153084444Y-92703872D01*
X153080667Y-92715132D01*
X153079586Y-92742038D01*
X153082448Y-92753565D01*
X153088809Y-92763171D01*
X153098613Y-92769798D01*
X153109708Y-92772306D01*
X153161153Y-92774372D01*
X153176521Y-92782460D01*
X153192375Y-92833238D01*
X153190450Y-92881147D01*
X153134564Y-92878902D01*
X153123269Y-92881382D01*
X153112869Y-92888343D01*
X153105802Y-92897547D01*
X153102013Y-92907890D01*
X153100914Y-92935254D01*
X153103819Y-92946920D01*
X153110126Y-92956661D01*
X153119975Y-92963381D01*
X153186955Y-92968180D01*
X153173983Y-93291144D01*
X153175765Y-93302766D01*
X153182075Y-93312415D01*
X153191927Y-93319089D01*
X153233184Y-93322855D01*
X153245568Y-93321244D01*
X153255924Y-93315381D01*
X153262987Y-93306269D01*
X153265696Y-93294828D01*
X153278667Y-92971863D01*
X153334603Y-92974110D01*
X153345864Y-92972454D01*
X153357295Y-92966588D01*
X153364363Y-92957385D01*
X153367071Y-92945944D01*
X153368170Y-92918580D01*
X153366346Y-92908011D01*
G37*
G36*
X152921653Y-92681796D02*
G01*
X152880348Y-92678029D01*
X152867963Y-92679640D01*
X152827471Y-92711609D01*
X152820406Y-92720766D01*
X152816602Y-92759479D01*
X152818384Y-92771101D01*
X152824692Y-92780796D01*
X152862490Y-92815909D01*
X152903796Y-92819676D01*
X152916180Y-92818065D01*
X152956672Y-92786096D01*
X152963787Y-92776941D01*
X152967542Y-92738226D01*
X152965808Y-92726606D01*
X152959451Y-92716909D01*
X152921653Y-92681796D01*
G37*
G36*
X152930126Y-92889574D02*
G01*
X152923817Y-92879879D01*
X152914008Y-92872152D01*
X152872751Y-92868387D01*
X152860367Y-92869998D01*
X152849969Y-92876913D01*
X152842904Y-92886071D01*
X152840236Y-92896505D01*
X152824952Y-93277034D01*
X152826732Y-93288701D01*
X152833041Y-93298396D01*
X152842892Y-93305071D01*
X152855108Y-93307670D01*
X152896534Y-93307225D01*
X152906889Y-93301362D01*
X152913954Y-93292204D01*
X152916665Y-93280718D01*
X152931948Y-92900189D01*
X152930126Y-92889574D01*
G37*
G36*
X152668817Y-92879904D02*
G01*
X152662509Y-92870209D01*
X152652699Y-92862482D01*
X152612565Y-92858762D01*
X152600180Y-92860372D01*
X152589790Y-92867105D01*
X152582734Y-92876034D01*
X152578599Y-92922984D01*
X152537548Y-92884898D01*
X152481623Y-92855611D01*
X152467195Y-92852098D01*
X152379973Y-92848595D01*
X152366424Y-92851213D01*
X152296799Y-92883066D01*
X152290856Y-92892269D01*
X152256981Y-92982252D01*
X152246075Y-93253784D01*
X152247855Y-93265451D01*
X152254163Y-93275146D01*
X152264015Y-93281821D01*
X152276230Y-93284420D01*
X152304149Y-93285541D01*
X152316567Y-93283106D01*
X152326924Y-93277197D01*
X152333989Y-93268040D01*
X152336698Y-93256599D01*
X152347315Y-92992251D01*
X152370148Y-92953248D01*
X152413462Y-92935005D01*
X152455975Y-92936712D01*
X152505373Y-92961750D01*
X152575117Y-93009696D01*
X152564856Y-93265167D01*
X152566638Y-93276788D01*
X152575149Y-93287626D01*
X152594955Y-93297221D01*
X152622873Y-93298342D01*
X152635258Y-93296731D01*
X152645613Y-93290868D01*
X152652679Y-93281710D01*
X152655385Y-93270315D01*
X152670641Y-92890473D01*
X152668817Y-92879904D01*
G37*
G36*
X151817619Y-93227042D02*
G01*
X151811355Y-93216249D01*
X151562740Y-92935577D01*
X151511144Y-92854490D01*
X151487280Y-92807195D01*
X151488927Y-92766195D01*
X151511721Y-92728153D01*
X151555037Y-92709864D01*
X151655681Y-92713906D01*
X151697346Y-92735517D01*
X151717068Y-92775175D01*
X151718051Y-92806701D01*
X151724359Y-92816396D01*
X151734160Y-92823114D01*
X151746335Y-92826720D01*
X151786728Y-92825226D01*
X151797036Y-92819315D01*
X151804150Y-92810159D01*
X151807912Y-92772498D01*
X151805092Y-92758727D01*
X151779305Y-92703288D01*
X151737254Y-92662092D01*
X151680207Y-92632759D01*
X151666902Y-92629292D01*
X151550590Y-92624620D01*
X151537040Y-92627238D01*
X151477811Y-92652222D01*
X151432618Y-92690464D01*
X151402454Y-92744022D01*
X151398539Y-92757523D01*
X151396385Y-92811152D01*
X151399203Y-92824969D01*
X151427044Y-92884020D01*
X151481972Y-92967349D01*
X151664060Y-93174767D01*
X151384480Y-93163538D01*
X151372098Y-93165103D01*
X151361748Y-93170829D01*
X151354690Y-93179804D01*
X151350921Y-93217647D01*
X151352714Y-93228994D01*
X151359030Y-93238506D01*
X151368887Y-93245044D01*
X151381069Y-93248466D01*
X151785893Y-93264726D01*
X151798277Y-93263115D01*
X151808586Y-93257204D01*
X151815653Y-93248000D01*
X151818319Y-93237612D01*
X151817619Y-93227042D01*
G37*
G36*
X151064283Y-92608021D02*
G01*
X151164747Y-92644552D01*
X151226086Y-92735014D01*
X151253733Y-92882880D01*
X151250247Y-92969684D01*
X151215532Y-93109774D01*
X151149212Y-93199325D01*
X151131958Y-93210182D01*
X151044767Y-93233905D01*
X150976490Y-93232217D01*
X150871577Y-93194453D01*
X150810239Y-93103992D01*
X150782590Y-92956171D01*
X150782756Y-92952030D01*
X150874616Y-92952030D01*
X150896369Y-93079906D01*
X150925845Y-93126234D01*
X150985514Y-93147514D01*
X151032468Y-93149400D01*
X151093651Y-93132974D01*
X151126748Y-93089159D01*
X151158686Y-92963440D01*
X151161715Y-92888029D01*
X151139963Y-92760154D01*
X151110486Y-92713825D01*
X151050818Y-92692546D01*
X151003863Y-92690660D01*
X150942680Y-92707085D01*
X150909583Y-92750901D01*
X150877645Y-92876620D01*
X150874616Y-92952030D01*
X150782756Y-92952030D01*
X150786078Y-92869321D01*
X150820842Y-92729233D01*
X150887162Y-92639682D01*
X150904415Y-92628825D01*
X150991606Y-92605102D01*
X151064283Y-92608021D01*
G37*
G36*
X150661817Y-93180620D02*
G01*
X150655553Y-93169827D01*
X150406937Y-92889155D01*
X150355342Y-92808068D01*
X150331478Y-92760773D01*
X150333124Y-92719773D01*
X150355919Y-92681731D01*
X150399234Y-92663442D01*
X150499879Y-92667484D01*
X150541544Y-92689095D01*
X150561266Y-92728753D01*
X150562249Y-92760279D01*
X150568557Y-92769974D01*
X150578358Y-92776693D01*
X150590533Y-92780298D01*
X150630925Y-92778804D01*
X150641234Y-92772893D01*
X150648348Y-92763737D01*
X150652109Y-92726077D01*
X150649289Y-92712305D01*
X150623503Y-92656867D01*
X150581452Y-92615670D01*
X150524405Y-92586338D01*
X150511100Y-92582870D01*
X150394787Y-92578198D01*
X150381238Y-92580817D01*
X150322009Y-92605800D01*
X150276816Y-92644042D01*
X150246652Y-92697600D01*
X150242737Y-92711101D01*
X150240583Y-92764730D01*
X150243401Y-92778547D01*
X150271242Y-92837598D01*
X150326170Y-92920927D01*
X150508257Y-93128345D01*
X150228678Y-93117116D01*
X150216296Y-93118681D01*
X150205946Y-93124407D01*
X150198888Y-93133382D01*
X150195119Y-93171226D01*
X150196912Y-93182572D01*
X150203228Y-93192084D01*
X150213085Y-93198622D01*
X150225267Y-93202044D01*
X150630091Y-93218304D01*
X150642475Y-93216693D01*
X150652784Y-93210782D01*
X150659851Y-93201579D01*
X150662517Y-93191190D01*
X150661817Y-93180620D01*
G37*
G36*
X149775285Y-92558587D02*
G01*
X149782849Y-92566224D01*
X150084088Y-93014373D01*
X150089273Y-93024023D01*
X150085111Y-93044893D01*
X150067773Y-93057855D01*
X150056595Y-93057406D01*
X149798248Y-93047029D01*
X149791197Y-93166598D01*
X149784128Y-93175847D01*
X149773769Y-93181802D01*
X149761384Y-93183413D01*
X149721201Y-93179691D01*
X149711402Y-93172926D01*
X149705097Y-93163140D01*
X149706536Y-93043346D01*
X149622681Y-93039978D01*
X149610466Y-93037379D01*
X149600663Y-93030706D01*
X149594308Y-93020964D01*
X149592526Y-93009342D01*
X149593577Y-92983168D01*
X149596285Y-92971727D01*
X149603401Y-92962526D01*
X149604148Y-92962101D01*
X149801659Y-92962101D01*
X149951458Y-92969264D01*
X149809790Y-92759665D01*
X149801659Y-92962101D01*
X149604148Y-92962101D01*
X149613708Y-92956661D01*
X149626092Y-92955050D01*
X149709947Y-92958418D01*
X149725096Y-92581229D01*
X149728925Y-92569879D01*
X149740606Y-92557790D01*
X149751971Y-92553572D01*
X149763196Y-92552831D01*
X149775285Y-92558587D01*
G37*
D11*
G36*
X145260134Y-110478598D02*
G01*
X145260134Y-110689624D01*
X144851333Y-110689624D01*
X144851333Y-110924097D01*
X145640909Y-110924097D01*
X145640909Y-110275388D01*
X144576926Y-110275388D01*
X144576926Y-110037007D01*
X145701115Y-110037007D01*
X145777690Y-110045474D01*
X145832108Y-110060868D01*
X145869626Y-110081268D01*
X145894351Y-110105824D01*
X145908880Y-110134933D01*
X145913912Y-110170181D01*
X145913912Y-110995966D01*
X145905362Y-111049194D01*
X145889317Y-111089188D01*
X145866744Y-111118885D01*
X145837377Y-111140180D01*
X145799766Y-111153674D01*
X145751490Y-111158571D01*
X144772931Y-111158571D01*
X144706214Y-111149406D01*
X144657225Y-111132327D01*
X144621924Y-111108849D01*
X144597421Y-111079207D01*
X144582317Y-111042318D01*
X144576926Y-110995966D01*
X144578331Y-110478598D01*
X145260134Y-110478598D01*
G37*
G36*
X143252641Y-110275388D02*
G01*
X144014252Y-110275388D01*
X144014252Y-110924097D01*
X143249833Y-110924097D01*
X143249833Y-110688159D01*
X142975426Y-110688159D01*
X142974082Y-110994745D01*
X142974134Y-111033220D01*
X142983764Y-111065413D01*
X143002762Y-111093077D01*
X143032619Y-111117143D01*
X143076298Y-111137566D01*
X143128092Y-111151535D01*
X143193901Y-111158571D01*
X144124833Y-111158571D01*
X144173109Y-111153674D01*
X144210720Y-111140180D01*
X144240086Y-111118885D01*
X144262659Y-111089188D01*
X144278704Y-111049194D01*
X144287254Y-110995966D01*
X144287254Y-110170181D01*
X144282223Y-110134933D01*
X144267694Y-110105824D01*
X144242968Y-110081268D01*
X144205451Y-110060868D01*
X144151033Y-110045474D01*
X144074458Y-110037007D01*
X143192436Y-110037007D01*
X143122135Y-110041937D01*
X143069921Y-110055052D01*
X143031769Y-110074540D01*
X143004568Y-110099662D01*
X142986404Y-110130876D01*
X142976830Y-110169753D01*
X142976830Y-110478598D01*
X143252641Y-110478598D01*
X143252641Y-110275388D01*
G37*
G36*
X142046326Y-111158571D02*
G01*
X141826569Y-111158571D01*
X141122355Y-110037007D01*
X141448542Y-110038595D01*
X141935745Y-110773583D01*
X142383748Y-110038595D01*
X142688929Y-110037007D01*
X142046326Y-111158571D01*
G37*
G36*
X140866877Y-110037007D02*
G01*
X140540691Y-110037007D01*
X140540691Y-111158571D01*
X140866877Y-111158571D01*
X140866877Y-110037007D01*
G37*
G36*
X140216214Y-111158571D02*
G01*
X139264217Y-111158571D01*
X139176641Y-111152356D01*
X139099867Y-111134573D01*
X139032185Y-111106007D01*
X138972228Y-111066744D01*
X138919042Y-111016167D01*
X138872156Y-110952999D01*
X138831602Y-110875371D01*
X138802860Y-110796215D01*
X138781956Y-110703020D01*
X138770438Y-110597667D01*
X139036033Y-110597667D01*
X139049219Y-110689809D01*
X139072425Y-110763508D01*
X139107417Y-110824097D01*
X139149558Y-110869230D01*
X139199322Y-110901233D01*
X139258222Y-110921025D01*
X139328636Y-110928005D01*
X139938999Y-110928005D01*
X139938999Y-110271480D01*
X139327231Y-110271480D01*
X139256717Y-110278435D01*
X139197946Y-110298120D01*
X139148497Y-110329887D01*
X139106821Y-110374609D01*
X139072425Y-110434574D01*
X139049226Y-110506893D01*
X139036033Y-110597667D01*
X138770438Y-110597667D01*
X138769991Y-110593576D01*
X138781935Y-110486046D01*
X138802826Y-110394226D01*
X138831602Y-110315994D01*
X138872012Y-110239748D01*
X138918767Y-110177599D01*
X138971864Y-110127753D01*
X139031796Y-110088993D01*
X139099528Y-110060755D01*
X139176434Y-110043159D01*
X139264217Y-110037007D01*
X140216214Y-110037007D01*
X140216214Y-111158571D01*
G37*
G36*
X137273393Y-111158571D02*
G01*
X137273393Y-110912374D01*
X138169398Y-110912374D01*
X138169398Y-110713072D01*
X137642994Y-110713072D01*
X137642994Y-110466875D01*
X138170803Y-110466875D01*
X138170803Y-110267573D01*
X137270585Y-110267573D01*
X137270585Y-110037007D01*
X138460597Y-110037007D01*
X138460597Y-111158571D01*
X137273393Y-111158571D01*
G37*
G36*
X136882366Y-110045474D02*
G01*
X136936784Y-110060868D01*
X136974301Y-110081268D01*
X136999027Y-110105824D01*
X137013556Y-110134933D01*
X137018587Y-110170181D01*
X137018587Y-110995966D01*
X137010037Y-111049194D01*
X136993992Y-111089188D01*
X136971419Y-111118885D01*
X136942053Y-111140180D01*
X136904441Y-111153674D01*
X136856166Y-111158571D01*
X135909786Y-111158571D01*
X135839794Y-111149356D01*
X135788781Y-111132335D01*
X135752385Y-111109154D01*
X135727406Y-111080212D01*
X135712164Y-111044583D01*
X135706759Y-111000179D01*
X135706887Y-110924097D01*
X135983974Y-110924097D01*
X136745585Y-110924097D01*
X136745585Y-110275388D01*
X135983974Y-110275388D01*
X135983974Y-110924097D01*
X135706887Y-110924097D01*
X135708163Y-110164563D01*
X135719871Y-110120423D01*
X135743288Y-110086615D01*
X135779734Y-110060979D01*
X135833218Y-110043644D01*
X135909786Y-110037007D01*
X136805790Y-110037007D01*
X136882366Y-110045474D01*
G37*
G36*
X153991219Y-109895854D02*
G01*
X154015078Y-109929651D01*
X154009856Y-109905306D01*
X154063988Y-109854043D01*
X154201924Y-109854043D01*
X154291179Y-109936063D01*
X154341142Y-110032874D01*
X154280189Y-110065985D01*
X154231920Y-109977324D01*
X154173622Y-109922049D01*
X154128697Y-109922049D01*
X154113172Y-109936566D01*
X154113172Y-109986941D01*
X154288523Y-110578482D01*
X154398524Y-110578482D01*
X154398524Y-110646489D01*
X154087160Y-110646489D01*
X154087160Y-110578482D01*
X154177378Y-110578482D01*
X154086107Y-110274583D01*
X154087573Y-110311769D01*
X154069850Y-110361732D01*
X153976244Y-110405192D01*
X153888591Y-110405192D01*
X153761371Y-110365991D01*
X153678481Y-110249167D01*
X153638364Y-110135456D01*
X153638364Y-110018586D01*
X153648208Y-109999856D01*
X153745800Y-109999856D01*
X153745800Y-110124694D01*
X153779506Y-110218072D01*
X153844215Y-110310853D01*
X153902971Y-110337689D01*
X153959208Y-110337689D01*
X154012147Y-110313006D01*
X154042098Y-110228238D01*
X154042098Y-110135456D01*
X154008942Y-110041667D01*
X153944233Y-109948885D01*
X153885431Y-109922049D01*
X153829194Y-109922049D01*
X153773598Y-109947832D01*
X153745800Y-109999856D01*
X153648208Y-109999856D01*
X153681183Y-109937116D01*
X153725605Y-109893702D01*
X153812158Y-109854043D01*
X153902971Y-109854043D01*
X153991219Y-109895854D01*
G37*
G36*
X154009856Y-109905306D02*
G01*
X154008667Y-109906433D01*
X154007201Y-109892923D01*
X154009856Y-109905306D01*
G37*
G36*
X153467501Y-109893702D02*
G01*
X153550895Y-110011076D01*
X153591012Y-110124740D01*
X153591012Y-110241656D01*
X153548193Y-110322623D01*
X153502718Y-110365487D01*
X153417172Y-110405192D01*
X153329519Y-110405192D01*
X153202299Y-110365991D01*
X153118905Y-110249167D01*
X153079292Y-110135456D01*
X153079292Y-110018586D01*
X153089020Y-109999856D01*
X153186774Y-109999856D01*
X153186774Y-110124694D01*
X153220434Y-110218072D01*
X153285143Y-110310853D01*
X153343395Y-110337689D01*
X153399632Y-110337689D01*
X153455777Y-110311861D01*
X153483026Y-110259883D01*
X153483026Y-110135456D01*
X153449870Y-110041667D01*
X153384657Y-109948885D01*
X153326359Y-109922049D01*
X153270168Y-109922049D01*
X153214526Y-109947832D01*
X153186774Y-109999856D01*
X153089020Y-109999856D01*
X153121607Y-109937116D01*
X153167037Y-109893702D01*
X153253132Y-109854043D01*
X153340235Y-109854043D01*
X153467501Y-109893702D01*
G37*
G36*
X151968751Y-110065252D02*
G01*
X152006715Y-110211111D01*
X152047381Y-110288322D01*
X152129722Y-110365487D01*
X152215817Y-110405192D01*
X152306080Y-110405192D01*
X152392176Y-110364984D01*
X152443513Y-110316211D01*
X152443513Y-110286811D01*
X152477814Y-110347215D01*
X152497094Y-110365487D01*
X152583143Y-110405192D01*
X152673452Y-110405192D01*
X152759502Y-110364984D01*
X152810885Y-110316211D01*
X152810885Y-110228238D01*
X152737612Y-110020739D01*
X152737612Y-109936063D01*
X152752633Y-109922049D01*
X152797558Y-109922049D01*
X152855352Y-109977324D01*
X152903071Y-110065481D01*
X152965582Y-110032920D01*
X152915115Y-109936063D01*
X152825860Y-109854043D01*
X152687878Y-109854043D01*
X152629626Y-109909181D01*
X152629626Y-110031455D01*
X152702899Y-110238451D01*
X152702899Y-110288826D01*
X152650509Y-110337689D01*
X152599676Y-110337689D01*
X152539226Y-110308701D01*
X152474516Y-110247564D01*
X152441910Y-110186976D01*
X152364836Y-109860179D01*
X152303012Y-109860179D01*
X152256850Y-109870804D01*
X152336077Y-110202547D01*
X152336077Y-110288826D01*
X152283686Y-110337689D01*
X152232304Y-110337689D01*
X152171854Y-110308701D01*
X152107145Y-110247564D01*
X152074538Y-110186427D01*
X152039825Y-110056139D01*
X152039825Y-109965509D01*
X152098672Y-109854043D01*
X151968751Y-109854043D01*
X151968751Y-110065252D01*
G37*
G36*
X151760976Y-109893702D02*
G01*
X151844370Y-110011076D01*
X151884487Y-110124740D01*
X151884487Y-110241656D01*
X151841668Y-110322623D01*
X151796193Y-110365487D01*
X151710647Y-110405192D01*
X151622994Y-110405192D01*
X151500079Y-110367090D01*
X151399237Y-110274079D01*
X151451078Y-110225445D01*
X151536944Y-110307648D01*
X151633710Y-110337689D01*
X151693107Y-110337689D01*
X151749253Y-110311861D01*
X151776501Y-110259883D01*
X151776501Y-110224437D01*
X151540654Y-110160690D01*
X151417739Y-110083524D01*
X151368508Y-109991292D01*
X151448147Y-109991292D01*
X151472190Y-110037912D01*
X151569551Y-110099553D01*
X151776501Y-110154324D01*
X151776501Y-110135456D01*
X151743345Y-110041667D01*
X151678132Y-109948885D01*
X151619834Y-109922049D01*
X151526732Y-109922049D01*
X151471090Y-109947786D01*
X151448147Y-109991292D01*
X151368508Y-109991292D01*
X151418288Y-109896907D01*
X151509696Y-109854043D01*
X151633710Y-109854043D01*
X151760976Y-109893702D01*
G37*
G36*
X150629552Y-109970913D02*
G01*
X150701726Y-110038874D01*
X150787867Y-109956945D01*
X150707862Y-109880146D01*
X150655518Y-109928781D01*
X150690048Y-109960014D01*
X150703374Y-109946046D01*
X150700123Y-109943436D01*
X150700123Y-109936566D01*
X150715647Y-109922049D01*
X150766480Y-109922049D01*
X150826931Y-109950488D01*
X150892647Y-110012175D01*
X150965737Y-110143471D01*
X151039788Y-110400063D01*
X151100513Y-110400063D01*
X151147728Y-110388339D01*
X151031087Y-109986941D01*
X151031087Y-109936063D01*
X151046108Y-109922049D01*
X151091033Y-109922049D01*
X151148827Y-109977324D01*
X151196546Y-110065481D01*
X151259057Y-110032920D01*
X151208590Y-109936063D01*
X151119335Y-109854043D01*
X150981353Y-109854043D01*
X150926032Y-109906433D01*
X150924567Y-109902128D01*
X150970179Y-110064519D01*
X150891960Y-109915042D01*
X150869566Y-109893702D01*
X150783013Y-109854043D01*
X150687804Y-109854043D01*
X150629552Y-109909181D01*
X150629552Y-109970913D01*
G37*
G36*
X150494821Y-109893702D02*
G01*
X150578215Y-110011076D01*
X150618332Y-110124740D01*
X150618332Y-110241656D01*
X150575513Y-110322623D01*
X150530038Y-110365487D01*
X150444492Y-110405192D01*
X150356839Y-110405192D01*
X150233924Y-110367090D01*
X150133082Y-110274079D01*
X150184923Y-110225445D01*
X150270790Y-110307648D01*
X150367556Y-110337689D01*
X150426952Y-110337689D01*
X150483098Y-110311861D01*
X150510346Y-110259883D01*
X150510346Y-110224437D01*
X150274499Y-110160690D01*
X150151584Y-110083524D01*
X150102354Y-109991292D01*
X150181992Y-109991292D01*
X150206035Y-110037912D01*
X150303396Y-110099553D01*
X150510346Y-110154324D01*
X150510346Y-110135456D01*
X150477190Y-110041667D01*
X150411977Y-109948885D01*
X150353679Y-109922049D01*
X150260577Y-109922049D01*
X150204936Y-109947786D01*
X150181992Y-109991292D01*
X150102354Y-109991292D01*
X150152133Y-109896907D01*
X150243541Y-109854043D01*
X150367556Y-109854043D01*
X150494821Y-109893702D01*
G37*
G36*
X149541038Y-109680203D02*
G01*
X149451370Y-109680203D01*
X149542641Y-109985613D01*
X149541175Y-109945954D01*
X149557845Y-109898007D01*
X149652458Y-109854043D01*
X149739607Y-109854043D01*
X149867377Y-109893702D01*
X149950267Y-110011076D01*
X149990338Y-110124740D01*
X149990338Y-110241656D01*
X149947565Y-110322623D01*
X149902090Y-110365487D01*
X149816544Y-110405192D01*
X149725731Y-110405192D01*
X149637483Y-110362831D01*
X149613028Y-110329217D01*
X149618538Y-110355198D01*
X149564760Y-110405192D01*
X149426778Y-110405192D01*
X149337522Y-110322623D01*
X149287559Y-110226864D01*
X149348559Y-110194258D01*
X149396782Y-110282368D01*
X149454622Y-110337689D01*
X149500051Y-110337689D01*
X149515575Y-110323127D01*
X149515575Y-110272751D01*
X149444090Y-110031501D01*
X149586101Y-110031501D01*
X149586101Y-110124694D01*
X149619806Y-110218072D01*
X149684515Y-110310853D01*
X149743271Y-110337689D01*
X149799508Y-110337689D01*
X149855149Y-110311907D01*
X149882398Y-110259883D01*
X149882398Y-110135456D01*
X149849242Y-110041667D01*
X149784533Y-109948885D01*
X149725731Y-109922049D01*
X149669494Y-109922049D01*
X149616600Y-109946733D01*
X149586101Y-110031501D01*
X149444090Y-110031501D01*
X149319845Y-109612197D01*
X149541038Y-109612197D01*
X149541038Y-109680203D01*
G37*
G36*
X149621546Y-110369380D02*
G01*
X149618538Y-110355198D01*
X149620081Y-110353764D01*
X149621546Y-110369380D01*
G37*
G36*
X148344034Y-109680203D02*
G01*
X148254916Y-109680203D01*
X148389097Y-110089936D01*
X148389097Y-110204104D01*
X148347927Y-110320516D01*
X148301353Y-110364984D01*
X148215303Y-110405192D01*
X148127650Y-110405192D01*
X148000430Y-110365991D01*
X147917494Y-110249167D01*
X147877423Y-110135456D01*
X147877423Y-110018586D01*
X147887131Y-109999856D01*
X147984860Y-109999856D01*
X147984860Y-110124694D01*
X148018519Y-110218072D01*
X148083228Y-110310853D01*
X148142030Y-110337689D01*
X148198267Y-110337689D01*
X148251207Y-110313006D01*
X148281661Y-110228192D01*
X148281661Y-110100606D01*
X148252122Y-110010526D01*
X148185994Y-109950992D01*
X148124490Y-109922049D01*
X148068253Y-109922049D01*
X148012612Y-109947832D01*
X147984860Y-109999856D01*
X147887131Y-109999856D01*
X147920196Y-109936063D01*
X147965671Y-109893702D01*
X148051217Y-109854043D01*
X148142030Y-109854043D01*
X148226752Y-109894938D01*
X148209578Y-109880925D01*
X148121743Y-109612197D01*
X148344034Y-109612197D01*
X148344034Y-109680203D01*
G37*
G36*
X146943927Y-109870804D02*
G01*
X147137642Y-110488861D01*
X147221036Y-110606784D01*
X147348302Y-110646489D01*
X147471812Y-110646489D01*
X147557862Y-110606280D01*
X147609245Y-110557004D01*
X147609245Y-110495272D01*
X147537071Y-110426808D01*
X147450426Y-110508232D01*
X147529835Y-110585535D01*
X147582821Y-110537953D01*
X147548291Y-110506217D01*
X147534919Y-110519589D01*
X147538674Y-110522749D01*
X147538674Y-110529115D01*
X147515730Y-110549494D01*
X147455280Y-110578482D01*
X147361628Y-110578482D01*
X147303376Y-110551600D01*
X147238164Y-110460467D01*
X147204366Y-110350879D01*
X147196856Y-110339155D01*
X147222181Y-110365487D01*
X147308231Y-110405192D01*
X147399547Y-110405192D01*
X147407012Y-110401941D01*
X147484589Y-110364984D01*
X147535972Y-110316211D01*
X147535972Y-110228238D01*
X147462699Y-110020739D01*
X147462699Y-109936063D01*
X147477720Y-109922049D01*
X147522645Y-109922049D01*
X147580439Y-109977324D01*
X147628158Y-110065481D01*
X147690669Y-110032920D01*
X147640202Y-109936063D01*
X147550947Y-109854043D01*
X147412965Y-109854043D01*
X147354713Y-109909181D01*
X147354713Y-110031455D01*
X147427986Y-110238451D01*
X147427986Y-110288826D01*
X147375596Y-110337689D01*
X147324763Y-110337689D01*
X147264313Y-110308701D01*
X147199604Y-110247564D01*
X147134208Y-110126984D01*
X147051455Y-109860179D01*
X146991234Y-109860179D01*
X146943927Y-109870804D01*
G37*
D12*
G36*
X144853214Y-109222110D02*
G01*
X144848801Y-109200757D01*
X144836953Y-109188909D01*
X144815600Y-109184497D01*
X144794215Y-109188911D01*
X144782354Y-109200762D01*
X144777938Y-109222110D01*
X144777938Y-109654957D01*
X144782354Y-109676305D01*
X144794215Y-109688156D01*
X144815600Y-109692571D01*
X144836953Y-109688158D01*
X144848801Y-109676310D01*
X144853214Y-109654957D01*
X144853214Y-109222110D01*
G37*
G36*
X144853214Y-109040979D02*
G01*
X144853214Y-109004929D01*
X144848799Y-108983544D01*
X144836949Y-108971683D01*
X144815600Y-108967267D01*
X144794220Y-108971685D01*
X144782356Y-108983548D01*
X144777938Y-109004929D01*
X144777938Y-109040979D01*
X144782356Y-109062360D01*
X144794220Y-109074224D01*
X144815600Y-109078642D01*
X144836949Y-109074226D01*
X144848799Y-109062365D01*
X144853214Y-109040979D01*
G37*
G36*
X144203430Y-109655055D02*
G01*
X144203430Y-109223624D01*
X144199022Y-109202336D01*
X144187179Y-109190514D01*
X144165817Y-109186109D01*
X143985468Y-109186109D01*
X143946337Y-109190890D01*
X143912232Y-109204823D01*
X143881909Y-109228265D01*
X143858374Y-109258504D01*
X143844399Y-109292495D01*
X143839606Y-109331482D01*
X143839606Y-109655055D01*
X143844017Y-109676339D01*
X143855873Y-109688162D01*
X143877268Y-109692571D01*
X143898630Y-109688165D01*
X143910474Y-109676343D01*
X143914881Y-109655055D01*
X143914881Y-109331482D01*
X143920015Y-109303911D01*
X143935202Y-109281412D01*
X143957759Y-109266267D01*
X143985468Y-109261140D01*
X144128154Y-109261140D01*
X144128154Y-109655055D01*
X144132565Y-109676339D01*
X144144422Y-109688162D01*
X144165817Y-109692571D01*
X144187179Y-109688165D01*
X144199022Y-109676343D01*
X144203430Y-109655055D01*
G37*
G36*
X143302618Y-109190889D02*
G01*
X143336740Y-109204822D01*
X143367094Y-109228265D01*
X143390599Y-109258501D01*
X143404559Y-109292492D01*
X143409348Y-109331482D01*
X143409348Y-109547197D01*
X143404483Y-109585443D01*
X143390004Y-109620421D01*
X143366210Y-109652350D01*
X143337859Y-109674421D01*
X143304142Y-109687855D01*
X143263486Y-109692571D01*
X143120799Y-109692571D01*
X143120799Y-109762912D01*
X143125952Y-109790052D01*
X143141364Y-109812738D01*
X143164107Y-109828107D01*
X143191385Y-109833254D01*
X143335635Y-109833254D01*
X143356997Y-109837660D01*
X143368841Y-109849482D01*
X143373249Y-109870770D01*
X143368841Y-109892058D01*
X143356997Y-109903880D01*
X143335635Y-109908286D01*
X143191336Y-109908286D01*
X143152238Y-109903506D01*
X143118148Y-109889574D01*
X143087826Y-109866129D01*
X143064292Y-109835890D01*
X143050317Y-109801899D01*
X143045524Y-109762912D01*
X143045524Y-109617539D01*
X143120799Y-109617539D01*
X143263486Y-109617539D01*
X143290291Y-109612375D01*
X143313214Y-109596778D01*
X143328889Y-109573902D01*
X143334072Y-109547197D01*
X143334072Y-109331482D01*
X143328919Y-109304342D01*
X143313507Y-109281656D01*
X143290764Y-109266287D01*
X143263486Y-109261140D01*
X143120799Y-109261140D01*
X143120799Y-109617539D01*
X143045524Y-109617539D01*
X143045524Y-109223624D01*
X143049931Y-109202336D01*
X143061775Y-109190514D01*
X143083137Y-109186109D01*
X143263486Y-109186109D01*
X143302618Y-109190889D01*
G37*
G36*
X142470071Y-109186387D02*
G01*
X142503309Y-109196337D01*
X142533802Y-109212828D01*
X142562069Y-109236374D01*
X142585515Y-109264699D01*
X142601949Y-109295268D01*
X142611870Y-109328601D01*
X142615265Y-109365432D01*
X142615265Y-109510121D01*
X142611870Y-109546952D01*
X142601951Y-109580294D01*
X142585517Y-109610879D01*
X142562069Y-109639228D01*
X142533805Y-109662750D01*
X142503313Y-109679226D01*
X142470074Y-109689168D01*
X142433353Y-109692571D01*
X142396633Y-109689168D01*
X142363394Y-109679226D01*
X142332902Y-109662750D01*
X142304637Y-109639228D01*
X142281190Y-109610879D01*
X142264756Y-109580294D01*
X142254836Y-109546952D01*
X142251441Y-109510121D01*
X142251441Y-109366653D01*
X142326717Y-109366653D01*
X142326717Y-109510903D01*
X142330229Y-109539056D01*
X142340529Y-109563909D01*
X142357980Y-109586325D01*
X142380362Y-109603745D01*
X142405198Y-109614030D01*
X142433353Y-109617539D01*
X142461908Y-109614038D01*
X142486846Y-109603823D01*
X142509069Y-109586618D01*
X142526273Y-109564395D01*
X142536488Y-109539457D01*
X142539990Y-109510903D01*
X142539990Y-109366653D01*
X142536480Y-109338465D01*
X142526193Y-109313614D01*
X142508775Y-109291231D01*
X142486359Y-109273780D01*
X142461507Y-109263480D01*
X142433353Y-109259968D01*
X142405201Y-109263481D01*
X142380366Y-109273781D01*
X142357980Y-109291231D01*
X142340533Y-109313618D01*
X142330231Y-109338469D01*
X142326717Y-109366653D01*
X142251441Y-109366653D01*
X142251441Y-109365432D01*
X142254834Y-109327970D01*
X142264708Y-109294351D01*
X142280985Y-109263807D01*
X142304100Y-109235788D01*
X142332059Y-109212595D01*
X142362520Y-109196275D01*
X142396028Y-109186381D01*
X142433353Y-109182982D01*
X142470071Y-109186387D01*
G37*
G36*
X140951825Y-109457365D02*
G01*
X140951825Y-109654957D01*
X140956241Y-109676305D01*
X140968102Y-109688156D01*
X140989487Y-109692571D01*
X141010836Y-109688155D01*
X141022686Y-109676294D01*
X141027101Y-109654908D01*
X141027101Y-109004929D01*
X141022686Y-108983544D01*
X141010836Y-108971683D01*
X140989487Y-108967267D01*
X140968106Y-108971685D01*
X140956243Y-108983548D01*
X140951825Y-109004929D01*
X140951825Y-109362354D01*
X140723702Y-109191531D01*
X140713274Y-109186035D01*
X140700890Y-109184155D01*
X140679537Y-109188567D01*
X140667689Y-109200415D01*
X140663276Y-109221768D01*
X140667038Y-109239098D01*
X140678126Y-109252005D01*
X140816954Y-109356102D01*
X140667282Y-109637225D01*
X140663276Y-109654908D01*
X140666044Y-109669193D01*
X140674414Y-109681433D01*
X140686613Y-109689801D01*
X140700890Y-109692571D01*
X140720251Y-109687602D01*
X140733960Y-109672591D01*
X140877966Y-109402605D01*
X140951825Y-109457365D01*
G37*
G36*
X140087824Y-109186387D02*
G01*
X140121062Y-109196337D01*
X140151555Y-109212828D01*
X140179822Y-109236374D01*
X140203268Y-109264699D01*
X140219702Y-109295268D01*
X140229623Y-109328601D01*
X140233018Y-109365432D01*
X140233018Y-109510121D01*
X140229623Y-109546952D01*
X140219704Y-109580294D01*
X140203270Y-109610879D01*
X140179822Y-109639228D01*
X140151557Y-109662750D01*
X140121066Y-109679226D01*
X140087827Y-109689168D01*
X140051106Y-109692571D01*
X140014386Y-109689168D01*
X139981147Y-109679226D01*
X139950655Y-109662750D01*
X139922390Y-109639228D01*
X139898943Y-109610879D01*
X139882509Y-109580294D01*
X139872589Y-109546952D01*
X139869194Y-109510121D01*
X139869194Y-109366653D01*
X139944470Y-109366653D01*
X139944470Y-109510903D01*
X139947982Y-109539056D01*
X139958282Y-109563909D01*
X139975733Y-109586325D01*
X139998115Y-109603745D01*
X140022951Y-109614030D01*
X140051106Y-109617539D01*
X140079661Y-109614038D01*
X140104599Y-109603823D01*
X140126821Y-109586618D01*
X140144026Y-109564395D01*
X140154241Y-109539457D01*
X140157743Y-109510903D01*
X140157743Y-109366653D01*
X140154233Y-109338465D01*
X140143946Y-109313614D01*
X140126528Y-109291231D01*
X140104112Y-109273780D01*
X140079260Y-109263480D01*
X140051106Y-109259968D01*
X140022954Y-109263481D01*
X139998119Y-109273781D01*
X139975733Y-109291231D01*
X139958286Y-109313618D01*
X139947984Y-109338469D01*
X139944470Y-109366653D01*
X139869194Y-109366653D01*
X139869194Y-109365432D01*
X139872587Y-109327970D01*
X139882461Y-109294351D01*
X139898738Y-109263807D01*
X139921853Y-109235788D01*
X139949812Y-109212595D01*
X139980273Y-109196275D01*
X140013781Y-109186381D01*
X140051106Y-109182982D01*
X140087824Y-109186387D01*
G37*
G36*
X139402837Y-109223624D02*
G01*
X139398429Y-109202336D01*
X139386586Y-109190514D01*
X139365223Y-109186109D01*
X139148824Y-109186109D01*
X139127430Y-109190517D01*
X139115573Y-109202341D01*
X139111162Y-109223624D01*
X139111162Y-109295676D01*
X139115578Y-109317024D01*
X139127439Y-109328875D01*
X139148824Y-109333289D01*
X139170177Y-109328877D01*
X139182025Y-109317029D01*
X139186438Y-109295676D01*
X139186438Y-109261140D01*
X139327610Y-109261140D01*
X139327610Y-109655055D01*
X139332018Y-109676343D01*
X139343861Y-109688165D01*
X139365223Y-109692571D01*
X139386586Y-109688165D01*
X139398429Y-109676343D01*
X139402837Y-109655055D01*
X139402837Y-109223624D01*
G37*
G36*
X138628589Y-108971683D02*
G01*
X138640439Y-108983544D01*
X138644854Y-109004929D01*
X138644854Y-109654908D01*
X138640439Y-109676294D01*
X138628589Y-109688155D01*
X138607240Y-109692571D01*
X138426891Y-109692571D01*
X138387757Y-109687794D01*
X138353652Y-109673875D01*
X138323332Y-109650463D01*
X138299796Y-109620194D01*
X138285821Y-109586185D01*
X138281029Y-109547197D01*
X138281029Y-109331482D01*
X138356305Y-109331482D01*
X138356305Y-109547197D01*
X138361458Y-109574337D01*
X138376870Y-109597023D01*
X138399613Y-109612392D01*
X138426891Y-109617539D01*
X138569578Y-109617539D01*
X138569578Y-109261140D01*
X138426891Y-109261140D01*
X138399182Y-109266267D01*
X138376626Y-109281412D01*
X138361438Y-109303911D01*
X138356305Y-109331482D01*
X138281029Y-109331482D01*
X138285894Y-109293236D01*
X138300373Y-109258258D01*
X138324167Y-109226326D01*
X138352511Y-109204255D01*
X138386212Y-109190823D01*
X138426842Y-109186109D01*
X138569578Y-109186109D01*
X138569578Y-109005320D01*
X138574015Y-108983680D01*
X138585896Y-108971712D01*
X138607240Y-108967267D01*
X138628589Y-108971683D01*
G37*
G36*
X137650834Y-108967267D02*
G01*
X137629388Y-108971638D01*
X137617556Y-108983317D01*
X137613172Y-109004245D01*
X137614344Y-109013868D01*
X137650394Y-109157679D01*
X137657641Y-109173672D01*
X137669339Y-109182813D01*
X137686884Y-109186109D01*
X137708247Y-109181703D01*
X137720090Y-109169881D01*
X137724498Y-109148593D01*
X137687324Y-108995697D01*
X137680052Y-108979699D01*
X137668350Y-108970559D01*
X137650834Y-108967267D01*
G37*
G36*
X136768140Y-109565125D02*
G01*
X136771541Y-109544706D01*
X136781210Y-109529221D01*
X136797840Y-109517448D01*
X136983123Y-109428544D01*
X137015994Y-109407484D01*
X137038397Y-109381847D01*
X137051934Y-109350935D01*
X137056689Y-109313115D01*
X137053316Y-109282902D01*
X137043633Y-109257211D01*
X137027665Y-109235034D01*
X137004616Y-109215808D01*
X136973567Y-109199755D01*
X136936895Y-109189678D01*
X136893339Y-109186109D01*
X136840671Y-109190683D01*
X136792809Y-109204044D01*
X136748796Y-109226116D01*
X136733706Y-109240850D01*
X136728915Y-109259039D01*
X136731683Y-109273324D01*
X136740052Y-109285564D01*
X136752289Y-109293896D01*
X136766577Y-109296653D01*
X136784358Y-109292012D01*
X136819698Y-109274728D01*
X136855842Y-109264540D01*
X136893339Y-109261140D01*
X136937322Y-109265577D01*
X136963030Y-109276444D01*
X136976760Y-109291909D01*
X136981413Y-109313017D01*
X136978113Y-109333112D01*
X136968772Y-109348233D01*
X136952788Y-109359619D01*
X136765893Y-109449598D01*
X136733299Y-109470626D01*
X136711053Y-109496247D01*
X136697595Y-109527168D01*
X136692865Y-109565027D01*
X136696353Y-109596975D01*
X136706259Y-109623503D01*
X136722413Y-109645798D01*
X136745524Y-109664531D01*
X136776505Y-109679523D01*
X136814335Y-109689119D01*
X136860562Y-109692571D01*
X136929112Y-109687726D01*
X136986880Y-109674102D01*
X137035684Y-109652612D01*
X137051594Y-109638047D01*
X137056689Y-109619102D01*
X137053920Y-109604826D01*
X137045551Y-109592626D01*
X137033312Y-109584256D01*
X137019027Y-109581489D01*
X137004763Y-109584371D01*
X136953521Y-109604497D01*
X136904759Y-109614350D01*
X136858364Y-109617539D01*
X136813207Y-109613032D01*
X136786881Y-109602014D01*
X136772873Y-109586384D01*
X136768140Y-109565125D01*
G37*
M02*
