%TF.GenerationSoftware,KiCad,Pcbnew,8.99.0-344-gfbc433deaa*%
%TF.CreationDate,2024-04-11T02:15:13-04:00*%
%TF.ProjectId,typeA,74797065-412e-46b6-9963-61645f706362,rev?*%
%TF.SameCoordinates,Original*%
%TF.FileFunction,Copper,L2,Bot*%
%TF.FilePolarity,Positive*%
%FSLAX46Y46*%
G04 Gerber Fmt 4.6, Leading zero omitted, Abs format (unit mm)*
G04 Created by KiCad (PCBNEW 8.99.0-344-gfbc433deaa) date 2024-04-11 02:15:13*
%MOMM*%
%LPD*%
G01*
G04 APERTURE LIST*
%TA.AperFunction,ComponentPad*%
%ADD10O,3.300000X1.500000*%
%TD*%
%TA.AperFunction,ComponentPad*%
%ADD11O,2.300000X1.500000*%
%TD*%
%TA.AperFunction,ViaPad*%
%ADD12C,0.450000*%
%TD*%
G04 APERTURE END LIST*
D10*
%TO.P,J1,SH,SH*%
%TO.N,GND*%
X174755000Y-90750000D03*
X174755000Y-105250000D03*
D11*
X180715000Y-90750000D03*
X180715000Y-105250000D03*
%TD*%
D12*
%TO.N,GND*%
X172218582Y-88957750D03*
X178903314Y-86844415D03*
X183310000Y-88840000D03*
X183260000Y-106960000D03*
X178660000Y-88810000D03*
X176470000Y-89400000D03*
X172100000Y-91760000D03*
X168480000Y-91940000D03*
X166190000Y-92440000D03*
X166130000Y-105130000D03*
X166100000Y-90430000D03*
X164850000Y-94780000D03*
X164850000Y-97330000D03*
X164830000Y-99920000D03*
X165530000Y-102750000D03*
X174490000Y-92380000D03*
X179200000Y-91750000D03*
X183170000Y-93670000D03*
X179030000Y-96470000D03*
X183180000Y-98890000D03*
X179160000Y-101250000D03*
X183330000Y-104500000D03*
X179020000Y-106260000D03*
X178390000Y-108690000D03*
X173070000Y-106920000D03*
X175440000Y-103430000D03*
X172130000Y-103910000D03*
X168220000Y-103810000D03*
X175700000Y-101500000D03*
X175700000Y-98500000D03*
X175700000Y-97000000D03*
X175700000Y-95500000D03*
X175700000Y-94000000D03*
X166600000Y-94000000D03*
X166600000Y-95500000D03*
X166600000Y-97000000D03*
X166600000Y-98500000D03*
X166600000Y-101500000D03*
X171400000Y-101000000D03*
X169100000Y-101000000D03*
X171400000Y-97900000D03*
X169100000Y-97900000D03*
X169100000Y-94800000D03*
X171400000Y-94800000D03*
%TD*%
%TA.AperFunction,Conductor*%
%TO.N,GND*%
G36*
X181974384Y-85015970D02*
G01*
X181981964Y-85016745D01*
X182245485Y-85060085D01*
X182252937Y-85061785D01*
X182329940Y-85084380D01*
X182509187Y-85136976D01*
X182516371Y-85139570D01*
X182761536Y-85245498D01*
X182768351Y-85248951D01*
X182998737Y-85384018D01*
X183005075Y-85388275D01*
X183217249Y-85550466D01*
X183223028Y-85555473D01*
X183413793Y-85742345D01*
X183418918Y-85748019D01*
X183585448Y-85956802D01*
X183589841Y-85963060D01*
X183729627Y-86190609D01*
X183733223Y-86197357D01*
X183844173Y-86440265D01*
X183846919Y-86447402D01*
X183927380Y-86702053D01*
X183929233Y-86709471D01*
X183977996Y-86972031D01*
X183978930Y-86979620D01*
X183995383Y-87248090D01*
X183995500Y-87251913D01*
X183995500Y-108748086D01*
X183995383Y-108751909D01*
X183978930Y-109020379D01*
X183977996Y-109027968D01*
X183929233Y-109290528D01*
X183927380Y-109297946D01*
X183846919Y-109552597D01*
X183844173Y-109559734D01*
X183733223Y-109802642D01*
X183729627Y-109809390D01*
X183589841Y-110036939D01*
X183585448Y-110043197D01*
X183418918Y-110251980D01*
X183413793Y-110257654D01*
X183223028Y-110444526D01*
X183217249Y-110449533D01*
X183005080Y-110611721D01*
X182998733Y-110615984D01*
X182768354Y-110751046D01*
X182761533Y-110754503D01*
X182516377Y-110860426D01*
X182509185Y-110863023D01*
X182252937Y-110938214D01*
X182245483Y-110939914D01*
X181981978Y-110983252D01*
X181974371Y-110984030D01*
X181707526Y-110994867D01*
X181699881Y-110994709D01*
X181433722Y-110972881D01*
X181426156Y-110971791D01*
X181367381Y-110959617D01*
X181164651Y-110917625D01*
X181157273Y-110915619D01*
X180904343Y-110829927D01*
X180897264Y-110827035D01*
X180656685Y-110711095D01*
X180650014Y-110707360D01*
X180423823Y-110561902D01*
X180420671Y-110559737D01*
X180230176Y-110420058D01*
X180230162Y-110420049D01*
X179830593Y-110161091D01*
X179830584Y-110161086D01*
X179830575Y-110161080D01*
X179416713Y-109925568D01*
X179416705Y-109925564D01*
X179416698Y-109925560D01*
X179416696Y-109925559D01*
X178989965Y-109714301D01*
X178551749Y-109527984D01*
X178240662Y-109416419D01*
X178103523Y-109367237D01*
X177988394Y-109333296D01*
X177931223Y-109316441D01*
X177931215Y-109316438D01*
X177875151Y-109299910D01*
X177827808Y-109285953D01*
X177827797Y-109285951D01*
X176370289Y-108856284D01*
X180399500Y-108856284D01*
X180399501Y-108856300D01*
X180432753Y-109066240D01*
X180432753Y-109066241D01*
X180498442Y-109268410D01*
X180498446Y-109268418D01*
X180594949Y-109457817D01*
X180719897Y-109629794D01*
X180870205Y-109780102D01*
X181042182Y-109905050D01*
X181042184Y-109905051D01*
X181231588Y-110001557D01*
X181433757Y-110067246D01*
X181522244Y-110081261D01*
X181643699Y-110100498D01*
X181643705Y-110100498D01*
X181643713Y-110100500D01*
X181643715Y-110100500D01*
X181856285Y-110100500D01*
X181856287Y-110100500D01*
X182066243Y-110067246D01*
X182268412Y-110001557D01*
X182457816Y-109905051D01*
X182629792Y-109780104D01*
X182780104Y-109629792D01*
X182905051Y-109457816D01*
X183001557Y-109268412D01*
X183067246Y-109066243D01*
X183100500Y-108856287D01*
X183100500Y-108643713D01*
X183067246Y-108433757D01*
X183001557Y-108231588D01*
X182905051Y-108042184D01*
X182780104Y-107870208D01*
X182780102Y-107870205D01*
X182629794Y-107719897D01*
X182457817Y-107594949D01*
X182268418Y-107498446D01*
X182268410Y-107498442D01*
X182066241Y-107432753D01*
X181856300Y-107399501D01*
X181856288Y-107399500D01*
X181856287Y-107399500D01*
X181643713Y-107399500D01*
X181643711Y-107399500D01*
X181643699Y-107399501D01*
X181433759Y-107432753D01*
X181433758Y-107432753D01*
X181231589Y-107498442D01*
X181231581Y-107498446D01*
X181042182Y-107594949D01*
X180870205Y-107719897D01*
X180719897Y-107870205D01*
X180594949Y-108042182D01*
X180498446Y-108231581D01*
X180498442Y-108231589D01*
X180432753Y-108433758D01*
X180432753Y-108433759D01*
X180399501Y-108643699D01*
X180399500Y-108643715D01*
X180399500Y-108856284D01*
X176370289Y-108856284D01*
X174101647Y-108187498D01*
X172672673Y-107766242D01*
X172672670Y-107766241D01*
X172670018Y-107765460D01*
X172670016Y-107765459D01*
X172626972Y-107752771D01*
X172626971Y-107752770D01*
X172626969Y-107752770D01*
X172573351Y-107736963D01*
X172573280Y-107736948D01*
X172474528Y-107707823D01*
X172163097Y-107644028D01*
X171847434Y-107606785D01*
X171847430Y-107606784D01*
X171847424Y-107606784D01*
X171847416Y-107606783D01*
X171847406Y-107606783D01*
X171529719Y-107596347D01*
X171529715Y-107596347D01*
X171212281Y-107612796D01*
X170897337Y-107656015D01*
X170744127Y-107690459D01*
X170740417Y-107691176D01*
X170709989Y-107696106D01*
X170478405Y-107733626D01*
X170470898Y-107734380D01*
X170207602Y-107744873D01*
X170200058Y-107744718D01*
X169937406Y-107723407D01*
X169929937Y-107722344D01*
X169671770Y-107669540D01*
X169664483Y-107667585D01*
X169414557Y-107584055D01*
X169407559Y-107581236D01*
X169169520Y-107468202D01*
X169162912Y-107464560D01*
X169060086Y-107399501D01*
X168940222Y-107323661D01*
X168934111Y-107319256D01*
X168730028Y-107152555D01*
X168724486Y-107147441D01*
X168541967Y-106957353D01*
X168537080Y-106951606D01*
X168377655Y-106739389D01*
X168375480Y-106736304D01*
X168349069Y-106696334D01*
X168348482Y-106695595D01*
X168312050Y-106640527D01*
X168312046Y-106640522D01*
X168157152Y-106465619D01*
X167979206Y-106314214D01*
X167781750Y-106189320D01*
X167781748Y-106189319D01*
X167568706Y-106093417D01*
X167568704Y-106093416D01*
X167568701Y-106093415D01*
X167344289Y-106028404D01*
X167112968Y-105995576D01*
X167112966Y-105995575D01*
X167112959Y-105995575D01*
X167052954Y-105995536D01*
X167052584Y-105995500D01*
X167046779Y-105995500D01*
X163906156Y-105995500D01*
X163893962Y-105994299D01*
X163856512Y-105986849D01*
X163833983Y-105977517D01*
X163807453Y-105959790D01*
X163790209Y-105942546D01*
X163772482Y-105916016D01*
X163763150Y-105893486D01*
X163755701Y-105856036D01*
X163754500Y-105843843D01*
X163754500Y-105606284D01*
X168899500Y-105606284D01*
X168899501Y-105606300D01*
X168932753Y-105816240D01*
X168932753Y-105816241D01*
X168998442Y-106018410D01*
X168998446Y-106018418D01*
X169094949Y-106207817D01*
X169219897Y-106379794D01*
X169370205Y-106530102D01*
X169542182Y-106655050D01*
X169542184Y-106655051D01*
X169731588Y-106751557D01*
X169933757Y-106817246D01*
X170022244Y-106831261D01*
X170143699Y-106850498D01*
X170143705Y-106850498D01*
X170143713Y-106850500D01*
X170143715Y-106850500D01*
X170356285Y-106850500D01*
X170356287Y-106850500D01*
X170566243Y-106817246D01*
X170768412Y-106751557D01*
X170957816Y-106655051D01*
X171129792Y-106530104D01*
X171280104Y-106379792D01*
X171405051Y-106207816D01*
X171501557Y-106018412D01*
X171567246Y-105816243D01*
X171600500Y-105606287D01*
X171600500Y-105393713D01*
X171567246Y-105183757D01*
X171501557Y-104981588D01*
X171405051Y-104792184D01*
X171280104Y-104620208D01*
X171280102Y-104620205D01*
X171129794Y-104469897D01*
X170957817Y-104344949D01*
X170768418Y-104248446D01*
X170768410Y-104248442D01*
X170566241Y-104182753D01*
X170356300Y-104149501D01*
X170356288Y-104149500D01*
X170356287Y-104149500D01*
X170143713Y-104149500D01*
X170143711Y-104149500D01*
X170143699Y-104149501D01*
X169933759Y-104182753D01*
X169933758Y-104182753D01*
X169731589Y-104248442D01*
X169731581Y-104248446D01*
X169542182Y-104344949D01*
X169370205Y-104469897D01*
X169219897Y-104620205D01*
X169094949Y-104792182D01*
X168998446Y-104981581D01*
X168998442Y-104981589D01*
X168932753Y-105183758D01*
X168932753Y-105183759D01*
X168899501Y-105393699D01*
X168899500Y-105393715D01*
X168899500Y-105606284D01*
X163754500Y-105606284D01*
X163754500Y-90606284D01*
X168899500Y-90606284D01*
X168899501Y-90606300D01*
X168932753Y-90816240D01*
X168932753Y-90816241D01*
X168998442Y-91018410D01*
X168998446Y-91018418D01*
X169094949Y-91207817D01*
X169219897Y-91379794D01*
X169370205Y-91530102D01*
X169542182Y-91655050D01*
X169542184Y-91655051D01*
X169731588Y-91751557D01*
X169933757Y-91817246D01*
X170022244Y-91831261D01*
X170143699Y-91850498D01*
X170143705Y-91850498D01*
X170143713Y-91850500D01*
X170143715Y-91850500D01*
X170356285Y-91850500D01*
X170356287Y-91850500D01*
X170566243Y-91817246D01*
X170768412Y-91751557D01*
X170957816Y-91655051D01*
X171129792Y-91530104D01*
X171280104Y-91379792D01*
X171405051Y-91207816D01*
X171501557Y-91018412D01*
X171567246Y-90816243D01*
X171600500Y-90606287D01*
X171600500Y-90393713D01*
X171567246Y-90183757D01*
X171501557Y-89981588D01*
X171405051Y-89792184D01*
X171326647Y-89684270D01*
X171280102Y-89620205D01*
X171129794Y-89469897D01*
X170957817Y-89344949D01*
X170768418Y-89248446D01*
X170768410Y-89248442D01*
X170566241Y-89182753D01*
X170356300Y-89149501D01*
X170356288Y-89149500D01*
X170356287Y-89149500D01*
X170143713Y-89149500D01*
X170143711Y-89149500D01*
X170143699Y-89149501D01*
X169933759Y-89182753D01*
X169933758Y-89182753D01*
X169731589Y-89248442D01*
X169731581Y-89248446D01*
X169542182Y-89344949D01*
X169370205Y-89469897D01*
X169219897Y-89620205D01*
X169094949Y-89792182D01*
X168998446Y-89981581D01*
X168998442Y-89981589D01*
X168932753Y-90183758D01*
X168932753Y-90183759D01*
X168899501Y-90393699D01*
X168899500Y-90393715D01*
X168899500Y-90606284D01*
X163754500Y-90606284D01*
X163754500Y-90156156D01*
X163755701Y-90143963D01*
X163756919Y-90137838D01*
X163763151Y-90106510D01*
X163772480Y-90083986D01*
X163790209Y-90057452D01*
X163807453Y-90040209D01*
X163833986Y-90022480D01*
X163856510Y-90013151D01*
X163887838Y-90006919D01*
X163893963Y-90005701D01*
X163906156Y-90004500D01*
X163944875Y-90004500D01*
X166945320Y-90004500D01*
X166945340Y-90004501D01*
X166951289Y-90004501D01*
X166951291Y-90004502D01*
X166970287Y-90004501D01*
X166970332Y-90004519D01*
X166996166Y-90004501D01*
X166996166Y-90004502D01*
X166998981Y-90004500D01*
X167046779Y-90004500D01*
X167052865Y-90004500D01*
X167053248Y-90004460D01*
X167112982Y-90004419D01*
X167344295Y-89971582D01*
X167344299Y-89971580D01*
X167344303Y-89971580D01*
X167479317Y-89932465D01*
X167568700Y-89906570D01*
X167781743Y-89810673D01*
X167979199Y-89685793D01*
X168157150Y-89534407D01*
X168312064Y-89359520D01*
X168348549Y-89304385D01*
X168348798Y-89304074D01*
X168351795Y-89299537D01*
X168351798Y-89299536D01*
X168375487Y-89263686D01*
X168377661Y-89260602D01*
X168461125Y-89149500D01*
X168537084Y-89048387D01*
X168541967Y-89042646D01*
X168724486Y-88852558D01*
X168730019Y-88847451D01*
X168934121Y-88680734D01*
X168940211Y-88676345D01*
X169162922Y-88535433D01*
X169169509Y-88531803D01*
X169407561Y-88418762D01*
X169414557Y-88415944D01*
X169664490Y-88332411D01*
X169671763Y-88330460D01*
X169929943Y-88277654D01*
X169937398Y-88276593D01*
X170200068Y-88255280D01*
X170207593Y-88255126D01*
X170470901Y-88265619D01*
X170478402Y-88266372D01*
X170740073Y-88308767D01*
X170743741Y-88309476D01*
X170897329Y-88344010D01*
X171212260Y-88387236D01*
X171529717Y-88403689D01*
X171847429Y-88393251D01*
X172163122Y-88355997D01*
X172474536Y-88292194D01*
X172596952Y-88256083D01*
X172596954Y-88256083D01*
X172636138Y-88244526D01*
X175649215Y-87356284D01*
X180399500Y-87356284D01*
X180399501Y-87356300D01*
X180432753Y-87566240D01*
X180432753Y-87566241D01*
X180498442Y-87768410D01*
X180498446Y-87768418D01*
X180594949Y-87957817D01*
X180719897Y-88129794D01*
X180870205Y-88280102D01*
X181042182Y-88405050D01*
X181042184Y-88405051D01*
X181231588Y-88501557D01*
X181433757Y-88567246D01*
X181522244Y-88581261D01*
X181643699Y-88600498D01*
X181643705Y-88600498D01*
X181643713Y-88600500D01*
X181643715Y-88600500D01*
X181856285Y-88600500D01*
X181856287Y-88600500D01*
X182066243Y-88567246D01*
X182268412Y-88501557D01*
X182457816Y-88405051D01*
X182629792Y-88280104D01*
X182780104Y-88129792D01*
X182905051Y-87957816D01*
X183001557Y-87768412D01*
X183067246Y-87566243D01*
X183100500Y-87356287D01*
X183100500Y-87143713D01*
X183067246Y-86933757D01*
X183001557Y-86731588D01*
X182905051Y-86542184D01*
X182846201Y-86461184D01*
X182780102Y-86370205D01*
X182629794Y-86219897D01*
X182457817Y-86094949D01*
X182268418Y-85998446D01*
X182268410Y-85998442D01*
X182066241Y-85932753D01*
X181856300Y-85899501D01*
X181856288Y-85899500D01*
X181856287Y-85899500D01*
X181643713Y-85899500D01*
X181643711Y-85899500D01*
X181643699Y-85899501D01*
X181433759Y-85932753D01*
X181433758Y-85932753D01*
X181231589Y-85998442D01*
X181231581Y-85998446D01*
X181042182Y-86094949D01*
X180870205Y-86219897D01*
X180719897Y-86370205D01*
X180594949Y-86542182D01*
X180498446Y-86731581D01*
X180498442Y-86731589D01*
X180432753Y-86933758D01*
X180432753Y-86933759D01*
X180399501Y-87143699D01*
X180399500Y-87143715D01*
X180399500Y-87356284D01*
X175649215Y-87356284D01*
X177822917Y-86715486D01*
X177822925Y-86715486D01*
X177832108Y-86712778D01*
X177832109Y-86712779D01*
X177850923Y-86707232D01*
X177850957Y-86707235D01*
X177875156Y-86700100D01*
X177875157Y-86700101D01*
X178103528Y-86632773D01*
X178551754Y-86472021D01*
X178989968Y-86285701D01*
X179416715Y-86074433D01*
X179830575Y-85838919D01*
X180230172Y-85579942D01*
X180381085Y-85469285D01*
X180381099Y-85469277D01*
X180387693Y-85464441D01*
X180420643Y-85440280D01*
X180423772Y-85438130D01*
X180650024Y-85292632D01*
X180656674Y-85288909D01*
X180897272Y-85172960D01*
X180904335Y-85170074D01*
X181157280Y-85084377D01*
X181164643Y-85082375D01*
X181426172Y-85028205D01*
X181433705Y-85027120D01*
X181699887Y-85005289D01*
X181707520Y-85005132D01*
X181974384Y-85015970D01*
G37*
%TD.AperFunction*%
%TD*%
M02*
