%TF.GenerationSoftware,KiCad,Pcbnew,8.99.0-344-gfbc433deaa*%
%TF.CreationDate,2024-04-11T02:15:12-04:00*%
%TF.ProjectId,typeA,74797065-412e-46b6-9963-61645f706362,rev?*%
%TF.SameCoordinates,Original*%
%TF.FileFunction,Copper,L1,Top*%
%TF.FilePolarity,Positive*%
%FSLAX46Y46*%
G04 Gerber Fmt 4.6, Leading zero omitted, Abs format (unit mm)*
G04 Created by KiCad (PCBNEW 8.99.0-344-gfbc433deaa) date 2024-04-11 02:15:12*
%MOMM*%
%LPD*%
G01*
G04 APERTURE LIST*
G04 Aperture macros list*
%AMRoundRect*
0 Rectangle with rounded corners*
0 $1 Rounding radius*
0 $2 $3 $4 $5 $6 $7 $8 $9 X,Y pos of 4 corners*
0 Add a 4 corners polygon primitive as box body*
4,1,4,$2,$3,$4,$5,$6,$7,$8,$9,$2,$3,0*
0 Add four circle primitives for the rounded corners*
1,1,$1+$1,$2,$3*
1,1,$1+$1,$4,$5*
1,1,$1+$1,$6,$7*
1,1,$1+$1,$8,$9*
0 Add four rect primitives between the rounded corners*
20,1,$1+$1,$2,$3,$4,$5,0*
20,1,$1+$1,$4,$5,$6,$7,0*
20,1,$1+$1,$6,$7,$8,$9,0*
20,1,$1+$1,$8,$9,$2,$3,0*%
G04 Aperture macros list end*
%TA.AperFunction,SMDPad,CuDef*%
%ADD10RoundRect,0.075000X-1.225000X-0.075000X1.225000X-0.075000X1.225000X0.075000X-1.225000X0.075000X0*%
%TD*%
%TA.AperFunction,ComponentPad*%
%ADD11O,3.300000X1.500000*%
%TD*%
%TA.AperFunction,ComponentPad*%
%ADD12O,2.300000X1.500000*%
%TD*%
%TA.AperFunction,SMDPad,CuDef*%
%ADD13RoundRect,0.325000X-0.325000X-0.675000X0.325000X-0.675000X0.325000X0.675000X-0.325000X0.675000X0*%
%TD*%
%TA.AperFunction,SMDPad,CuDef*%
%ADD14RoundRect,0.075000X-0.425000X0.075000X-0.425000X-0.075000X0.425000X-0.075000X0.425000X0.075000X0*%
%TD*%
%TA.AperFunction,SMDPad,CuDef*%
%ADD15RoundRect,0.062500X-0.250000X0.062500X-0.250000X-0.062500X0.250000X-0.062500X0.250000X0.062500X0*%
%TD*%
%TA.AperFunction,SMDPad,CuDef*%
%ADD16RoundRect,0.112500X-0.175000X0.112500X-0.175000X-0.112500X0.175000X-0.112500X0.175000X0.112500X0*%
%TD*%
%TA.AperFunction,SMDPad,CuDef*%
%ADD17RoundRect,0.112500X-0.237500X0.112500X-0.237500X-0.112500X0.237500X-0.112500X0.237500X0.112500X0*%
%TD*%
%TA.AperFunction,SMDPad,CuDef*%
%ADD18C,1.000000*%
%TD*%
%TA.AperFunction,ViaPad*%
%ADD19C,0.450000*%
%TD*%
%TA.AperFunction,Conductor*%
%ADD20C,0.254000*%
%TD*%
%TA.AperFunction,Conductor*%
%ADD21C,0.127000*%
%TD*%
%TA.AperFunction,Conductor*%
%ADD22C,0.304800*%
%TD*%
%TA.AperFunction,Conductor*%
%ADD23C,0.406400*%
%TD*%
G04 APERTURE END LIST*
D10*
%TO.P,J1,1,D2+*%
%TO.N,TMDS2+*%
X173995000Y-93500000D03*
%TO.P,J1,2,D2S*%
%TO.N,GND*%
X173995000Y-94000000D03*
%TO.P,J1,3,D2-*%
%TO.N,TMDS2-*%
X173995000Y-94500000D03*
%TO.P,J1,4,D1+*%
%TO.N,TMDS1+*%
X173995000Y-95000000D03*
%TO.P,J1,5,D1S*%
%TO.N,GND*%
X173995000Y-95500000D03*
%TO.P,J1,6,D1-*%
%TO.N,TMDS1-*%
X173995000Y-96000000D03*
%TO.P,J1,7,D0+*%
%TO.N,TMDS0+*%
X173995000Y-96500000D03*
%TO.P,J1,8,D0S*%
%TO.N,GND*%
X173995000Y-97000000D03*
%TO.P,J1,9,D0-*%
%TO.N,TMDS0-*%
X173995000Y-97500000D03*
%TO.P,J1,10,CK+*%
%TO.N,TMDSClk+*%
X173995000Y-98000000D03*
%TO.P,J1,11,CKS*%
%TO.N,GND*%
X173995000Y-98500000D03*
%TO.P,J1,12,CK-*%
%TO.N,TMDSClk-*%
X173995000Y-99000000D03*
%TO.P,J1,13,CEC*%
%TO.N,CEC*%
X173995000Y-99500000D03*
%TO.P,J1,14,UTILITY*%
%TO.N,UTL*%
X173995000Y-100000000D03*
%TO.P,J1,15,SCL*%
%TO.N,SCL*%
X173995000Y-100500000D03*
%TO.P,J1,16,SDA*%
%TO.N,SDA*%
X173995000Y-101000000D03*
%TO.P,J1,17,GND*%
%TO.N,GND*%
X173995000Y-101500000D03*
%TO.P,J1,18,+5V*%
%TO.N,+5V*%
X173995000Y-102000000D03*
%TO.P,J1,19,HPD*%
%TO.N,Net-(J1-HPD)*%
X173995000Y-102500000D03*
D11*
%TO.P,J1,SH,SH*%
%TO.N,GND*%
X174755000Y-90750000D03*
X174755000Y-105250000D03*
D12*
X180715000Y-90750000D03*
X180715000Y-105250000D03*
%TD*%
D13*
%TO.P,J2,MP2,MP2*%
%TO.N,GND*%
X164800000Y-104800000D03*
%TO.P,J2,MP1,MP1*%
X164800000Y-91200000D03*
D14*
%TO.P,J2,19,19*%
%TO.N,unconnected-(J2-Pad19)*%
X167500000Y-102500000D03*
%TO.P,J2,18,18*%
%TO.N,+5V*%
X167500000Y-102000000D03*
%TO.P,J2,17,17*%
%TO.N,GND*%
X167500000Y-101500000D03*
%TO.P,J2,16,16*%
%TO.N,SDA*%
X167500000Y-101000000D03*
%TO.P,J2,15,15*%
%TO.N,SCL*%
X167500000Y-100500000D03*
%TO.P,J2,14,14*%
%TO.N,UTL*%
X167500000Y-100000000D03*
%TO.P,J2,13,13*%
%TO.N,CEC*%
X167500000Y-99500000D03*
%TO.P,J2,12,12*%
%TO.N,TMDSClk-*%
X167500000Y-99000000D03*
%TO.P,J2,11,11*%
%TO.N,GND*%
X167500000Y-98500000D03*
%TO.P,J2,10,10*%
%TO.N,TMDSClk+*%
X167500000Y-98000000D03*
%TO.P,J2,9,9*%
%TO.N,TMDS0-*%
X167500000Y-97500000D03*
%TO.P,J2,8,8*%
%TO.N,GND*%
X167500000Y-97000000D03*
%TO.P,J2,7,7*%
%TO.N,TMDS0+*%
X167500000Y-96500000D03*
%TO.P,J2,6,6*%
%TO.N,TMDS1-*%
X167500000Y-96000000D03*
%TO.P,J2,5,5*%
%TO.N,GND*%
X167500000Y-95500000D03*
%TO.P,J2,4,4*%
%TO.N,TMDS1+*%
X167500000Y-95000000D03*
%TO.P,J2,3,3*%
%TO.N,TMDS2-*%
X167500000Y-94500000D03*
%TO.P,J2,2,2*%
%TO.N,GND*%
X167500000Y-94000000D03*
%TO.P,J2,1,1*%
%TO.N,TMDS2+*%
X167500000Y-93500000D03*
%TD*%
D15*
%TO.P,U1,10,NC*%
%TO.N,TMDS2+*%
X170637500Y-93800000D03*
%TO.P,U1,9,NC*%
%TO.N,TMDS2-*%
X170637500Y-94300000D03*
D16*
%TO.P,U1,8,VSS*%
%TO.N,GND*%
X170662500Y-94800000D03*
D15*
%TO.P,U1,7,NC*%
%TO.N,TMDS1+*%
X170637500Y-95300000D03*
%TO.P,U1,6,NC*%
%TO.N,TMDS1-*%
X170637500Y-95800000D03*
%TO.P,U1,5*%
X169862500Y-95800000D03*
%TO.P,U1,4*%
%TO.N,TMDS1+*%
X169862500Y-95300000D03*
D17*
%TO.P,U1,3,VSS*%
%TO.N,GND*%
X169900000Y-94800000D03*
D15*
%TO.P,U1,2*%
%TO.N,TMDS2-*%
X169862500Y-94300000D03*
%TO.P,U1,1*%
%TO.N,TMDS2+*%
X169862500Y-93800000D03*
%TD*%
%TO.P,U3,10,NC*%
%TO.N,CEC*%
X170625000Y-100000000D03*
%TO.P,U3,9,NC*%
%TO.N,UTL*%
X170625000Y-100500000D03*
D16*
%TO.P,U3,8,VSS*%
%TO.N,GND*%
X170650000Y-101000000D03*
D15*
%TO.P,U3,7,NC*%
%TO.N,SCL*%
X170625000Y-101500000D03*
%TO.P,U3,6,NC*%
%TO.N,SDA*%
X170625000Y-102000000D03*
%TO.P,U3,5*%
X169850000Y-102000000D03*
%TO.P,U3,4*%
%TO.N,SCL*%
X169850000Y-101500000D03*
D17*
%TO.P,U3,3,VSS*%
%TO.N,GND*%
X169887500Y-101000000D03*
D15*
%TO.P,U3,2*%
%TO.N,UTL*%
X169850000Y-100500000D03*
%TO.P,U3,1*%
%TO.N,CEC*%
X169850000Y-100000000D03*
%TD*%
D18*
%TO.P,HPD1,1,1*%
%TO.N,Net-(J1-HPD)*%
X176750000Y-108000000D03*
%TD*%
D15*
%TO.P,U2,1*%
%TO.N,TMDS0+*%
X169875000Y-96900000D03*
%TO.P,U2,2*%
%TO.N,TMDS0-*%
X169875000Y-97400000D03*
D17*
%TO.P,U2,3,VSS*%
%TO.N,GND*%
X169912500Y-97900000D03*
D15*
%TO.P,U2,4*%
%TO.N,TMDSClk+*%
X169875000Y-98400000D03*
%TO.P,U2,5*%
%TO.N,TMDSClk-*%
X169875000Y-98900000D03*
%TO.P,U2,6,NC*%
X170650000Y-98900000D03*
%TO.P,U2,7,NC*%
%TO.N,TMDSClk+*%
X170650000Y-98400000D03*
D16*
%TO.P,U2,8,VSS*%
%TO.N,GND*%
X170675000Y-97900000D03*
D15*
%TO.P,U2,9,NC*%
%TO.N,TMDS0-*%
X170650000Y-97400000D03*
%TO.P,U2,10,NC*%
%TO.N,TMDS0+*%
X170650000Y-96900000D03*
%TD*%
D19*
%TO.N,GND*%
X172218582Y-88957750D03*
X178903314Y-86844415D03*
X183310000Y-88840000D03*
X183260000Y-106960000D03*
X178660000Y-88810000D03*
X176470000Y-89400000D03*
X172100000Y-91760000D03*
X168480000Y-91940000D03*
X166190000Y-92440000D03*
X166130000Y-105130000D03*
X166100000Y-90430000D03*
X164850000Y-94780000D03*
X164850000Y-97330000D03*
X164830000Y-99920000D03*
X165530000Y-102750000D03*
X174490000Y-92380000D03*
X179200000Y-91750000D03*
X183170000Y-93670000D03*
X179030000Y-96470000D03*
X183180000Y-98890000D03*
X179160000Y-101250000D03*
X183330000Y-104500000D03*
X179020000Y-106260000D03*
X178390000Y-108690000D03*
X173070000Y-106920000D03*
X175440000Y-103430000D03*
X172130000Y-103910000D03*
X168220000Y-103810000D03*
X175700000Y-101500000D03*
X175700000Y-98500000D03*
X175700000Y-97000000D03*
X175700000Y-95500000D03*
X175700000Y-94000000D03*
X166600000Y-94000000D03*
X166600000Y-95500000D03*
X166600000Y-97000000D03*
X166600000Y-98500000D03*
X166600000Y-101500000D03*
X171400000Y-101000000D03*
X169100000Y-101000000D03*
X171400000Y-97900000D03*
X169100000Y-97900000D03*
X169100000Y-94800000D03*
X171400000Y-94800000D03*
%TD*%
D20*
%TO.N,SDA*%
X169850000Y-102000000D02*
X170625000Y-102000000D01*
%TO.N,SCL*%
X169850000Y-101500000D02*
X170625000Y-101500000D01*
%TO.N,UTL*%
X169850000Y-100500000D02*
X170625000Y-100500000D01*
%TO.N,CEC*%
X169850000Y-100000000D02*
X170625000Y-100000000D01*
%TO.N,TMDS2+*%
X169862500Y-93800000D02*
X170637500Y-93800000D01*
%TO.N,TMDS2-*%
X169862500Y-94300000D02*
X170637500Y-94300000D01*
%TO.N,TMDS1+*%
X169862500Y-95300000D02*
X170637500Y-95300000D01*
%TO.N,TMDS1-*%
X169862500Y-95800000D02*
X170637500Y-95800000D01*
%TO.N,TMDS0+*%
X169875000Y-96900000D02*
X170650000Y-96900000D01*
%TO.N,TMDS0-*%
X169875000Y-97400000D02*
X170650000Y-97400000D01*
%TO.N,TMDSClk-*%
X169875000Y-98900000D02*
X170650000Y-98900000D01*
%TO.N,TMDSClk+*%
X169875000Y-98400000D02*
X170650000Y-98400000D01*
D21*
%TO.N,TMDSClk-*%
X169300000Y-98800000D02*
X169400000Y-98900000D01*
X169400000Y-98900000D02*
X169875000Y-98900000D01*
X168220000Y-99000000D02*
X168420000Y-98800000D01*
X168420000Y-98800000D02*
X169300000Y-98800000D01*
X167500000Y-99000000D02*
X168220000Y-99000000D01*
D22*
%TO.N,Net-(J1-HPD)*%
X173995000Y-102500000D02*
X176000000Y-102500000D01*
X176000000Y-102500000D02*
X177300000Y-103800000D01*
X177300000Y-103800000D02*
X177300000Y-106700000D01*
X177300000Y-106700000D02*
X176750000Y-108000000D01*
D21*
%TO.N,TMDSClk+*%
X167920000Y-98000000D02*
X167500000Y-98000000D01*
X168420000Y-98500000D02*
X167920000Y-98000000D01*
X169300000Y-98500000D02*
X168420000Y-98500000D01*
X169875000Y-98400000D02*
X169400000Y-98400000D01*
X169400000Y-98400000D02*
X169300000Y-98500000D01*
%TO.N,TMDS1+*%
X172700000Y-95000000D02*
X173995000Y-95000000D01*
X172254000Y-95446000D02*
X172700000Y-95000000D01*
X171154000Y-95300000D02*
X171300000Y-95446000D01*
X170637500Y-95300000D02*
X171154000Y-95300000D01*
X171300000Y-95446000D02*
X172254000Y-95446000D01*
%TO.N,TMDS1-*%
X171200000Y-95800000D02*
X170637500Y-95800000D01*
X171300000Y-95700000D02*
X171200000Y-95800000D01*
X172560000Y-96000000D02*
X172260000Y-95700000D01*
X173995000Y-96000000D02*
X172560000Y-96000000D01*
X172260000Y-95700000D02*
X171300000Y-95700000D01*
%TO.N,TMDSClk-*%
X171130000Y-98900000D02*
X170650000Y-98900000D01*
X172300000Y-98760000D02*
X171270000Y-98760000D01*
X172540000Y-99000000D02*
X172300000Y-98760000D01*
X173995000Y-99000000D02*
X172540000Y-99000000D01*
X171270000Y-98760000D02*
X171130000Y-98900000D01*
%TO.N,TMDSClk+*%
X172790000Y-98000000D02*
X173995000Y-98000000D01*
X171154000Y-98400000D02*
X171254000Y-98500000D01*
X172290000Y-98500000D02*
X172790000Y-98000000D01*
X170650000Y-98400000D02*
X171154000Y-98400000D01*
X171254000Y-98500000D02*
X172290000Y-98500000D01*
%TO.N,TMDS0+*%
X172760000Y-96500000D02*
X173995000Y-96500000D01*
X171154000Y-96900000D02*
X171274000Y-97020000D01*
X171274000Y-97020000D02*
X172240000Y-97020000D01*
X170650000Y-96900000D02*
X171154000Y-96900000D01*
X172240000Y-97020000D02*
X172760000Y-96500000D01*
%TO.N,TMDS0-*%
X172260000Y-97280000D02*
X171280000Y-97280000D01*
X171280000Y-97280000D02*
X171160000Y-97400000D01*
X172480000Y-97500000D02*
X172260000Y-97280000D01*
X171160000Y-97400000D02*
X170650000Y-97400000D01*
X173995000Y-97500000D02*
X172480000Y-97500000D01*
D22*
%TO.N,GND*%
X173995000Y-101500000D02*
X175700000Y-101500000D01*
X173995000Y-98500000D02*
X175700000Y-98500000D01*
X173995000Y-97000000D02*
X175700000Y-97000000D01*
X173995000Y-95500000D02*
X175700000Y-95500000D01*
X173995000Y-94000000D02*
X175700000Y-94000000D01*
X167500000Y-94000000D02*
X166600000Y-94000000D01*
X167500000Y-95500000D02*
X166600000Y-95500000D01*
X167500000Y-97000000D02*
X166600000Y-97000000D01*
X167500000Y-98500000D02*
X166600000Y-98500000D01*
X167500000Y-101500000D02*
X166600000Y-101500000D01*
D21*
%TO.N,TMDS2-*%
X171100000Y-94300000D02*
X170637500Y-94300000D01*
X171200000Y-94200000D02*
X171100000Y-94300000D01*
X172153144Y-94200000D02*
X171200000Y-94200000D01*
X172453144Y-94500000D02*
X172153144Y-94200000D01*
X173995000Y-94500000D02*
X172453144Y-94500000D01*
%TO.N,TMDS2+*%
X172154177Y-93946000D02*
X172600177Y-93500000D01*
X172600177Y-93500000D02*
X173995000Y-93500000D01*
X171054000Y-93800000D02*
X171200000Y-93946000D01*
X170637500Y-93800000D02*
X171054000Y-93800000D01*
X171200000Y-93946000D02*
X172154177Y-93946000D01*
X169446000Y-93800000D02*
X169862500Y-93800000D01*
X169300000Y-93946000D02*
X169446000Y-93800000D01*
X168323552Y-93946000D02*
X169300000Y-93946000D01*
X167500000Y-93500000D02*
X167877552Y-93500000D01*
X167877552Y-93500000D02*
X168323552Y-93946000D01*
%TO.N,TMDS2-*%
X169400000Y-94300000D02*
X169862500Y-94300000D01*
X169300000Y-94200000D02*
X169400000Y-94300000D01*
X168400000Y-94200000D02*
X169300000Y-94200000D01*
X168100000Y-94500000D02*
X168400000Y-94200000D01*
X167500000Y-94500000D02*
X168100000Y-94500000D01*
%TO.N,TMDS1+*%
X168130261Y-95000000D02*
X167500000Y-95000000D01*
X168275532Y-95275532D02*
X168275532Y-95145271D01*
X168400000Y-95400000D02*
X168275532Y-95275532D01*
X169400000Y-95300000D02*
X169300000Y-95400000D01*
X169862500Y-95300000D02*
X169400000Y-95300000D01*
X169300000Y-95400000D02*
X168400000Y-95400000D01*
X168275532Y-95145271D02*
X168130261Y-95000000D01*
%TO.N,TMDS1-*%
X169300000Y-95700000D02*
X169400000Y-95800000D01*
X168400000Y-95700000D02*
X169300000Y-95700000D01*
X168100000Y-96000000D02*
X168400000Y-95700000D01*
X169400000Y-95800000D02*
X169862500Y-95800000D01*
X167500000Y-96000000D02*
X168100000Y-96000000D01*
%TO.N,TMDS0+*%
X168300000Y-96700000D02*
X168100000Y-96500000D01*
X168100000Y-96500000D02*
X167500000Y-96500000D01*
X168300000Y-96900000D02*
X168300000Y-96700000D01*
X169300000Y-97000000D02*
X168400000Y-97000000D01*
X168400000Y-97000000D02*
X168300000Y-96900000D01*
X169400000Y-96900000D02*
X169300000Y-97000000D01*
X169875000Y-96900000D02*
X169400000Y-96900000D01*
%TO.N,TMDS0-*%
X169400000Y-97400000D02*
X169875000Y-97400000D01*
X168400000Y-97300000D02*
X169300000Y-97300000D01*
X168200000Y-97500000D02*
X168400000Y-97300000D01*
X169300000Y-97300000D02*
X169400000Y-97400000D01*
X167500000Y-97500000D02*
X168200000Y-97500000D01*
%TO.N,SDA*%
X168900000Y-102000000D02*
X169850000Y-102000000D01*
X168146000Y-101000000D02*
X168346000Y-101200000D01*
X168346000Y-101446000D02*
X168900000Y-102000000D01*
X167500000Y-101000000D02*
X168146000Y-101000000D01*
X168346000Y-101200000D02*
X168346000Y-101446000D01*
X172300000Y-101300000D02*
X171600000Y-102000000D01*
X171600000Y-102000000D02*
X170625000Y-102000000D01*
X172400000Y-101000000D02*
X172300000Y-101100000D01*
X172300000Y-101100000D02*
X172300000Y-101300000D01*
X173995000Y-101000000D02*
X172400000Y-101000000D01*
%TO.N,SCL*%
X171600000Y-101500000D02*
X170625000Y-101500000D01*
X171900000Y-100900000D02*
X171900000Y-101200000D01*
X171900000Y-101200000D02*
X171600000Y-101500000D01*
X172300000Y-100500000D02*
X171900000Y-100900000D01*
X173995000Y-100500000D02*
X172300000Y-100500000D01*
X168944512Y-101500000D02*
X169850000Y-101500000D01*
X168636500Y-101191988D02*
X168944512Y-101500000D01*
X168636500Y-100936500D02*
X168636500Y-101191988D01*
X168200000Y-100500000D02*
X168636500Y-100936500D01*
X167500000Y-100500000D02*
X168200000Y-100500000D01*
D23*
%TO.N,GND*%
X170650000Y-101000000D02*
X171400000Y-101000000D01*
X169887500Y-101000000D02*
X169100000Y-101000000D01*
D21*
%TO.N,CEC*%
X171600000Y-100000000D02*
X170625000Y-100000000D01*
X173995000Y-99500000D02*
X172100000Y-99500000D01*
X172100000Y-99500000D02*
X171600000Y-100000000D01*
X169000000Y-100000000D02*
X169850000Y-100000000D01*
X168500000Y-99500000D02*
X169000000Y-100000000D01*
X167500000Y-99500000D02*
X168500000Y-99500000D01*
%TO.N,UTL*%
X171700000Y-100500000D02*
X170625000Y-100500000D01*
X172200000Y-100000000D02*
X171700000Y-100500000D01*
X173995000Y-100000000D02*
X172200000Y-100000000D01*
X168440790Y-100000000D02*
X168940790Y-100500000D01*
X167500000Y-100000000D02*
X168440790Y-100000000D01*
X168940790Y-100500000D02*
X169850000Y-100500000D01*
D22*
%TO.N,+5V*%
X171800000Y-102700000D02*
X172500000Y-102000000D01*
X168750000Y-102700000D02*
X171800000Y-102700000D01*
X168050000Y-102000000D02*
X168750000Y-102700000D01*
X167500000Y-102000000D02*
X168050000Y-102000000D01*
X172500000Y-102000000D02*
X173995000Y-102000000D01*
D23*
%TO.N,GND*%
X170675000Y-97900000D02*
X171400000Y-97900000D01*
X169912500Y-97900000D02*
X169100000Y-97900000D01*
X169900000Y-94800000D02*
X169100000Y-94800000D01*
X170662500Y-94800000D02*
X171400000Y-94800000D01*
X169900000Y-94800000D02*
X170662500Y-94800000D01*
X169912500Y-97900000D02*
X170675000Y-97900000D01*
X169887500Y-101000000D02*
X170650000Y-101000000D01*
%TD*%
%TA.AperFunction,Conductor*%
%TO.N,GND*%
G36*
X181974384Y-85015970D02*
G01*
X181981964Y-85016745D01*
X182245485Y-85060085D01*
X182252937Y-85061785D01*
X182329940Y-85084380D01*
X182509187Y-85136976D01*
X182516371Y-85139570D01*
X182761536Y-85245498D01*
X182768351Y-85248951D01*
X182998737Y-85384018D01*
X183005075Y-85388275D01*
X183217249Y-85550466D01*
X183223028Y-85555473D01*
X183413793Y-85742345D01*
X183418918Y-85748019D01*
X183585448Y-85956802D01*
X183589841Y-85963060D01*
X183729627Y-86190609D01*
X183733223Y-86197357D01*
X183844173Y-86440265D01*
X183846919Y-86447402D01*
X183927380Y-86702053D01*
X183929233Y-86709471D01*
X183977996Y-86972031D01*
X183978930Y-86979620D01*
X183995383Y-87248090D01*
X183995500Y-87251913D01*
X183995500Y-108748086D01*
X183995383Y-108751909D01*
X183978930Y-109020379D01*
X183977996Y-109027968D01*
X183929233Y-109290528D01*
X183927380Y-109297946D01*
X183846919Y-109552597D01*
X183844173Y-109559734D01*
X183733223Y-109802642D01*
X183729627Y-109809390D01*
X183589841Y-110036939D01*
X183585448Y-110043197D01*
X183418918Y-110251980D01*
X183413793Y-110257654D01*
X183223028Y-110444526D01*
X183217249Y-110449533D01*
X183005080Y-110611721D01*
X182998733Y-110615984D01*
X182768354Y-110751046D01*
X182761533Y-110754503D01*
X182516377Y-110860426D01*
X182509185Y-110863023D01*
X182252937Y-110938214D01*
X182245483Y-110939914D01*
X181981978Y-110983252D01*
X181974371Y-110984030D01*
X181707526Y-110994867D01*
X181699881Y-110994709D01*
X181433722Y-110972881D01*
X181426156Y-110971791D01*
X181367381Y-110959617D01*
X181164651Y-110917625D01*
X181157273Y-110915619D01*
X180904343Y-110829927D01*
X180897264Y-110827035D01*
X180656685Y-110711095D01*
X180650014Y-110707360D01*
X180423823Y-110561902D01*
X180420671Y-110559737D01*
X180230176Y-110420058D01*
X180230162Y-110420049D01*
X179830593Y-110161091D01*
X179830584Y-110161086D01*
X179830575Y-110161080D01*
X179416713Y-109925568D01*
X179416705Y-109925564D01*
X179416698Y-109925560D01*
X179416696Y-109925559D01*
X178989965Y-109714301D01*
X178551749Y-109527984D01*
X178240662Y-109416419D01*
X178103523Y-109367237D01*
X177988394Y-109333296D01*
X177931223Y-109316441D01*
X177931215Y-109316438D01*
X177875151Y-109299910D01*
X177827808Y-109285953D01*
X177827797Y-109285951D01*
X176370289Y-108856284D01*
X180399500Y-108856284D01*
X180399501Y-108856300D01*
X180432753Y-109066240D01*
X180432753Y-109066241D01*
X180498442Y-109268410D01*
X180498446Y-109268418D01*
X180594949Y-109457817D01*
X180719897Y-109629794D01*
X180870205Y-109780102D01*
X181042182Y-109905050D01*
X181042184Y-109905051D01*
X181231588Y-110001557D01*
X181433757Y-110067246D01*
X181522244Y-110081261D01*
X181643699Y-110100498D01*
X181643705Y-110100498D01*
X181643713Y-110100500D01*
X181643715Y-110100500D01*
X181856285Y-110100500D01*
X181856287Y-110100500D01*
X182066243Y-110067246D01*
X182268412Y-110001557D01*
X182457816Y-109905051D01*
X182629792Y-109780104D01*
X182780104Y-109629792D01*
X182905051Y-109457816D01*
X183001557Y-109268412D01*
X183067246Y-109066243D01*
X183100500Y-108856287D01*
X183100500Y-108643713D01*
X183067246Y-108433757D01*
X183001557Y-108231588D01*
X182905051Y-108042184D01*
X182780104Y-107870208D01*
X182780102Y-107870205D01*
X182629794Y-107719897D01*
X182457817Y-107594949D01*
X182268418Y-107498446D01*
X182268410Y-107498442D01*
X182066241Y-107432753D01*
X181856300Y-107399501D01*
X181856288Y-107399500D01*
X181856287Y-107399500D01*
X181643713Y-107399500D01*
X181643711Y-107399500D01*
X181643699Y-107399501D01*
X181433759Y-107432753D01*
X181433758Y-107432753D01*
X181231589Y-107498442D01*
X181231581Y-107498446D01*
X181042182Y-107594949D01*
X180870205Y-107719897D01*
X180719897Y-107870205D01*
X180594949Y-108042182D01*
X180498446Y-108231581D01*
X180498442Y-108231589D01*
X180432753Y-108433758D01*
X180432753Y-108433759D01*
X180399501Y-108643699D01*
X180399500Y-108643715D01*
X180399500Y-108856284D01*
X176370289Y-108856284D01*
X174101647Y-108187498D01*
X172672673Y-107766242D01*
X172672670Y-107766241D01*
X172670018Y-107765460D01*
X172670016Y-107765459D01*
X172626972Y-107752771D01*
X172626971Y-107752770D01*
X172626969Y-107752770D01*
X172573351Y-107736963D01*
X172573280Y-107736948D01*
X172474528Y-107707823D01*
X172163097Y-107644028D01*
X171847434Y-107606785D01*
X171847430Y-107606784D01*
X171847424Y-107606784D01*
X171847416Y-107606783D01*
X171847406Y-107606783D01*
X171529719Y-107596347D01*
X171529715Y-107596347D01*
X171212281Y-107612796D01*
X170897337Y-107656015D01*
X170744127Y-107690459D01*
X170740417Y-107691176D01*
X170709989Y-107696106D01*
X170478405Y-107733626D01*
X170470898Y-107734380D01*
X170207602Y-107744873D01*
X170200058Y-107744718D01*
X169937406Y-107723407D01*
X169929937Y-107722344D01*
X169671770Y-107669540D01*
X169664483Y-107667585D01*
X169414557Y-107584055D01*
X169407559Y-107581236D01*
X169169520Y-107468202D01*
X169162912Y-107464560D01*
X169060086Y-107399501D01*
X168940222Y-107323661D01*
X168934111Y-107319256D01*
X168730028Y-107152555D01*
X168724486Y-107147441D01*
X168541967Y-106957353D01*
X168537080Y-106951606D01*
X168377655Y-106739389D01*
X168375480Y-106736304D01*
X168349069Y-106696334D01*
X168348482Y-106695595D01*
X168312050Y-106640527D01*
X168312046Y-106640522D01*
X168157152Y-106465619D01*
X167979206Y-106314214D01*
X167781750Y-106189320D01*
X167781748Y-106189319D01*
X167568706Y-106093417D01*
X167568704Y-106093416D01*
X167568701Y-106093415D01*
X167344289Y-106028404D01*
X167112968Y-105995576D01*
X167112966Y-105995575D01*
X167112959Y-105995575D01*
X167052954Y-105995536D01*
X167052584Y-105995500D01*
X167046779Y-105995500D01*
X163906156Y-105995500D01*
X163893962Y-105994299D01*
X163856512Y-105986849D01*
X163833983Y-105977517D01*
X163807453Y-105959790D01*
X163790209Y-105942546D01*
X163772482Y-105916016D01*
X163763150Y-105893486D01*
X163755701Y-105856036D01*
X163754500Y-105843843D01*
X163754500Y-105606284D01*
X168899500Y-105606284D01*
X168899501Y-105606300D01*
X168932753Y-105816240D01*
X168932753Y-105816241D01*
X168998442Y-106018410D01*
X168998446Y-106018418D01*
X169094949Y-106207817D01*
X169219897Y-106379794D01*
X169370205Y-106530102D01*
X169542182Y-106655050D01*
X169542184Y-106655051D01*
X169731588Y-106751557D01*
X169933757Y-106817246D01*
X170022244Y-106831261D01*
X170143699Y-106850498D01*
X170143705Y-106850498D01*
X170143713Y-106850500D01*
X170143715Y-106850500D01*
X170356285Y-106850500D01*
X170356287Y-106850500D01*
X170566243Y-106817246D01*
X170768412Y-106751557D01*
X170957816Y-106655051D01*
X171129792Y-106530104D01*
X171280104Y-106379792D01*
X171405051Y-106207816D01*
X171501557Y-106018412D01*
X171567246Y-105816243D01*
X171600500Y-105606287D01*
X171600500Y-105393713D01*
X171567246Y-105183757D01*
X171501557Y-104981588D01*
X171405051Y-104792184D01*
X171280104Y-104620208D01*
X171280102Y-104620205D01*
X171129794Y-104469897D01*
X170957817Y-104344949D01*
X170768418Y-104248446D01*
X170768410Y-104248442D01*
X170566241Y-104182753D01*
X170356300Y-104149501D01*
X170356288Y-104149500D01*
X170356287Y-104149500D01*
X170143713Y-104149500D01*
X170143711Y-104149500D01*
X170143699Y-104149501D01*
X169933759Y-104182753D01*
X169933758Y-104182753D01*
X169731589Y-104248442D01*
X169731581Y-104248446D01*
X169542182Y-104344949D01*
X169370205Y-104469897D01*
X169219897Y-104620205D01*
X169094949Y-104792182D01*
X168998446Y-104981581D01*
X168998442Y-104981589D01*
X168932753Y-105183758D01*
X168932753Y-105183759D01*
X168899501Y-105393699D01*
X168899500Y-105393715D01*
X168899500Y-105606284D01*
X163754500Y-105606284D01*
X163754500Y-102594944D01*
X166872500Y-102594944D01*
X166884248Y-102654010D01*
X166884249Y-102654012D01*
X166929006Y-102720994D01*
X166995988Y-102765751D01*
X167055056Y-102777500D01*
X167055057Y-102777500D01*
X167944943Y-102777500D01*
X167944944Y-102777500D01*
X168004012Y-102765751D01*
X168070994Y-102720994D01*
X168115751Y-102654012D01*
X168124864Y-102608195D01*
X168151438Y-102568423D01*
X168198354Y-102559090D01*
X168230356Y-102576195D01*
X168375154Y-102720993D01*
X168578137Y-102923976D01*
X168599411Y-102936257D01*
X168614987Y-102945250D01*
X168614988Y-102945251D01*
X168641963Y-102960825D01*
X168713144Y-102979899D01*
X168713150Y-102979900D01*
X171836850Y-102979900D01*
X171836855Y-102979899D01*
X171858002Y-102974232D01*
X171908037Y-102960825D01*
X171971862Y-102923976D01*
X172460807Y-102435031D01*
X172505000Y-102416726D01*
X172549194Y-102435032D01*
X172567500Y-102479226D01*
X172567500Y-102594944D01*
X172579248Y-102654010D01*
X172579249Y-102654012D01*
X172624006Y-102720994D01*
X172690988Y-102765751D01*
X172750056Y-102777500D01*
X173940965Y-102777500D01*
X173957145Y-102779631D01*
X173958146Y-102779899D01*
X173958150Y-102779900D01*
X175858174Y-102779900D01*
X175902368Y-102798206D01*
X177001794Y-103897632D01*
X177020100Y-103941826D01*
X177020100Y-106630550D01*
X177015160Y-106654902D01*
X177015097Y-106655051D01*
X176804614Y-107152558D01*
X176727701Y-107334352D01*
X176693623Y-107367921D01*
X176677440Y-107371076D01*
X176677558Y-107372045D01*
X176673805Y-107372500D01*
X176525850Y-107408968D01*
X176390921Y-107479783D01*
X176276861Y-107580832D01*
X176276857Y-107580836D01*
X176190296Y-107706240D01*
X176136258Y-107848729D01*
X176136257Y-107848733D01*
X176117891Y-107999996D01*
X176117891Y-108000003D01*
X176136257Y-108151266D01*
X176136258Y-108151270D01*
X176136258Y-108151271D01*
X176136259Y-108151274D01*
X176163074Y-108221979D01*
X176190296Y-108293759D01*
X176276857Y-108419163D01*
X176276860Y-108419166D01*
X176390921Y-108520216D01*
X176525851Y-108591032D01*
X176673808Y-108627500D01*
X176673810Y-108627500D01*
X176826190Y-108627500D01*
X176826192Y-108627500D01*
X176974149Y-108591032D01*
X177109079Y-108520216D01*
X177223140Y-108419166D01*
X177309705Y-108293756D01*
X177363741Y-108151274D01*
X177382109Y-108000000D01*
X177373670Y-107930502D01*
X177363742Y-107848733D01*
X177363741Y-107848729D01*
X177363741Y-107848726D01*
X177309705Y-107706244D01*
X177247669Y-107616371D01*
X177237630Y-107569603D01*
X177241543Y-107556522D01*
X177549543Y-106828524D01*
X177552966Y-106821647D01*
X177560825Y-106808037D01*
X177564217Y-106795374D01*
X177567024Y-106787205D01*
X177572137Y-106775123D01*
X177574305Y-106759553D01*
X177575832Y-106752028D01*
X177579900Y-106736850D01*
X177579900Y-106723737D01*
X177580498Y-106715112D01*
X177582307Y-106702130D01*
X177580375Y-106686547D01*
X177579900Y-106678857D01*
X177579900Y-103763150D01*
X177579899Y-103763144D01*
X177569763Y-103725319D01*
X177560825Y-103691963D01*
X177523976Y-103628138D01*
X177471862Y-103576024D01*
X176171862Y-102276024D01*
X176147906Y-102262193D01*
X176108042Y-102239177D01*
X176108034Y-102239174D01*
X176036855Y-102220100D01*
X176036850Y-102220100D01*
X175473762Y-102220100D01*
X175429568Y-102201794D01*
X175411262Y-102157600D01*
X175412463Y-102145408D01*
X175420163Y-102106694D01*
X175422500Y-102094944D01*
X175422500Y-101905056D01*
X175410751Y-101845988D01*
X175365994Y-101779006D01*
X175299012Y-101734249D01*
X175299010Y-101734248D01*
X175239944Y-101722500D01*
X174049035Y-101722500D01*
X174032855Y-101720369D01*
X174031853Y-101720100D01*
X174031850Y-101720100D01*
X173062500Y-101720100D01*
X173018306Y-101701794D01*
X173000000Y-101657600D01*
X173000000Y-101340000D01*
X173018306Y-101295806D01*
X173062500Y-101277500D01*
X175239943Y-101277500D01*
X175239944Y-101277500D01*
X175299012Y-101265751D01*
X175365994Y-101220994D01*
X175410751Y-101154012D01*
X175422500Y-101094944D01*
X175422500Y-100905056D01*
X175410751Y-100845988D01*
X175369815Y-100784724D01*
X175360482Y-100737808D01*
X175369815Y-100715276D01*
X175378400Y-100702427D01*
X175410751Y-100654012D01*
X175422500Y-100594944D01*
X175422500Y-100405056D01*
X175410751Y-100345988D01*
X175369815Y-100284724D01*
X175360482Y-100237808D01*
X175369815Y-100215276D01*
X175378400Y-100202427D01*
X175410751Y-100154012D01*
X175422500Y-100094944D01*
X175422500Y-99905056D01*
X175410751Y-99845988D01*
X175369815Y-99784724D01*
X175360482Y-99737808D01*
X175369815Y-99715276D01*
X175378400Y-99702427D01*
X175410751Y-99654012D01*
X175422500Y-99594944D01*
X175422500Y-99405056D01*
X175410751Y-99345988D01*
X175369815Y-99284724D01*
X175360482Y-99237808D01*
X175369815Y-99215276D01*
X175378400Y-99202427D01*
X175410751Y-99154012D01*
X175422500Y-99094944D01*
X175422500Y-98905056D01*
X175410751Y-98845988D01*
X175365994Y-98779006D01*
X175299012Y-98734249D01*
X175299010Y-98734248D01*
X175239944Y-98722500D01*
X173062500Y-98722500D01*
X173018306Y-98704194D01*
X173000000Y-98660000D01*
X173000000Y-98340000D01*
X173018306Y-98295806D01*
X173062500Y-98277500D01*
X175239943Y-98277500D01*
X175239944Y-98277500D01*
X175299012Y-98265751D01*
X175365994Y-98220994D01*
X175410751Y-98154012D01*
X175422500Y-98094944D01*
X175422500Y-97905056D01*
X175410751Y-97845988D01*
X175369815Y-97784724D01*
X175360482Y-97737808D01*
X175369815Y-97715276D01*
X175378400Y-97702427D01*
X175410751Y-97654012D01*
X175422500Y-97594944D01*
X175422500Y-97405056D01*
X175410751Y-97345988D01*
X175365994Y-97279006D01*
X175299012Y-97234249D01*
X175299010Y-97234248D01*
X175239944Y-97222500D01*
X173062500Y-97222500D01*
X173018306Y-97204194D01*
X173000000Y-97160000D01*
X173000000Y-96840000D01*
X173018306Y-96795806D01*
X173062500Y-96777500D01*
X175239943Y-96777500D01*
X175239944Y-96777500D01*
X175299012Y-96765751D01*
X175365994Y-96720994D01*
X175410751Y-96654012D01*
X175422500Y-96594944D01*
X175422500Y-96405056D01*
X175410751Y-96345988D01*
X175369815Y-96284724D01*
X175360482Y-96237808D01*
X175369815Y-96215276D01*
X175378400Y-96202427D01*
X175410751Y-96154012D01*
X175422500Y-96094944D01*
X175422500Y-95905056D01*
X175410751Y-95845988D01*
X175365994Y-95779006D01*
X175299012Y-95734249D01*
X175299010Y-95734248D01*
X175239944Y-95722500D01*
X173062500Y-95722500D01*
X173018306Y-95704194D01*
X173000000Y-95660000D01*
X173000000Y-95340000D01*
X173018306Y-95295806D01*
X173062500Y-95277500D01*
X175239943Y-95277500D01*
X175239944Y-95277500D01*
X175299012Y-95265751D01*
X175365994Y-95220994D01*
X175410751Y-95154012D01*
X175422500Y-95094944D01*
X175422500Y-94905056D01*
X175410751Y-94845988D01*
X175369815Y-94784724D01*
X175360482Y-94737808D01*
X175369815Y-94715276D01*
X175378400Y-94702427D01*
X175410751Y-94654012D01*
X175422500Y-94594944D01*
X175422500Y-94405056D01*
X175410751Y-94345988D01*
X175365994Y-94279006D01*
X175299012Y-94234249D01*
X175299010Y-94234248D01*
X175239944Y-94222500D01*
X173062500Y-94222500D01*
X173018306Y-94204194D01*
X173000000Y-94160000D01*
X173000000Y-93900000D01*
X172984194Y-93884194D01*
X172965888Y-93840000D01*
X172984194Y-93795806D01*
X173028388Y-93777500D01*
X175239943Y-93777500D01*
X175239944Y-93777500D01*
X175299012Y-93765751D01*
X175365994Y-93720994D01*
X175410751Y-93654012D01*
X175422500Y-93594944D01*
X175422500Y-93405056D01*
X175410751Y-93345988D01*
X175365994Y-93279006D01*
X175299012Y-93234249D01*
X175299010Y-93234248D01*
X175239944Y-93222500D01*
X172750056Y-93222500D01*
X172750055Y-93222500D01*
X172690989Y-93234248D01*
X172690988Y-93234249D01*
X172624004Y-93279007D01*
X172622523Y-93281224D01*
X172620305Y-93282705D01*
X172619653Y-93283358D01*
X172619523Y-93283228D01*
X172582749Y-93307799D01*
X172570557Y-93309000D01*
X172562185Y-93309000D01*
X172491985Y-93338077D01*
X172491982Y-93338079D01*
X172093368Y-93736694D01*
X172049174Y-93755000D01*
X171305003Y-93755000D01*
X171260809Y-93736694D01*
X171162194Y-93638079D01*
X171162193Y-93638078D01*
X171091992Y-93609000D01*
X171091991Y-93609000D01*
X171056135Y-93609000D01*
X171021413Y-93598467D01*
X170961634Y-93558524D01*
X170961633Y-93558523D01*
X170906212Y-93547500D01*
X170704334Y-93547500D01*
X170692141Y-93546299D01*
X170688124Y-93545500D01*
X170688123Y-93545500D01*
X169811877Y-93545500D01*
X169811876Y-93545500D01*
X169807859Y-93546299D01*
X169795666Y-93547500D01*
X169593788Y-93547500D01*
X169538367Y-93558523D01*
X169538366Y-93558524D01*
X169478586Y-93598467D01*
X169443865Y-93609000D01*
X169408008Y-93609000D01*
X169337808Y-93638077D01*
X169337805Y-93638079D01*
X169239191Y-93736694D01*
X169194997Y-93755000D01*
X168428555Y-93755000D01*
X168384361Y-93736694D01*
X168145806Y-93498139D01*
X168127500Y-93453945D01*
X168127500Y-93405057D01*
X168127500Y-93405056D01*
X168115751Y-93345988D01*
X168070994Y-93279006D01*
X168004012Y-93234249D01*
X168004010Y-93234248D01*
X167944944Y-93222500D01*
X167055056Y-93222500D01*
X167055055Y-93222500D01*
X166995989Y-93234248D01*
X166995988Y-93234249D01*
X166929006Y-93279006D01*
X166884249Y-93345988D01*
X166884248Y-93345989D01*
X166872500Y-93405055D01*
X166872500Y-93594944D01*
X166884248Y-93654010D01*
X166884249Y-93654012D01*
X166929006Y-93720994D01*
X166995988Y-93765751D01*
X167055056Y-93777500D01*
X167171612Y-93777500D01*
X167215806Y-93795806D01*
X167234112Y-93840000D01*
X167215806Y-93884194D01*
X167200000Y-93900000D01*
X167200000Y-94160000D01*
X167181694Y-94204194D01*
X167137500Y-94222500D01*
X167055055Y-94222500D01*
X166995989Y-94234248D01*
X166995988Y-94234249D01*
X166929006Y-94279006D01*
X166884249Y-94345988D01*
X166884248Y-94345989D01*
X166872500Y-94405055D01*
X166872500Y-94594944D01*
X166884248Y-94654010D01*
X166884250Y-94654014D01*
X166925185Y-94715277D01*
X166934517Y-94762193D01*
X166925185Y-94784723D01*
X166884250Y-94845985D01*
X166884248Y-94845989D01*
X166872500Y-94905055D01*
X166872500Y-95094944D01*
X166884248Y-95154010D01*
X166884249Y-95154012D01*
X166929006Y-95220994D01*
X166995988Y-95265751D01*
X167055056Y-95277500D01*
X167137500Y-95277500D01*
X167181694Y-95295806D01*
X167200000Y-95340000D01*
X167200000Y-95660000D01*
X167181694Y-95704194D01*
X167137500Y-95722500D01*
X167055055Y-95722500D01*
X166995989Y-95734248D01*
X166995988Y-95734249D01*
X166929006Y-95779006D01*
X166884249Y-95845988D01*
X166884248Y-95845989D01*
X166872500Y-95905055D01*
X166872500Y-96094944D01*
X166884248Y-96154010D01*
X166884250Y-96154014D01*
X166925185Y-96215277D01*
X166934517Y-96262193D01*
X166925185Y-96284723D01*
X166884250Y-96345985D01*
X166884248Y-96345989D01*
X166872500Y-96405055D01*
X166872500Y-96594944D01*
X166884248Y-96654010D01*
X166884249Y-96654012D01*
X166929006Y-96720994D01*
X166995988Y-96765751D01*
X167055056Y-96777500D01*
X167137500Y-96777500D01*
X167181694Y-96795806D01*
X167200000Y-96840000D01*
X167200000Y-97160000D01*
X167181694Y-97204194D01*
X167137500Y-97222500D01*
X167055055Y-97222500D01*
X166995989Y-97234248D01*
X166995988Y-97234249D01*
X166929006Y-97279006D01*
X166884249Y-97345988D01*
X166884248Y-97345989D01*
X166872500Y-97405055D01*
X166872500Y-97594944D01*
X166884248Y-97654010D01*
X166884250Y-97654014D01*
X166925185Y-97715277D01*
X166934517Y-97762193D01*
X166925185Y-97784723D01*
X166884250Y-97845985D01*
X166884248Y-97845989D01*
X166872500Y-97905055D01*
X166872500Y-98094944D01*
X166884248Y-98154010D01*
X166884249Y-98154012D01*
X166929006Y-98220994D01*
X166995988Y-98265751D01*
X167055056Y-98277500D01*
X167137500Y-98277500D01*
X167181694Y-98295806D01*
X167200000Y-98340000D01*
X167200000Y-98660000D01*
X167181694Y-98704194D01*
X167137500Y-98722500D01*
X167055055Y-98722500D01*
X166995989Y-98734248D01*
X166995988Y-98734249D01*
X166929006Y-98779006D01*
X166884249Y-98845988D01*
X166884248Y-98845989D01*
X166872500Y-98905055D01*
X166872500Y-99094944D01*
X166884248Y-99154010D01*
X166884250Y-99154014D01*
X166925185Y-99215277D01*
X166934517Y-99262193D01*
X166925185Y-99284723D01*
X166884250Y-99345985D01*
X166884248Y-99345989D01*
X166872500Y-99405055D01*
X166872500Y-99594944D01*
X166884248Y-99654010D01*
X166884250Y-99654014D01*
X166925185Y-99715277D01*
X166934517Y-99762193D01*
X166925185Y-99784723D01*
X166884250Y-99845985D01*
X166884248Y-99845989D01*
X166872500Y-99905055D01*
X166872500Y-100094944D01*
X166884248Y-100154010D01*
X166884250Y-100154014D01*
X166925185Y-100215277D01*
X166934517Y-100262193D01*
X166925185Y-100284723D01*
X166884250Y-100345985D01*
X166884248Y-100345989D01*
X166872500Y-100405055D01*
X166872500Y-100594944D01*
X166884248Y-100654010D01*
X166884250Y-100654014D01*
X166925185Y-100715277D01*
X166934517Y-100762193D01*
X166925185Y-100784723D01*
X166884250Y-100845985D01*
X166884248Y-100845989D01*
X166872500Y-100905055D01*
X166872500Y-101094944D01*
X166884248Y-101154010D01*
X166884249Y-101154012D01*
X166929006Y-101220994D01*
X166995988Y-101265751D01*
X167055056Y-101277500D01*
X167137500Y-101277500D01*
X167181694Y-101295806D01*
X167200000Y-101340000D01*
X167200000Y-101660000D01*
X167181694Y-101704194D01*
X167137500Y-101722500D01*
X167055055Y-101722500D01*
X166995989Y-101734248D01*
X166995988Y-101734249D01*
X166929006Y-101779006D01*
X166884249Y-101845988D01*
X166884248Y-101845989D01*
X166872500Y-101905055D01*
X166872500Y-102094944D01*
X166884248Y-102154010D01*
X166884250Y-102154014D01*
X166925185Y-102215277D01*
X166934517Y-102262193D01*
X166925185Y-102284723D01*
X166884250Y-102345985D01*
X166884248Y-102345989D01*
X166872500Y-102405055D01*
X166872500Y-102594944D01*
X163754500Y-102594944D01*
X163754500Y-90606284D01*
X168899500Y-90606284D01*
X168899501Y-90606300D01*
X168932753Y-90816240D01*
X168932753Y-90816241D01*
X168998442Y-91018410D01*
X168998446Y-91018418D01*
X169094949Y-91207817D01*
X169219897Y-91379794D01*
X169370205Y-91530102D01*
X169542182Y-91655050D01*
X169542184Y-91655051D01*
X169731588Y-91751557D01*
X169933757Y-91817246D01*
X170022244Y-91831261D01*
X170143699Y-91850498D01*
X170143705Y-91850498D01*
X170143713Y-91850500D01*
X170143715Y-91850500D01*
X170356285Y-91850500D01*
X170356287Y-91850500D01*
X170566243Y-91817246D01*
X170768412Y-91751557D01*
X170957816Y-91655051D01*
X171129792Y-91530104D01*
X171280104Y-91379792D01*
X171405051Y-91207816D01*
X171501557Y-91018412D01*
X171567246Y-90816243D01*
X171600500Y-90606287D01*
X171600500Y-90393713D01*
X171567246Y-90183757D01*
X171501557Y-89981588D01*
X171405051Y-89792184D01*
X171326647Y-89684270D01*
X171280102Y-89620205D01*
X171129794Y-89469897D01*
X170957817Y-89344949D01*
X170768418Y-89248446D01*
X170768410Y-89248442D01*
X170566241Y-89182753D01*
X170356300Y-89149501D01*
X170356288Y-89149500D01*
X170356287Y-89149500D01*
X170143713Y-89149500D01*
X170143711Y-89149500D01*
X170143699Y-89149501D01*
X169933759Y-89182753D01*
X169933758Y-89182753D01*
X169731589Y-89248442D01*
X169731581Y-89248446D01*
X169542182Y-89344949D01*
X169370205Y-89469897D01*
X169219897Y-89620205D01*
X169094949Y-89792182D01*
X168998446Y-89981581D01*
X168998442Y-89981589D01*
X168932753Y-90183758D01*
X168932753Y-90183759D01*
X168899501Y-90393699D01*
X168899500Y-90393715D01*
X168899500Y-90606284D01*
X163754500Y-90606284D01*
X163754500Y-90156156D01*
X163755701Y-90143963D01*
X163756919Y-90137838D01*
X163763151Y-90106510D01*
X163772480Y-90083986D01*
X163790209Y-90057452D01*
X163807453Y-90040209D01*
X163833986Y-90022480D01*
X163856510Y-90013151D01*
X163887838Y-90006919D01*
X163893963Y-90005701D01*
X163906156Y-90004500D01*
X163944875Y-90004500D01*
X166945320Y-90004500D01*
X166945340Y-90004501D01*
X166951289Y-90004501D01*
X166951291Y-90004502D01*
X166970287Y-90004501D01*
X166970332Y-90004519D01*
X166996166Y-90004501D01*
X166996166Y-90004502D01*
X166998981Y-90004500D01*
X167046779Y-90004500D01*
X167052865Y-90004500D01*
X167053248Y-90004460D01*
X167112982Y-90004419D01*
X167344295Y-89971582D01*
X167344299Y-89971580D01*
X167344303Y-89971580D01*
X167479317Y-89932465D01*
X167568700Y-89906570D01*
X167781743Y-89810673D01*
X167979199Y-89685793D01*
X168157150Y-89534407D01*
X168312064Y-89359520D01*
X168348549Y-89304385D01*
X168348798Y-89304074D01*
X168351795Y-89299537D01*
X168351798Y-89299536D01*
X168375487Y-89263686D01*
X168377661Y-89260602D01*
X168461125Y-89149500D01*
X168537084Y-89048387D01*
X168541967Y-89042646D01*
X168724486Y-88852558D01*
X168730019Y-88847451D01*
X168934121Y-88680734D01*
X168940211Y-88676345D01*
X169162922Y-88535433D01*
X169169509Y-88531803D01*
X169407561Y-88418762D01*
X169414557Y-88415944D01*
X169664490Y-88332411D01*
X169671763Y-88330460D01*
X169929943Y-88277654D01*
X169937398Y-88276593D01*
X170200068Y-88255280D01*
X170207593Y-88255126D01*
X170470901Y-88265619D01*
X170478402Y-88266372D01*
X170740073Y-88308767D01*
X170743741Y-88309476D01*
X170897329Y-88344010D01*
X171212260Y-88387236D01*
X171529717Y-88403689D01*
X171847429Y-88393251D01*
X172163122Y-88355997D01*
X172474536Y-88292194D01*
X172596952Y-88256083D01*
X172596954Y-88256083D01*
X172636138Y-88244526D01*
X175649215Y-87356284D01*
X180399500Y-87356284D01*
X180399501Y-87356300D01*
X180432753Y-87566240D01*
X180432753Y-87566241D01*
X180498442Y-87768410D01*
X180498446Y-87768418D01*
X180594949Y-87957817D01*
X180719897Y-88129794D01*
X180870205Y-88280102D01*
X181042182Y-88405050D01*
X181042184Y-88405051D01*
X181231588Y-88501557D01*
X181433757Y-88567246D01*
X181522244Y-88581261D01*
X181643699Y-88600498D01*
X181643705Y-88600498D01*
X181643713Y-88600500D01*
X181643715Y-88600500D01*
X181856285Y-88600500D01*
X181856287Y-88600500D01*
X182066243Y-88567246D01*
X182268412Y-88501557D01*
X182457816Y-88405051D01*
X182629792Y-88280104D01*
X182780104Y-88129792D01*
X182905051Y-87957816D01*
X183001557Y-87768412D01*
X183067246Y-87566243D01*
X183100500Y-87356287D01*
X183100500Y-87143713D01*
X183067246Y-86933757D01*
X183001557Y-86731588D01*
X182905051Y-86542184D01*
X182846201Y-86461184D01*
X182780102Y-86370205D01*
X182629794Y-86219897D01*
X182457817Y-86094949D01*
X182268418Y-85998446D01*
X182268410Y-85998442D01*
X182066241Y-85932753D01*
X181856300Y-85899501D01*
X181856288Y-85899500D01*
X181856287Y-85899500D01*
X181643713Y-85899500D01*
X181643711Y-85899500D01*
X181643699Y-85899501D01*
X181433759Y-85932753D01*
X181433758Y-85932753D01*
X181231589Y-85998442D01*
X181231581Y-85998446D01*
X181042182Y-86094949D01*
X180870205Y-86219897D01*
X180719897Y-86370205D01*
X180594949Y-86542182D01*
X180498446Y-86731581D01*
X180498442Y-86731589D01*
X180432753Y-86933758D01*
X180432753Y-86933759D01*
X180399501Y-87143699D01*
X180399500Y-87143715D01*
X180399500Y-87356284D01*
X175649215Y-87356284D01*
X177822917Y-86715486D01*
X177822925Y-86715486D01*
X177832108Y-86712778D01*
X177832109Y-86712779D01*
X177850923Y-86707232D01*
X177850957Y-86707235D01*
X177875156Y-86700100D01*
X177875157Y-86700101D01*
X178103528Y-86632773D01*
X178551754Y-86472021D01*
X178989968Y-86285701D01*
X179416715Y-86074433D01*
X179830575Y-85838919D01*
X180230172Y-85579942D01*
X180381085Y-85469285D01*
X180381099Y-85469277D01*
X180387693Y-85464441D01*
X180420643Y-85440280D01*
X180423772Y-85438130D01*
X180650024Y-85292632D01*
X180656674Y-85288909D01*
X180897272Y-85172960D01*
X180904335Y-85170074D01*
X181157280Y-85084377D01*
X181164643Y-85082375D01*
X181426172Y-85028205D01*
X181433705Y-85027120D01*
X181699887Y-85005289D01*
X181707520Y-85005132D01*
X181974384Y-85015970D01*
G37*
%TD.AperFunction*%
%TD*%
M02*
