M48
; DRILL file {KiCad 8.99.0-344-gfbc433deaa} date 2024-04-11T02:15:18-0400
; FORMAT={-:-/ absolute / inch / decimal}
; #@! TF.CreationDate,2024-04-11T02:15:18-04:00
; #@! TF.GenerationSoftware,Kicad,Pcbnew,8.99.0-344-gfbc433deaa
; #@! TF.FileFunction,Plated,1,2,PTH
FMAT,2
INCH
; #@! TA.AperFunction,Plated,PTH,ViaDrill
T1C0.0118
; #@! TA.AperFunction,Plated,PTH,ComponentDrill
T2C0.0354
%
G90
G05
T1
X6.4894Y-3.9339
X6.4902Y-3.7315
X6.4902Y-3.8319
X6.5169Y-4.0453
X6.5394Y-3.5602
X6.5406Y-4.139
X6.5429Y-3.6394
X6.5591Y-3.7008
X6.5591Y-3.7598
X6.5591Y-3.8189
X6.5591Y-3.878
X6.5591Y-3.9961
X6.6228Y-4.087
X6.6331Y-3.6197
X6.6575Y-3.7323
X6.6575Y-3.8543
X6.6575Y-3.9764
X6.748Y-3.7323
X6.748Y-3.8543
X6.748Y-3.9764
X6.7756Y-3.6126
X6.7768Y-4.0909
X6.7803Y-3.5023
X6.8138Y-4.2094
X6.8697Y-3.637
X6.9071Y-4.072
X6.9173Y-3.7008
X6.9173Y-3.7598
X6.9173Y-3.8189
X6.9173Y-3.878
X6.9173Y-3.9961
X6.9476Y-3.5197
X7.0232Y-4.2791
X7.0339Y-3.4965
X7.0434Y-3.4191
X7.048Y-4.1835
X7.0484Y-3.798
X7.0535Y-3.9862
X7.0551Y-3.6122
X7.2114Y-3.6878
X7.2118Y-3.8933
X7.215Y-4.211
X7.2169Y-3.4976
X7.2177Y-4.1142
T2
X6.8447Y-3.5728G85X6.9156Y-3.5728
G05
X6.8447Y-4.1437G85X6.9156Y-4.1437
G05
X7.099Y-3.5728G85X7.1305Y-3.5728
G05
X7.099Y-4.1437G85X7.1305Y-4.1437
G05
M30
